<svg width="36" height="42" viewBox="0 0 36 42" fill="none" xmlns="http://www.w3.org/2000/svg">
<path d="M7.66499 20.2345V19.6345C7.50537 19.6345 7.35232 19.6981 7.23972 19.8112C7.12712 19.9243 7.06424 20.0777 7.065 20.2373L7.66499 20.2345ZM22.8877 15.6032H23.4877C23.4877 15.3006 23.2624 15.0454 22.9622 15.0078L22.8877 15.6032ZM7.67506 15.6837L7.59659 15.0889C7.29813 15.1283 7.07506 15.3827 7.07506 15.6837H7.67506ZM7.67506 20.2345V20.8345C8.00643 20.8345 8.27506 20.5658 8.27506 20.2345H7.67506ZM7.0313 15.5146C6.98237 15.8424 7.20839 16.1477 7.53613 16.1966C7.86387 16.2456 8.16922 16.0195 8.21814 15.6918L7.0313 15.5146ZM8.35968 10.68L8.9531 10.7686C8.99018 10.5202 8.86868 10.275 8.64861 10.1541L8.35968 10.68ZM8.67179 3.21962L8.90955 3.77052L8.9144 3.76838L8.67179 3.21962ZM11.6922 3.08873L11.5007 3.65736C11.7525 3.74213 12.03 3.65127 12.1829 3.43403L11.6922 3.08873ZM13.1621 1.78997L13.4378 2.32295L13.4449 2.31913L13.1621 1.78997ZM18.4377 3.08873L17.9428 3.42787C18.0956 3.65098 18.3789 3.74424 18.6344 3.65559L18.4377 3.08873ZM23.8744 8.38448L24.4413 8.58115L24.443 8.57596L23.8744 8.38448ZM22.1931 10.69L21.798 10.2385C21.6442 10.373 21.5695 10.5766 21.5996 10.7786L22.1931 10.69ZM22.3346 15.7019C22.3835 16.0296 22.6889 16.2556 23.0166 16.2067C23.3443 16.1578 23.5704 15.8524 23.5214 15.5247L22.3346 15.7019ZM6.84949 17.2745L6.72202 16.6882L6.71651 16.6894L6.84949 17.2745ZM6.22527 17.5564L5.86935 17.0734L5.86307 17.078L5.85691 17.0828L6.22527 17.5564ZM5.77221 19.4089L5.22493 19.6552L5.2305 19.6669L5.77221 19.4089ZM23.6932 17.2745L23.8262 16.6894L23.8206 16.6882L23.6932 17.2745ZM24.3174 17.5564L24.6858 17.0828L24.6796 17.078L24.6733 17.0734L24.3174 17.5564ZM24.7705 19.4089L25.3123 19.6669L25.3176 19.6551L24.7705 19.4089ZM16.6277 23.7275C16.9165 23.565 17.0189 23.1992 16.8564 22.9104C16.694 22.6215 16.3282 22.5191 16.0393 22.6816L16.6277 23.7275ZM14.5134 22.6816C14.2246 22.5191 13.8587 22.6215 13.6963 22.9104C13.5338 23.1992 13.6363 23.565 13.9251 23.7275L14.5134 22.6816ZM12.4231 18.7646C12.4231 18.4332 12.1544 18.1646 11.8231 18.1646C11.4917 18.1646 11.2231 18.4332 11.2231 18.7646H12.4231ZM11.2231 19.9828C11.2231 20.3141 11.4917 20.5828 11.8231 20.5828C12.1544 20.5828 12.4231 20.3141 12.4231 19.9828H11.2231ZM28.4915 23.3354C28.4915 23.004 28.2229 22.7354 27.8915 22.7354C27.5602 22.7354 27.2915 23.004 27.2915 23.3354H28.4915ZM27.2915 26.7182C27.2915 27.0496 27.5602 27.3182 27.8915 27.3182C28.2229 27.3182 28.4915 27.0496 28.4915 26.7182H27.2915ZM30.8474 23.3354C30.8474 23.004 30.5788 22.7354 30.2474 22.7354C29.9161 22.7354 29.6474 23.004 29.6474 23.3354H30.8474ZM29.6474 26.7182C29.6474 27.0496 29.9161 27.3182 30.2474 27.3182C30.5788 27.3182 30.8474 27.0496 30.8474 26.7182H29.6474ZM33.2235 23.3354C33.2235 23.004 32.9548 22.7354 32.6235 22.7354C32.2921 22.7354 32.0235 23.004 32.0235 23.3354H33.2235ZM32.0235 26.7182C32.0235 27.0496 32.2921 27.3182 32.6235 27.3182C32.9548 27.3182 33.2235 27.0496 33.2235 26.7182H32.0235ZM19.38 18.7646C19.38 18.4332 19.1114 18.1646 18.78 18.1646C18.4486 18.1646 18.18 18.4332 18.18 18.7646H19.38ZM18.18 19.9828C18.18 20.3141 18.4486 20.5828 18.78 20.5828C19.1114 20.5828 19.38 20.3141 19.38 19.9828H18.18ZM27.7808 41.7456C28.1121 41.7456 28.3808 41.477 28.3808 41.1456C28.3808 40.8142 28.1121 40.5456 27.7808 40.5456V41.7456ZM1 41.1456H0.4V41.7456H1V41.1456ZM4.29222 31.2589L4.09331 30.6928L4.09298 30.6929L4.29222 31.2589ZM11.1686 28.8426L11.3676 29.4087L11.3761 29.4056L11.1686 28.8426ZM11.6116 28.4499L11.0806 28.1704L11.075 28.1816L11.6116 28.4499ZM12.5453 27.9642C12.6996 27.671 12.587 27.3081 12.2938 27.1538C12.0006 26.9995 11.6377 27.1121 11.4834 27.4053L12.5453 27.9642ZM19.311 27.4053C19.1566 27.1121 18.7938 26.9995 18.5006 27.1538C18.2073 27.3081 18.0947 27.671 18.2491 27.9642L19.311 27.4053ZM19.1827 28.4499L19.7195 28.1815L19.7137 28.1705L19.1827 28.4499ZM19.6358 28.8426L19.4376 29.4089L19.4385 29.4092L19.6358 28.8426ZM26.6028 31.2689L26.4055 31.8356L26.4075 31.8363L26.6028 31.2689ZM27.8495 32.6775C28.0992 32.8954 28.4782 32.8695 28.696 32.6198C28.9139 32.3701 28.888 31.9911 28.6383 31.7733L27.8495 32.6775ZM20.671 29.7659C20.9696 29.6223 21.0954 29.2638 20.9518 28.9652C20.8082 28.6665 20.4497 28.5408 20.1511 28.6844L20.671 29.7659ZM13.3534 32.6181L13.6109 33.16L13.6134 33.1588L13.3534 32.6181ZM11.1022 41.3168C11.1022 41.6481 11.3709 41.9168 11.7022 41.9168C12.0336 41.9168 12.3022 41.6481 12.3022 41.3168H11.1022ZM10.7449 29.1188C10.4804 28.9192 10.1042 28.9717 9.9045 29.2361C9.70483 29.5006 9.75734 29.8768 10.0218 30.0765L10.7449 29.1188ZM13.5154 32.7143C13.7798 32.914 14.1561 32.8615 14.3558 32.597C14.5554 32.3326 14.5029 31.9563 14.2385 31.7566L13.5154 32.7143ZM15.816 8.50529C15.816 8.17392 15.5473 7.90529 15.216 7.90529C14.8846 7.90529 14.616 8.17392 14.616 8.50529H15.816ZM14.616 11.5156C14.616 11.847 14.8846 12.1156 15.216 12.1156C15.5473 12.1156 15.816 11.847 15.816 11.5156H14.616ZM7.63071 37.199C7.63071 36.8676 7.36208 36.599 7.03071 36.599C6.69934 36.599 6.43071 36.8676 6.43071 37.199H7.63071ZM6.43071 40.8939C6.43071 41.2253 6.69934 41.4939 7.03071 41.4939C7.36208 41.4939 7.63071 41.2253 7.63071 40.8939H6.43071ZM11.9881 8.41125C11.8528 8.10877 11.4979 7.97329 11.1954 8.10863C10.8929 8.24398 10.7575 8.5989 10.8928 8.90137L11.9881 8.41125ZM12.2218 11.8714C12.3571 12.1739 12.712 12.3094 13.0145 12.174C13.317 12.0387 13.4525 11.6838 13.3171 11.3813L12.2218 11.8714ZM19.3277 8.90137C19.463 8.5989 19.3276 8.24398 19.0251 8.10863C18.7226 7.97329 18.3677 8.10877 18.2324 8.41125L19.3277 8.90137ZM16.9034 11.3813C16.768 11.6838 16.9035 12.0387 17.206 12.174C17.5085 12.3094 17.8634 12.1739 17.9987 11.8714L16.9034 11.3813ZM7.06499 20.1942C7.06499 20.1942 7.06499 20.1942 7.06499 20.1942C7.06499 20.1943 7.06499 20.1943 7.06499 20.1943C7.06499 20.1943 7.06499 20.1943 7.06499 20.1944C7.06499 20.1944 7.06499 20.1944 7.06499 20.1944C7.06499 20.1944 7.06499 20.1945 7.06499 20.1945C7.06499 20.1945 7.06499 20.1945 7.06499 20.1945C7.06499 20.1946 7.06499 20.1946 7.06499 20.1946C7.06499 20.1946 7.06499 20.1946 7.06499 20.1947C7.06499 20.1947 7.06499 20.1947 7.06499 20.1947C7.06499 20.1947 7.06499 20.1948 7.06499 20.1948C7.06499 20.1948 7.06499 20.1948 7.06499 20.1948C7.06499 20.1949 7.06499 20.1949 7.06499 20.1949C7.06499 20.1949 7.06499 20.1949 7.06499 20.195C7.06499 20.195 7.06499 20.195 7.06499 20.195C7.06499 20.195 7.06499 20.1951 7.06499 20.1951C7.06499 20.1951 7.06499 20.1951 7.06499 20.1951C7.06499 20.1952 7.06499 20.1952 7.06499 20.1952C7.06499 20.1952 7.06499 20.1952 7.06499 20.1952C7.06499 20.1953 7.06499 20.1953 7.06499 20.1953C7.06499 20.1953 7.06499 20.1953 7.06499 20.1954C7.06499 20.1954 7.06499 20.1954 7.06499 20.1954C7.06499 20.1954 7.06499 20.1955 7.06499 20.1955C7.06499 20.1955 7.06499 20.1955 7.06499 20.1955C7.06499 20.1956 7.06499 20.1956 7.06499 20.1956C7.06499 20.1956 7.06499 20.1956 7.06499 20.1957C7.06499 20.1957 7.06499 20.1957 7.06499 20.1957C7.06499 20.1957 7.06499 20.1958 7.06499 20.1958C7.06499 20.1958 7.06499 20.1958 7.06499 20.1958C7.06499 20.1959 7.06499 20.1959 7.06499 20.1959C7.06499 20.1959 7.06499 20.1959 7.06499 20.196C7.06499 20.196 7.06499 20.196 7.06499 20.196C7.06499 20.196 7.06499 20.1961 7.06499 20.1961C7.06499 20.1961 7.06499 20.1961 7.06499 20.1961C7.06499 20.1962 7.06499 20.1962 7.06499 20.1962C7.06499 20.1962 7.06499 20.1962 7.06499 20.1963C7.06499 20.1963 7.06499 20.1963 7.06499 20.1963C7.06499 20.1963 7.06499 20.1964 7.06499 20.1964C7.06499 20.1964 7.06499 20.1964 7.06499 20.1964C7.06499 20.1964 7.06499 20.1965 7.06499 20.1965C7.06499 20.1965 7.06499 20.1965 7.06499 20.1965C7.06499 20.1966 7.06499 20.1966 7.06499 20.1966C7.06499 20.1966 7.06499 20.1966 7.06499 20.1967C7.06499 20.1967 7.06499 20.1967 7.06499 20.1967C7.06499 20.1967 7.06499 20.1968 7.06499 20.1968C7.06499 20.1968 7.06499 20.1968 7.06499 20.1968C7.06499 20.1969 7.06499 20.1969 7.06499 20.1969C7.06499 20.1969 7.06499 20.1969 7.06499 20.197C7.06499 20.197 7.06499 20.197 7.06499 20.197C7.06499 20.197 7.06499 20.1971 7.06499 20.1971C7.06499 20.1971 7.06499 20.1971 7.06499 20.1971C7.06499 20.1972 7.06499 20.1972 7.06499 20.1972C7.06499 20.1972 7.06499 20.1972 7.06499 20.1973C7.06499 20.1973 7.06499 20.1973 7.06499 20.1973C7.06499 20.1973 7.06499 20.1974 7.06499 20.1974C7.06499 20.1974 7.06499 20.1974 7.06499 20.1974C7.06499 20.1975 7.06499 20.1975 7.06499 20.1975C7.06499 20.1975 7.06499 20.1975 7.06499 20.1975C7.06499 20.1976 7.06499 20.1976 7.06499 20.1976C7.06499 20.1976 7.06499 20.1976 7.06499 20.1977C7.06499 20.1977 7.06499 20.1977 7.06499 20.1977C7.06499 20.1977 7.06499 20.1978 7.06499 20.1978C7.06499 20.1978 7.06499 20.1978 7.06499 20.1978C7.06499 20.1979 7.06499 20.1979 7.06499 20.1979C7.06499 20.1979 7.06499 20.1979 7.06499 20.198C7.06499 20.198 7.06499 20.198 7.06499 20.198C7.06499 20.198 7.06499 20.1981 7.06499 20.1981C7.06499 20.1981 7.06499 20.1981 7.06499 20.1981C7.06499 20.1982 7.06499 20.1982 7.06499 20.1982C7.06499 20.1982 7.06499 20.1982 7.06499 20.1983C7.06499 20.1983 7.06499 20.1983 7.06499 20.1983C7.06499 20.1983 7.06499 20.1984 7.06499 20.1984C7.06499 20.1984 7.06499 20.1984 7.06499 20.1984C7.06499 20.1985 7.06499 20.1985 7.06499 20.1985C7.06499 20.1985 7.06499 20.1985 7.06499 20.1986C7.06499 20.1986 7.06499 20.1986 7.06499 20.1986C7.06499 20.1986 7.06499 20.1987 7.06499 20.1987C7.06499 20.1987 7.06499 20.1987 7.06499 20.1987C7.06499 20.1987 7.06499 20.1988 7.06499 20.1988C7.06499 20.1988 7.06499 20.1988 7.06499 20.1988C7.06499 20.1989 7.06499 20.1989 7.06499 20.1989C7.06499 20.1989 7.06499 20.1989 7.06499 20.199C7.06499 20.199 7.06499 20.199 7.06499 20.199C7.06499 20.199 7.06499 20.1991 7.06499 20.1991C7.06499 20.1991 7.06499 20.1991 7.06499 20.1991C7.06499 20.1992 7.06499 20.1992 7.06499 20.1992C7.06499 20.1992 7.06499 20.1992 7.06499 20.1993C7.06499 20.1993 7.06499 20.1993 7.06499 20.1993C7.06499 20.1993 7.06499 20.1994 7.06499 20.1994C7.06499 20.1994 7.06499 20.1994 7.06499 20.1994C7.06499 20.1995 7.06499 20.1995 7.06499 20.1995C7.06499 20.1995 7.06499 20.1995 7.06499 20.1996C7.06499 20.1996 7.06499 20.1996 7.06499 20.1996C7.06499 20.1996 7.06499 20.1997 7.06499 20.1997C7.06499 20.1997 7.06499 20.1997 7.06499 20.1997C7.06499 20.1998 7.06499 20.1998 7.06499 20.1998C7.06499 20.1998 7.06499 20.1998 7.06499 20.1999C7.06499 20.1999 7.06499 20.1999 7.06499 20.1999C7.06499 20.1999 7.06499 20.1999 7.06499 20.2C7.06499 20.2 7.06499 20.2 7.06499 20.2C7.06499 20.2 7.06499 20.2001 7.06499 20.2001C7.06499 20.2001 7.06499 20.2001 7.06499 20.2001C7.06499 20.2002 7.06499 20.2002 7.06499 20.2002C7.06499 20.2002 7.06499 20.2002 7.06499 20.2003C7.06499 20.2003 7.06499 20.2003 7.06499 20.2003C7.06499 20.2003 7.06499 20.2004 7.06499 20.2004C7.06499 20.2004 7.06499 20.2004 7.06499 20.2004C7.06499 20.2005 7.06499 20.2005 7.06499 20.2005C7.06499 20.2005 7.06499 20.2005 7.06499 20.2006C7.06499 20.2006 7.06499 20.2006 7.06499 20.2006C7.06499 20.2006 7.06499 20.2007 7.06499 20.2007C7.06499 20.2007 7.06499 20.2007 7.06499 20.2007C7.06499 20.2008 7.06499 20.2008 7.06499 20.2008C7.06499 20.2008 7.06499 20.2008 7.06499 20.2009C7.06499 20.2009 7.06499 20.2009 7.06499 20.2009C7.06499 20.2009 7.06499 20.201 7.06499 20.201C7.06499 20.201 7.06499 20.201 7.06499 20.201C7.06499 20.201 7.06499 20.2011 7.06499 20.2011C7.06499 20.2011 7.06499 20.2011 7.06499 20.2011C7.06499 20.2012 7.06499 20.2012 7.06499 20.2012C7.06499 20.2012 7.06499 20.2012 7.06499 20.2013C7.06499 20.2013 7.06499 20.2013 7.06499 20.2013C7.06499 20.2013 7.06499 20.2014 7.06499 20.2014C7.06499 20.2014 7.06499 20.2014 7.06499 20.2014C7.06499 20.2015 7.06499 20.2015 7.06499 20.2015C7.06499 20.2015 7.06499 20.2015 7.06499 20.2016C7.06499 20.2016 7.06499 20.2016 7.06499 20.2016C7.06499 20.2016 7.06499 20.2017 7.06499 20.2017C7.06499 20.2017 7.06499 20.2017 7.06499 20.2017C7.06499 20.2018 7.06499 20.2018 7.06499 20.2018C7.06499 20.2018 7.06499 20.2018 7.06499 20.2019C7.06499 20.2019 7.06499 20.2019 7.06499 20.2019C7.06499 20.2019 7.06499 20.202 7.06499 20.202C7.06499 20.202 7.06499 20.202 7.06499 20.202C7.06499 20.2021 7.06499 20.2021 7.06499 20.2021C7.06499 20.2021 7.06499 20.2021 7.06499 20.2022C7.06499 20.2022 7.06499 20.2022 7.06499 20.2022C7.06499 20.2022 7.06499 20.2022 7.06499 20.2023C7.06499 20.2023 7.06499 20.2023 7.06499 20.2023C7.06499 20.2023 7.06499 20.2024 7.06499 20.2024C7.06499 20.2024 7.06499 20.2024 7.06499 20.2024C7.06499 20.2025 7.06499 20.2025 7.06499 20.2025C7.06499 20.2025 7.06499 20.2025 7.06499 20.2026C7.06499 20.2026 7.06499 20.2026 7.06499 20.2026C7.06499 20.2026 7.06499 20.2027 7.06499 20.2027C7.06499 20.2027 7.06499 20.2027 7.06499 20.2027C7.06499 20.2028 7.06499 20.2028 7.06499 20.2028C7.06499 20.2028 7.06499 20.2028 7.06499 20.2029C7.06499 20.2029 7.06499 20.2029 7.06499 20.2029C7.06499 20.2029 7.06499 20.203 7.06499 20.203C7.06499 20.203 7.06499 20.203 7.06499 20.203C7.06499 20.2031 7.06499 20.2031 7.06499 20.2031C7.06499 20.2031 7.06499 20.2031 7.06499 20.2032C7.06499 20.2032 7.06499 20.2032 7.06499 20.2032C7.06499 20.2032 7.06499 20.2033 7.06499 20.2033C7.06499 20.2033 7.06499 20.2033 7.06499 20.2033C7.06499 20.2034 7.06499 20.2034 7.06499 20.2034C7.06499 20.2034 7.06499 20.2034 7.06499 20.2034C7.06499 20.2035 7.06499 20.2035 7.06499 20.2035C7.06499 20.2035 7.06499 20.2035 7.06499 20.2036C7.06499 20.2036 7.06499 20.2036 7.06499 20.2036C7.06499 20.2036 7.06499 20.2037 7.06499 20.2037C7.06499 20.2037 7.06499 20.2037 7.06499 20.2037C7.06499 20.2038 7.06499 20.2038 7.06499 20.2038C7.06499 20.2038 7.06499 20.2038 7.06499 20.2039C7.06499 20.2039 7.06499 20.2039 7.06499 20.2039C7.06499 20.2039 7.06499 20.204 7.06499 20.204C7.06499 20.204 7.06499 20.204 7.06499 20.204C7.06499 20.2041 7.06499 20.2041 7.06499 20.2041C7.06499 20.2041 7.06499 20.2041 7.06499 20.2042C7.06499 20.2042 7.06499 20.2042 7.06499 20.2042C7.06499 20.2042 7.06499 20.2043 7.06499 20.2043C7.06499 20.2043 7.06499 20.2043 7.06499 20.2043C7.06499 20.2044 7.06499 20.2044 7.06499 20.2044C7.06499 20.2044 7.06499 20.2044 7.06499 20.2045C7.06499 20.2045 7.06499 20.2045 7.06499 20.2045C7.06499 20.2045 7.06499 20.2046 7.06499 20.2046C7.06499 20.2046 7.06499 20.2046 7.06499 20.2046C7.06499 20.2046 7.06499 20.2047 7.06499 20.2047C7.06499 20.2047 7.06499 20.2047 7.06499 20.2047C7.06499 20.2048 7.06499 20.2048 7.06499 20.2048C7.06499 20.2048 7.06499 20.2048 7.06499 20.2049C7.06499 20.2049 7.06499 20.2049 7.06499 20.2049C7.06499 20.2049 7.06499 20.205 7.06499 20.205C7.06499 20.205 7.06499 20.205 7.06499 20.205C7.06499 20.2051 7.06499 20.2051 7.06499 20.2051C7.06499 20.2051 7.06499 20.2051 7.06499 20.2052C7.06499 20.2052 7.06499 20.2052 7.06499 20.2052C7.06499 20.2052 7.06499 20.2053 7.06499 20.2053C7.06499 20.2053 7.06499 20.2053 7.06499 20.2053C7.06499 20.2054 7.06499 20.2054 7.06499 20.2054C7.06499 20.2054 7.06499 20.2054 7.06499 20.2055C7.06499 20.2055 7.06499 20.2055 7.06499 20.2055C7.06499 20.2055 7.06499 20.2056 7.06499 20.2056C7.06499 20.2056 7.06499 20.2056 7.06499 20.2056C7.06499 20.2057 7.06499 20.2057 7.06499 20.2057C7.06499 20.2057 7.06499 20.2057 7.06499 20.2057C7.06499 20.2058 7.06499 20.2058 7.06499 20.2058C7.06499 20.2058 7.06499 20.2058 7.06499 20.2059C7.06499 20.2059 7.06499 20.2059 7.06499 20.2059C7.06499 20.2059 7.06499 20.206 7.06499 20.206C7.06499 20.206 7.06499 20.206 7.06499 20.206C7.06499 20.2061 7.06499 20.2061 7.06499 20.2061C7.06499 20.2061 7.06499 20.2061 7.06499 20.2062C7.06499 20.2062 7.06499 20.2062 7.06499 20.2062C7.06499 20.2062 7.06499 20.2063 7.06499 20.2063C7.06499 20.2063 7.06499 20.2063 7.06499 20.2063C7.06499 20.2064 7.06499 20.2064 7.06499 20.2064C7.06499 20.2064 7.06499 20.2064 7.06499 20.2065C7.06499 20.2065 7.06499 20.2065 7.06499 20.2065C7.06499 20.2065 7.06499 20.2066 7.06499 20.2066C7.06499 20.2066 7.06499 20.2066 7.06499 20.2066C7.06499 20.2067 7.06499 20.2067 7.06499 20.2067C7.06499 20.2067 7.06499 20.2067 7.06499 20.2068C7.06499 20.2068 7.06499 20.2068 7.06499 20.2068C7.06499 20.2068 7.06499 20.2069 7.06499 20.2069C7.06499 20.2069 7.06499 20.2069 7.06499 20.2069C7.06499 20.2069 7.06499 20.207 7.06499 20.207C7.06499 20.207 7.06499 20.207 7.06499 20.207C7.06499 20.2071 7.06499 20.2071 7.06499 20.2071C7.06499 20.2071 7.06499 20.2071 7.06499 20.2072C7.06499 20.2072 7.06499 20.2072 7.06499 20.2072C7.06499 20.2072 7.06499 20.2073 7.06499 20.2073C7.06499 20.2073 7.06499 20.2073 7.06499 20.2073C7.06499 20.2074 7.06499 20.2074 7.06499 20.2074C7.06499 20.2074 7.06499 20.2074 7.06499 20.2075C7.06499 20.2075 7.06499 20.2075 7.06499 20.2075C7.06499 20.2075 7.06499 20.2076 7.06499 20.2076C7.06499 20.2076 7.06499 20.2076 7.06499 20.2076C7.06499 20.2077 7.06499 20.2077 7.06499 20.2077C7.06499 20.2077 7.06499 20.2077 7.06499 20.2078C7.06499 20.2078 7.06499 20.2078 7.06499 20.2078C7.06499 20.2078 7.06499 20.2079 7.06499 20.2079C7.06499 20.2079 7.06499 20.2079 7.06499 20.2079C7.06499 20.208 7.06499 20.208 7.06499 20.208C7.06499 20.208 7.06499 20.208 7.06499 20.2081C7.06499 20.2081 7.06499 20.2081 7.06499 20.2081C7.06499 20.2081 7.06499 20.2081 7.06499 20.2082C7.06499 20.2082 7.06499 20.2082 7.06499 20.2082C7.06499 20.2082 7.06499 20.2083 7.06499 20.2083C7.06499 20.2083 7.06499 20.2083 7.06499 20.2083C7.06499 20.2084 7.06499 20.2084 7.06499 20.2084C7.06499 20.2084 7.06499 20.2084 7.06499 20.2085C7.06499 20.2085 7.06499 20.2085 7.06499 20.2085C7.06499 20.2085 7.06499 20.2086 7.06499 20.2086C7.06499 20.2086 7.06499 20.2086 7.06499 20.2086C7.06499 20.2087 7.06499 20.2087 7.06499 20.2087C7.06499 20.2087 7.06499 20.2087 7.06499 20.2088C7.06499 20.2088 7.06499 20.2088 7.06499 20.2088C7.06499 20.2088 7.06499 20.2089 7.06499 20.2089C7.06499 20.2089 7.06499 20.2089 7.06499 20.2089C7.06499 20.209 7.06499 20.209 7.06499 20.209C7.06499 20.209 7.06499 20.209 7.06499 20.2091C7.06499 20.2091 7.06499 20.2091 7.06499 20.2091C7.06499 20.2091 7.06499 20.2092 7.06499 20.2092C7.06499 20.2092 7.06499 20.2092 7.06499 20.2092C7.06499 20.2093 7.06499 20.2093 7.06499 20.2093C7.06499 20.2093 7.06499 20.2093 7.06499 20.2093C7.06499 20.2094 7.06499 20.2094 7.06499 20.2094C7.06499 20.2094 7.06499 20.2094 7.06499 20.2095C7.06499 20.2095 7.06499 20.2095 7.06499 20.2095C7.06499 20.2095 7.06499 20.2096 7.06499 20.2096C7.06499 20.2096 7.06499 20.2096 7.06499 20.2096C7.06499 20.2097 7.06499 20.2097 7.06499 20.2097C7.06499 20.2097 7.06499 20.2097 7.06499 20.2098C7.06499 20.2098 7.06499 20.2098 7.06499 20.2098C7.06499 20.2098 7.06499 20.2099 7.06499 20.2099C7.06499 20.2099 7.06499 20.2099 7.06499 20.2099C7.06499 20.21 7.06499 20.21 7.06499 20.21C7.06499 20.21 7.06499 20.21 7.06499 20.2101C7.06499 20.2101 7.06499 20.2101 7.06499 20.2101C7.06499 20.2101 7.06499 20.2102 7.06499 20.2102C7.06499 20.2102 7.06499 20.2102 7.06499 20.2102C7.06499 20.2103 7.06499 20.2103 7.06499 20.2103C7.06499 20.2103 7.06499 20.2103 7.06499 20.2104C7.06499 20.2104 7.06499 20.2104 7.06499 20.2104C7.06499 20.2104 7.06499 20.2104 7.06499 20.2105C7.06499 20.2105 7.06499 20.2105 7.06499 20.2105C7.06499 20.2105 7.06499 20.2106 7.06499 20.2106C7.06499 20.2106 7.06499 20.2106 7.06499 20.2106C7.06499 20.2107 7.06499 20.2107 7.06499 20.2107C7.06499 20.2107 7.06499 20.2107 7.06499 20.2108C7.06499 20.2108 7.06499 20.2108 7.06499 20.2108C7.06499 20.2108 7.06499 20.2109 7.06499 20.2109C7.06499 20.2109 7.06499 20.2109 7.06499 20.2109C7.06499 20.211 7.06499 20.211 7.06499 20.211C7.06499 20.211 7.06499 20.211 7.06499 20.2111C7.06499 20.2111 7.06499 20.2111 7.06499 20.2111C7.06499 20.2111 7.06499 20.2112 7.06499 20.2112C7.06499 20.2112 7.06499 20.2112 7.06499 20.2112C7.06499 20.2113 7.06499 20.2113 7.06499 20.2113C7.06499 20.2113 7.06499 20.2113 7.06499 20.2114C7.06499 20.2114 7.06499 20.2114 7.06499 20.2114C7.06499 20.2114 7.06499 20.2115 7.06499 20.2115C7.06499 20.2115 7.06499 20.2115 7.06499 20.2115C7.06499 20.2116 7.06499 20.2116 7.06499 20.2116C7.06499 20.2116 7.06499 20.2116 7.06499 20.2116C7.06499 20.2117 7.06499 20.2117 7.06499 20.2117C7.06499 20.2117 7.06499 20.2117 7.06499 20.2118C7.06499 20.2118 7.06499 20.2118 7.06499 20.2118C7.06499 20.2118 7.06499 20.2119 7.06499 20.2119C7.06499 20.2119 7.06499 20.2119 7.06499 20.2119C7.06499 20.212 7.06499 20.212 7.06499 20.212C7.06499 20.212 7.06499 20.212 7.06499 20.2121C7.06499 20.2121 7.06499 20.2121 7.06499 20.2121C7.06499 20.2121 7.06499 20.2122 7.06499 20.2122C7.06499 20.2122 7.06499 20.2122 7.06499 20.2122C7.06499 20.2123 7.06499 20.2123 7.06499 20.2123C7.06499 20.2123 7.06499 20.2123 7.06499 20.2124C7.06499 20.2124 7.06499 20.2124 7.06499 20.2124C7.06499 20.2124 7.06499 20.2125 7.06499 20.2125C7.06499 20.2125 7.06499 20.2125 7.06499 20.2125C7.06499 20.2126 7.06499 20.2126 7.06499 20.2126C7.06499 20.2126 7.06499 20.2126 7.06499 20.2127C7.06499 20.2127 7.06499 20.2127 7.06499 20.2127C7.06499 20.2127 7.06499 20.2128 7.06499 20.2128C7.06499 20.2128 7.06499 20.2128 7.06499 20.2128C7.06499 20.2128 7.06499 20.2129 7.06499 20.2129C7.06499 20.2129 7.06499 20.2129 7.06499 20.2129C7.06499 20.213 7.06499 20.213 7.06499 20.213C7.06499 20.213 7.06499 20.213 7.06499 20.2131C7.06499 20.2131 7.06499 20.2131 7.06499 20.2131C7.06499 20.2131 7.06499 20.2132 7.06499 20.2132C7.06499 20.2132 7.06499 20.2132 7.06499 20.2132C7.06499 20.2133 7.06499 20.2133 7.06499 20.2133C7.06499 20.2133 7.06499 20.2133 7.06499 20.2134C7.06499 20.2134 7.06499 20.2134 7.06499 20.2134C7.06499 20.2134 7.06499 20.2135 7.06499 20.2135C7.06499 20.2135 7.06499 20.2135 7.06499 20.2135C7.06499 20.2136 7.06499 20.2136 7.06499 20.2136C7.06499 20.2136 7.06499 20.2136 7.06499 20.2137C7.06499 20.2137 7.06499 20.2137 7.06499 20.2137C7.06499 20.2137 7.06499 20.2138 7.06499 20.2138C7.06499 20.2138 7.06499 20.2138 7.06499 20.2138C7.06499 20.2139 7.06499 20.2139 7.06499 20.2139C7.06499 20.2139 7.06499 20.2139 7.06499 20.214C7.06499 20.214 7.06499 20.214 7.06499 20.214C7.06499 20.214 7.06499 20.214 7.06499 20.2141C7.06499 20.2141 7.06499 20.2141 7.06499 20.2141C7.06499 20.2141 7.06499 20.2142 7.06499 20.2142C7.06499 20.2142 7.06499 20.2142 7.06499 20.2142C7.06499 20.2143 7.06499 20.2143 7.06499 20.2143C7.06499 20.2143 7.06499 20.2143 7.06499 20.2144C7.06499 20.2144 7.06499 20.2144 7.06499 20.2144C7.06499 20.2144 7.06499 20.2145 7.06499 20.2145C7.06499 20.2145 7.06499 20.2145 7.06499 20.2145C7.06499 20.2146 7.06499 20.2146 7.06499 20.2146C7.06499 20.2146 7.06499 20.2146 7.06499 20.2147C7.06499 20.2147 7.06499 20.2147 7.06499 20.2147C7.06499 20.2147 7.06499 20.2148 7.06499 20.2148C7.06499 20.2148 7.06499 20.2148 7.06499 20.2148C7.06499 20.2149 7.06499 20.2149 7.06499 20.2149C7.06499 20.2149 7.06499 20.2149 7.06499 20.215C7.06499 20.215 7.06499 20.215 7.06499 20.215C7.06499 20.215 7.06499 20.2151 7.06499 20.2151C7.06499 20.2151 7.06499 20.2151 7.06499 20.2151C7.06499 20.2152 7.06499 20.2152 7.06499 20.2152C7.06499 20.2152 7.06499 20.2152 7.06499 20.2152C7.06499 20.2153 7.06499 20.2153 7.06499 20.2153C7.06499 20.2153 7.06499 20.2153 7.06499 20.2154C7.06499 20.2154 7.06499 20.2154 7.06499 20.2154C7.06499 20.2154 7.06499 20.2155 7.06499 20.2155C7.06499 20.2155 7.06499 20.2155 7.06499 20.2155C7.06499 20.2156 7.06499 20.2156 7.06499 20.2156C7.06499 20.2156 7.06499 20.2156 7.06499 20.2157C7.06499 20.2157 7.06499 20.2157 7.06499 20.2157C7.06499 20.2157 7.06499 20.2158 7.06499 20.2158C7.06499 20.2158 7.06499 20.2158 7.06499 20.2158C7.06499 20.2159 7.06499 20.2159 7.06499 20.2159C7.06499 20.2159 7.06499 20.2159 7.06499 20.216C7.06499 20.216 7.06499 20.216 7.06499 20.216C7.06499 20.216 7.06499 20.2161 7.06499 20.2161C7.06499 20.2161 7.06499 20.2161 7.06499 20.2161C7.06499 20.2162 7.06499 20.2162 7.06499 20.2162C7.06499 20.2162 7.06499 20.2162 7.06499 20.2163C7.06499 20.2163 7.06499 20.2163 7.06499 20.2163C7.06499 20.2163 7.06499 20.2163 7.06499 20.2164C7.06499 20.2164 7.06499 20.2164 7.06499 20.2164C7.06499 20.2164 7.06499 20.2165 7.06499 20.2165C7.06499 20.2165 7.06499 20.2165 7.06499 20.2165C7.06499 20.2166 7.06499 20.2166 7.06499 20.2166C7.06499 20.2166 7.06499 20.2166 7.06499 20.2167C7.06499 20.2167 7.06499 20.2167 7.06499 20.2167C7.06499 20.2167 7.06499 20.2168 7.06499 20.2168C7.06499 20.2168 7.06499 20.2168 7.06499 20.2168C7.06499 20.2169 7.06499 20.2169 7.06499 20.2169C7.06499 20.2169 7.06499 20.2169 7.06499 20.217C7.06499 20.217 7.06499 20.217 7.06499 20.217C7.06499 20.217 7.06499 20.2171 7.06499 20.2171C7.06499 20.2171 7.06499 20.2171 7.06499 20.2171C7.06499 20.2172 7.06499 20.2172 7.06499 20.2172C7.06499 20.2172 7.06499 20.2172 7.06499 20.2173C7.06499 20.2173 7.06499 20.2173 7.06499 20.2173C7.06499 20.2173 7.06499 20.2174 7.06499 20.2174C7.06499 20.2174 7.06499 20.2174 7.06499 20.2174C7.06499 20.2175 7.06499 20.2175 7.06499 20.2175C7.06499 20.2175 7.06499 20.2175 7.06499 20.2175C7.06499 20.2176 7.06499 20.2176 7.06499 20.2176C7.06499 20.2176 7.06499 20.2176 7.06499 20.2177C7.06499 20.2177 7.06499 20.2177 7.06499 20.2177C7.06499 20.2177 7.06499 20.2178 7.06499 20.2178C7.06499 20.2178 7.06499 20.2178 7.06499 20.2178C7.06499 20.2179 7.06499 20.2179 7.06499 20.2179C7.06499 20.2179 7.06499 20.2179 7.06499 20.218C7.06499 20.218 7.06499 20.218 7.06499 20.218C7.06499 20.218 7.06499 20.2181 7.06499 20.2181C7.06499 20.2181 7.06499 20.2181 7.06499 20.2181C7.06499 20.2182 7.06499 20.2182 7.06499 20.2182C7.06499 20.2182 7.06499 20.2182 7.06499 20.2183C7.06499 20.2183 7.06499 20.2183 7.06499 20.2183C7.06499 20.2183 7.06499 20.2184 7.06499 20.2184C7.06499 20.2184 7.06499 20.2184 7.06499 20.2184C7.06499 20.2185 7.06499 20.2185 7.06499 20.2185C7.06499 20.2185 7.06499 20.2185 7.06499 20.2186C7.06499 20.2186 7.06499 20.2186 7.06499 20.2186C7.06499 20.2186 7.06499 20.2187 7.06499 20.2187C7.06499 20.2187 7.06499 20.2187 7.06499 20.2187C7.06499 20.2187 7.06499 20.2188 7.06499 20.2188C7.06499 20.2188 7.06499 20.2188 7.06499 20.2188C7.06499 20.2189 7.06499 20.2189 7.06499 20.2189C7.06499 20.2189 7.06499 20.2189 7.06499 20.219C7.06499 20.219 7.06499 20.219 7.06499 20.219C7.06499 20.219 7.06499 20.2191 7.06499 20.2191C7.06499 20.2191 7.06499 20.2191 7.06499 20.2191C7.06499 20.2192 7.06499 20.2192 7.06499 20.2192C7.06499 20.2192 7.06499 20.2192 7.06499 20.2193C7.06499 20.2193 7.06499 20.2193 7.06499 20.2193C7.06499 20.2193 7.06499 20.2194 7.06499 20.2194C7.06499 20.2194 7.06499 20.2194 7.06499 20.2194C7.06499 20.2195 7.06499 20.2195 7.06499 20.2195C7.06499 20.2195 7.06499 20.2195 7.06499 20.2196C7.06499 20.2196 7.06499 20.2196 7.06499 20.2196C7.06499 20.2196 7.06499 20.2197 7.06499 20.2197C7.06499 20.2197 7.06499 20.2197 7.06499 20.2197C7.06499 20.2198 7.06499 20.2198 7.06499 20.2198C7.06499 20.2198 7.06499 20.2198 7.06499 20.2199C7.06499 20.2199 7.06499 20.2199 7.06499 20.2199C7.06499 20.2199 7.06499 20.2199 7.06499 20.22C7.06499 20.22 7.06499 20.22 7.06499 20.22C7.06499 20.22 7.06499 20.2201 7.06499 20.2201C7.06499 20.2201 7.06499 20.2201 7.06499 20.2201C7.06499 20.2202 7.06499 20.2202 7.06499 20.2202C7.06499 20.2202 7.06499 20.2202 7.06499 20.2203C7.06499 20.2203 7.06499 20.2203 7.06499 20.2203C7.06499 20.2203 7.06499 20.2204 7.06499 20.2204C7.06499 20.2204 7.06499 20.2204 7.06499 20.2204C7.06499 20.2205 7.06499 20.2205 7.06499 20.2205C7.06499 20.2205 7.06499 20.2205 7.06499 20.2206C7.06499 20.2206 7.06499 20.2206 7.06499 20.2206C7.06499 20.2206 7.06499 20.2207 7.06499 20.2207C7.06499 20.2207 7.06499 20.2207 7.06499 20.2207C7.06499 20.2208 7.06499 20.2208 7.06499 20.2208C7.06499 20.2208 7.06499 20.2208 7.06499 20.2209C7.06499 20.2209 7.06499 20.2209 7.06499 20.2209C7.06499 20.2209 7.06499 20.221 7.06499 20.221C7.06499 20.221 7.06499 20.221 7.06499 20.221C7.06499 20.221 7.06499 20.2211 7.06499 20.2211C7.06499 20.2211 7.06499 20.2211 7.06499 20.2211C7.06499 20.2212 7.06499 20.2212 7.06499 20.2212C7.06499 20.2212 7.06499 20.2212 7.06499 20.2213C7.06499 20.2213 7.06499 20.2213 7.06499 20.2213C7.06499 20.2213 7.06499 20.2214 7.06499 20.2214C7.06499 20.2214 7.06499 20.2214 7.06499 20.2214C7.06499 20.2215 7.06499 20.2215 7.06499 20.2215C7.06499 20.2215 7.06499 20.2215 7.06499 20.2216C7.06499 20.2216 7.06499 20.2216 7.06499 20.2216C7.06499 20.2216 7.06499 20.2217 7.06499 20.2217C7.06499 20.2217 7.06499 20.2217 7.06499 20.2217C7.06499 20.2218 7.06499 20.2218 7.06499 20.2218C7.06499 20.2218 7.06499 20.2218 7.06499 20.2219C7.06499 20.2219 7.06499 20.2219 7.06499 20.2219C7.06499 20.2219 7.06499 20.222 7.06499 20.222C7.06499 20.222 7.06499 20.222 7.06499 20.222C7.06499 20.2221 7.06499 20.2221 7.06499 20.2221C7.06499 20.2221 7.06499 20.2221 7.06499 20.2222C7.06499 20.2222 7.06499 20.2222 7.06499 20.2222C7.06499 20.2222 7.06499 20.2222 7.06499 20.2223C7.06499 20.2223 7.06499 20.2223 7.06499 20.2223C7.06499 20.2223 7.06499 20.2224 7.06499 20.2224C7.06499 20.2224 7.06499 20.2224 7.06499 20.2224C7.06499 20.2225 7.06499 20.2225 7.06499 20.2225C7.06499 20.2225 7.06499 20.2225 7.06499 20.2226C7.06499 20.2226 7.06499 20.2226 7.06499 20.2226C7.06499 20.2226 7.06499 20.2227 7.06499 20.2227C7.06499 20.2227 7.06499 20.2227 7.06499 20.2227C7.06499 20.2228 7.06499 20.2228 7.06499 20.2228C7.06499 20.2228 7.06499 20.2228 7.06499 20.2229C7.06499 20.2229 7.06499 20.2229 7.06499 20.2229C7.06499 20.2229 7.06499 20.223 7.06499 20.223C7.06499 20.223 7.06499 20.223 7.06499 20.223C7.06499 20.2231 7.06499 20.2231 7.06499 20.2231C7.06499 20.2231 7.06499 20.2231 7.06499 20.2232C7.06499 20.2232 7.06499 20.2232 7.06499 20.2232C7.06499 20.2232 7.06499 20.2233 7.06499 20.2233C7.06499 20.2233 7.06499 20.2233 7.06499 20.2233C7.06499 20.2234 7.06499 20.2234 7.06499 20.2234C7.06499 20.2234 7.06499 20.2234 7.06499 20.2234C7.06499 20.2235 7.06499 20.2235 7.06499 20.2235C7.06499 20.2235 7.06499 20.2235 7.06499 20.2236C7.06499 20.2236 7.06499 20.2236 7.06499 20.2236C7.06499 20.2236 7.06499 20.2237 7.06499 20.2237C7.06499 20.2237 7.06499 20.2237 7.06499 20.2237C7.06499 20.2238 7.06499 20.2238 7.06499 20.2238C7.06499 20.2238 7.06499 20.2238 7.06499 20.2239C7.06499 20.2239 7.06499 20.2239 7.06499 20.2239C7.06499 20.2239 7.06499 20.224 7.06499 20.224C7.06499 20.224 7.06499 20.224 7.06499 20.224C7.06499 20.2241 7.06499 20.2241 7.06499 20.2241C7.06499 20.2241 7.06499 20.2241 7.06499 20.2242C7.06499 20.2242 7.06499 20.2242 7.06499 20.2242C7.06499 20.2242 7.06499 20.2243 7.06499 20.2243C7.06499 20.2243 7.06499 20.2243 7.06499 20.2243C7.06499 20.2244 7.06499 20.2244 7.06499 20.2244H8.26499C8.26499 20.2244 8.26499 20.2244 8.26499 20.2243C8.26499 20.2243 8.26499 20.2243 8.26499 20.2243C8.26499 20.2243 8.26499 20.2242 8.26499 20.2242C8.26499 20.2242 8.26499 20.2242 8.26499 20.2242C8.26499 20.2241 8.26499 20.2241 8.26499 20.2241C8.26499 20.2241 8.26499 20.2241 8.26499 20.224C8.26499 20.224 8.26499 20.224 8.26499 20.224C8.26499 20.224 8.26499 20.2239 8.26499 20.2239C8.26499 20.2239 8.26499 20.2239 8.26499 20.2239C8.26499 20.2238 8.26499 20.2238 8.26499 20.2238C8.26499 20.2238 8.26499 20.2238 8.26499 20.2237C8.26499 20.2237 8.26499 20.2237 8.26499 20.2237C8.26499 20.2237 8.26499 20.2236 8.26499 20.2236C8.26499 20.2236 8.26499 20.2236 8.26499 20.2236C8.26499 20.2235 8.26499 20.2235 8.26499 20.2235C8.26499 20.2235 8.26499 20.2235 8.26499 20.2234C8.26499 20.2234 8.26499 20.2234 8.26499 20.2234C8.26499 20.2234 8.26499 20.2234 8.26499 20.2233C8.26499 20.2233 8.26499 20.2233 8.26499 20.2233C8.26499 20.2233 8.26499 20.2232 8.26499 20.2232C8.26499 20.2232 8.26499 20.2232 8.26499 20.2232C8.26499 20.2231 8.26499 20.2231 8.26499 20.2231C8.26499 20.2231 8.26499 20.2231 8.26499 20.223C8.26499 20.223 8.26499 20.223 8.26499 20.223C8.26499 20.223 8.26499 20.2229 8.26499 20.2229C8.26499 20.2229 8.26499 20.2229 8.26499 20.2229C8.26499 20.2228 8.26499 20.2228 8.26499 20.2228C8.26499 20.2228 8.26499 20.2228 8.26499 20.2227C8.26499 20.2227 8.26499 20.2227 8.26499 20.2227C8.26499 20.2227 8.26499 20.2226 8.26499 20.2226C8.26499 20.2226 8.26499 20.2226 8.26499 20.2226C8.26499 20.2225 8.26499 20.2225 8.26499 20.2225C8.26499 20.2225 8.26499 20.2225 8.26499 20.2224C8.26499 20.2224 8.26499 20.2224 8.26499 20.2224C8.26499 20.2224 8.26499 20.2223 8.26499 20.2223C8.26499 20.2223 8.26499 20.2223 8.26499 20.2223C8.26499 20.2222 8.26499 20.2222 8.26499 20.2222C8.26499 20.2222 8.26499 20.2222 8.26499 20.2222C8.26499 20.2221 8.26499 20.2221 8.26499 20.2221C8.26499 20.2221 8.26499 20.2221 8.26499 20.222C8.26499 20.222 8.26499 20.222 8.26499 20.222C8.26499 20.222 8.26499 20.2219 8.26499 20.2219C8.26499 20.2219 8.26499 20.2219 8.26499 20.2219C8.26499 20.2218 8.26499 20.2218 8.26499 20.2218C8.26499 20.2218 8.26499 20.2218 8.26499 20.2217C8.26499 20.2217 8.26499 20.2217 8.26499 20.2217C8.26499 20.2217 8.26499 20.2216 8.26499 20.2216C8.26499 20.2216 8.26499 20.2216 8.26499 20.2216C8.26499 20.2215 8.26499 20.2215 8.26499 20.2215C8.26499 20.2215 8.26499 20.2215 8.26499 20.2214C8.26499 20.2214 8.26499 20.2214 8.26499 20.2214C8.26499 20.2214 8.26499 20.2213 8.26499 20.2213C8.26499 20.2213 8.26499 20.2213 8.26499 20.2213C8.26499 20.2212 8.26499 20.2212 8.26499 20.2212C8.26499 20.2212 8.26499 20.2212 8.26499 20.2211C8.26499 20.2211 8.26499 20.2211 8.26499 20.2211C8.26499 20.2211 8.26499 20.221 8.26499 20.221C8.26499 20.221 8.26499 20.221 8.26499 20.221C8.26499 20.221 8.26499 20.2209 8.26499 20.2209C8.26499 20.2209 8.26499 20.2209 8.26499 20.2209C8.26499 20.2208 8.26499 20.2208 8.26499 20.2208C8.26499 20.2208 8.26499 20.2208 8.26499 20.2207C8.26499 20.2207 8.26499 20.2207 8.26499 20.2207C8.26499 20.2207 8.26499 20.2206 8.26499 20.2206C8.26499 20.2206 8.26499 20.2206 8.26499 20.2206C8.26499 20.2205 8.26499 20.2205 8.26499 20.2205C8.26499 20.2205 8.26499 20.2205 8.26499 20.2204C8.26499 20.2204 8.26499 20.2204 8.26499 20.2204C8.26499 20.2204 8.26499 20.2203 8.26499 20.2203C8.26499 20.2203 8.26499 20.2203 8.26499 20.2203C8.26499 20.2202 8.26499 20.2202 8.26499 20.2202C8.26499 20.2202 8.26499 20.2202 8.26499 20.2201C8.26499 20.2201 8.26499 20.2201 8.26499 20.2201C8.26499 20.2201 8.26499 20.22 8.26499 20.22C8.26499 20.22 8.26499 20.22 8.26499 20.22C8.26499 20.2199 8.26499 20.2199 8.26499 20.2199C8.26499 20.2199 8.26499 20.2199 8.26499 20.2199C8.26499 20.2198 8.26499 20.2198 8.26499 20.2198C8.26499 20.2198 8.26499 20.2198 8.26499 20.2197C8.26499 20.2197 8.26499 20.2197 8.26499 20.2197C8.26499 20.2197 8.26499 20.2196 8.26499 20.2196C8.26499 20.2196 8.26499 20.2196 8.26499 20.2196C8.26499 20.2195 8.26499 20.2195 8.26499 20.2195C8.26499 20.2195 8.26499 20.2195 8.26499 20.2194C8.26499 20.2194 8.26499 20.2194 8.26499 20.2194C8.26499 20.2194 8.26499 20.2193 8.26499 20.2193C8.26499 20.2193 8.26499 20.2193 8.26499 20.2193C8.26499 20.2192 8.26499 20.2192 8.26499 20.2192C8.26499 20.2192 8.26499 20.2192 8.26499 20.2191C8.26499 20.2191 8.26499 20.2191 8.26499 20.2191C8.26499 20.2191 8.26499 20.219 8.26499 20.219C8.26499 20.219 8.26499 20.219 8.26499 20.219C8.26499 20.2189 8.26499 20.2189 8.26499 20.2189C8.26499 20.2189 8.26499 20.2189 8.26499 20.2188C8.26499 20.2188 8.26499 20.2188 8.26499 20.2188C8.26499 20.2188 8.26499 20.2187 8.26499 20.2187C8.26499 20.2187 8.26499 20.2187 8.26499 20.2187C8.26499 20.2187 8.26499 20.2186 8.26499 20.2186C8.26499 20.2186 8.26499 20.2186 8.26499 20.2186C8.26499 20.2185 8.26499 20.2185 8.26499 20.2185C8.26499 20.2185 8.26499 20.2185 8.26499 20.2184C8.26499 20.2184 8.26499 20.2184 8.26499 20.2184C8.26499 20.2184 8.26499 20.2183 8.26499 20.2183C8.26499 20.2183 8.26499 20.2183 8.26499 20.2183C8.26499 20.2182 8.26499 20.2182 8.26499 20.2182C8.26499 20.2182 8.26499 20.2182 8.26499 20.2181C8.26499 20.2181 8.26499 20.2181 8.26499 20.2181C8.26499 20.2181 8.26499 20.218 8.26499 20.218C8.26499 20.218 8.26499 20.218 8.26499 20.218C8.26499 20.2179 8.26499 20.2179 8.26499 20.2179C8.26499 20.2179 8.26499 20.2179 8.26499 20.2178C8.26499 20.2178 8.26499 20.2178 8.26499 20.2178C8.26499 20.2178 8.26499 20.2177 8.26499 20.2177C8.26499 20.2177 8.26499 20.2177 8.26499 20.2177C8.26499 20.2176 8.26499 20.2176 8.26499 20.2176C8.26499 20.2176 8.26499 20.2176 8.26499 20.2175C8.26499 20.2175 8.26499 20.2175 8.26499 20.2175C8.26499 20.2175 8.26499 20.2175 8.26499 20.2174C8.26499 20.2174 8.26499 20.2174 8.26499 20.2174C8.26499 20.2174 8.26499 20.2173 8.26499 20.2173C8.26499 20.2173 8.26499 20.2173 8.26499 20.2173C8.26499 20.2172 8.26499 20.2172 8.26499 20.2172C8.26499 20.2172 8.26499 20.2172 8.26499 20.2171C8.26499 20.2171 8.26499 20.2171 8.26499 20.2171C8.26499 20.2171 8.26499 20.217 8.26499 20.217C8.26499 20.217 8.26499 20.217 8.26499 20.217C8.26499 20.2169 8.26499 20.2169 8.26499 20.2169C8.26499 20.2169 8.26499 20.2169 8.26499 20.2168C8.26499 20.2168 8.26499 20.2168 8.26499 20.2168C8.26499 20.2168 8.26499 20.2167 8.26499 20.2167C8.26499 20.2167 8.26499 20.2167 8.26499 20.2167C8.26499 20.2166 8.26499 20.2166 8.26499 20.2166C8.26499 20.2166 8.26499 20.2166 8.26499 20.2165C8.26499 20.2165 8.26499 20.2165 8.26499 20.2165C8.26499 20.2165 8.26499 20.2164 8.26499 20.2164C8.26499 20.2164 8.26499 20.2164 8.26499 20.2164C8.26499 20.2163 8.26499 20.2163 8.26499 20.2163C8.26499 20.2163 8.26499 20.2163 8.26499 20.2163C8.26499 20.2162 8.26499 20.2162 8.26499 20.2162C8.26499 20.2162 8.26499 20.2162 8.26499 20.2161C8.26499 20.2161 8.26499 20.2161 8.26499 20.2161C8.26499 20.2161 8.26499 20.216 8.26499 20.216C8.26499 20.216 8.26499 20.216 8.26499 20.216C8.26499 20.2159 8.26499 20.2159 8.26499 20.2159C8.26499 20.2159 8.26499 20.2159 8.26499 20.2158C8.26499 20.2158 8.26499 20.2158 8.26499 20.2158C8.26499 20.2158 8.26499 20.2157 8.26499 20.2157C8.26499 20.2157 8.26499 20.2157 8.26499 20.2157C8.26499 20.2156 8.26499 20.2156 8.26499 20.2156C8.26499 20.2156 8.26499 20.2156 8.26499 20.2155C8.26499 20.2155 8.26499 20.2155 8.26499 20.2155C8.26499 20.2155 8.26499 20.2154 8.26499 20.2154C8.26499 20.2154 8.26499 20.2154 8.26499 20.2154C8.26499 20.2153 8.26499 20.2153 8.26499 20.2153C8.26499 20.2153 8.26499 20.2153 8.26499 20.2152C8.26499 20.2152 8.26499 20.2152 8.26499 20.2152C8.26499 20.2152 8.26499 20.2152 8.26499 20.2151C8.26499 20.2151 8.26499 20.2151 8.26499 20.2151C8.26499 20.2151 8.26499 20.215 8.26499 20.215C8.26499 20.215 8.26499 20.215 8.26499 20.215C8.26499 20.2149 8.26499 20.2149 8.26499 20.2149C8.26499 20.2149 8.26499 20.2149 8.26499 20.2148C8.26499 20.2148 8.26499 20.2148 8.26499 20.2148C8.26499 20.2148 8.26499 20.2147 8.26499 20.2147C8.26499 20.2147 8.26499 20.2147 8.26499 20.2147C8.26499 20.2146 8.26499 20.2146 8.26499 20.2146C8.26499 20.2146 8.26499 20.2146 8.26499 20.2145C8.26499 20.2145 8.26499 20.2145 8.26499 20.2145C8.26499 20.2145 8.26499 20.2144 8.26499 20.2144C8.26499 20.2144 8.26499 20.2144 8.26499 20.2144C8.26499 20.2143 8.26499 20.2143 8.26499 20.2143C8.26499 20.2143 8.26499 20.2143 8.26499 20.2142C8.26499 20.2142 8.26499 20.2142 8.26499 20.2142C8.26499 20.2142 8.26499 20.2141 8.26499 20.2141C8.26499 20.2141 8.26499 20.2141 8.26499 20.2141C8.26499 20.214 8.26499 20.214 8.26499 20.214C8.26499 20.214 8.26499 20.214 8.26499 20.214C8.26499 20.2139 8.26499 20.2139 8.26499 20.2139C8.26499 20.2139 8.26499 20.2139 8.26499 20.2138C8.26499 20.2138 8.26499 20.2138 8.26499 20.2138C8.26499 20.2138 8.26499 20.2137 8.26499 20.2137C8.26499 20.2137 8.26499 20.2137 8.26499 20.2137C8.26499 20.2136 8.26499 20.2136 8.26499 20.2136C8.26499 20.2136 8.26499 20.2136 8.26499 20.2135C8.26499 20.2135 8.26499 20.2135 8.26499 20.2135C8.26499 20.2135 8.26499 20.2134 8.26499 20.2134C8.26499 20.2134 8.26499 20.2134 8.26499 20.2134C8.26499 20.2133 8.26499 20.2133 8.26499 20.2133C8.26499 20.2133 8.26499 20.2133 8.26499 20.2132C8.26499 20.2132 8.26499 20.2132 8.26499 20.2132C8.26499 20.2132 8.26499 20.2131 8.26499 20.2131C8.26499 20.2131 8.26499 20.2131 8.26499 20.2131C8.26499 20.213 8.26499 20.213 8.26499 20.213C8.26499 20.213 8.26499 20.213 8.26499 20.2129C8.26499 20.2129 8.26499 20.2129 8.26499 20.2129C8.26499 20.2129 8.26499 20.2128 8.26499 20.2128C8.26499 20.2128 8.26499 20.2128 8.26499 20.2128C8.26499 20.2128 8.26499 20.2127 8.26499 20.2127C8.26499 20.2127 8.26499 20.2127 8.26499 20.2127C8.26499 20.2126 8.26499 20.2126 8.26499 20.2126C8.26499 20.2126 8.26499 20.2126 8.26499 20.2125C8.26499 20.2125 8.26499 20.2125 8.26499 20.2125C8.26499 20.2125 8.26499 20.2124 8.26499 20.2124C8.26499 20.2124 8.26499 20.2124 8.26499 20.2124C8.26499 20.2123 8.26499 20.2123 8.26499 20.2123C8.26499 20.2123 8.26499 20.2123 8.26499 20.2122C8.26499 20.2122 8.26499 20.2122 8.26499 20.2122C8.26499 20.2122 8.26499 20.2121 8.26499 20.2121C8.26499 20.2121 8.26499 20.2121 8.26499 20.2121C8.26499 20.212 8.26499 20.212 8.26499 20.212C8.26499 20.212 8.26499 20.212 8.26499 20.2119C8.26499 20.2119 8.26499 20.2119 8.26499 20.2119C8.26499 20.2119 8.26499 20.2118 8.26499 20.2118C8.26499 20.2118 8.26499 20.2118 8.26499 20.2118C8.26499 20.2117 8.26499 20.2117 8.26499 20.2117C8.26499 20.2117 8.26499 20.2117 8.26499 20.2116C8.26499 20.2116 8.26499 20.2116 8.26499 20.2116C8.26499 20.2116 8.26499 20.2116 8.26499 20.2115C8.26499 20.2115 8.26499 20.2115 8.26499 20.2115C8.26499 20.2115 8.26499 20.2114 8.26499 20.2114C8.26499 20.2114 8.26499 20.2114 8.26499 20.2114C8.26499 20.2113 8.26499 20.2113 8.26499 20.2113C8.26499 20.2113 8.26499 20.2113 8.26499 20.2112C8.26499 20.2112 8.26499 20.2112 8.26499 20.2112C8.26499 20.2112 8.26499 20.2111 8.26499 20.2111C8.26499 20.2111 8.26499 20.2111 8.26499 20.2111C8.26499 20.211 8.26499 20.211 8.26499 20.211C8.26499 20.211 8.26499 20.211 8.26499 20.2109C8.26499 20.2109 8.26499 20.2109 8.26499 20.2109C8.26499 20.2109 8.26499 20.2108 8.26499 20.2108C8.26499 20.2108 8.26499 20.2108 8.26499 20.2108C8.26499 20.2107 8.26499 20.2107 8.26499 20.2107C8.26499 20.2107 8.26499 20.2107 8.26499 20.2106C8.26499 20.2106 8.26499 20.2106 8.26499 20.2106C8.26499 20.2106 8.26499 20.2105 8.26499 20.2105C8.26499 20.2105 8.26499 20.2105 8.26499 20.2105C8.26499 20.2104 8.26499 20.2104 8.26499 20.2104C8.26499 20.2104 8.26499 20.2104 8.26499 20.2104C8.26499 20.2103 8.26499 20.2103 8.26499 20.2103C8.26499 20.2103 8.26499 20.2103 8.26499 20.2102C8.26499 20.2102 8.26499 20.2102 8.26499 20.2102C8.26499 20.2102 8.26499 20.2101 8.26499 20.2101C8.26499 20.2101 8.26499 20.2101 8.26499 20.2101C8.26499 20.21 8.26499 20.21 8.26499 20.21C8.26499 20.21 8.26499 20.21 8.26499 20.2099C8.26499 20.2099 8.26499 20.2099 8.26499 20.2099C8.26499 20.2099 8.26499 20.2098 8.26499 20.2098C8.26499 20.2098 8.26499 20.2098 8.26499 20.2098C8.26499 20.2097 8.26499 20.2097 8.26499 20.2097C8.26499 20.2097 8.26499 20.2097 8.26499 20.2096C8.26499 20.2096 8.26499 20.2096 8.26499 20.2096C8.26499 20.2096 8.26499 20.2095 8.26499 20.2095C8.26499 20.2095 8.26499 20.2095 8.26499 20.2095C8.26499 20.2094 8.26499 20.2094 8.26499 20.2094C8.26499 20.2094 8.26499 20.2094 8.26499 20.2093C8.26499 20.2093 8.26499 20.2093 8.26499 20.2093C8.26499 20.2093 8.26499 20.2093 8.26499 20.2092C8.26499 20.2092 8.26499 20.2092 8.26499 20.2092C8.26499 20.2092 8.26499 20.2091 8.26499 20.2091C8.26499 20.2091 8.26499 20.2091 8.26499 20.2091C8.26499 20.209 8.26499 20.209 8.26499 20.209C8.26499 20.209 8.26499 20.209 8.26499 20.2089C8.26499 20.2089 8.26499 20.2089 8.26499 20.2089C8.26499 20.2089 8.26499 20.2088 8.26499 20.2088C8.26499 20.2088 8.26499 20.2088 8.26499 20.2088C8.26499 20.2087 8.26499 20.2087 8.26499 20.2087C8.26499 20.2087 8.26499 20.2087 8.26499 20.2086C8.26499 20.2086 8.26499 20.2086 8.26499 20.2086C8.26499 20.2086 8.26499 20.2085 8.26499 20.2085C8.26499 20.2085 8.26499 20.2085 8.26499 20.2085C8.26499 20.2084 8.26499 20.2084 8.26499 20.2084C8.26499 20.2084 8.26499 20.2084 8.26499 20.2083C8.26499 20.2083 8.26499 20.2083 8.26499 20.2083C8.26499 20.2083 8.26499 20.2082 8.26499 20.2082C8.26499 20.2082 8.26499 20.2082 8.26499 20.2082C8.26499 20.2081 8.26499 20.2081 8.26499 20.2081C8.26499 20.2081 8.26499 20.2081 8.26499 20.2081C8.26499 20.208 8.26499 20.208 8.26499 20.208C8.26499 20.208 8.26499 20.208 8.26499 20.2079C8.26499 20.2079 8.26499 20.2079 8.26499 20.2079C8.26499 20.2079 8.26499 20.2078 8.26499 20.2078C8.26499 20.2078 8.26499 20.2078 8.26499 20.2078C8.26499 20.2077 8.26499 20.2077 8.26499 20.2077C8.26499 20.2077 8.26499 20.2077 8.26499 20.2076C8.26499 20.2076 8.26499 20.2076 8.26499 20.2076C8.26499 20.2076 8.26499 20.2075 8.26499 20.2075C8.26499 20.2075 8.26499 20.2075 8.26499 20.2075C8.26499 20.2074 8.26499 20.2074 8.26499 20.2074C8.26499 20.2074 8.26499 20.2074 8.26499 20.2073C8.26499 20.2073 8.26499 20.2073 8.26499 20.2073C8.26499 20.2073 8.26499 20.2072 8.26499 20.2072C8.26499 20.2072 8.26499 20.2072 8.26499 20.2072C8.26499 20.2071 8.26499 20.2071 8.26499 20.2071C8.26499 20.2071 8.26499 20.2071 8.26499 20.207C8.26499 20.207 8.26499 20.207 8.26499 20.207C8.26499 20.207 8.26499 20.2069 8.26499 20.2069C8.26499 20.2069 8.26499 20.2069 8.26499 20.2069C8.26499 20.2069 8.26499 20.2068 8.26499 20.2068C8.26499 20.2068 8.26499 20.2068 8.26499 20.2068C8.26499 20.2067 8.26499 20.2067 8.26499 20.2067C8.26499 20.2067 8.26499 20.2067 8.26499 20.2066C8.26499 20.2066 8.26499 20.2066 8.26499 20.2066C8.26499 20.2066 8.26499 20.2065 8.26499 20.2065C8.26499 20.2065 8.26499 20.2065 8.26499 20.2065C8.26499 20.2064 8.26499 20.2064 8.26499 20.2064C8.26499 20.2064 8.26499 20.2064 8.26499 20.2063C8.26499 20.2063 8.26499 20.2063 8.26499 20.2063C8.26499 20.2063 8.26499 20.2062 8.26499 20.2062C8.26499 20.2062 8.26499 20.2062 8.26499 20.2062C8.26499 20.2061 8.26499 20.2061 8.26499 20.2061C8.26499 20.2061 8.26499 20.2061 8.26499 20.206C8.26499 20.206 8.26499 20.206 8.26499 20.206C8.26499 20.206 8.26499 20.2059 8.26499 20.2059C8.26499 20.2059 8.26499 20.2059 8.26499 20.2059C8.26499 20.2058 8.26499 20.2058 8.26499 20.2058C8.26499 20.2058 8.26499 20.2058 8.26499 20.2057C8.26499 20.2057 8.26499 20.2057 8.26499 20.2057C8.26499 20.2057 8.26499 20.2057 8.26499 20.2056C8.26499 20.2056 8.26499 20.2056 8.26499 20.2056C8.26499 20.2056 8.26499 20.2055 8.26499 20.2055C8.26499 20.2055 8.26499 20.2055 8.26499 20.2055C8.26499 20.2054 8.26499 20.2054 8.26499 20.2054C8.26499 20.2054 8.26499 20.2054 8.26499 20.2053C8.26499 20.2053 8.26499 20.2053 8.26499 20.2053C8.26499 20.2053 8.26499 20.2052 8.26499 20.2052C8.26499 20.2052 8.26499 20.2052 8.26499 20.2052C8.26499 20.2051 8.26499 20.2051 8.26499 20.2051C8.26499 20.2051 8.26499 20.2051 8.26499 20.205C8.26499 20.205 8.26499 20.205 8.26499 20.205C8.26499 20.205 8.26499 20.2049 8.26499 20.2049C8.26499 20.2049 8.26499 20.2049 8.26499 20.2049C8.26499 20.2048 8.26499 20.2048 8.26499 20.2048C8.26499 20.2048 8.26499 20.2048 8.26499 20.2047C8.26499 20.2047 8.26499 20.2047 8.26499 20.2047C8.26499 20.2047 8.26499 20.2046 8.26499 20.2046C8.26499 20.2046 8.26499 20.2046 8.26499 20.2046C8.26499 20.2046 8.26499 20.2045 8.26499 20.2045C8.26499 20.2045 8.26499 20.2045 8.26499 20.2045C8.26499 20.2044 8.26499 20.2044 8.26499 20.2044C8.26499 20.2044 8.26499 20.2044 8.26499 20.2043C8.26499 20.2043 8.26499 20.2043 8.26499 20.2043C8.26499 20.2043 8.26499 20.2042 8.26499 20.2042C8.26499 20.2042 8.26499 20.2042 8.26499 20.2042C8.26499 20.2041 8.26499 20.2041 8.26499 20.2041C8.26499 20.2041 8.26499 20.2041 8.26499 20.204C8.26499 20.204 8.26499 20.204 8.26499 20.204C8.26499 20.204 8.26499 20.2039 8.26499 20.2039C8.26499 20.2039 8.26499 20.2039 8.26499 20.2039C8.26499 20.2038 8.26499 20.2038 8.26499 20.2038C8.26499 20.2038 8.26499 20.2038 8.26499 20.2037C8.26499 20.2037 8.26499 20.2037 8.26499 20.2037C8.26499 20.2037 8.26499 20.2036 8.26499 20.2036C8.26499 20.2036 8.26499 20.2036 8.26499 20.2036C8.26499 20.2035 8.26499 20.2035 8.26499 20.2035C8.26499 20.2035 8.26499 20.2035 8.26499 20.2034C8.26499 20.2034 8.26499 20.2034 8.26499 20.2034C8.26499 20.2034 8.26499 20.2034 8.26499 20.2033C8.26499 20.2033 8.26499 20.2033 8.26499 20.2033C8.26499 20.2033 8.26499 20.2032 8.26499 20.2032C8.26499 20.2032 8.26499 20.2032 8.26499 20.2032C8.26499 20.2031 8.26499 20.2031 8.26499 20.2031C8.26499 20.2031 8.26499 20.2031 8.26499 20.203C8.26499 20.203 8.26499 20.203 8.26499 20.203C8.26499 20.203 8.26499 20.2029 8.26499 20.2029C8.26499 20.2029 8.26499 20.2029 8.26499 20.2029C8.26499 20.2028 8.26499 20.2028 8.26499 20.2028C8.26499 20.2028 8.26499 20.2028 8.26499 20.2027C8.26499 20.2027 8.26499 20.2027 8.26499 20.2027C8.26499 20.2027 8.26499 20.2026 8.26499 20.2026C8.26499 20.2026 8.26499 20.2026 8.26499 20.2026C8.26499 20.2025 8.26499 20.2025 8.26499 20.2025C8.26499 20.2025 8.26499 20.2025 8.26499 20.2024C8.26499 20.2024 8.26499 20.2024 8.26499 20.2024C8.26499 20.2024 8.26499 20.2023 8.26499 20.2023C8.26499 20.2023 8.26499 20.2023 8.26499 20.2023C8.26499 20.2022 8.26499 20.2022 8.26499 20.2022C8.26499 20.2022 8.26499 20.2022 8.26499 20.2022C8.26499 20.2021 8.26499 20.2021 8.26499 20.2021C8.26499 20.2021 8.26499 20.2021 8.26499 20.202C8.26499 20.202 8.26499 20.202 8.26499 20.202C8.26499 20.202 8.26499 20.2019 8.26499 20.2019C8.26499 20.2019 8.26499 20.2019 8.26499 20.2019C8.26499 20.2018 8.26499 20.2018 8.26499 20.2018C8.26499 20.2018 8.26499 20.2018 8.26499 20.2017C8.26499 20.2017 8.26499 20.2017 8.26499 20.2017C8.26499 20.2017 8.26499 20.2016 8.26499 20.2016C8.26499 20.2016 8.26499 20.2016 8.26499 20.2016C8.26499 20.2015 8.26499 20.2015 8.26499 20.2015C8.26499 20.2015 8.26499 20.2015 8.26499 20.2014C8.26499 20.2014 8.26499 20.2014 8.26499 20.2014C8.26499 20.2014 8.26499 20.2013 8.26499 20.2013C8.26499 20.2013 8.26499 20.2013 8.26499 20.2013C8.26499 20.2012 8.26499 20.2012 8.26499 20.2012C8.26499 20.2012 8.26499 20.2012 8.26499 20.2011C8.26499 20.2011 8.26499 20.2011 8.26499 20.2011C8.26499 20.2011 8.26499 20.201 8.26499 20.201C8.26499 20.201 8.26499 20.201 8.26499 20.201C8.26499 20.201 8.26499 20.2009 8.26499 20.2009C8.26499 20.2009 8.26499 20.2009 8.26499 20.2009C8.26499 20.2008 8.26499 20.2008 8.26499 20.2008C8.26499 20.2008 8.26499 20.2008 8.26499 20.2007C8.26499 20.2007 8.26499 20.2007 8.26499 20.2007C8.26499 20.2007 8.26499 20.2006 8.26499 20.2006C8.26499 20.2006 8.26499 20.2006 8.26499 20.2006C8.26499 20.2005 8.26499 20.2005 8.26499 20.2005C8.26499 20.2005 8.26499 20.2005 8.26499 20.2004C8.26499 20.2004 8.26499 20.2004 8.26499 20.2004C8.26499 20.2004 8.26499 20.2003 8.26499 20.2003C8.26499 20.2003 8.26499 20.2003 8.26499 20.2003C8.26499 20.2002 8.26499 20.2002 8.26499 20.2002C8.26499 20.2002 8.26499 20.2002 8.26499 20.2001C8.26499 20.2001 8.26499 20.2001 8.26499 20.2001C8.26499 20.2001 8.26499 20.2 8.26499 20.2C8.26499 20.2 8.26499 20.2 8.26499 20.2C8.26499 20.1999 8.26499 20.1999 8.26499 20.1999C8.26499 20.1999 8.26499 20.1999 8.26499 20.1999C8.26499 20.1998 8.26499 20.1998 8.26499 20.1998C8.26499 20.1998 8.26499 20.1998 8.26499 20.1997C8.26499 20.1997 8.26499 20.1997 8.26499 20.1997C8.26499 20.1997 8.26499 20.1996 8.26499 20.1996C8.26499 20.1996 8.26499 20.1996 8.26499 20.1996C8.26499 20.1995 8.26499 20.1995 8.26499 20.1995C8.26499 20.1995 8.26499 20.1995 8.26499 20.1994C8.26499 20.1994 8.26499 20.1994 8.26499 20.1994C8.26499 20.1994 8.26499 20.1993 8.26499 20.1993C8.26499 20.1993 8.26499 20.1993 8.26499 20.1993C8.26499 20.1992 8.26499 20.1992 8.26499 20.1992C8.26499 20.1992 8.26499 20.1992 8.26499 20.1991C8.26499 20.1991 8.26499 20.1991 8.26499 20.1991C8.26499 20.1991 8.26499 20.199 8.26499 20.199C8.26499 20.199 8.26499 20.199 8.26499 20.199C8.26499 20.1989 8.26499 20.1989 8.26499 20.1989C8.26499 20.1989 8.26499 20.1989 8.26499 20.1988C8.26499 20.1988 8.26499 20.1988 8.26499 20.1988C8.26499 20.1988 8.26499 20.1987 8.26499 20.1987C8.26499 20.1987 8.26499 20.1987 8.26499 20.1987C8.26499 20.1987 8.26499 20.1986 8.26499 20.1986C8.26499 20.1986 8.26499 20.1986 8.26499 20.1986C8.26499 20.1985 8.26499 20.1985 8.26499 20.1985C8.26499 20.1985 8.26499 20.1985 8.26499 20.1984C8.26499 20.1984 8.26499 20.1984 8.26499 20.1984C8.26499 20.1984 8.26499 20.1983 8.26499 20.1983C8.26499 20.1983 8.26499 20.1983 8.26499 20.1983C8.26499 20.1982 8.26499 20.1982 8.26499 20.1982C8.26499 20.1982 8.26499 20.1982 8.26499 20.1981C8.26499 20.1981 8.26499 20.1981 8.26499 20.1981C8.26499 20.1981 8.26499 20.198 8.26499 20.198C8.26499 20.198 8.26499 20.198 8.26499 20.198C8.26499 20.1979 8.26499 20.1979 8.26499 20.1979C8.26499 20.1979 8.26499 20.1979 8.26499 20.1978C8.26499 20.1978 8.26499 20.1978 8.26499 20.1978C8.26499 20.1978 8.26499 20.1977 8.26499 20.1977C8.26499 20.1977 8.26499 20.1977 8.26499 20.1977C8.26499 20.1976 8.26499 20.1976 8.26499 20.1976C8.26499 20.1976 8.26499 20.1976 8.26499 20.1975C8.26499 20.1975 8.26499 20.1975 8.26499 20.1975C8.26499 20.1975 8.26499 20.1975 8.26499 20.1974C8.26499 20.1974 8.26499 20.1974 8.26499 20.1974C8.26499 20.1974 8.26499 20.1973 8.26499 20.1973C8.26499 20.1973 8.26499 20.1973 8.26499 20.1973C8.26499 20.1972 8.26499 20.1972 8.26499 20.1972C8.26499 20.1972 8.26499 20.1972 8.26499 20.1971C8.26499 20.1971 8.26499 20.1971 8.26499 20.1971C8.26499 20.1971 8.26499 20.197 8.26499 20.197C8.26499 20.197 8.26499 20.197 8.26499 20.197C8.26499 20.1969 8.26499 20.1969 8.26499 20.1969C8.26499 20.1969 8.26499 20.1969 8.26499 20.1968C8.26499 20.1968 8.26499 20.1968 8.26499 20.1968C8.26499 20.1968 8.26499 20.1967 8.26499 20.1967C8.26499 20.1967 8.26499 20.1967 8.26499 20.1967C8.26499 20.1966 8.26499 20.1966 8.26499 20.1966C8.26499 20.1966 8.26499 20.1966 8.26499 20.1965C8.26499 20.1965 8.26499 20.1965 8.26499 20.1965C8.26499 20.1965 8.26499 20.1964 8.26499 20.1964C8.26499 20.1964 8.26499 20.1964 8.26499 20.1964C8.26499 20.1964 8.26499 20.1963 8.26499 20.1963C8.26499 20.1963 8.26499 20.1963 8.26499 20.1963C8.26499 20.1962 8.26499 20.1962 8.26499 20.1962C8.26499 20.1962 8.26499 20.1962 8.26499 20.1961C8.26499 20.1961 8.26499 20.1961 8.26499 20.1961C8.26499 20.1961 8.26499 20.196 8.26499 20.196C8.26499 20.196 8.26499 20.196 8.26499 20.196C8.26499 20.1959 8.26499 20.1959 8.26499 20.1959C8.26499 20.1959 8.26499 20.1959 8.26499 20.1958C8.26499 20.1958 8.26499 20.1958 8.26499 20.1958C8.26499 20.1958 8.26499 20.1957 8.26499 20.1957C8.26499 20.1957 8.26499 20.1957 8.26499 20.1957C8.26499 20.1956 8.26499 20.1956 8.26499 20.1956C8.26499 20.1956 8.26499 20.1956 8.26499 20.1955C8.26499 20.1955 8.26499 20.1955 8.26499 20.1955C8.26499 20.1955 8.26499 20.1954 8.26499 20.1954C8.26499 20.1954 8.26499 20.1954 8.26499 20.1954C8.26499 20.1953 8.26499 20.1953 8.26499 20.1953C8.26499 20.1953 8.26499 20.1953 8.26499 20.1952C8.26499 20.1952 8.26499 20.1952 8.26499 20.1952C8.26499 20.1952 8.26499 20.1952 8.26499 20.1951C8.26499 20.1951 8.26499 20.1951 8.26499 20.1951C8.26499 20.1951 8.26499 20.195 8.26499 20.195C8.26499 20.195 8.26499 20.195 8.26499 20.195C8.26499 20.1949 8.26499 20.1949 8.26499 20.1949C8.26499 20.1949 8.26499 20.1949 8.26499 20.1948C8.26499 20.1948 8.26499 20.1948 8.26499 20.1948C8.26499 20.1948 8.26499 20.1947 8.26499 20.1947C8.26499 20.1947 8.26499 20.1947 8.26499 20.1947C8.26499 20.1946 8.26499 20.1946 8.26499 20.1946C8.26499 20.1946 8.26499 20.1946 8.26499 20.1945C8.26499 20.1945 8.26499 20.1945 8.26499 20.1945C8.26499 20.1945 8.26499 20.1944 8.26499 20.1944C8.26499 20.1944 8.26499 20.1944 8.26499 20.1944C8.26499 20.1943 8.26499 20.1943 8.26499 20.1943C8.26499 20.1943 8.26499 20.1943 8.26499 20.1942C8.26499 20.1942 8.26499 20.1942 8.26499 20.1942H7.06499ZM7.065 20.2373C7.08667 24.7888 10.7405 28.4962 15.2764 28.4962V27.2962C11.4156 27.2962 8.28358 24.1372 8.26499 20.2316L7.065 20.2373ZM15.2764 28.4962C19.8117 28.4962 23.4877 24.7786 23.4877 20.2043H22.2877C22.2877 24.1272 19.1377 27.2962 15.2764 27.2962V28.4962ZM23.4877 20.2043V15.6032H22.2877V20.2043H23.4877ZM22.9622 15.0078C20.431 14.6914 13.8432 14.2648 7.59659 15.0889L7.75353 16.2786C13.8704 15.4716 20.3508 15.8907 22.8133 16.1986L22.9622 15.0078ZM7.07506 15.6837V20.2345H8.27506V15.6837H7.07506ZM7.67506 19.6345H7.66499V20.8345H7.67506V19.6345ZM8.21814 15.6918L8.9531 10.7686L7.76626 10.5914L7.0313 15.5146L8.21814 15.6918ZM8.64861 10.1541C7.86082 9.72127 7.2663 9.02212 6.97335 8.17775L5.83964 8.57108C6.23132 9.70002 7.02617 10.6319 8.07075 11.2058L8.64861 10.1541ZM6.97335 8.17775C6.68166 7.33698 6.72362 6.41663 7.08614 5.59664L5.98862 5.11141C5.50543 6.20434 5.44671 7.43852 5.83964 8.57108L6.97335 8.17775ZM7.08614 5.59664C7.45002 4.77357 8.09671 4.1213 8.90954 3.7705L8.43404 2.66873C7.33395 3.1435 6.47045 4.02156 5.98862 5.11141L7.08614 5.59664ZM8.9144 3.76838C9.73061 3.40753 10.6529 3.37187 11.5007 3.65736L11.8837 2.52011C10.7582 2.14111 9.52588 2.186 8.42918 2.67085L8.9144 3.76838ZM12.1829 3.43403C12.514 2.96344 12.9457 2.57742 13.4378 2.3229L12.8864 1.25704C12.2106 1.60659 11.6355 2.12669 11.2015 2.74344L12.1829 3.43403ZM13.4449 2.31913C13.9402 2.05442 14.4972 1.91677 15.0649 1.91677V0.716772C14.3037 0.716772 13.5519 0.901302 12.8793 1.26081L13.4449 2.31913ZM15.0649 1.91677C15.6327 1.91677 16.1897 2.05442 16.685 2.31913L17.2506 1.26081C16.578 0.901302 15.8262 0.716772 15.0649 0.716772V1.91677ZM16.685 2.31913C17.1913 2.58973 17.6292 2.9702 17.9428 3.42787L18.9327 2.74959C18.5012 2.11993 17.9122 1.61441 17.2506 1.26081L16.685 2.31913ZM18.6344 3.65559C19.4751 3.36389 20.3955 3.40586 21.2155 3.76838L21.7007 2.67085C20.6078 2.18767 19.3736 2.12895 18.241 2.52188L18.6344 3.65559ZM21.2155 3.76838C22.0737 4.14781 22.8474 4.82089 23.1948 5.6067L24.2923 5.12148C23.794 3.99438 22.7554 3.13714 21.7007 2.67085L21.2155 3.76838ZM23.1948 5.6067C23.5556 6.42292 23.5913 7.34518 23.3058 8.193L24.443 8.57596C24.822 7.45046 24.7771 6.21818 24.2923 5.12148L23.1948 5.6067ZM23.3076 8.18782C23.0142 9.03341 22.4874 9.63526 21.798 10.2385L22.5882 11.1416C23.3485 10.4763 24.05 9.70887 24.4413 8.58114L23.3076 8.18782ZM21.5996 10.7786L22.3346 15.7019L23.5214 15.5247L22.7865 10.6015L21.5996 10.7786ZM7.69198 16.7057C7.36572 16.6167 7.03538 16.6201 6.72203 16.6882L6.97694 17.8608C7.12671 17.8282 7.2595 17.8316 7.37624 17.8634L7.69198 16.7057ZM6.71651 16.6894C6.42255 16.7562 6.13351 16.8787 5.86935 17.0734L6.58119 18.0394C6.69962 17.9522 6.83343 17.8934 6.98246 17.8596L6.71651 16.6894ZM5.85691 17.0828C5.60838 17.2761 5.39833 17.5263 5.25569 17.8116L6.32901 18.3483C6.38772 18.2308 6.47971 18.1186 6.59364 18.03L5.85691 17.0828ZM5.25569 17.8116C5.11731 18.0884 5.03126 18.4113 5.03126 18.7444H6.23126C6.23126 18.6145 6.26603 18.4742 6.32901 18.3483L5.25569 17.8116ZM5.03126 18.7444C5.03126 19.06 5.09925 19.3755 5.22506 19.6551L6.31937 19.1627C6.26396 19.0396 6.23126 18.892 6.23126 18.7444H5.03126ZM5.2305 19.6669C5.36804 19.9557 5.5658 20.2132 5.8267 20.4161L6.56343 19.4689C6.46189 19.3899 6.37775 19.285 6.31393 19.1509L5.2305 19.6669ZM5.8267 20.4161C6.06278 20.5997 6.3528 20.7561 6.67624 20.8296L6.94219 19.6595C6.82264 19.6323 6.6898 19.5672 6.56343 19.4689L5.8267 20.4161ZM6.67624 20.8296C6.98639 20.9001 7.29907 20.8975 7.59664 20.8457L7.39103 19.6635C7.22548 19.6923 7.07503 19.6897 6.94219 19.6595L6.67624 20.8296ZM23.1664 17.8634C23.2832 17.8316 23.416 17.8282 23.5657 17.8608L23.8206 16.6882C23.5073 16.6201 23.1769 16.6167 22.8507 16.7057L23.1664 17.8634ZM23.5602 17.8596C23.7092 17.8934 23.8431 17.9522 23.9615 18.0394L24.6733 17.0734C24.4092 16.8787 24.1201 16.7562 23.8262 16.6894L23.5602 17.8596ZM23.949 18.03C24.063 18.1186 24.1549 18.2308 24.2137 18.3483L25.287 17.8116C25.1443 17.5263 24.9343 17.2761 24.6858 17.0828L23.949 18.03ZM24.2137 18.3483C24.2766 18.4742 24.3114 18.6145 24.3114 18.7444H25.5114C25.5114 18.4113 25.4254 18.0884 25.287 17.8116L24.2137 18.3483ZM24.3114 18.7444C24.3114 18.892 24.2787 19.0396 24.2233 19.1627L25.3176 19.6551C25.4434 19.3755 25.5114 19.06 25.5114 18.7444H24.3114ZM24.2287 19.1509C24.1649 19.285 24.0808 19.3899 23.9792 19.4689L24.716 20.4161C24.9769 20.2132 25.1746 19.9557 25.3122 19.6669L24.2287 19.1509ZM23.9792 19.4689C23.8529 19.5672 23.72 19.6323 23.6005 19.6595L23.8664 20.8296C24.1899 20.7561 24.4799 20.5997 24.716 20.4161L23.9792 19.4689ZM23.6005 19.6595C23.4676 19.6897 23.3172 19.6923 23.1516 19.6635L22.946 20.8457C23.2436 20.8975 23.5563 20.9001 23.8664 20.8296L23.6005 19.6595ZM16.0393 22.6816C15.8126 22.8091 15.5424 22.8763 15.2764 22.8763V24.0763C15.7352 24.0763 16.2101 23.9624 16.6277 23.7275L16.0393 22.6816ZM15.2764 22.8763C15.0017 22.8763 14.7413 22.8098 14.5134 22.6816L13.9251 23.7275C14.3415 23.9617 14.806 24.0763 15.2764 24.0763V22.8763ZM11.2231 18.7646V19.9828H12.4231V18.7646H11.2231ZM27.2915 23.3354V26.7182H28.4915V23.3354H27.2915ZM29.6474 23.3354V26.7182H30.8474V23.3354H29.6474ZM27.6559 35.276C27.6559 35.104 27.79 34.9699 27.962 34.9699V33.7699C27.1272 33.7699 26.4559 34.4412 26.4559 35.276H27.6559ZM27.962 34.9699H31.2341V33.7699H27.962V34.9699ZM31.2341 34.9699C32.131 34.9699 32.849 35.6879 32.849 36.5848H34.049C34.049 35.0252 32.7938 33.7699 31.2341 33.7699V34.9699ZM32.849 36.5848V38.5682H34.049V36.5848H32.849ZM32.849 38.5682C32.849 39.4569 32.1292 40.1832 31.2341 40.1832V41.3832C32.7955 41.3832 34.049 40.1161 34.049 38.5682H32.849ZM31.2341 40.1832H27.962V41.3832H31.2341V40.1832ZM27.962 40.1832C27.79 40.1832 27.6559 40.0491 27.6559 39.8771H26.4559C26.4559 40.7118 27.1272 41.3832 27.962 41.3832V40.1832ZM27.6559 39.8771V35.276H26.4559V39.8771H27.6559ZM32.0235 23.3354V26.7182H33.2235V23.3354H32.0235ZM32.569 34.5511V30.1615H31.369V34.5511H32.569ZM32.569 30.1615C32.569 29.9391 32.7535 29.7547 32.9758 29.7547V28.5547C32.0907 28.5547 31.369 29.2764 31.369 30.1615H32.569ZM32.9758 29.7547H33.7007V28.5547H32.9758V29.7547ZM33.7007 29.7547C34.757 29.7547 35.6096 28.9021 35.6096 27.8459H34.4096C34.4096 28.2394 34.0943 28.5547 33.7007 28.5547V29.7547ZM35.6096 27.8459V22.3185H34.4096V27.8459H35.6096ZM35.6096 22.3185C35.6096 21.2623 34.757 20.4097 33.7007 20.4097V21.6097C34.0943 21.6097 34.4096 21.925 34.4096 22.3185H35.6096ZM33.7007 20.4097H26.774V21.6097H33.7007V20.4097ZM26.774 20.4097C25.7177 20.4097 24.8651 21.2623 24.8651 22.3185H26.0651C26.0651 21.925 26.3805 21.6097 26.774 21.6097V20.4097ZM24.8651 22.3185V27.8459H26.0651V22.3185H24.8651ZM24.8651 27.8459C24.8651 28.9021 25.7177 29.7547 26.774 29.7547V28.5547C26.3805 28.5547 26.0651 28.2394 26.0651 27.8459H24.8651ZM26.774 29.7547H27.4989V28.5547H26.774V29.7547ZM27.4989 29.7547C27.7212 29.7547 27.9057 29.9391 27.9057 30.1615H29.1057C29.1057 29.2764 28.384 28.5547 27.4989 28.5547V29.7547ZM27.9057 30.1615V34.5511H29.1057V30.1615H27.9057ZM18.18 18.7646V19.9828H19.38V18.7646H18.18ZM27.7808 40.5456H1V41.7456H27.7808V40.5456ZM1.6 41.1456V35.9103H0.4V41.1456H1.6ZM1.6 35.9103C1.6 34.0706 2.75841 32.4349 4.49146 31.8248L4.09298 30.6929C1.8794 31.4722 0.4 33.5617 0.4 35.9103H1.6ZM4.49113 31.8249L11.3676 29.4086L10.9697 28.2765L4.09331 30.6928L4.49113 31.8249ZM11.3761 29.4056C11.7053 29.2843 11.9869 29.041 12.1483 28.7182L11.075 28.1816C11.0551 28.2213 11.0146 28.2599 10.9612 28.2796L11.3761 29.4056ZM12.1426 28.7294L12.5453 27.9642L11.4834 27.4053L11.0807 28.1705L12.1426 28.7294ZM18.2491 27.9642L18.6518 28.7294L19.7137 28.1705L19.311 27.4053L18.2491 27.9642ZM18.6461 28.7182C18.809 29.0441 19.0944 29.2888 19.4376 29.4089L19.834 28.2763C19.7745 28.2554 19.7377 28.2182 19.7194 28.1816L18.6461 28.7182ZM19.4385 29.4092L26.4055 31.8356L26.8002 30.7023L19.8331 28.2759L19.4385 29.4092ZM26.4075 31.8363C26.9436 32.0208 27.4306 32.3121 27.8495 32.6775L28.6383 31.7733C28.1109 31.3131 27.4904 30.9399 26.7981 30.7016L26.4075 31.8363ZM20.1511 28.6844L13.0934 32.0773L13.6134 33.1588L20.671 29.7659L20.1511 28.6844ZM13.0958 32.0761C11.8658 32.6607 11.1022 33.9011 11.1022 35.2458H12.3022C12.3022 34.3554 12.8073 33.5419 13.6109 33.16L13.0958 32.0761ZM11.1022 35.2458V41.3168H12.3022V35.2458H11.1022ZM10.0218 30.0765L13.5154 32.7143L14.2385 31.7566L10.7449 29.1188L10.0218 30.0765ZM14.616 8.50529V11.5156H15.816V8.50529H14.616ZM6.43071 37.199V40.8939H7.63071V37.199H6.43071ZM10.8928 8.90137L12.2218 11.8714L13.3171 11.3813L11.9881 8.41125L10.8928 8.90137ZM18.2324 8.41125L16.9034 11.3813L17.9987 11.8714L19.3277 8.90137L18.2324 8.41125Z" fill="#23222A"/>
</svg>
