<svg width="52" height="42" viewBox="0 0 52 42" fill="none" xmlns="http://www.w3.org/2000/svg">
<path d="M41.8 16.4167C40.7 14.5167 39.1 13.0167 37.1 12.0167C35.2 11.0167 33 10.5167 30.8 10.6167M21.8 34.6167H41.9C44.6 34.6167 46.8 32.4167 46.8 29.7167H30.9M19.1 24.8167H48.9C48.9 20.0167 47 15.4167 43.6 12.0167C40.2 8.61672 35.6 6.71672 30.8 6.71672C26 6.71672 21.4 8.61672 18 12.0167C16 14.0167 14.5 16.4167 13.6 19.1167M18.2 29.7167H48.6C50 29.7167 51 28.6167 51 27.3167C51 25.9167 49.9 24.9167 48.6 24.9167H19.1M13 33.8167L17.4 41.3167L18.3 36.7167L23 38.0167L18.7 30.6167M10.8 34.2167L6.5 41.3167L5.6 36.7167L1 38.0167L5.1 31.0167M33.8 4.01672C33.8 5.61672 32.5 7.01672 30.8 7.01672C29.2 7.01672 27.8 5.71672 27.8 4.01672C27.8 2.41672 29.1 1.01672 30.8 1.01672C32.5 1.01672 33.8 2.31672 33.8 4.01672ZM14.9 26.4167C14.9 28.0167 13.6 29.4167 11.9 29.4167C10.3 29.4167 8.9 28.1167 8.9 26.4167C8.9 24.8167 10.2 23.4167 11.9 23.4167C13.6 23.4167 14.9 24.8167 14.9 26.4167ZM10.8 19.7167L9.6 19.2167C9.3 19.1167 8.9 19.2167 8.7 19.5167L8 20.8167C7.9 21.0167 7.7 21.2167 7.5 21.2167L6.2 21.4167C5.8 21.4167 5.6 21.8167 5.6 22.2167L5.7 23.5167C5.7 23.7167 5.6 24.0167 5.4 24.1167L4.3 24.9167C4 25.1167 3.9 25.6167 4.1 25.9167L4.8 27.0167C5 27.1167 5 27.4167 4.9 27.6167L4.4 28.8167C4.3 29.1167 4.4 29.5167 4.7 29.7167L5.9 30.3167C6.1 30.4167 6.3 30.6167 6.3 30.8167L6.5 32.1167C6.5 32.5167 6.9 32.7167 7.3 32.7167L8.6 32.6167C8.8 32.6167 9.1 32.7167 9.2 32.9167L10 34.0167C10.2 34.3167 10.7 34.4167 11 34.2167L12.1 33.5167C12.3 33.4167 12.6 33.3167 12.8 33.4167L14 34.0167C14.3 34.1167 14.7 34.0167 14.9 33.7167L15.5 32.5167C15.6 32.3167 15.8 32.1167 16 32.1167L17.3 31.9167C17.7 31.9167 17.9 31.5167 17.9 31.1167L17.8 29.8167C17.8 29.6167 17.9 29.3167 18.1 29.2167L19.2 28.4167C19.5 28.2167 19.6 27.7167 19.4 27.4167L18.7 26.3167C18.6 26.1167 18.5 25.8167 18.6 25.6167L19.1 24.4167C19.2 24.1167 19.1 23.7167 18.8 23.5167L17.6 22.9167C17.4 22.8167 17.2 22.6167 17.2 22.4167L17 21.0167C17 20.6167 16.6 20.4167 16.2 20.4167L14.9 20.5167C14.7 20.5167 14.4 20.4167 14.3 20.2167L13.5 19.1167C13.3 18.8167 12.8 18.7167 12.5 18.9167L11.4 19.6167C11.2 19.8167 11 19.8167 10.8 19.7167Z" stroke="#23222A" stroke-width="1.2" stroke-linecap="round" stroke-linejoin="round"/>
</svg>
