<svg width="19" height="19" viewBox="0 0 19 19" fill="none" xmlns="http://www.w3.org/2000/svg">
<path d="M13.3894 1.51332C14.433 1.51632 15.433 1.91594 16.1709 2.62491C16.9088 3.33389 17.3247 4.2946 17.3278 5.29724V12.8643C17.3247 13.8669 16.9088 14.8276 16.1709 15.5366C15.433 16.2456 14.433 16.6452 13.3894 16.6482H5.5135C4.46993 16.6452 3.46999 16.2456 2.73208 15.5366C1.99416 14.8276 1.57822 13.8669 1.5751 12.8643V5.29724C1.57822 4.2946 1.99416 3.33389 2.73208 2.62491C3.46999 1.91594 4.46993 1.51632 5.5135 1.51332H13.3894ZM13.3894 0H5.5135C2.48101 0 0 2.3837 0 5.29724V12.8643C0 15.7778 2.48101 18.1615 5.5135 18.1615H13.3894C16.4219 18.1615 18.9029 15.7778 18.9029 12.8643V5.29724C18.9029 2.3837 16.4219 0 13.3894 0Z" fill="#1C1C1C"/>
<path d="M14.5707 5.29948C14.3371 5.29948 14.1086 5.23291 13.9144 5.10819C13.7201 4.98346 13.5686 4.80618 13.4792 4.59877C13.3898 4.39136 13.3664 4.16313 13.412 3.94295C13.4576 3.72276 13.5701 3.5205 13.7353 3.36176C13.9006 3.20301 14.1111 3.09491 14.3402 3.05111C14.5694 3.00731 14.807 3.02979 15.0228 3.1157C15.2387 3.20161 15.4232 3.3471 15.5531 3.53377C15.6829 3.72043 15.7522 3.93989 15.7522 4.16439C15.7525 4.31354 15.7222 4.46129 15.6629 4.59915C15.6037 4.73701 15.5166 4.86227 15.4069 4.96774C15.2971 5.07321 15.1667 5.1568 15.0232 5.21373C14.8798 5.27066 14.726 5.29981 14.5707 5.29948ZM9.45132 6.05594C10.0745 6.05594 10.6836 6.23348 11.2017 6.56609C11.7198 6.89871 12.1237 7.37147 12.3621 7.92459C12.6006 8.47771 12.663 9.08635 12.5414 9.67354C12.4198 10.2607 12.1198 10.8001 11.6792 11.2234C11.2385 11.6468 10.6771 11.9351 10.066 12.0519C9.45482 12.1687 8.82133 12.1087 8.24563 11.8796C7.66993 11.6505 7.17787 11.2625 6.83167 10.7647C6.48547 10.2669 6.30069 9.68169 6.30069 9.083C6.30159 8.28043 6.63381 7.51099 7.22448 6.94349C7.81514 6.376 8.616 6.0568 9.45132 6.05594ZM9.45132 4.54262C8.51666 4.54262 7.60299 4.80891 6.82585 5.30781C6.0487 5.80671 5.44299 6.51582 5.08531 7.34547C4.72763 8.17511 4.63405 9.08803 4.81639 9.96878C4.99874 10.8495 5.44882 11.6585 6.10972 12.2935C6.77063 12.9285 7.61268 13.3609 8.52938 13.5361C9.44608 13.7113 10.3963 13.6214 11.2598 13.2778C12.1233 12.9341 12.8614 12.3522 13.3806 11.6055C13.8999 10.8588 14.1771 9.981 14.1771 9.083C14.1771 7.87881 13.6792 6.72395 12.7929 5.87247C11.9067 5.02098 10.7047 4.54262 9.45132 4.54262Z" fill="#1C1C1C"/>
</svg>
