<svg width="12" height="21" viewBox="0 0 12 21" fill="none" xmlns="http://www.w3.org/2000/svg">
<path d="M1.03451 11.1846H3.33645V20.6613C3.33645 20.8484 3.48806 21 3.67516 21H7.57818C7.76528 21 7.91689 20.8484 7.91689 20.6613V11.2292H10.5632C10.7352 11.2292 10.88 11.1001 10.8996 10.9292L11.3015 7.44037C11.3126 7.34438 11.2822 7.24825 11.218 7.17624C11.1537 7.10416 11.0617 7.06291 10.9651 7.06291H7.91702V4.87593C7.91702 4.21666 8.27199 3.88236 8.97217 3.88236C9.07196 3.88236 10.9651 3.88236 10.9651 3.88236C11.1522 3.88236 11.3038 3.73068 11.3038 3.54365V0.341216C11.3038 0.154113 11.1522 0.00250645 10.9651 0.00250645H8.21854C8.19917 0.00155806 8.15615 0 8.09275 0C7.61618 0 5.95969 0.0935515 4.65118 1.29733C3.20137 2.6313 3.4029 4.22852 3.45107 4.50545V7.06284H1.03451C0.847407 7.06284 0.695801 7.21445 0.695801 7.40155V10.8458C0.695801 11.0329 0.847407 11.1846 1.03451 11.1846Z" fill="#23222A"/>
</svg>
