<svg width="26" height="26" viewBox="0 0 26 26" fill="none" xmlns="http://www.w3.org/2000/svg">
<path d="M16.0514 2.62582C17.7355 3.06932 19.2718 3.95187 20.5032 5.18334C21.7347 6.4148 22.6172 7.95106 23.0607 9.6352M15.05 6.63118C17.1178 7.18442 18.5021 8.56878 19.0554 10.6365M16.6008 15.811C16.7395 15.7187 16.899 15.6625 17.0649 15.6474C17.2308 15.6323 17.3978 15.6588 17.5509 15.7246L23.4538 18.3694C23.6527 18.4544 23.8187 18.6016 23.927 18.7889C24.0353 18.9761 24.0801 19.1935 24.0546 19.4083C23.8601 20.8615 23.1444 22.1947 22.0407 23.1598C20.937 24.125 19.5202 24.6564 18.054 24.6553C13.5393 24.6553 9.2095 22.8618 6.01711 19.6694C2.82472 16.4771 1.03125 12.1472 1.03125 7.63252C1.03013 6.16632 1.56156 4.7496 2.5267 3.64585C3.49185 2.54211 4.82502 1.82646 6.27827 1.63199C6.4931 1.60647 6.71042 1.65121 6.8977 1.75952C7.08497 1.86782 7.23214 2.03387 7.31716 2.2328L9.96195 8.1407C10.0269 8.29244 10.0534 8.45789 10.039 8.62233C10.0246 8.78677 9.96973 8.94509 9.87934 9.08321L7.20451 12.2637C7.10963 12.4069 7.05352 12.5722 7.04168 12.7436C7.02983 12.9149 7.06265 13.0864 7.13692 13.2413C8.17206 15.3604 10.3625 17.5245 12.4878 18.5496C12.6435 18.6236 12.8158 18.6557 12.9877 18.6427C13.1595 18.6298 13.3251 18.5722 13.4679 18.4758L16.6008 15.811Z" stroke="white" stroke-width="2" stroke-linecap="round" stroke-linejoin="round"/>
</svg>
