<svg width="185" height="61" viewBox="0 0 185 61" fill="none" xmlns="http://www.w3.org/2000/svg">
<path d="M183.716 9.56709H174.812V10.699H183.716C183.792 10.699 183.867 10.7745 183.867 10.8499V49.9381C183.867 50.0136 183.792 50.089 183.716 50.089H92.7119V10.699H131.8V9.56709H91.6555C91.6178 9.56709 91.58 9.56709 91.5423 9.56709H1.21687C0.801839 9.56709 0.5 9.90666 0.5 10.284V50.4663C0.5 50.8814 0.839569 51.1832 1.21687 51.1832H91.5423C91.58 51.1832 91.6178 51.1832 91.6555 51.1832H183.716C184.433 51.1832 184.999 50.6172 184.999 49.9004V10.8499C184.999 10.133 184.433 9.56709 183.716 9.56709Z" fill="#8E8E8E"/>
<path d="M145.609 3.41712C146.288 2.8889 147.005 2.43614 147.798 2.09657C148.552 1.757 149.382 1.49289 150.175 1.30424C150.59 1.22878 151.005 1.15332 151.42 1.11559C151.533 1.11559 151.608 1.11559 151.721 1.07786C151.759 1.07786 151.835 1.07786 151.872 1.07786H152.023C152.25 1.07786 152.438 1.07786 152.627 1.11559C153.457 1.19105 154.249 1.34197 155.042 1.56835C155.419 1.71927 155.796 1.83246 156.174 2.02111C156.362 2.09657 156.551 2.20976 156.702 2.28522C156.891 2.39841 157.041 2.47387 157.23 2.58706C157.57 2.81344 157.909 3.03982 158.211 3.2662C158.513 3.49258 158.815 3.79442 159.079 4.05853C159.343 4.32264 159.607 4.62448 159.833 4.96404C159.871 5.0395 159.909 5.07723 159.947 5.15269C159.871 5.19042 159.796 5.22815 159.72 5.26588C159.079 5.56772 158.475 5.90729 157.834 6.20913C157.23 6.51097 156.626 6.77508 155.947 6.96373C155.306 7.11465 154.627 7.22784 153.91 7.19011C154.589 7.41649 155.306 7.52968 156.023 7.52968C156.4 7.52968 156.74 7.45422 157.117 7.41649C157.494 7.34103 157.834 7.26557 158.173 7.15238C158.852 6.96373 159.532 6.73735 160.173 6.51097C160.324 6.47324 160.513 6.43551 160.663 6.36005C160.814 6.32232 161.003 6.28459 161.154 6.24686C161.494 6.1714 161.795 6.09594 162.135 6.02048C162.475 5.94502 162.776 5.90729 163.116 5.86956C163.267 5.86956 163.456 5.83183 163.606 5.83183C163.682 5.83183 163.757 5.83183 163.833 5.83183H163.984C164.059 5.83183 164.135 5.83183 164.21 5.86956C164.286 5.86956 164.361 5.90729 164.436 5.90729C164.512 5.90729 164.587 5.94502 164.663 5.94502C164.738 5.94502 164.814 5.98275 164.889 5.98275C165.191 6.05821 165.455 6.1714 165.719 6.28459C165.983 6.39778 166.248 6.5487 166.474 6.73735C166.587 6.81281 166.7 6.926 166.813 7.00146C166.927 7.11465 167.04 7.19011 167.153 7.3033C167.568 7.71833 167.908 8.17109 168.172 8.69931C168.436 9.22753 168.625 9.79347 168.7 10.3594C168.775 10.9254 168.813 11.5291 168.738 12.1327C168.662 12.7364 168.511 13.3024 168.247 13.8683C168.134 14.1324 167.983 14.3965 167.794 14.6606C167.606 14.9247 167.455 15.1511 167.228 15.3775C166.813 15.8303 166.323 16.2076 165.757 16.4717C165.606 16.5471 165.493 16.5849 165.342 16.6603C165.191 16.6981 165.04 16.7735 164.927 16.8112C164.625 16.8867 164.323 16.9622 163.984 16.9999C163.682 17.0376 163.38 17.0376 163.078 17.0376L163.04 16.9999L163.003 17.0376C162.663 17.0376 162.361 16.9999 162.022 16.9244C161.343 16.8112 160.701 16.6226 160.022 16.3585C160.286 16.5849 160.588 16.7735 160.89 16.9622C161.192 17.1508 161.531 17.3017 161.871 17.4526C162.097 17.5281 162.324 17.6036 162.55 17.679C162.475 17.7922 162.399 17.9431 162.324 18.0563L162.097 18.4336C161.795 18.9241 161.531 19.4523 161.305 19.9806C161.229 20.1692 161.154 20.3201 161.079 20.5088C160.965 20.471 160.89 20.471 160.814 20.4333L160.55 20.3579C160.362 20.3201 160.211 20.2824 160.022 20.2824C159.683 20.2069 159.305 20.1692 158.966 20.1315C158.249 20.056 157.57 19.9806 156.853 19.9051C155.457 19.7919 154.023 19.8296 152.627 19.9051C151.948 19.9428 151.231 20.0183 150.552 20.1315C150.363 20.1692 150.212 20.1692 150.024 20.2069C149.835 20.2447 149.684 20.2447 149.495 20.2824L149.005 20.3579L148.514 20.471C148.326 20.5088 148.175 20.5465 148.024 20.5842C147.835 20.622 147.684 20.6597 147.533 20.6974C147.194 20.8106 146.854 20.8861 146.515 20.9993C145.836 21.1879 145.194 21.452 144.553 21.7161C145.194 21.5275 145.873 21.3388 146.553 21.1879C146.892 21.1125 147.232 21.037 147.571 20.9993C147.76 20.9615 147.911 20.9615 148.099 20.9238C148.288 20.8861 148.439 20.8861 148.628 20.8483L149.156 20.7729L149.684 20.7352C149.873 20.7352 150.024 20.6974 150.212 20.6974C150.401 20.6974 150.552 20.6597 150.741 20.6597C151.42 20.622 152.099 20.622 152.778 20.622C154.136 20.6597 155.494 20.7729 156.853 20.9993C157.532 21.1125 158.173 21.2256 158.852 21.3766C159.192 21.452 159.532 21.5275 159.833 21.6407C159.984 21.6784 160.173 21.7539 160.324 21.7916L160.55 21.867C160.626 21.9048 160.663 21.9048 160.739 21.9425L160.475 22.0557C160.437 22.2066 160.399 22.3575 160.399 22.5085L160.362 22.7348V22.8103C160.211 22.7726 160.098 22.7348 159.947 22.7348C159.607 22.6594 159.23 22.6216 158.89 22.5462C158.173 22.433 157.494 22.3575 156.777 22.3198C155.381 22.2066 153.985 22.2066 152.589 22.2821C151.91 22.3198 151.193 22.3953 150.514 22.4707C150.325 22.5085 150.175 22.5085 149.986 22.5462C149.797 22.5839 149.646 22.5839 149.458 22.6216L148.967 22.6971L148.477 22.8103C148.288 22.848 148.137 22.8858 147.986 22.9235C147.798 22.9612 147.647 22.9989 147.496 23.0367C147.156 23.1121 146.817 23.2253 146.477 23.3385C145.798 23.5272 145.157 23.7913 144.515 24.0177C145.157 23.829 145.836 23.6026 146.515 23.4517C146.854 23.3762 147.194 23.3008 147.533 23.2253C147.722 23.1876 147.873 23.1876 148.024 23.1499C148.213 23.1121 148.364 23.1121 148.552 23.0744L149.08 22.9989L149.609 22.9612C149.797 22.9612 149.948 22.9235 150.137 22.9235C150.325 22.9235 150.476 22.8858 150.665 22.8858C151.344 22.848 152.023 22.848 152.702 22.848C154.061 22.8858 155.457 22.9612 156.777 23.1876C157.456 23.3008 158.136 23.414 158.777 23.5649C159.117 23.6404 159.456 23.7158 159.758 23.7913C159.909 23.829 160.098 23.8667 160.248 23.9045C160.399 23.9422 160.588 24.0177 160.739 24.0554L161.343 24.244L161.456 23.5649L161.607 22.8103C161.644 22.6971 161.682 22.5462 161.72 22.433L161.833 22.0557C162.022 21.5652 162.21 21.0747 162.475 20.622C162.701 20.1692 163.003 19.6787 163.305 19.2637L163.531 18.9241C163.606 18.8109 163.682 18.6977 163.757 18.6223C163.833 18.5091 163.908 18.4336 164.021 18.3204C164.059 18.2827 164.097 18.2072 164.135 18.1695L164.286 18.0186C164.625 18.0186 164.927 18.0186 165.229 17.9809C165.606 17.9431 165.983 17.8299 166.361 17.7168C166.474 17.679 166.549 17.6413 166.625 17.6036C166.7 17.5658 166.813 17.5281 166.889 17.4904C167.078 17.4149 167.266 17.3395 167.417 17.2263C167.493 17.1885 167.606 17.1131 167.681 17.0753L167.945 16.9244C168.021 16.8867 168.096 16.8112 168.172 16.7358C168.247 16.6603 168.323 16.6226 168.398 16.5471C169.002 16.0566 169.53 15.4152 169.907 14.7361C170.322 14.057 170.549 13.2646 170.7 12.51C171.001 11.7932 171.001 10.9631 170.926 10.2085C170.813 9.41618 170.586 8.66158 170.209 7.90698C169.832 7.19011 169.341 6.5487 168.738 5.98275C168.587 5.83183 168.436 5.71864 168.285 5.60545C168.134 5.49226 167.945 5.37907 167.794 5.26588C167.455 5.0395 167.078 4.85086 166.7 4.69994C166.323 4.54902 165.946 4.43583 165.531 4.36037C165.417 4.32264 165.342 4.32264 165.229 4.28491L165.078 4.24718H164.927C164.814 4.24718 164.738 4.20945 164.625 4.20945C164.512 4.20945 164.436 4.20945 164.323 4.20945H163.946C163.833 4.20945 163.757 4.24718 163.644 4.24718C163.456 4.28491 163.267 4.32264 163.078 4.32264C162.739 4.3981 162.437 4.47356 162.097 4.58675C162.059 4.54902 162.022 4.47356 161.984 4.43583C161.833 4.24718 161.682 4.05853 161.531 3.90761C161.229 3.56804 160.89 3.22847 160.513 2.92663C160.173 2.62479 159.796 2.36068 159.381 2.09657C159.003 1.83246 158.588 1.60608 158.173 1.41743C157.985 1.30424 157.758 1.22878 157.532 1.15332C157.306 1.07786 157.117 1.0024 156.891 0.926944C156.438 0.776024 156.023 0.662834 155.57 0.587374C154.664 0.398725 153.759 0.323265 152.891 0.360995C152.665 0.360995 152.438 0.360995 152.212 0.398725H152.023C151.948 0.398725 151.91 0.398725 151.835 0.436455C151.722 0.436455 151.608 0.474185 151.495 0.474185C151.042 0.549645 150.627 0.662834 150.175 0.813754C149.345 1.07786 148.514 1.41743 147.76 1.87019C147.005 2.32295 146.288 2.85117 145.647 3.45485C145.194 3.86988 144.817 4.32264 144.477 4.81313C144.741 4.17172 145.157 3.75669 145.609 3.41712Z" fill="#8E8E8E"/>
<path d="M134.102 12.6609L134.177 13.0382C134.215 13.3024 134.29 13.5287 134.366 13.7551C134.517 14.2456 134.705 14.6984 134.969 15.1511C135.196 15.6039 135.498 16.0189 135.837 16.3585C136.177 16.7358 136.554 17.0753 136.969 17.3395C137.384 17.6036 137.799 17.8677 138.29 18.0563C138.742 18.245 139.233 18.3582 139.723 18.3959C140.704 18.5091 141.648 18.3582 142.553 18.0563C143.421 17.7545 144.251 17.3017 144.93 16.698C144.515 16.8867 144.1 17.0753 143.685 17.1885C143.27 17.3017 142.855 17.4149 142.402 17.4904C141.534 17.6413 140.704 17.6036 139.912 17.4149C139.12 17.2263 138.403 16.8112 137.799 16.283C137.497 16.0189 137.233 15.7171 137.007 15.4152C136.78 15.0757 136.592 14.7738 136.403 14.3965C136.101 13.6797 135.913 12.8873 135.875 12.1327C135.875 11.7554 135.875 11.3781 135.95 10.9631C135.95 10.8499 135.988 10.7745 135.988 10.6613L136.064 10.3972C136.139 10.2085 136.177 10.0199 136.252 9.8312C136.403 9.49164 136.554 9.11434 136.743 8.8125C136.969 8.51066 137.195 8.20882 137.46 7.94471C137.988 7.41649 138.629 7.00146 139.308 6.73735C139.648 6.62416 140.025 6.51097 140.403 6.47324L140.667 6.43551H140.704C140.704 6.43551 140.742 6.43551 140.78 6.43551C140.818 6.43551 140.855 6.43551 140.931 6.43551C141.006 6.43551 141.119 6.43551 141.233 6.47324H141.384L141.534 6.51097C141.723 6.5487 141.949 6.58643 142.138 6.58643L142.44 6.66189C142.553 6.69962 142.629 6.69962 142.742 6.73735C142.93 6.77508 143.157 6.85054 143.345 6.88827C143.534 6.96373 143.761 7.00146 143.949 7.07692L144.553 7.26557L145.157 7.49195C145.572 7.64287 145.987 7.79379 146.364 7.98244C146.553 8.0579 146.779 8.13336 146.968 8.24655L147.571 8.51066C147.76 8.58612 147.986 8.69931 148.175 8.77477L148.779 9.07661C148.892 9.11434 149.005 9.1898 149.08 9.22753L149.722 9.52936C149.835 9.56709 149.948 9.64256 150.061 9.68029L150.741 9.94439C150.854 9.98212 150.967 10.0199 151.08 10.0576L151.42 10.1708C152.325 10.4726 153.268 10.6235 154.174 10.6613C155.117 10.699 156.06 10.6235 156.966 10.3594L157.306 10.2462C157.419 10.2085 157.532 10.1708 157.645 10.133C157.758 10.0953 157.871 10.0576 157.985 10.0199L158.287 9.86893C158.702 9.64256 159.079 9.41618 159.418 9.11434C159.003 9.30299 158.588 9.45391 158.136 9.56709C157.909 9.60482 157.721 9.68028 157.494 9.71801L156.815 9.79347C155.947 9.86893 155.079 9.8312 154.249 9.68029L153.948 9.60482L153.306 9.45391C153.268 9.45391 153.193 9.41618 153.155 9.41618L153.004 9.37845C152.816 9.30299 152.589 9.22753 152.401 9.1898C152.212 9.11434 151.986 9.03888 151.797 8.96342L151.495 8.85023C151.382 8.8125 151.306 8.73704 151.193 8.69931L150.627 8.39747C150.514 8.35974 150.439 8.28428 150.363 8.24655L150.099 8.09563L149.533 7.75606L148.779 7.34103C148.59 7.22784 148.401 7.11465 148.175 7.00146L147.571 6.66189C147.383 6.5487 147.156 6.47324 146.968 6.36005C146.553 6.1714 146.137 5.94502 145.685 5.7941C145.27 5.60545 144.817 5.45453 144.364 5.30361C144.251 5.26588 144.1 5.19042 143.949 5.15269C143.949 5.15269 143.949 5.19042 143.911 5.19042C143.836 5.15269 143.798 5.15269 143.723 5.11496C143.496 5.0395 143.27 5.00178 143.044 4.92632C142.93 4.88859 142.817 4.85086 142.704 4.85086L142.364 4.7754C142.138 4.73767 141.874 4.69994 141.648 4.66221L141.27 4.62448C141.157 4.62448 141.006 4.58675 140.893 4.58675C140.818 4.58675 140.742 4.58675 140.704 4.58675C140.667 4.58675 140.629 4.58675 140.591 4.58675H140.252C140.176 4.58675 140.138 4.58675 140.063 4.58675C139.535 4.62448 139.044 4.7754 138.554 4.92632C138.29 5.00178 138.063 5.11496 137.837 5.22815C137.611 5.34134 137.384 5.49226 137.158 5.60545C136.931 5.75637 136.743 5.90729 136.516 6.05821C136.328 6.20913 136.139 6.39778 135.95 6.58643C135.234 7.34103 134.705 8.24655 134.366 9.22753C134.29 9.49164 134.215 9.71801 134.177 9.98212L134.102 10.3594C134.064 10.4726 134.064 10.6235 134.064 10.7367C134.026 11.2649 133.988 11.7554 134.064 12.2459C134.064 12.3968 134.064 12.5478 134.102 12.6609Z" fill="#8E8E8E"/>
<path d="M146.817 14.3965C147.345 14.8493 147.911 15.2266 148.552 15.5284C149.797 16.1698 151.193 16.5849 152.627 16.5849C153.344 16.5849 154.061 16.5094 154.778 16.283L155.306 16.1321C155.495 16.0944 155.645 16.0189 155.796 15.9435C155.872 15.9057 155.947 15.868 156.06 15.8303L156.287 15.7171C156.438 15.6416 156.626 15.5662 156.74 15.453C157.041 15.2643 157.343 15.0757 157.607 14.8493L157.834 14.6984C157.909 14.6606 157.985 14.5852 158.022 14.5474L158.588 13.9815C158.664 13.906 158.702 13.8683 158.777 13.7928C158.89 13.6419 159.003 13.5287 159.117 13.4155C159.23 13.3024 159.305 13.1514 159.418 13.0005C159.532 12.8496 159.607 12.6987 159.683 12.5478C159.381 12.6987 159.079 12.8873 158.815 13.0382C158.664 13.1137 158.513 13.1892 158.4 13.2646C158.324 13.3024 158.249 13.3401 158.173 13.3778L157.947 13.491L157.532 13.7174C157.381 13.7928 157.23 13.8306 157.117 13.906C156.966 13.9815 156.815 14.0192 156.702 14.0947C156.551 14.1324 156.4 14.2079 156.287 14.2456C155.721 14.4343 155.117 14.6229 154.551 14.6984C153.985 14.7738 153.382 14.8493 152.778 14.8493C151.608 14.8493 150.401 14.6229 149.194 14.2833C148.59 14.0947 147.986 13.906 147.383 13.6419C146.779 13.4155 146.175 13.1514 145.572 12.8496C145.76 13.1514 145.987 13.4155 146.213 13.6419C146.288 13.9438 146.553 14.2079 146.817 14.3965Z" fill="#8E8E8E"/>
<path d="M144.326 60.2761H144.855V57.8991H146.137V57.4841H144.855V55.7485H146.439V55.3712H144.326V60.2761Z" fill="#8E8E8E"/>
<path d="M148.288 56.0881C147.873 56.0881 147.609 56.1635 147.42 56.3522C147.232 56.5408 147.156 56.805 147.156 57.22V59.1442C147.156 59.446 147.194 59.7102 147.269 59.8611C147.345 60.0497 147.458 60.1629 147.647 60.2384C147.835 60.3138 148.024 60.3516 148.288 60.3516C148.552 60.3516 148.779 60.3138 148.929 60.2384C149.08 60.1629 149.231 60.0497 149.307 59.8611C149.382 59.6724 149.42 59.446 149.42 59.1442V57.22C149.42 56.805 149.345 56.5408 149.156 56.3522C149.005 56.1635 148.703 56.0881 148.288 56.0881ZM148.929 59.2197C148.929 59.5215 148.892 59.7102 148.779 59.8233C148.703 59.9365 148.514 59.9743 148.288 59.9743C148.062 59.9743 147.911 59.8988 147.835 59.7856C147.722 59.6724 147.684 59.4838 147.684 59.1819V57.1445C147.684 56.8804 147.722 56.654 147.835 56.5408C147.949 56.4276 148.099 56.3522 148.288 56.3522C148.514 56.3522 148.665 56.4276 148.779 56.5408C148.854 56.654 148.929 56.8427 148.929 57.1445V59.2197Z" fill="#8E8E8E"/>
<path d="M151.722 56.0881C151.307 56.0881 151.042 56.1635 150.854 56.3522C150.665 56.5408 150.59 56.805 150.59 57.22V59.1442C150.59 59.446 150.627 59.7102 150.703 59.8611C150.778 60.0497 150.891 60.1629 151.08 60.2384C151.269 60.3138 151.457 60.3516 151.722 60.3516C151.986 60.3516 152.212 60.3138 152.363 60.2384C152.514 60.1629 152.665 60.0497 152.74 59.8611C152.816 59.6724 152.853 59.446 152.853 59.1442V57.22C152.853 56.805 152.778 56.5408 152.589 56.3522C152.438 56.1635 152.137 56.0881 151.722 56.0881ZM152.363 59.2197C152.363 59.5215 152.325 59.7102 152.212 59.8233C152.137 59.9365 151.948 59.9743 151.722 59.9743C151.495 59.9743 151.344 59.8988 151.269 59.7856C151.156 59.6724 151.118 59.4838 151.118 59.1819V57.1445C151.118 56.8804 151.156 56.654 151.269 56.5408C151.382 56.4276 151.533 56.3522 151.722 56.3522C151.948 56.3522 152.099 56.4276 152.212 56.5408C152.287 56.654 152.363 56.8427 152.363 57.1445V59.2197Z" fill="#8E8E8E"/>
<path d="M155.796 56.4277C155.759 56.3522 155.645 56.239 155.532 56.2013C155.419 56.1635 155.23 56.0881 155.004 56.0881C154.815 56.0881 154.664 56.1258 154.551 56.1635C154.438 56.2013 154.325 56.2767 154.249 56.3899C154.174 56.4654 154.136 56.5786 154.099 56.7295C154.061 56.8427 154.061 56.9936 154.061 57.1445V59.1819C154.061 59.3706 154.061 59.5215 154.099 59.6724C154.136 59.8233 154.174 59.9365 154.249 60.0497C154.325 60.1629 154.438 60.2384 154.551 60.2761C154.702 60.3138 154.853 60.3516 155.042 60.3516C155.23 60.3516 155.381 60.3138 155.495 60.2761C155.608 60.2384 155.683 60.1629 155.759 60.0875C155.834 60.012 155.872 59.9365 155.91 59.8611L155.947 60.2384H156.287V54.9939H155.759V56.4277H155.796ZM155.796 59.0687C155.796 59.1819 155.796 59.2951 155.796 59.4083C155.796 59.5215 155.759 59.6347 155.721 59.7102C155.683 59.7856 155.608 59.8988 155.532 59.9365C155.457 60.012 155.306 60.012 155.155 60.012C154.966 60.012 154.815 59.9743 154.74 59.8988C154.664 59.8233 154.589 59.7102 154.589 59.597C154.589 59.4838 154.551 59.3329 154.551 59.2197V57.1823C154.551 57.0691 154.551 56.9936 154.551 56.8804C154.551 56.805 154.589 56.6918 154.627 56.6163C154.664 56.5408 154.74 56.4654 154.815 56.4277C154.891 56.3899 155.004 56.3522 155.193 56.3522C155.344 56.3522 155.457 56.3899 155.532 56.4277C155.608 56.4654 155.683 56.5408 155.721 56.5786C155.759 56.654 155.796 56.6918 155.796 56.7295V59.0687Z" fill="#8E8E8E"/>
<path d="M161.72 58.7292C161.682 58.6914 161.644 58.6537 161.569 58.5783C161.494 58.5028 161.418 58.4273 161.343 58.3142C161.267 58.201 161.192 58.1255 161.116 58.0123C161.041 57.8991 160.965 57.8237 160.89 57.7482C160.814 57.6727 160.777 57.5973 160.739 57.5596C160.663 57.4464 160.626 57.3332 160.588 57.22C160.55 57.1068 160.55 56.9936 160.588 56.8804C160.626 56.7672 160.701 56.6918 160.777 56.6163C160.852 56.5408 161.003 56.5031 161.192 56.5031C161.343 56.5031 161.456 56.5031 161.607 56.5408C161.758 56.5786 161.833 56.5786 161.946 56.6163C162.022 56.654 162.097 56.654 162.135 56.654V56.239C162.097 56.2013 162.022 56.2013 161.946 56.1635C161.833 56.1258 161.72 56.1258 161.569 56.0881C161.418 56.0504 161.267 56.0504 161.116 56.0504C160.777 56.0504 160.513 56.1258 160.362 56.2767C160.211 56.4277 160.098 56.654 160.098 56.9559C160.098 57.1445 160.135 57.2954 160.173 57.4086C160.211 57.5218 160.286 57.635 160.324 57.7105C160.06 57.7859 159.871 57.9369 159.758 58.1255C159.645 58.3142 159.569 58.616 159.569 58.9178C159.569 59.1819 159.607 59.4083 159.683 59.6347C159.758 59.8233 159.909 60.012 160.06 60.1252C160.248 60.2384 160.475 60.3138 160.777 60.3138C160.928 60.3138 161.079 60.2761 161.229 60.2384C161.38 60.2006 161.531 60.1252 161.644 60.012C161.758 59.8988 161.833 59.7479 161.909 59.5215C162.097 59.7102 162.286 59.8988 162.475 60.012C162.663 60.1629 162.776 60.2384 162.89 60.2384V59.7856C162.814 59.7479 162.701 59.6347 162.55 59.5215C162.399 59.4083 162.248 59.2574 162.097 59.0687C162.097 58.9933 162.097 58.9178 162.097 58.8424C162.097 58.7669 162.097 58.6914 162.097 58.5783C162.097 58.4651 162.097 58.3519 162.097 58.201H162.89V57.8614H161.72V58.7292ZM161.418 59.7479C161.267 59.8611 161.116 59.9365 160.852 59.9365C160.588 59.9365 160.399 59.8611 160.248 59.6724C160.098 59.4838 160.022 59.2574 160.022 58.9178C160.022 58.6537 160.06 58.4273 160.173 58.3142C160.286 58.201 160.399 58.0878 160.55 58.05C160.663 58.201 160.814 58.3896 161.003 58.616C161.192 58.8424 161.418 59.0687 161.607 59.2951C161.607 59.4838 161.531 59.6347 161.418 59.7479Z" fill="#8E8E8E"/>
<path d="M168.323 55.4467C168.172 55.3712 167.983 55.3712 167.794 55.3712H166.323V60.2761H167.719C167.945 60.2761 168.134 60.2384 168.285 60.2006C168.436 60.1252 168.587 60.0497 168.662 59.8611C168.738 59.7102 168.813 59.4838 168.813 59.2197V56.3899C168.813 56.1258 168.775 55.9372 168.7 55.7862C168.587 55.5976 168.474 55.5221 168.323 55.4467ZM168.247 59.2197C168.247 59.5215 168.172 59.7102 168.059 59.8233C167.945 59.9365 167.794 59.9743 167.606 59.9743H166.813V55.6731H167.606C167.794 55.6731 167.945 55.7108 168.059 55.824C168.172 55.9372 168.247 56.1258 168.247 56.4277V59.2197Z" fill="#8E8E8E"/>
<path d="M171.379 56.1258C171.228 56.1258 171.115 56.2013 170.964 56.239C170.813 56.3145 170.737 56.4277 170.662 56.5786L170.586 56.1258H170.171V60.2384H170.7V57.1823C170.7 56.9936 170.775 56.8427 170.888 56.7295C171.001 56.6163 171.19 56.5408 171.379 56.5408C171.417 56.5031 171.492 56.5031 171.567 56.5031C171.643 56.5031 171.681 56.5031 171.756 56.5031C171.794 56.5031 171.832 56.5031 171.869 56.5031V56.0881C171.681 56.0881 171.53 56.0881 171.379 56.1258Z" fill="#8E8E8E"/>
<path d="M173.265 56.1635H172.775V60.2761H173.265V56.1635Z" fill="#8E8E8E"/>
<path d="M173.001 55.0694C172.926 55.0694 172.85 55.1071 172.775 55.1448C172.699 55.1826 172.699 55.258 172.699 55.3335C172.699 55.4089 172.737 55.4844 172.775 55.5221C172.813 55.5599 172.888 55.5976 173.001 55.5976C173.077 55.5976 173.152 55.5599 173.228 55.5221C173.303 55.4844 173.303 55.4089 173.303 55.2958C173.303 55.2203 173.265 55.1448 173.228 55.1071C173.19 55.0694 173.114 55.0694 173.001 55.0694Z" fill="#8E8E8E"/>
<path d="M176.586 56.239C176.435 56.1258 176.246 56.0881 175.944 56.0881C175.755 56.0881 175.605 56.1258 175.454 56.239C175.303 56.3145 175.19 56.4654 175.152 56.6163L175.076 56.1635H174.661V60.2761H175.19V56.9181C175.19 56.8427 175.227 56.8049 175.265 56.7295C175.303 56.654 175.378 56.6163 175.454 56.5408C175.529 56.4654 175.642 56.4654 175.793 56.4654C175.944 56.4654 176.057 56.5031 176.17 56.5408C176.284 56.5786 176.321 56.654 176.359 56.7295C176.397 56.8049 176.435 56.8804 176.435 56.9936C176.435 57.0691 176.435 57.1822 176.435 57.2954V60.3138H176.963V57.22C176.963 57.0313 176.925 56.8427 176.887 56.6918C176.85 56.5408 176.736 56.3522 176.586 56.239Z" fill="#8E8E8E"/>
<path d="M178.698 54.9939H178.208V60.2384H178.698V54.9939Z" fill="#8E8E8E"/>
<path d="M180.434 56.1635H179.906L178.849 57.8991L179.906 60.2761H180.434L179.378 57.8991L180.434 56.1635Z" fill="#8E8E8E"/>
<path d="M183.188 56.2013C183.037 56.1258 182.811 56.0881 182.547 56.0881C182.132 56.0881 181.868 56.1635 181.679 56.3145C181.49 56.4654 181.415 56.6918 181.415 56.9936V57.2577C181.415 57.4464 181.453 57.635 181.528 57.7482C181.604 57.8614 181.717 57.9746 181.868 58.05C182.019 58.1255 182.17 58.201 182.358 58.2764C182.547 58.3519 182.698 58.4273 182.811 58.5028C182.924 58.5783 183 58.6537 183.037 58.7669C183.075 58.8801 183.113 58.9556 183.113 59.1065V59.3329C183.113 59.5592 183.075 59.7479 182.962 59.8233C182.849 59.9365 182.698 59.9743 182.509 59.9743C182.283 59.9743 182.132 59.9365 182.019 59.8233C181.905 59.7102 181.868 59.5592 181.868 59.2951V58.8046H181.34V59.1442C181.34 59.4083 181.377 59.6347 181.453 59.7856C181.528 59.9365 181.641 60.0497 181.792 60.1252C181.943 60.2006 182.207 60.2384 182.471 60.2384C182.773 60.2384 183 60.2006 183.151 60.1252C183.301 60.0497 183.452 59.9365 183.49 59.7479C183.528 59.5592 183.603 59.4083 183.603 59.1819V58.9933C183.603 58.7669 183.566 58.616 183.49 58.4651C183.415 58.3519 183.301 58.2387 183.188 58.1632C183.075 58.0878 182.924 58.0123 182.773 57.9369C182.585 57.8614 182.434 57.7859 182.321 57.7482C182.207 57.6727 182.094 57.5973 182.019 57.4841C181.943 57.3709 181.905 57.2577 181.905 57.1068V56.8804C181.905 56.7295 181.943 56.5786 182.019 56.4654C182.094 56.3522 182.245 56.3145 182.471 56.3145C182.66 56.3145 182.811 56.3522 182.924 56.4654C183 56.5786 183.075 56.7672 183.075 57.0313V57.4464H183.566V57.1068C183.566 56.8427 183.528 56.654 183.452 56.4654C183.452 56.3899 183.339 56.2767 183.188 56.2013Z" fill="#8E8E8E"/>
<path d="M12.9886 22.7348C13.1773 22.7348 13.2905 22.848 13.2905 23.0744C13.2905 23.1499 13.2527 23.2253 13.1773 23.3008C12.1208 24.3572 10.8757 24.8854 9.47973 24.8854C9.14016 24.8854 8.76286 24.6968 8.38556 24.3195C7.97053 23.9422 7.78188 23.414 7.78188 22.6971C7.78188 21.9802 8.19691 21.1879 9.0647 20.3201C9.93249 19.4523 11.1398 18.6223 12.6868 17.8299C14.2337 17.0376 16.1579 16.3585 18.4594 15.7548C20.761 15.1511 22.8361 14.8493 24.6849 14.8493C26.5337 14.8493 28.0428 15.0002 29.2125 15.302C30.3821 15.6039 31.3254 15.9812 31.9668 16.3962C32.6459 16.849 33.1741 17.3395 33.6269 17.8677C34.3437 18.7732 34.721 19.7164 34.721 20.6597C34.721 21.6029 34.4192 22.5839 33.8155 23.5649C33.2118 24.5836 32.4195 25.4514 31.4385 26.2437C30.4576 27.036 29.3634 27.7529 28.0806 28.4321C25.7413 29.6771 23.2134 30.5827 20.5346 31.1863C20.9874 31.6391 21.9683 32.8465 23.4398 34.733C24.9113 36.6194 26.2695 38.2041 27.5146 39.4492C28.722 40.732 29.703 41.3357 30.3444 41.3357L30.9858 41.1093C31.1367 41.1093 31.2122 41.147 31.2122 41.2602C31.2122 41.3734 30.9858 41.6753 30.533 42.2035C30.0803 42.7317 29.6652 43.109 29.3257 43.3731C28.9861 43.6372 28.5333 43.7881 27.9297 43.7881C27.326 43.7881 26.6846 43.4863 25.93 42.9203C25.1754 42.3544 24.3453 41.5243 23.4775 40.5056C22.572 39.4492 21.7797 38.4682 21.0628 37.5627C20.3459 36.6572 19.5536 35.563 18.6104 34.3179C17.7049 33.0728 17.0634 32.205 16.7239 31.79C16.6107 31.9787 16.2711 32.5069 15.7429 33.2992C15.2147 34.0915 14.8374 34.6952 14.611 35.0725C14.3846 35.4498 14.0073 36.0158 13.5546 36.7326C13.1018 37.4495 12.7245 38.0532 12.4981 38.5059C11.7813 39.6756 11.3285 40.5811 11.0267 41.147C10.7625 41.713 10.3098 42.0148 9.66838 42.0148L8.98924 41.9771L8.42329 42.0148C7.63096 42.0148 7.25366 41.6753 7.25366 41.0338C7.25366 40.5434 7.48004 39.8265 7.89507 38.921C8.3101 38.0155 10.5739 34.582 14.6487 28.6207C18.7613 22.6216 21.0251 19.4523 21.4401 19.0373C21.8551 18.6223 22.157 18.3959 22.3834 18.3582C22.5343 18.245 22.6475 18.1695 22.6852 18.1695L23.0248 18.245L23.3643 18.1695C23.4775 18.1695 23.5907 18.2072 23.6662 18.3204C23.7416 18.4336 23.8171 18.4714 23.8548 18.5091C24.383 18.8864 24.6472 19.226 24.6472 19.4901C24.6472 19.7542 24.5717 20.0183 24.4585 20.2447C24.3076 20.5088 23.968 21.037 23.3643 21.9048C22.7607 22.8103 21.9683 23.9422 20.9874 25.3005C20.0064 26.6965 19.3272 27.6775 18.8745 28.2811C19.9309 28.2434 21.176 27.9038 22.6097 27.3379C24.0812 26.7719 25.4395 26.0551 26.7223 25.225C28.0051 24.395 29.0993 23.5272 30.0048 22.5462C30.9103 21.6029 31.3631 20.7352 31.3631 20.056C31.3631 19.6787 31.1744 19.3391 30.7594 18.9996C30.3821 18.6977 29.8539 18.4336 29.2879 18.2827C28.0806 17.9431 26.76 17.7545 25.2508 17.7545C23.7416 17.7545 21.8551 18.0941 19.5536 18.7355C17.2898 19.4146 15.592 20.0183 14.5355 20.622C13.4791 21.2256 12.7245 21.7161 12.234 22.1312C11.7813 22.5462 11.5171 22.848 11.5171 22.9989C11.5171 23.0744 11.6303 23.1499 11.8944 23.1499C12.1586 23.1499 12.3849 23.0744 12.5736 22.9612C12.8377 22.7726 12.9509 22.7348 12.9886 22.7348Z" fill="white"/>
<path d="M46.0023 28.017C46.0023 28.8471 45.6627 29.6017 44.9836 30.2431C44.3045 30.8845 43.5499 31.1863 42.6821 31.1863C42.418 31.1863 42.2293 31.1109 42.1161 30.9977C42.0407 30.8468 41.9652 30.6959 41.9652 30.4695C41.9652 30.2431 42.0029 30.0544 42.0407 29.8281C41.5879 29.979 41.0597 30.2054 40.5315 30.5449C39.9655 30.8468 39.2864 31.3373 38.4563 31.9409C37.6263 32.5446 37.249 33.0351 37.249 33.3369C37.249 33.4501 37.3999 33.4879 37.7017 33.4879C38.0036 33.4879 38.4563 33.3747 39.0977 33.186C39.7014 32.9596 40.1542 32.8842 40.4183 32.8842C40.6824 32.8842 40.8333 32.8842 40.9088 32.9219C41.0597 32.9974 41.2483 33.186 41.437 33.4879C41.6256 33.7897 41.7388 34.0161 41.7388 34.2047C41.7388 34.3934 41.5879 34.6198 41.2483 34.8839C40.9088 35.148 40.5315 35.3744 40.1164 35.5253C39.7014 35.6762 39.3996 35.7894 39.2864 35.8648C36.6075 37.374 35.287 38.3928 35.287 38.9587C35.287 39.9397 36.1171 40.4302 37.8149 40.4302C38.9091 40.4302 39.9655 40.0906 41.0597 39.4115C42.0029 38.8455 42.833 38.2418 43.5499 37.6382C44.3044 37.0345 44.7572 36.6572 44.9459 36.5063C45.1345 36.3553 45.2854 36.2799 45.3986 36.2799C45.7382 36.2799 45.8891 36.6572 45.8891 37.374C45.8891 38.1286 45.8514 38.5814 45.7382 38.8455C45.6627 39.0719 45.3986 39.3737 44.9836 39.7133C42.267 41.9394 39.7014 43.0335 37.2867 43.0335C36.0039 43.0335 34.9474 42.8449 34.1928 42.5053C32.7591 41.8639 32.0422 40.8829 32.0422 39.5247C32.0422 37.7891 33.2496 36.4308 35.6643 35.563C35.1738 35.3366 34.872 35.0725 34.721 34.733C34.5701 34.3934 34.4947 33.8652 34.4947 33.1106C34.4947 32.356 34.8342 31.5636 35.5511 30.7336C36.2302 29.9035 37.098 29.2244 38.079 28.6962C40.3051 27.4888 42.3048 26.8851 44.0403 26.8851C44.4554 26.8851 44.8704 26.9983 45.3232 27.187C45.8136 27.3756 46.0023 27.6775 46.0023 28.017Z" fill="white"/>
<path d="M49.7375 38.4682L49.6998 38.7701C49.6998 39.0719 49.813 39.3737 50.0771 39.6001C50.3035 39.8265 50.5299 39.9397 50.7563 39.9397C52.2655 39.9397 53.6237 39.7133 54.7934 39.2605C55.963 38.8078 56.5667 38.355 56.5667 37.9023C56.5667 37.6759 56.3403 37.4872 55.9253 37.3363C55.5102 37.1854 54.7934 36.9967 53.7747 36.7326C52.7559 36.5063 52.0391 36.3176 51.5863 36.1667C51.1336 36.0158 50.7563 35.9026 50.4921 35.7894C50.228 35.6762 49.9639 35.5253 49.6621 35.2989C49.0584 34.8839 48.7566 34.2425 48.7566 33.4124C48.7566 32.5823 49.0584 31.7523 49.6621 30.9222C50.2658 30.0922 51.0581 29.413 51.9636 28.8094C52.9069 28.2434 53.8878 27.7152 54.9443 27.2624C57.0572 26.3946 58.8305 25.9419 60.2642 25.9419C61.6602 25.9419 62.528 26.2437 62.8676 26.8474C62.9808 27.0738 63.0185 27.3002 63.0185 27.5643V27.7152C63.0185 28.3943 62.8676 28.9225 62.6035 29.2998C62.3016 29.6771 61.8489 30.0167 61.2452 30.3186C60.6415 30.6204 60.151 30.7713 59.7737 30.7713C59.3964 30.7713 59.17 30.7336 59.0946 30.6959C58.9814 30.6581 58.9059 30.5827 58.8682 30.5072C58.7927 30.4317 58.7173 30.3563 58.6418 30.3186C58.5286 30.2808 58.4909 30.1676 58.4909 30.0167C58.4909 29.8658 58.5663 29.7149 58.6795 29.564C58.7927 29.413 58.9059 29.2244 58.9436 29.0735C58.1136 29.1112 57.2458 29.2998 56.3026 29.6394C55.397 29.979 54.6047 30.394 53.9633 30.809C53.3219 31.2241 52.7559 31.6391 52.3409 32.0541C51.9259 32.4314 51.6995 32.7333 51.6995 32.9219C51.6995 33.1106 52.0013 33.2615 52.5673 33.3747C55.2084 33.9029 56.9062 34.3557 57.7363 34.733C58.5663 35.1103 59.1323 35.563 59.4341 36.0158C59.736 36.5063 59.9246 36.9213 59.9246 37.3363C59.9246 38.1664 59.5851 38.921 58.9436 39.6378C58.3022 40.3547 57.5099 40.9584 56.5289 41.4111C54.4915 42.4299 52.7182 42.9203 51.1713 42.9203C49.6621 42.9203 48.6057 42.694 48.0397 42.2412C47.4738 41.7884 47.1719 41.2225 47.1719 40.5811C47.1719 39.9397 47.3228 39.3737 47.6624 38.8078C48.002 38.2418 48.417 38.0155 48.9075 38.0155C49.4734 38.0532 49.7375 38.2041 49.7375 38.4682Z" fill="white"/>
<path d="M77.4313 17.7545L78.2236 17.9431C78.3368 17.9431 78.45 18.0186 78.5255 18.1318C78.6009 18.245 78.6764 18.3582 78.6764 18.4714C78.6764 18.5845 78.5255 18.8487 78.2614 19.3014C77.9973 19.7542 77.6954 20.2447 77.3181 20.8106C76.9408 21.3766 76.7522 21.6784 76.7522 21.7161C77.7332 21.6407 78.45 21.6029 78.8651 21.6029C79.2801 21.6029 79.5442 21.6407 79.6951 21.6784C79.846 21.7161 80.0347 21.9048 80.2233 22.1689C80.412 22.433 80.6006 22.6216 80.7515 22.7726C80.9025 22.9235 81.0157 23.1121 81.0157 23.3762C81.0157 23.6404 80.8647 23.8667 80.5252 24.0554C80.1856 24.244 79.846 24.3572 79.4687 24.395C76.5258 24.6968 74.9034 24.8477 74.6016 24.8477C73.5829 26.4324 72.1491 28.8848 70.3004 32.205C68.4516 35.5253 67.4706 37.6382 67.3574 38.4682C67.3197 38.8455 67.282 39.1474 67.282 39.4115C67.282 39.902 67.5461 40.1661 68.0743 40.1661C68.6025 40.1661 69.1685 39.9774 69.8099 39.5624C70.4513 39.1474 71.0172 38.7323 71.5455 38.2418C72.9792 36.959 73.7338 36.3553 73.847 36.3553C74.1865 36.3553 74.3375 36.9213 74.3375 38.0532C74.3375 38.6569 74.0356 39.2228 73.4697 39.7133C72.1869 40.8075 71.0927 41.6375 70.2249 42.2035C69.3571 42.7694 68.4893 43.0335 67.5838 43.0335C67.3952 43.0335 67.2065 42.9958 67.0556 42.9581C66.0369 42.7694 65.2823 42.3921 64.8295 41.8262C64.339 41.2602 64.1127 40.5434 64.1127 39.6001C64.1127 38.6569 64.4145 37.525 64.9427 36.1667C65.4709 34.8084 66.1878 33.4124 67.0179 31.9032C68.3761 29.4508 69.7721 27.1115 71.1304 24.9609L70.4136 25.0741C68.9421 25.225 68.0743 25.3382 67.8479 25.3382H67.6593C67.282 25.3382 66.9424 25.2627 66.6028 25.1118C66.2633 24.9609 66.0746 24.7723 66.0746 24.5836C66.0746 24.3572 66.1501 24.1686 66.3387 23.9422C66.5274 23.7535 66.6406 23.5649 66.6783 23.4517C66.7537 23.1876 67.0933 22.848 67.6593 22.5085C68.2252 22.1689 68.678 21.9802 68.9798 21.9802C69.2817 21.9425 69.5458 21.9425 69.8099 21.9425C70.074 21.9425 70.3758 21.9048 70.7154 21.9048C71.055 21.9048 71.3191 21.867 71.47 21.867L73.1678 21.7916C74.2243 20.2069 74.9789 19.1505 75.3562 18.6977C75.7712 18.245 75.9976 17.9809 76.0353 17.9431C76.1108 17.9054 76.224 17.8677 76.4126 17.8677L77.4313 17.7545Z" fill="white"/>
<path d="M89.5803 27.7906C90.5613 27.7906 91.0141 28.1302 91.0141 28.7716C91.0141 29.1112 90.9386 29.3753 90.75 29.564C90.5991 29.7149 90.2218 30.2808 89.6935 31.2241C89.1653 32.1673 88.5616 33.3369 87.9202 34.8084C87.2788 36.2799 86.8261 37.4872 86.6374 38.5437C86.5997 38.6569 86.562 38.8455 86.562 39.0719C86.562 39.7888 86.7506 40.1283 87.1279 40.1283C87.5052 40.1283 87.958 39.9397 88.4862 39.6001C89.0144 39.2228 89.4672 38.8455 89.8822 38.4305C90.2972 38.0155 90.6745 37.6004 91.0895 37.1477C91.4668 36.7326 91.6932 36.4685 91.7687 36.3931C91.8441 36.3176 91.9573 36.2799 92.1083 36.2799C92.3346 36.2799 92.4855 36.4685 92.561 36.8458C92.5987 37.2231 92.6365 37.6004 92.6365 37.9777C92.6365 38.355 92.5987 38.6569 92.5233 38.8078C92.146 39.5247 91.3537 40.3924 90.1086 41.4111C88.8635 42.4299 87.7316 42.9203 86.7129 42.9203C85.6942 42.9203 84.9396 42.6185 84.4491 41.9771C83.9586 41.3734 83.7322 40.6566 83.7322 39.902C83.7322 39.1474 83.8454 38.4682 84.1095 37.9023C83.0531 39.2605 81.8457 40.4302 80.4874 41.3734C79.1292 42.3167 77.9973 42.8072 77.1295 42.8072C76.2617 42.8072 75.5448 42.543 75.0166 42.0148C74.2997 41.3734 73.9602 40.4679 73.9602 39.336C73.9602 38.2041 74.2243 37.0345 74.7148 35.8648C75.243 34.6952 75.9221 33.6388 76.7522 32.6955C77.5822 31.7523 78.5255 30.8468 79.5065 30.0922C81.6193 28.4321 83.5436 27.602 85.3169 27.602C85.996 27.602 86.5619 27.7152 86.977 27.9416C87.392 28.1679 87.6938 28.4698 87.807 28.8094C88.1089 28.3566 88.373 28.0548 88.5616 27.9416C88.8257 27.8661 89.1276 27.7906 89.5803 27.7906ZM87.0147 29.9035C84.8264 29.9035 82.6003 31.1109 80.2611 33.5256C79.431 34.3934 78.6764 35.4121 77.9973 36.6194C77.3181 37.8268 76.9408 38.6569 76.9408 39.1096C76.9408 39.5624 77.054 39.7888 77.3181 39.7888C77.6577 39.7888 78.6764 39.0719 80.2988 37.6759C81.9212 36.2799 83.0153 35.2234 83.5436 34.582C84.1472 33.8274 85.3169 32.2805 87.0147 29.9035Z" fill="white"/>
<path d="M109.389 36.2799C109.615 36.2799 109.766 36.4685 109.841 36.8458C109.879 37.2231 109.917 37.6004 109.917 37.9777C109.917 38.355 109.879 38.6569 109.804 38.8078C109.426 39.5247 108.634 40.3924 107.389 41.4111C106.144 42.4299 104.974 42.9581 103.842 42.9581C103.163 42.9581 102.522 42.7694 101.956 42.3544C101.39 41.9394 101.088 41.2225 101.088 40.2038C101.088 39.1851 101.352 38.1664 101.918 37.1854C98.7864 41.147 96.2963 43.109 94.523 43.109C93.8061 43.109 93.2402 42.8449 92.7874 42.3544C92.3346 41.8639 92.146 41.3357 92.146 40.7697C92.146 40.2415 92.2214 39.6756 92.3724 39.1096C92.5233 38.5437 92.6742 38.0155 92.8629 37.5627C93.0515 37.1099 93.2779 36.544 93.6175 35.8648C93.957 35.1857 94.2211 34.6952 94.3721 34.3934C94.523 34.0915 94.7871 33.6388 95.1644 32.9974C95.5417 32.3937 95.9944 31.5636 96.5981 30.5072C97.2018 29.4508 97.6923 28.6962 98.0696 28.2057C98.4469 27.7152 98.8242 27.4511 99.2015 27.4511C99.5788 27.4511 99.8806 27.602 100.182 27.9038C100.447 28.2057 100.597 28.4698 100.597 28.6584C100.597 28.8471 100.182 29.7149 99.3147 31.2241C96.7868 35.7517 95.5417 38.4305 95.5417 39.1474C95.5417 39.336 95.6171 39.4492 95.7681 39.4492C96.3717 39.4492 97.8809 38.1286 100.333 35.4875C102.748 32.8465 104.144 31.1486 104.559 30.394C104.936 29.6394 105.314 29.0357 105.691 28.5075C106.068 27.9793 106.332 27.6775 106.483 27.5643C107.012 27.2247 107.728 27.036 108.596 26.9983C108.747 26.9983 108.86 26.9983 108.936 27.036C109.011 27.036 109.087 27.1492 109.2 27.3756C109.313 27.5643 109.351 27.7529 109.351 27.8661C109.238 28.2057 108.747 29.1489 107.842 30.6959C106.936 32.2428 106.446 33.1106 106.332 33.2992C104.823 36.3931 104.069 38.4305 104.069 39.336C104.069 39.8642 104.257 40.1283 104.672 40.1283C105.427 40.0151 106.295 39.4492 107.351 38.355C107.728 37.9777 108.106 37.5627 108.483 37.1477C108.86 36.7326 109.087 36.5063 109.162 36.4308C109.162 36.3176 109.275 36.2799 109.389 36.2799Z" fill="#8E8E8E"/>
<path d="M117.236 31.9032C120.217 28.5075 122.783 26.8097 124.896 26.8097C125.424 26.8097 125.839 26.9606 126.178 27.2624C126.518 27.5643 126.669 27.9793 126.669 28.4698C126.669 28.9603 126.329 29.7903 125.612 30.96C124.896 32.1296 124.254 33.1106 123.65 33.9029C123.349 34.3179 122.971 34.5066 122.556 34.5066C122.141 34.5066 121.839 34.3557 121.613 34.0538C121.387 33.752 121.273 33.4124 121.273 33.0351C121.273 32.1673 121.726 31.1863 122.669 30.0544L122.632 30.0167C122.217 30.0544 121.16 30.8845 119.5 32.5069C117.84 34.1293 116.444 35.563 115.274 36.8458C114.105 38.1286 112.86 39.6756 111.501 41.4866C111.124 42.0148 110.785 42.3167 110.483 42.3167C110.181 42.3167 109.841 42.2412 109.389 42.0526C108.936 41.8639 108.672 41.7507 108.558 41.6753C108.445 41.5998 108.408 41.4866 108.408 41.298C108.408 41.1093 108.445 40.9207 108.558 40.6943C108.672 40.4679 108.86 40.1283 109.124 39.7133C109.389 39.2983 109.804 38.5814 110.37 37.6004C110.935 36.6194 111.766 35.1857 112.935 33.2238C114.105 31.2618 114.784 30.0922 115.048 29.6771C115.539 28.8471 115.916 28.2434 116.218 27.8661C116.784 27.1492 117.765 26.7719 119.123 26.7719C119.425 26.7719 119.576 26.9606 119.576 27.3379C119.576 27.9416 119.01 29.0735 117.916 30.6959L117.236 31.9032Z" fill="#8E8E8E"/>
<path d="M141.497 27.7906C142.478 27.7906 142.93 28.1302 142.93 28.7716C142.93 29.1112 142.855 29.3753 142.666 29.564C142.515 29.7149 142.138 30.2808 141.61 31.2241C141.082 32.1673 140.478 33.3369 139.837 34.8084C139.195 36.2799 138.742 37.4872 138.554 38.5437C138.516 38.6569 138.478 38.8455 138.478 39.0719C138.478 39.7888 138.667 40.1283 139.044 40.1283C139.422 40.1283 139.874 39.9397 140.403 39.6001C140.931 39.2228 141.384 38.8455 141.799 38.4305C142.214 38.0155 142.591 37.6004 143.006 37.1477C143.421 36.6949 143.61 36.4685 143.685 36.3931C143.761 36.3176 143.874 36.2799 144.025 36.2799C144.251 36.2799 144.402 36.4685 144.477 36.8458C144.515 37.2231 144.553 37.6004 144.553 37.9777C144.553 38.355 144.515 38.6569 144.44 38.8078C144.062 39.5247 143.27 40.3924 142.025 41.4111C140.78 42.4299 139.648 42.9203 138.629 42.9203C137.611 42.9203 136.856 42.6185 136.365 41.9771C135.875 41.3734 135.649 40.6566 135.649 39.902C135.649 39.1474 135.762 38.4682 136.026 37.9023C134.969 39.2605 133.762 40.4302 132.404 41.3734C131.046 42.3167 129.914 42.8072 129.046 42.8072C128.178 42.8072 127.461 42.543 126.933 42.0148C126.216 41.3734 125.877 40.4679 125.877 39.336C125.877 38.2041 126.141 37.0345 126.631 35.8648C127.159 34.6952 127.839 33.6388 128.669 32.6955C129.499 31.7523 130.442 30.8468 131.423 30.0922C133.536 28.4321 135.46 27.602 137.233 27.602C137.912 27.602 138.478 27.7152 138.893 27.9416C139.308 28.1679 139.61 28.4698 139.723 28.8094C140.025 28.3566 140.289 28.0548 140.478 27.9416C140.78 27.8661 141.082 27.7906 141.497 27.7906ZM138.969 29.9035C136.78 29.9035 134.554 31.1109 132.215 33.5256C131.385 34.3934 130.631 35.4121 129.951 36.6194C129.272 37.8268 128.895 38.6569 128.895 39.1096C128.895 39.5624 129.008 39.7888 129.272 39.7888C129.612 39.7888 130.631 39.0719 132.253 37.6759C133.875 36.2799 134.969 35.2234 135.498 34.582C136.101 33.8274 137.233 32.2805 138.969 29.9035Z" fill="#8E8E8E"/>
<path d="M155.155 39.336C155.155 39.902 155.532 40.1661 156.287 40.1661C156.702 40.1661 157.192 39.9774 157.834 39.5624C158.437 39.1474 159.003 38.6946 159.494 38.2418C160.814 36.9213 161.569 36.2799 161.758 36.2799C162.097 36.2799 162.248 36.7704 162.248 37.7136C162.248 38.6569 161.946 39.336 161.343 39.6756C159.532 41.298 158.136 42.3167 157.117 42.6562C156.551 42.8449 155.947 42.9203 155.268 42.9203C154.589 42.9203 153.91 42.6185 153.268 42.0526C152.589 41.4866 152.287 40.7697 152.287 39.9774C152.287 39.1474 152.514 38.2418 152.929 37.1854C153.344 36.129 153.797 35.2612 154.249 34.5066C154.702 33.752 155.268 32.8842 155.91 31.9032C156.551 30.9222 156.928 30.3186 156.966 30.0544L156.928 30.0167C156.513 30.0544 155.457 30.8845 153.797 32.5069C152.137 34.1293 150.778 35.5253 149.684 36.7326C148.59 37.94 147.307 39.5247 145.836 41.5243C145.421 42.0526 145.081 42.3544 144.817 42.3544C144.553 42.3544 144.176 42.2789 143.723 42.0903C143.27 41.9016 143.006 41.7884 142.893 41.713C142.78 41.6375 142.742 41.5243 142.742 41.3734C142.742 41.2225 142.78 41.0338 142.893 40.8075C143.006 40.5811 143.081 40.3924 143.157 40.2415C143.232 40.0906 143.383 39.8642 143.572 39.5624C143.761 39.2605 144.138 38.6191 144.704 37.6382C145.27 36.6572 146.137 35.1857 147.307 33.2238C148.477 31.2618 149.156 30.0922 149.42 29.6771C149.91 28.8471 150.288 28.2434 150.59 27.8661C151.156 27.1492 152.137 26.7719 153.495 26.7719C153.797 26.7719 153.948 26.9606 153.948 27.3379C153.948 27.9416 153.382 29.0735 152.287 30.6959L151.495 31.9032C153.683 29.4508 155.532 27.9416 157.041 27.2624C157.796 26.9606 158.437 26.7719 159.041 26.7719C159.645 26.7719 160.098 26.9229 160.437 27.2624C160.777 27.5643 160.965 27.9416 160.965 28.3189C160.965 28.6962 160.814 29.1867 160.55 29.7149C160.286 30.2431 160.022 30.7336 159.758 31.1486C159.494 31.5636 159.117 32.0919 158.664 32.771C158.211 33.4501 157.985 33.7897 157.947 33.8274C157.909 33.9029 157.796 34.0538 157.645 34.2802C157.494 34.5066 157.381 34.6952 157.306 34.8084C157.23 34.9216 157.117 35.1103 156.928 35.4121C156.74 35.7139 156.626 35.9403 156.513 36.129C156.4 36.3176 156.287 36.544 156.098 36.8458C155.947 37.1099 155.796 37.374 155.721 37.5627C155.608 37.7513 155.532 37.9777 155.419 38.2418C155.23 38.6946 155.155 39.0342 155.155 39.336Z" fill="#8E8E8E"/>
<path d="M175.869 17.7545L176.661 17.9431C176.774 17.9431 176.887 18.0186 176.963 18.1318C177.038 18.245 177.114 18.3582 177.114 18.4714C177.114 18.5845 176.963 18.8487 176.699 19.3014C176.435 19.7542 176.133 20.2447 175.755 20.8106C175.378 21.3766 175.19 21.6784 175.19 21.7161C176.171 21.6407 176.887 21.6029 177.302 21.6029C177.717 21.6029 177.982 21.6407 178.132 21.6784C178.283 21.7539 178.472 21.9048 178.661 22.1689C178.849 22.433 179.038 22.6216 179.189 22.7726C179.34 22.9235 179.453 23.1121 179.453 23.3762C179.453 23.6404 179.302 23.8667 178.963 24.0554C178.623 24.244 178.283 24.3572 177.906 24.395C174.963 24.6968 173.341 24.8477 173.039 24.8477C172.02 26.4324 170.586 28.8848 168.738 32.205C166.889 35.5253 165.908 37.6382 165.795 38.4682C165.757 38.8455 165.719 39.1474 165.719 39.4115C165.719 39.902 165.983 40.1661 166.512 40.1661C167.04 40.1661 167.606 39.9774 168.247 39.5624C168.889 39.1474 169.455 38.7323 169.983 38.2418C171.417 36.959 172.171 36.3553 172.284 36.3553C172.624 36.3553 172.775 36.9213 172.775 38.0532C172.775 38.6569 172.473 39.2228 171.907 39.7133C170.624 40.8075 169.53 41.6375 168.662 42.2035C167.794 42.7694 166.927 43.0335 166.021 43.0335C165.833 43.0335 165.644 42.9958 165.493 42.9581C164.474 42.7694 163.72 42.3921 163.267 41.8262C162.776 41.2602 162.55 40.5434 162.55 39.6001C162.55 38.6569 162.852 37.525 163.38 36.1667C163.908 34.8084 164.625 33.4124 165.455 31.9032C166.813 29.4508 168.209 27.1115 169.568 24.9609L168.851 25.0741C167.379 25.225 166.512 25.3382 166.285 25.3382H166.134C165.757 25.3382 165.417 25.2627 165.078 25.1118C164.738 24.9609 164.55 24.7723 164.55 24.5836C164.55 24.3572 164.625 24.1686 164.814 23.9422C165.002 23.7535 165.116 23.5649 165.153 23.4517C165.229 23.1876 165.568 22.848 166.134 22.5085C166.7 22.1689 167.153 21.9802 167.455 21.9802C167.757 21.9802 168.021 21.9425 168.285 21.9425C168.549 21.9425 168.851 21.9048 169.19 21.9048C169.53 21.9048 169.794 21.867 169.945 21.867L171.643 21.7916C172.699 20.2069 173.454 19.1505 173.831 18.6977C174.246 18.245 174.473 17.9809 174.51 17.9431C174.586 17.9054 174.699 17.8677 174.888 17.8677L175.869 17.7545Z" fill="#8E8E8E"/>
</svg>
