<svg width="156" height="61" viewBox="0 0 156 61" fill="none" xmlns="http://www.w3.org/2000/svg">
<path d="M74.1211 1.50127C74.827 1.27836 75.57 1.1669 76.3131 1.0926C76.6846 1.05545 77.0561 1.05545 77.3905 1.05545C77.4648 1.05545 77.5762 1.05545 77.6505 1.05545C77.6877 1.05545 77.7248 1.05545 77.762 1.05545L77.8734 1.0926C78.0592 1.12975 78.245 1.12975 78.3936 1.20406C79.0995 1.35266 79.8053 1.57557 80.4369 1.87279C80.7713 2.02139 81.0685 2.20715 81.3657 2.39291C81.5143 2.46721 81.6629 2.57867 81.8115 2.69012C81.9601 2.80158 82.1087 2.91303 82.2202 3.02449C82.4803 3.2474 82.7403 3.47031 83.0004 3.73037C83.2604 3.99043 83.4834 4.2505 83.6691 4.51056C83.892 4.77062 84.0778 5.06783 84.2264 5.36505C84.2635 5.43935 84.3007 5.4765 84.3007 5.51365C84.2264 5.55081 84.1521 5.55081 84.0778 5.58796C83.4834 5.77372 82.9261 5.99663 82.3317 6.18238C81.7744 6.36814 81.2171 6.51675 80.6227 6.6282C80.0282 6.70251 79.4338 6.70251 78.8022 6.59105C79.3595 6.88827 79.9539 7.07402 80.6227 7.11118C80.957 7.14833 81.2543 7.14833 81.5886 7.11118C81.923 7.11118 82.2202 7.07403 82.5546 6.99972C83.1861 6.92542 83.7806 6.77681 84.375 6.66536C84.5236 6.6282 84.6722 6.6282 84.8208 6.59105C84.9694 6.59105 85.118 6.5539 85.2666 6.51675C85.5638 6.4796 85.8611 6.4796 86.1211 6.44245C86.4183 6.40529 86.6784 6.40529 86.9756 6.40529C87.1242 6.40529 87.2728 6.40529 87.3843 6.40529C87.4586 6.40529 87.5329 6.40529 87.57 6.40529H87.6072L87.6815 6.44245C87.7186 6.44245 87.793 6.4796 87.8673 6.4796C87.9416 6.4796 87.9787 6.51675 88.053 6.51675C88.1273 6.51675 88.1645 6.5539 88.2388 6.59105C88.3131 6.59105 88.3502 6.6282 88.4245 6.66536C88.6846 6.77681 88.8704 6.88827 89.0933 7.03687C89.3162 7.18548 89.5019 7.33409 89.6877 7.51985C89.762 7.59415 89.8734 7.7056 89.9478 7.77991C90.0221 7.89136 90.0964 7.96567 90.2078 8.07712C90.5422 8.48579 90.7651 8.93161 90.9508 9.41458C91.1366 9.89755 91.2109 10.4177 91.2481 10.9378C91.2481 11.4579 91.2109 11.978 91.0623 12.4982C90.9137 13.0183 90.7279 13.5013 90.4307 13.9471C90.2821 14.17 90.1335 14.3558 89.9478 14.5787C89.762 14.7644 89.5762 14.9502 89.3905 15.1359C88.9818 15.4703 88.4988 15.7675 88.0159 15.9161C87.9044 15.9533 87.7558 15.9904 87.6443 16.0276C87.4957 16.0647 87.3843 16.1019 87.2357 16.1019C86.9756 16.139 86.6784 16.1762 86.4183 16.1762C86.1583 16.1762 85.8982 16.139 85.6382 16.1019L85.601 16.0647L85.5638 16.1019C85.2666 16.0647 85.0066 15.9904 84.7094 15.9161C84.1521 15.7304 83.5948 15.5075 83.0375 15.2102C83.2233 15.4332 83.4834 15.6561 83.7063 15.8418C83.9663 16.0276 84.2264 16.2133 84.4864 16.362C84.6722 16.4734 84.858 16.5477 85.0437 16.622C84.9694 16.7335 84.8951 16.8078 84.7837 16.9192L84.5236 17.2164C84.2264 17.6251 83.9292 18.0338 83.632 18.4796C83.5577 18.6282 83.4834 18.7768 83.3719 18.9254C83.2976 18.8883 83.2233 18.8883 83.149 18.8511L82.9261 18.7768C82.7775 18.7397 82.6289 18.6654 82.4803 18.6282C82.183 18.5539 81.8858 18.4424 81.5886 18.3681C80.9942 18.2195 80.3626 18.0709 79.7682 17.9595C78.5422 17.7366 77.3162 17.5508 76.0902 17.4765C75.4957 17.4394 74.8642 17.4393 74.2326 17.4393C74.084 17.4393 73.9354 17.4393 73.7868 17.4393C73.6382 17.4393 73.4895 17.4394 73.3038 17.4765L72.4121 17.5508C72.2635 17.5508 72.1149 17.588 71.9663 17.588C71.8177 17.588 71.6691 17.6251 71.5205 17.6623C71.2233 17.6994 70.9261 17.7366 70.6289 17.8109C70.0344 17.9223 69.44 18.0709 68.8456 18.2195C69.44 18.1081 70.0344 18.0338 70.6289 17.9966C70.9261 17.9595 71.2233 17.9595 71.5205 17.9223C71.6691 17.9223 71.8177 17.9223 71.9663 17.9223C72.1149 17.9223 72.2635 17.9223 72.4121 17.9223H72.858L73.3038 17.9595C73.4524 17.9595 73.601 17.9595 73.7496 17.9966C73.8982 18.0338 74.0468 17.9966 74.1954 18.0338C74.7899 18.0709 75.3843 18.1452 75.9787 18.2567C77.1676 18.4424 78.3564 18.7025 79.471 19.0369C80.0282 19.1855 80.6227 19.4084 81.1799 19.5941C81.44 19.7056 81.7372 19.8171 81.9973 19.9285C82.1459 20.0028 82.2573 20.04 82.406 20.1143L82.5917 20.1886C82.6289 20.2257 82.7032 20.2257 82.7403 20.2629L82.7032 20.3372C82.666 20.4486 82.6289 20.5972 82.5917 20.7087L82.5174 20.8945V20.9316C82.406 20.8945 82.2945 20.8573 82.1459 20.8202C81.8487 20.7087 81.5515 20.6344 81.2543 20.5601C80.6598 20.3743 80.0654 20.2257 79.471 20.1143C78.2821 19.8542 77.0561 19.7056 75.8301 19.5941C75.2357 19.557 74.6041 19.5198 73.9725 19.5198C73.8239 19.5198 73.6753 19.5198 73.5267 19.5198C73.3781 19.5198 73.2295 19.5198 73.0809 19.5198L72.1892 19.5941C72.0406 19.5941 71.892 19.6313 71.7434 19.6313C71.5948 19.6313 71.4462 19.6685 71.2976 19.6685C71.0004 19.7056 70.7032 19.7428 70.406 19.8171C69.8115 19.9285 69.2171 20.04 68.6227 20.1886C69.2171 20.0771 69.8115 19.9657 70.4431 19.9285C70.7403 19.8914 71.0375 19.8914 71.3347 19.8542C71.4834 19.8542 71.632 19.8542 71.7806 19.8171C71.9292 19.8171 72.0778 19.8171 72.2264 19.8171H73.118C73.2666 19.8171 73.4152 19.8171 73.5638 19.8542C73.7125 19.8542 73.8611 19.8542 74.0097 19.8914C74.6041 19.9285 75.1985 20.0028 75.793 20.0771C76.9818 20.2629 78.1707 20.4858 79.3224 20.8202C79.8796 20.9688 80.4741 21.1545 81.0313 21.3774C81.3286 21.4889 81.5886 21.6003 81.8487 21.7118C81.9973 21.7861 82.1087 21.8233 82.2573 21.8976C82.406 21.9719 82.5174 22.009 82.666 22.0833L83.149 22.3062L83.4462 21.4146L83.4834 21.266L83.5577 21.1174C83.5948 21.0059 83.632 20.8945 83.6691 20.783L83.8177 20.4858C84.0406 20.0771 84.2635 19.6685 84.5236 19.2969C84.7837 18.9254 85.0809 18.5539 85.3781 18.1824L85.601 17.9223C85.6753 17.848 85.7496 17.7366 85.8239 17.6623C85.8982 17.588 85.9725 17.5137 86.084 17.4393C86.1211 17.4022 86.1583 17.365 86.1954 17.3279L86.2697 17.2536L86.344 17.2164C86.6412 17.2536 86.9013 17.2907 87.1985 17.2907C87.5329 17.2907 87.8673 17.2536 88.2016 17.1793C88.2759 17.1793 88.3874 17.1421 88.4617 17.105C88.536 17.0678 88.6474 17.0678 88.7217 17.0307C88.8704 16.9564 89.0561 16.9192 89.2047 16.8449C89.279 16.8078 89.3533 16.7706 89.4276 16.7335L89.6505 16.622C89.7248 16.5849 89.7991 16.5477 89.8734 16.5106C89.9477 16.4734 90.0221 16.4363 90.0964 16.362C90.6536 15.9904 91.2109 15.5075 91.6196 14.9502C92.0654 14.3929 92.3626 13.7613 92.5484 13.0926C92.8827 12.4982 92.9942 11.7923 92.9942 11.0864C92.9942 10.3805 92.8456 9.67464 92.6227 9.00591C92.3998 8.33718 92.0282 7.7056 91.5824 7.14833C91.471 6.99972 91.3595 6.88827 91.2109 6.73966C91.0995 6.6282 90.9508 6.4796 90.8394 6.36814C90.5793 6.14523 90.2821 5.92232 89.9478 5.77372C89.6505 5.58796 89.3162 5.43935 88.9818 5.3279C88.9075 5.29074 88.796 5.29074 88.7217 5.25359L88.4988 5.17929C88.4245 5.14214 88.3131 5.14214 88.2388 5.14214C88.1645 5.10499 88.053 5.10498 87.9787 5.10498L87.6443 5.06783C87.57 5.06783 87.4586 5.06783 87.3843 5.06783C87.2357 5.06783 87.0499 5.06783 86.9013 5.10498C86.6041 5.14214 86.3069 5.17929 86.0097 5.21644C85.9725 5.17929 85.9725 5.10499 85.9354 5.06783C85.8239 4.88207 85.7125 4.69632 85.601 4.54771C85.3781 4.21334 85.118 3.87898 84.8208 3.58177C84.5608 3.28455 84.2635 2.98734 83.9292 2.72728C83.632 2.46721 83.2976 2.20715 82.9632 1.98424C82.8146 1.87279 82.6289 1.76133 82.4431 1.68703C82.2573 1.57557 82.1087 1.50127 81.8858 1.38981C81.5143 1.20406 81.1428 1.05545 80.7713 0.943994C79.9911 0.683932 79.2481 0.498174 78.4679 0.42387C78.2821 0.386719 78.0592 0.386719 77.8734 0.386719H77.7248C77.6505 0.386719 77.6134 0.386719 77.5762 0.386719C77.4648 0.386719 77.3905 0.386719 77.279 0.386719C76.8704 0.42387 76.4988 0.461022 76.0902 0.535326C75.31 0.683932 74.5669 0.869691 73.8611 1.20406C73.1552 1.50127 72.4493 1.87279 71.8549 2.31861C71.4462 2.61582 71.0375 2.98734 70.7032 3.39601C71.1118 3.06164 71.5205 2.72728 71.9663 2.46721C72.7094 1.98424 73.4152 1.68703 74.1211 1.50127Z" fill="#8E8E8E"/>
<path d="M61.0066 9.34028V9.48889C61.0066 9.7118 61.0437 9.93471 61.0809 10.1576C61.1552 10.6034 61.2666 11.0121 61.4524 11.4208C61.601 11.8294 61.8239 12.2381 62.084 12.5725C62.344 12.944 62.6412 13.2784 62.9385 13.5384C63.2728 13.8356 63.6072 14.0957 63.9787 14.3186C64.3502 14.5415 64.7589 14.6901 65.2047 14.8016C66.0221 15.0245 66.9137 14.9873 67.6939 14.8016C68.5112 14.6158 69.2543 14.3186 69.923 13.9099C69.5515 14.0585 69.18 14.1328 68.7713 14.2072C68.3998 14.2815 67.9911 14.3186 67.6196 14.3186C66.8394 14.3558 66.0964 14.2443 65.4648 13.9471C64.796 13.687 64.2388 13.2412 63.7558 12.7211C63.5329 12.461 63.31 12.1638 63.1614 11.8666C62.9756 11.5694 62.8642 11.235 62.7527 10.9007C62.5669 10.2319 62.4926 9.52604 62.5298 8.85731C62.5669 8.52294 62.6413 8.18858 62.7156 7.85421C62.7527 7.77991 62.7527 7.7056 62.7899 7.59415L62.8642 7.37124C62.9385 7.22263 63.0128 7.07402 63.0871 6.92542C63.2357 6.6282 63.4214 6.33099 63.6443 6.10808C63.8673 5.84802 64.0902 5.62511 64.3502 5.4022C64.8704 4.99353 65.4648 4.69632 66.0964 4.54771C66.4307 4.47341 66.7279 4.43625 67.0623 4.43625H67.3595C67.3967 4.43625 67.4338 4.43625 67.471 4.43625C67.5453 4.43625 67.6196 4.47341 67.731 4.47341L67.9539 4.54771C68.1397 4.58486 68.2883 4.65916 68.4741 4.69632L68.7341 4.77062C68.8084 4.80777 68.9199 4.80777 68.9942 4.88207C69.1799 4.95638 69.3286 4.99353 69.5143 5.06783C69.7001 5.14214 69.8487 5.21644 70.0344 5.29074L70.5174 5.51365L71.0375 5.77372C71.3719 5.95947 71.7063 6.14523 72.0406 6.33099C72.1892 6.44245 72.375 6.51675 72.5236 6.6282L73.0066 6.92542C73.1552 7.03687 73.3409 7.11118 73.4895 7.22263L73.9725 7.557C74.0468 7.59415 74.1583 7.66845 74.2326 7.7056L74.7527 8.03997C74.827 8.07712 74.9385 8.15142 75.0128 8.18858L75.57 8.48579C75.6815 8.52294 75.7558 8.59724 75.8301 8.6344L76.1273 8.74585C76.8703 9.08022 77.6877 9.34028 78.4679 9.48889C79.2852 9.63749 80.1397 9.67464 80.9199 9.56319L81.2171 9.52604C81.3286 9.48889 81.4029 9.48889 81.5143 9.45173C81.6258 9.41458 81.7001 9.41458 81.8115 9.37743L82.1087 9.30313C82.4803 9.15452 82.8518 9.00591 83.1861 8.783C82.8146 8.89446 82.4431 8.96876 82.0344 9.04307C81.8487 9.08022 81.6629 9.08022 81.44 9.08022H80.8456C80.1026 9.04307 79.3224 8.93161 78.6165 8.67155L78.3564 8.59724L77.8363 8.37433C77.7991 8.37433 77.762 8.33718 77.7248 8.33718L77.6134 8.26288C77.4648 8.18858 77.279 8.11427 77.1304 8.00282C76.9818 7.92851 76.796 7.81706 76.6474 7.74276L76.4245 7.59415C76.3502 7.557 76.2759 7.48269 76.2016 7.44554L75.7186 7.11118C75.6443 7.07402 75.57 6.99972 75.4957 6.92542L75.2728 6.73966L74.827 6.40529L74.344 6.03378C74.1954 5.92232 74.0468 5.77372 73.8611 5.66226L73.3781 5.29074C73.2295 5.17929 73.0437 5.06783 72.8951 4.95638C72.5608 4.73347 72.2264 4.51056 71.8549 4.3248C71.5205 4.10189 71.149 3.91613 70.7775 3.73037C70.666 3.65607 70.5546 3.61892 70.4431 3.58177C70.4431 3.58177 70.4431 3.58177 70.406 3.61892C70.3688 3.58177 70.2945 3.58177 70.2574 3.54461C70.0716 3.47031 69.8858 3.39601 69.6629 3.28455C69.5515 3.2474 69.4772 3.21025 69.3657 3.1731H69.1056C68.9199 3.09879 68.697 3.02449 68.4741 2.98734L68.1769 2.91303C68.0654 2.87588 67.9539 2.87588 67.8425 2.83873C67.8053 2.83873 67.731 2.80158 67.6567 2.80158C67.6196 2.80158 67.6196 2.80158 67.5453 2.80158L67.3224 2.76443H67.2481C67.2109 2.76443 67.1366 2.76443 67.0995 2.76443C66.6536 2.76443 66.1707 2.80158 65.7248 2.91303C65.5019 2.95019 65.279 3.02449 65.0561 3.09879C64.8332 3.1731 64.6103 3.28455 64.4245 3.35886C64.2016 3.47031 64.0159 3.58177 63.8301 3.69322C63.6443 3.80468 63.4586 3.95328 63.2728 4.10189C62.5669 4.69632 61.9725 5.4022 61.601 6.25669C61.4895 6.4796 61.4152 6.66536 61.3409 6.88827L61.2295 7.22263C61.1923 7.33409 61.1552 7.44554 61.1552 7.557C61.0437 8.00282 60.9694 8.44864 60.9694 8.89446C60.9694 9.00591 60.9694 9.11737 60.9694 9.22882L61.0066 9.34028Z" fill="#8E8E8E"/>
<path d="M73.2666 13.3155C74.2697 14.0214 75.4586 14.5044 76.7217 14.6901C77.3533 14.7644 77.9849 14.7644 78.6165 14.6901L79.0995 14.6158C79.2481 14.5787 79.3967 14.5415 79.5453 14.5044C79.6196 14.4672 79.6939 14.4672 79.7682 14.4301L79.9911 14.3558C80.1397 14.2815 80.2883 14.2443 80.4369 14.17C80.7341 14.0214 80.9942 13.9099 81.2543 13.7613L81.44 13.6499C81.5143 13.6127 81.5515 13.5756 81.6258 13.5384L81.9973 13.2784L82.183 13.1298C82.2573 13.0926 82.2945 13.0183 82.3688 12.9811C82.4803 12.8697 82.5917 12.7582 82.7032 12.6839C82.8146 12.5725 82.8889 12.461 83.0004 12.3496C83.1118 12.2381 83.1861 12.1267 83.2976 12.0152C83.0004 12.1267 82.7403 12.2381 82.4803 12.3496C82.3317 12.3867 82.2202 12.461 82.0716 12.4982C81.9973 12.5353 81.9601 12.5353 81.8858 12.5725L81.6629 12.6468L81.2543 12.7954C81.1428 12.8325 80.9942 12.8697 80.8456 12.9068C80.697 12.944 80.5855 12.9811 80.4369 13.0183C80.2883 13.0554 80.1768 13.0926 80.0282 13.1298C79.5081 13.2412 78.988 13.3155 78.4679 13.3527C77.9477 13.3527 77.4276 13.3527 76.9075 13.2784C75.8673 13.1298 74.8642 12.8325 73.8611 12.3867C73.3409 12.1638 72.858 11.9037 72.375 11.6437C71.892 11.3836 71.3719 11.0864 70.8889 10.752C71.0004 11.0121 71.1861 11.2722 71.3347 11.5322C71.5205 11.7551 71.7063 12.0152 71.892 12.2381C72.3007 12.5725 72.7465 12.9811 73.2666 13.3155Z" fill="#8E8E8E"/>
<path d="M132.264 22.2691C132.747 22.2691 133.229 22.1205 133.675 21.8604C134.121 21.6003 134.53 21.2288 134.901 20.783C135.273 20.3372 135.533 19.8171 135.756 19.2226C135.942 18.6282 136.053 18.0338 136.053 17.4393C136.053 16.6592 135.83 16.0276 135.384 15.5818C134.938 15.0988 134.381 14.8759 133.675 14.8759C133.155 14.8759 132.635 15.0245 132.189 15.2846C131.706 15.5446 131.298 15.9161 130.963 16.362C130.592 16.8078 130.332 17.3279 130.109 17.8852C129.886 18.4424 129.774 19.0369 129.774 19.6313C129.774 20.4858 130.034 21.1174 130.517 21.6003C131 22.0462 131.595 22.2691 132.264 22.2691Z" fill="#8E8E8E"/>
<path d="M155.26 46.1576C154.889 46.0462 154.517 45.9719 154.146 45.9719C153.068 45.9719 151.805 46.1576 150.282 46.492C150.356 46.2691 150.431 45.8976 150.579 45.3774C150.728 44.8573 150.877 44.3 150.988 43.7428C151.137 43.1855 151.285 42.6282 151.397 42.1452C151.545 41.6251 151.62 41.2907 151.694 41.105C152.065 39.7675 152.4 38.5044 152.734 37.3527C153.031 36.201 153.329 35.1236 153.551 34.1948C153.774 33.266 153.96 32.4858 154.109 31.8542C154.257 31.2226 154.332 30.7768 154.332 30.5539C154.332 30.1452 154.22 29.8109 153.997 29.5137C153.774 29.2164 153.514 28.9935 153.18 28.8449C152.846 28.6592 152.511 28.5477 152.103 28.4734C151.731 28.3991 151.36 28.362 150.988 28.362C150.691 27.9904 150.319 27.6189 149.873 27.2845C149.465 26.9873 148.945 26.7644 148.276 26.5044C147.607 26.2815 146.827 26.17 145.898 26.17C144.635 26.17 143.335 26.5787 142.072 27.396C140.808 28.2133 139.657 29.2907 138.616 30.5911C137.576 31.9285 136.759 33.4146 136.127 35.0493C135.681 36.2381 135.384 37.427 135.236 38.6158C134.938 39.0245 134.604 39.4332 134.27 39.7675C133.787 40.2876 133.267 40.7706 132.672 41.1793C132.078 41.588 131.446 41.7737 130.815 41.7737C130.332 41.7737 129.997 41.6251 129.7 41.2907C129.44 40.9564 129.291 40.5477 129.291 39.9904C129.291 38.8759 129.44 37.7985 129.7 36.7582C129.96 35.718 130.257 34.7149 130.592 33.7861C130.926 32.8573 131.223 31.9657 131.521 31.1483C131.818 30.331 131.929 29.5508 131.929 28.8449C131.929 28.6592 131.818 28.3991 131.558 28.139C131.298 27.8418 131 27.5446 130.629 27.2845C130.257 26.9873 129.849 26.7644 129.403 26.5415C128.957 26.3186 128.586 26.2072 128.251 26.2072C127.954 26.2072 127.731 26.2815 127.508 26.4672C127.285 26.653 127.137 26.8387 126.988 27.0988C126.691 27.7675 126.356 28.622 125.948 29.6994C125.539 30.7768 125.13 31.9285 124.759 33.1545C124.387 34.3805 124.053 35.5694 123.793 36.7582C123.644 37.4641 123.533 38.0585 123.459 38.653C123.161 39.0616 122.827 39.4703 122.493 39.8047C122.01 40.3248 121.49 40.8078 120.895 41.2164C120.301 41.6251 119.669 41.8109 119.038 41.8109C118.555 41.8109 118.22 41.6623 117.923 41.3279C117.663 40.9935 117.514 40.5849 117.514 40.0276C117.514 39.1731 117.663 38.3558 117.923 37.4641C118.183 36.6096 118.48 35.7551 118.777 34.9006C119.075 34.0462 119.372 33.2288 119.632 32.4486C119.892 31.6685 120.041 30.8883 120.041 30.1824C120.041 29.6994 119.929 29.2536 119.706 28.7706C119.483 28.2876 119.186 27.879 118.815 27.4703C118.443 27.0988 117.997 26.7644 117.514 26.5044C117.031 26.2443 116.548 26.1329 116.028 26.1329C115.025 26.1329 114.096 26.2815 113.242 26.6158C112.387 26.913 111.607 27.2845 110.901 27.6561C110.084 28.1019 109.341 28.5849 108.709 29.1421C108.003 28.0276 107.372 27.3217 106.777 27.0245C106.183 26.7273 105.774 26.6158 105.44 26.6158C104.846 26.6158 104.437 26.913 104.177 27.5075C103.88 28.1762 103.545 29.0678 103.137 30.2195C102.728 31.3712 102.319 32.6344 101.911 33.9719C101.502 35.3093 101.168 36.7211 100.87 38.17C100.87 38.2072 100.87 38.2815 100.833 38.3186C100.462 38.8387 100.09 39.3217 99.6815 39.7304C99.1985 40.2505 98.6784 40.7335 98.084 41.1421C97.4895 41.5508 96.858 41.7366 96.2264 41.7366C95.7434 41.7366 95.3719 41.588 95.1118 41.3279C94.8518 41.0678 94.7032 40.6592 94.7032 40.1019C94.7032 39.1731 94.8889 38.2072 95.2233 37.2784C95.5948 36.3124 95.9663 35.4208 96.4121 34.5291C96.858 33.6746 97.2295 32.8573 97.601 32.1143C97.9725 31.3712 98.1211 30.7397 98.1211 30.2195C98.1211 29.588 97.9354 29.0678 97.601 28.622C97.2295 28.1762 96.7837 27.9533 96.2264 27.9533C95.9292 27.9533 95.6691 27.9904 95.4462 28.0647C95.1861 28.139 94.9261 28.2133 94.666 28.2877C94.3688 28.362 94.0716 28.4363 93.7001 28.5106C93.3286 28.5849 92.8827 28.622 92.3626 28.622C91.8053 28.622 91.3224 28.5477 90.9508 28.3991C90.5793 28.2505 90.3936 27.9904 90.3936 27.6561C90.3936 27.2845 90.505 26.8759 90.6908 26.5044C90.8765 26.0957 90.988 25.5756 90.988 24.944C90.988 24.7211 90.8765 24.461 90.6908 24.1638C90.505 23.8666 90.2821 23.6065 89.9849 23.3836C89.6877 23.1607 89.3905 22.9378 89.0561 22.7892C88.7217 22.6034 88.3874 22.5291 88.0902 22.5291C87.793 22.5291 87.4957 22.6406 87.1985 22.8263C86.9013 23.0121 86.6041 23.2722 86.3069 23.5694C86.0097 23.8666 85.7868 24.2381 85.6382 24.6839C85.4524 25.0926 85.3781 25.5384 85.3781 26.0214C85.3781 26.6158 85.4524 27.1359 85.601 27.5818C85.7496 28.0276 85.9354 28.362 86.1211 28.6592C86.344 28.9935 86.6041 29.2907 86.9013 29.5137C86.2326 31.7428 85.4895 33.526 84.6722 34.8635C83.9663 36.0524 83.4462 36.944 83.0004 37.5756C82.9261 37.687 82.8518 37.7613 82.8146 37.8356C82.2945 38.653 81.6629 39.3589 80.8827 39.9904C80.2512 40.5106 79.5081 40.9935 78.5793 41.4765C77.6877 41.9223 76.6846 42.1452 75.57 42.1452C74.4555 42.1452 73.4895 41.7737 72.6722 41.0307C71.8549 40.2876 71.4462 39.2102 71.4462 37.7985C71.7063 37.8728 71.9292 37.9099 72.1521 37.9471C72.5236 38.0585 72.8951 38.0957 73.2295 38.0957C74.6784 38.0957 75.9044 37.8356 76.9075 37.3155C77.8734 36.7954 78.6536 36.201 79.2481 35.4579C79.8425 34.752 80.2512 33.9719 80.4741 33.1917C80.7341 32.4115 80.8456 31.7056 80.8456 31.1483C80.8456 30.5168 80.697 29.9223 80.4369 29.3279C80.1769 28.7335 79.8053 28.2133 79.3224 27.7675C78.8394 27.3217 78.3193 26.9502 77.6877 26.653C77.0561 26.3558 76.3874 26.2443 75.6815 26.2443C74.6412 26.2443 73.5639 26.5415 72.375 27.0988C71.2233 27.6561 70.1087 28.4734 69.1428 29.5137C68.1397 30.5539 67.3224 31.8171 66.6536 33.266C65.9849 34.7149 65.6877 36.3496 65.6877 38.1329C65.6877 38.2443 65.6877 38.3186 65.6877 38.4301C65.3162 38.9873 64.9075 39.4703 64.4988 39.879C64.0159 40.3991 63.4957 40.8821 62.9013 41.2907C62.3069 41.6994 61.6753 41.8852 61.0437 41.8852C60.375 41.8852 59.7806 41.6623 59.2976 41.2164C58.8146 40.7706 58.5546 40.1762 58.5546 39.4703C58.5546 38.6158 58.666 37.687 58.8518 36.6468C59.0375 35.6065 59.2976 34.5291 59.632 33.4146C59.9292 32.3 60.3007 31.1483 60.6722 29.9966C61.0437 28.8449 61.4524 27.7675 61.8239 26.7273H64.7217C64.8704 26.7273 65.019 26.653 65.2047 26.5415C65.3533 26.4301 65.5019 26.2815 65.6505 26.0957C65.7991 25.9099 65.9106 25.7613 65.9849 25.5756C66.0964 25.3898 66.1335 25.2412 66.1335 25.0926C66.1335 24.7954 66.0221 24.6839 65.762 24.6839H62.6413C63.0871 23.5322 63.4586 22.5663 63.7558 21.8233C64.053 21.0431 64.2016 20.5601 64.2016 20.3372C64.2016 20.1143 64.0902 19.8542 63.8301 19.557C63.57 19.2598 63.2728 18.9254 62.9013 18.6282C62.5298 18.331 62.1211 18.0709 61.7125 17.848C61.3038 17.6251 60.8951 17.5137 60.5608 17.5137C60.2635 17.5137 60.0406 17.588 59.8177 17.7737C59.5948 17.9595 59.4462 18.1452 59.2976 18.4053C58.8518 19.1483 58.406 20.0771 57.9601 21.1545C57.5143 22.2319 57.0313 23.4208 56.5855 24.6839H55.6567C55.3224 24.6839 54.988 24.9068 54.6908 25.3155C54.3936 25.7242 54.245 26.0585 54.245 26.3186C54.245 26.6158 54.3564 26.7273 54.6165 26.7273H55.8796C55.471 27.9533 55.0995 29.1793 54.7279 30.4053C54.3564 31.6685 54.0592 32.8202 53.762 33.9719C53.4648 35.1236 53.279 36.1267 53.0933 37.0926C53.019 37.6127 52.9447 38.1329 52.9075 38.5787C52.5731 39.0988 52.2016 39.5446 51.793 39.9533C51.31 40.4734 50.7899 40.9564 50.1954 41.365C49.601 41.7737 48.9694 41.9595 48.3378 41.9595C47.9292 41.9595 47.632 41.848 47.3719 41.588C47.149 41.3279 47.0375 41.0307 47.0375 40.6592C47.0375 39.879 47.1861 38.9873 47.4462 37.9842C47.7434 36.9811 48.0406 35.9781 48.375 35.0493C48.7094 34.0833 49.0437 33.2288 49.3038 32.4486C49.601 31.6685 49.7125 31.1112 49.7125 30.7768C49.7125 30.3681 49.601 30.0338 49.3781 29.7366C49.1552 29.4394 48.8951 29.2164 48.5608 29.0678C48.2264 28.8821 47.892 28.7706 47.4834 28.6963C47.1118 28.622 46.7403 28.5849 46.3688 28.5849C46.0716 28.2133 45.7001 27.8418 45.2543 27.5075C44.8456 27.2102 44.3255 26.9873 43.6567 26.7273C42.988 26.4672 42.2078 26.3929 41.279 26.3929C40.0159 26.3929 38.7156 26.8016 37.4524 27.6189C36.1892 28.4363 35.0375 29.5137 33.9973 30.814C32.957 32.1514 32.1397 33.6375 31.5081 35.2722C31.0995 36.3496 30.8022 37.4641 30.6536 38.5415C30.245 39.0616 29.762 39.5446 29.279 39.9904C28.6103 40.622 27.8673 41.1793 27.0499 41.6623C26.2326 42.1452 25.4524 42.5168 24.5979 42.7768C23.7434 43.0369 22.9261 43.1855 22.0716 43.1855C19.8425 43.1855 18.0964 42.5539 16.9075 41.2536C15.7187 39.9533 15.1242 37.8356 15.1242 34.8263C15.1242 33.266 15.31 31.7056 15.6815 30.1081C18.5793 30.0338 21.18 29.588 23.5205 28.6963C25.8239 27.8418 27.8301 26.7644 29.4648 25.4641C31.0995 24.201 32.3626 22.8263 33.2543 21.3403C34.1459 19.8914 34.5917 18.5539 34.5917 17.3279C34.5917 16.6592 34.406 15.9533 34.0716 15.2102C33.7372 14.4301 33.2543 13.7242 32.6598 13.0926C32.0654 12.4239 31.3595 11.9037 30.5422 11.4579C29.7248 11.0121 28.8332 10.7892 27.9044 10.7892C26.4183 10.7892 24.8208 11.1979 23.1118 12.0152C21.4029 12.8325 19.7682 13.9471 18.1707 15.396C16.5731 16.8078 15.0871 18.4796 13.6753 20.3372C12.3007 22.2319 11.149 24.2381 10.2945 26.3558C8.84559 25.7242 7.84249 24.9068 7.32237 23.9037C6.80224 22.9007 6.54218 21.8604 6.54218 20.8573C6.54218 19.8914 6.65364 19.074 6.9137 18.3681C7.17376 17.6623 7.47097 17.0678 7.84249 16.5477C8.21401 16.0276 8.62268 15.5818 9.03135 15.2474C9.44001 14.8759 9.84868 14.5787 10.183 14.3186C10.4803 14.0957 10.666 13.9471 10.8518 13.7985C11.0004 13.687 11.0747 13.5013 11.0747 13.2784C11.0747 12.944 10.8146 12.7582 10.2945 12.7582C9.62577 12.7582 8.73413 12.9811 7.61958 13.4641C6.50503 13.9471 5.39048 14.5787 4.31308 15.396C3.23568 16.2133 2.30689 17.1793 1.5267 18.2938C0.746517 19.4084 0.375 20.3372 0.375 21.6746C0.375 22.4177 0.560759 23.1607 0.969427 23.9037C1.3781 24.6468 1.97252 25.3527 2.75271 26.0214C3.53289 26.6901 4.46169 27.3217 5.57624 27.8418C6.65364 28.3991 7.9168 28.8449 9.32856 29.1793C9.0685 30.0338 8.88274 30.9254 8.77128 31.7799C8.65983 32.6344 8.58553 33.526 8.58553 34.3805C8.58553 36.3496 8.95704 38.0214 9.66293 39.4703C10.3688 40.8821 11.2976 42.0709 12.4493 42.9626C13.601 43.8914 14.8642 44.5601 16.3131 45.0059C17.762 45.4517 19.2109 45.6746 20.6598 45.6746C22.1087 45.6746 23.4091 45.4889 24.6722 45.0802C25.8982 44.7087 27.0499 44.1886 28.053 43.5198C29.0933 42.8883 29.9849 42.1824 30.7651 41.4022C30.8022 41.365 30.8394 41.3279 30.8394 41.2907C30.8765 41.4765 30.9508 41.6623 31.0252 41.848C31.2852 42.4424 31.6196 42.9626 32.0282 43.4084C32.4369 43.8542 32.957 44.1886 33.5143 44.4115C34.1087 44.6344 34.7032 44.7459 35.2976 44.7459C36.1892 44.7459 37.0437 44.5601 37.8239 44.1514C38.6041 43.7428 39.31 43.2969 39.9416 42.814C40.6474 42.2567 41.3162 41.588 41.9478 40.8078C42.0964 42.1081 42.6165 43.1112 43.5453 43.7799C44.4369 44.4486 45.5515 44.783 46.8518 44.783C48.0035 44.783 49.0809 44.4858 50.0468 43.8914C51.0128 43.2969 51.8673 42.6282 52.6103 41.9223C52.8704 41.6623 53.1304 41.365 53.3905 41.105C53.4648 41.2164 53.5019 41.365 53.5762 41.4765C53.9849 42.1452 54.5422 42.7397 55.1738 43.2598C55.8053 43.7428 56.5112 44.1514 57.2914 44.4115C58.0716 44.6715 58.8518 44.8202 59.5948 44.8202C60.7465 44.8202 61.8239 44.5229 62.7899 43.9285C63.7558 43.3341 64.6103 42.6654 65.3533 41.9595C65.7248 41.588 66.0964 41.1793 66.4307 40.7706C66.8394 41.588 67.3967 42.2938 68.0654 42.8883C68.7713 43.4827 69.6258 43.9657 70.6289 44.3C71.632 44.6344 72.7094 44.8202 73.8982 44.8202C75.6815 44.8202 77.2047 44.5229 78.505 43.9285C79.8053 43.3341 80.8827 42.6654 81.7372 41.9595C82.7775 41.105 83.632 40.139 84.3007 39.0616C84.7837 38.3558 85.4524 37.2784 86.2697 35.8294C87.0871 34.3805 87.9416 32.5229 88.8332 30.2567C89.3533 30.331 89.8363 30.4053 90.245 30.4796C90.5793 30.5911 90.9137 30.6654 91.2109 30.814C91.5081 30.9254 91.6567 31.1112 91.6567 31.3712C91.6567 31.7428 91.5081 32.2257 91.1738 32.783C90.8765 33.3774 90.5422 34.009 90.1707 34.752C89.7991 35.4951 89.4648 36.3124 89.1676 37.2412C88.8704 38.1328 88.6846 39.0988 88.6846 40.139C88.6846 40.8078 88.8332 41.4022 89.0933 41.9595C89.3533 42.5167 89.762 42.9997 90.3193 43.4455C90.8394 43.8542 91.471 44.1886 92.1769 44.4486C92.8827 44.7087 93.7001 44.8202 94.5917 44.8202C95.7434 44.8202 96.8208 44.5229 97.7868 43.9285C98.7527 43.3341 99.6072 42.6654 100.35 41.9595C100.35 42.0709 100.35 42.1452 100.35 42.2567C100.35 42.9997 100.759 43.6313 101.613 44.1143C102.468 44.5972 103.508 44.8573 104.734 44.8573C105.068 44.8573 105.329 44.8202 105.514 44.7087C105.7 44.5972 105.774 44.3372 105.774 43.9285C105.774 41.6994 105.997 39.6561 106.48 37.8728C106.963 36.0895 107.558 34.5663 108.301 33.3031C109.044 32.04 109.824 31.074 110.641 30.4053C111.459 29.7366 112.239 29.4022 112.945 29.4022C113.205 29.4022 113.428 29.4765 113.613 29.6251C113.799 29.7737 113.911 29.9595 113.911 30.1452C113.911 30.8511 113.799 31.5942 113.539 32.3743C113.279 33.1545 113.019 33.9347 112.722 34.7892C112.425 35.6437 112.164 36.4982 111.904 37.3898C111.644 38.2815 111.533 39.2103 111.533 40.1762C111.533 41.4765 112.09 42.5911 113.168 43.5198C114.245 44.4486 115.694 44.8945 117.477 44.8945C118.629 44.8945 119.706 44.5972 120.672 44.0028C121.638 43.4084 122.493 42.7397 123.236 42.0338C123.384 41.8852 123.533 41.6994 123.681 41.5508C123.942 42.2938 124.387 42.9254 125.019 43.4455C126.096 44.4115 127.545 44.8573 129.329 44.8573C130.48 44.8573 131.558 44.5601 132.524 43.9657C133.49 43.3712 134.344 42.7025 135.087 41.9966C135.236 41.848 135.347 41.7366 135.459 41.588C135.496 41.6994 135.533 41.848 135.57 41.9595C135.83 42.5539 136.164 43.074 136.573 43.5198C136.982 43.9657 137.502 44.3 138.059 44.5229C138.654 44.7459 139.248 44.8573 139.842 44.8573C140.734 44.8573 141.589 44.6716 142.369 44.2629C143.149 43.8542 143.855 43.4084 144.486 42.9254C145.192 42.3681 145.861 41.6994 146.493 40.9192C146.418 41.2164 146.344 41.588 146.195 42.1452C146.084 42.6654 145.935 43.2598 145.75 43.8914C145.564 44.5229 145.415 45.1545 145.267 45.749C145.118 46.3805 144.969 46.9007 144.858 47.3836C143.595 47.9037 142.332 48.4982 141.18 49.1298C139.991 49.7613 138.951 50.3929 138.059 51.0616C137.168 51.7304 136.425 52.3991 135.867 53.105C135.31 53.8109 135.05 54.5168 135.05 55.1855C135.05 55.8171 135.199 56.3743 135.459 56.9316C135.756 57.4889 136.127 57.9347 136.61 58.3434C137.093 58.7149 137.651 59.0493 138.282 59.2722C138.914 59.4951 139.582 59.6065 140.325 59.6065C141.774 59.6065 142.963 59.3093 144.003 58.6777C145.007 58.0462 145.898 57.2288 146.604 56.1886C147.347 55.1483 147.942 53.9595 148.462 52.622C148.945 51.2846 149.39 49.9099 149.762 48.4982C150.691 48.201 151.508 48.0895 152.251 48.0895C152.92 48.0895 153.403 48.1638 153.663 48.3124C153.923 48.461 154.183 48.5353 154.48 48.5353C154.777 48.5353 155.038 48.3124 155.335 47.9038C155.632 47.4951 155.781 47.1236 155.781 46.8635C155.781 46.6034 155.595 46.2691 155.26 46.1576ZM72.1521 33.5632C72.4493 32.7087 72.858 31.9285 73.3409 31.1855C73.8239 30.4424 74.3812 29.8109 75.0128 29.2536C75.6443 28.7335 76.2759 28.4734 76.9447 28.4734C77.5019 28.4734 77.7991 28.7706 77.7991 29.4022C77.7991 29.8852 77.6505 30.5168 77.3162 31.2226C77.019 31.9285 76.5731 32.6344 76.0159 33.3031C75.4586 33.9719 74.827 34.5291 74.084 35.0121C73.3409 35.4951 72.5236 35.718 71.7063 35.718C71.7063 35.1236 71.8549 34.4177 72.1521 33.5632ZM18.9137 21.9719C19.8425 20.3743 20.8456 18.9626 21.923 17.7366C23.0004 16.5106 24.1149 15.5446 25.2295 14.8016C26.344 14.0957 27.4214 13.7242 28.4617 13.7242C29.0561 13.7242 29.5019 13.8728 29.7991 14.2072C30.0964 14.5415 30.2821 14.9502 30.2821 15.5075C30.2821 16.622 29.9849 17.848 29.3533 19.1483C28.7217 20.4486 27.8301 21.6746 26.6413 22.8263C25.4524 23.978 24.0035 24.944 22.3317 25.7613C20.6227 26.5415 18.7279 26.9873 16.6103 27.0616C17.2047 25.2784 17.9849 23.5694 18.9137 21.9719ZM43.3595 33.9719C42.9137 35.1607 42.3564 36.3124 41.6877 37.3898C41.019 38.4672 40.3502 39.396 39.6072 40.139C38.8642 40.8821 38.2326 41.2536 37.6753 41.2536C36.7837 41.2536 36.3378 40.5477 36.3378 39.1359C36.3378 38.17 36.5236 37.0926 36.8951 35.8666C37.2666 34.6406 37.7496 33.526 38.3069 32.4858C38.9013 31.4455 39.5329 30.5539 40.2388 29.848C40.9447 29.1421 41.6505 28.7706 42.3564 28.7706C42.8394 28.7706 43.2109 28.9192 43.5453 29.2536C43.8796 29.588 44.0282 30.0709 44.0282 30.7768C44.0282 31.7428 43.8053 32.783 43.3595 33.9719ZM143.149 52.6592C142.777 53.5137 142.406 54.2567 141.997 54.9254C141.589 55.5942 141.143 56.1143 140.66 56.4858C140.177 56.8573 139.694 57.0802 139.174 57.0802C138.616 57.0802 138.319 56.783 138.319 56.1514C138.319 55.6685 138.468 55.1483 138.802 54.5911C139.099 54.0709 139.545 53.5137 140.065 52.9935C140.586 52.4734 141.217 51.9533 141.923 51.4332C142.629 50.913 143.372 50.4301 144.189 50.0214C143.818 50.9502 143.483 51.8047 143.149 52.6592ZM147.942 33.9719C147.496 35.1607 146.938 36.3124 146.27 37.3898C145.601 38.4672 144.895 39.396 144.152 40.139C143.409 40.8821 142.777 41.2536 142.22 41.2536C141.329 41.2536 140.883 40.5477 140.883 39.1359C140.883 38.17 141.068 37.0926 141.44 35.8666C141.812 34.6406 142.294 33.526 142.852 32.4858C143.446 31.4455 144.078 30.5539 144.784 29.848C145.49 29.1421 146.195 28.7706 146.901 28.7706C147.384 28.7706 147.756 28.9192 148.127 29.2536C148.462 29.588 148.647 30.0709 148.647 30.7768C148.61 31.7428 148.387 32.783 147.942 33.9719Z" fill="#8E8E8E"/>
<path d="M51.4957 59.4951C51.4586 59.0493 51.4586 58.6406 51.4214 58.2691C51.3843 57.8604 51.3471 57.4889 51.31 57.0802C51.2728 56.8573 51.2357 56.6716 51.1614 56.5972C51.0871 56.4858 51.0128 56.4115 50.9385 56.3743V56.3372C51.0128 56.3 51.0871 56.2629 51.1614 56.1886C51.2357 56.1143 51.31 56.04 51.3471 55.8914C51.3843 55.8171 51.3843 55.7428 51.4214 55.6313C51.4586 55.5198 51.4586 55.4455 51.4957 55.2969C51.5329 55.1483 51.5329 54.9997 51.5329 54.814C51.5329 54.6282 51.5329 54.4053 51.5329 54.1452C51.5329 53.8852 51.5329 53.6623 51.5329 53.4765C51.5329 53.2907 51.4957 53.105 51.4586 52.9564C51.4214 52.8078 51.3843 52.6963 51.3471 52.5849C51.31 52.4734 51.2357 52.362 51.1614 52.2876C51.0499 52.139 50.9385 52.0647 50.7899 51.9904C50.6412 51.9161 50.4555 51.879 50.1954 51.879H48.4121V60.3124H49.3781V56.7459H49.8611C50.0097 56.7459 50.1211 56.783 50.1954 56.8573C50.2697 56.9316 50.3069 57.0802 50.344 57.3031C50.3812 57.6003 50.4183 57.8604 50.4183 58.1576C50.4183 58.4548 50.4555 58.7149 50.4555 59.0121C50.4555 59.2722 50.4926 59.4579 50.4926 59.6065C50.4926 59.7551 50.5298 59.8666 50.5298 59.9781C50.5298 60.0524 50.5669 60.1267 50.5669 60.201C50.5669 60.2381 50.6041 60.3124 50.6041 60.3496H51.6072V60.3124C51.57 60.201 51.5329 60.0895 51.5329 59.9781C51.5329 59.8666 51.5329 59.6808 51.4957 59.4951ZM50.5298 54.7397C50.5298 54.8883 50.5298 55.0369 50.4926 55.1112C50.4926 55.2226 50.4555 55.2969 50.4555 55.3341C50.4555 55.4084 50.4183 55.4455 50.3812 55.5198C50.3069 55.6313 50.2326 55.7428 50.1583 55.7799C50.084 55.8171 49.9725 55.8171 49.8239 55.8171H49.3781V52.8449H50.0097C50.1954 52.8449 50.3069 52.9192 50.3812 53.0678C50.4183 53.105 50.4183 53.1421 50.4555 53.1793C50.4555 53.2164 50.4926 53.2907 50.4926 53.365C50.4926 53.4394 50.4926 53.5508 50.4926 53.6623C50.4926 53.7737 50.4926 53.9223 50.4926 54.1081C50.5298 54.4053 50.5298 54.5911 50.5298 54.7397Z" fill="#8E8E8E"/>
<path d="M57.2171 60.3124H59.8177V59.2722H58.2202V56.4858H59.8177V55.5198H58.2202V52.8821H59.8549V51.879H57.2171V60.3124Z" fill="#8E8E8E"/>
<path d="M68.3255 56.9316C68.3255 56.8202 68.2883 56.7459 68.2883 56.6715C68.2883 56.5972 68.2512 56.5229 68.214 56.4858C68.1397 56.3743 68.1026 56.2629 68.0282 56.2257C67.9539 56.1514 67.8796 56.0771 67.731 56.0028C67.5453 55.8914 67.3967 55.7799 67.1738 55.6685C66.988 55.557 66.8394 55.4455 66.6908 55.3712C66.5793 55.2969 66.505 55.2226 66.4679 55.1483C66.4307 55.1112 66.3936 55.0369 66.3564 54.9254C66.3564 54.8883 66.3193 54.814 66.3193 54.7768C66.3193 54.7397 66.3193 54.6654 66.2821 54.5911C66.2821 54.5168 66.2821 54.4424 66.2821 54.331C66.2821 54.2195 66.2821 54.0709 66.2821 53.9223C66.2821 53.6251 66.2821 53.4022 66.3193 53.2907C66.3564 53.1793 66.3564 53.0678 66.4307 52.9564C66.4679 52.8821 66.5422 52.8449 66.5793 52.8078C66.6165 52.7706 66.7279 52.7706 66.8394 52.7706C66.9508 52.7706 67.0623 52.7706 67.0995 52.8078C67.1738 52.8078 67.2109 52.8821 67.2481 52.9192C67.3224 52.9935 67.3595 53.105 67.3595 53.2536C67.3595 53.4022 67.3967 53.588 67.3967 53.8852C67.3967 54.0709 67.3967 54.1824 67.3967 54.2938C67.3967 54.4053 67.3967 54.4796 67.3595 54.5539H68.1769C68.214 54.4424 68.214 54.331 68.214 54.1824C68.214 54.0338 68.214 53.848 68.214 53.588C68.214 53.2164 68.1769 52.9192 68.1397 52.6963C68.1025 52.4734 68.0282 52.3248 67.9168 52.1762C67.8053 52.0647 67.6939 51.9533 67.5081 51.879C67.3224 51.8047 67.0623 51.7675 66.7279 51.7675C66.4307 51.7675 66.2078 51.8047 66.0592 51.8418C65.9106 51.879 65.762 51.9904 65.6505 52.1019C65.5019 52.2505 65.4276 52.4363 65.3533 52.6592C65.279 52.8821 65.279 53.2536 65.279 53.6994C65.279 54.0709 65.279 54.3681 65.3162 54.5911C65.3533 54.814 65.3533 54.9997 65.3905 55.1483C65.4276 55.2969 65.4648 55.4084 65.5019 55.5198C65.5391 55.5942 65.6134 55.7056 65.6877 55.7799C65.762 55.8542 65.8363 55.9285 65.9478 56.0028C66.0592 56.0771 66.1707 56.1514 66.2821 56.2257C66.3936 56.3 66.505 56.3743 66.6165 56.4486C66.7279 56.5229 66.8394 56.5972 66.9137 56.6715C67.0252 56.7459 67.0995 56.8202 67.1366 56.8573C67.1738 56.8945 67.2109 57.0059 67.2481 57.0802C67.2481 57.1545 67.2852 57.1917 67.2852 57.2288C67.2852 57.266 67.2852 57.3403 67.3224 57.3774C67.3224 57.4517 67.3224 57.526 67.3224 57.6003C67.3224 57.6746 67.3224 57.8233 67.3224 57.9719C67.3224 58.3434 67.3224 58.6034 67.2852 58.7892C67.2852 58.9378 67.2481 59.0864 67.1738 59.1979C67.1366 59.3093 67.0623 59.3465 66.988 59.3836C66.9137 59.4208 66.8022 59.4208 66.6536 59.4208C66.5422 59.4208 66.4307 59.4208 66.3564 59.3836C66.2821 59.3465 66.245 59.3093 66.2078 59.1979C66.1707 59.0864 66.1335 58.975 66.0964 58.8263C66.0964 58.6777 66.0592 58.4548 66.0592 58.1205C66.0592 57.9719 66.0592 57.8233 66.0592 57.749C66.0592 57.6375 66.0592 57.5632 66.0964 57.4517H65.2419C65.2419 57.5632 65.2047 57.6746 65.2047 57.8233C65.2047 57.9719 65.2047 58.1205 65.2047 58.3434C65.2047 58.5663 65.2047 58.7892 65.2047 58.9378C65.2047 59.0864 65.2419 59.235 65.2419 59.3465C65.279 59.4579 65.279 59.5694 65.3162 59.6437C65.3533 59.718 65.3905 59.8294 65.4276 59.9037C65.5391 60.0895 65.6877 60.2381 65.8363 60.2753C66.0221 60.3496 66.245 60.3867 66.5422 60.3867C66.9137 60.3867 67.1738 60.3496 67.3595 60.2381C67.5453 60.1638 67.6939 60.0152 67.7682 59.8666C67.8053 59.7923 67.8425 59.6808 67.8796 59.5694C67.9168 59.4579 67.9539 59.3465 67.9911 59.1979C68.0282 59.0493 68.0282 58.8635 68.0654 58.6777C68.0654 58.492 68.1026 58.2319 68.1026 57.9347C68.1026 57.6746 68.1026 57.4517 68.1026 57.266C68.3626 57.1545 68.3626 57.0431 68.3255 56.9316Z" fill="#8E8E8E"/>
<path d="M73.601 52.8821H74.6784V60.3124H75.6443V52.8821H76.6846V51.879H73.601V52.8821Z" fill="#8E8E8E"/>
<path d="M82.406 51.879L81.5886 60.3124H82.5917L82.7775 58.009H83.6691L83.8549 60.3124H84.858L84.0778 51.879H82.406ZM82.7775 57.0431L83.0747 53.8852C83.0747 53.6994 83.1118 53.5508 83.1118 53.365C83.1118 53.2164 83.149 53.0307 83.149 52.8821H83.2233C83.2233 53.0678 83.2604 53.2164 83.2604 53.365C83.2604 53.5137 83.2976 53.6994 83.2976 53.8852L83.5577 57.0431H82.7775Z" fill="#8E8E8E"/>
<path d="M92.3998 57.9719C92.3998 58.1948 92.3998 58.3805 92.3998 58.5291C92.3998 58.6777 92.3998 58.7892 92.3998 58.8635C92.3998 58.9378 92.3626 59.0121 92.3626 59.0864C92.3255 59.1236 92.3255 59.1979 92.2883 59.235C92.2512 59.3093 92.1768 59.3465 92.1025 59.3836C92.0282 59.4208 91.9539 59.4208 91.8053 59.4208C91.6939 59.4208 91.5824 59.4208 91.5081 59.3836C91.4338 59.3465 91.3967 59.3093 91.3224 59.235C91.2852 59.1979 91.2852 59.1236 91.2481 59.0864C91.2109 59.0493 91.2109 58.975 91.2109 58.8635C91.2109 58.7892 91.2109 58.6777 91.2109 58.5291C91.2109 58.3805 91.2109 58.1948 91.2109 57.9719V51.879H90.2078V57.9719C90.2078 58.2691 90.2078 58.492 90.2078 58.6777C90.2078 58.8635 90.2078 59.0493 90.245 59.1607C90.245 59.3093 90.2821 59.4208 90.3193 59.5322C90.3564 59.6437 90.3936 59.7551 90.4307 59.8294C90.5422 60.0524 90.6908 60.201 90.9137 60.2753C91.0995 60.3496 91.4338 60.3867 91.8053 60.3867C92.214 60.3867 92.5112 60.3496 92.697 60.2753C92.8827 60.201 93.0685 60.0524 93.1799 59.8294C93.2171 59.718 93.2543 59.6065 93.2914 59.5322C93.3286 59.4208 93.3286 59.3093 93.3657 59.1607C93.3657 59.0121 93.3657 58.8635 93.4029 58.6777C93.4029 58.492 93.4029 58.2319 93.4029 57.9719V51.879H92.4369V57.9719H92.3998Z" fill="#8E8E8E"/>
<path d="M102.171 59.4951C102.134 59.0493 102.134 58.6406 102.096 58.2691C102.059 57.8604 102.022 57.4889 101.985 57.0802C101.948 56.8573 101.911 56.6716 101.836 56.5972C101.762 56.4858 101.688 56.4115 101.613 56.3743V56.3372C101.688 56.3 101.762 56.2629 101.836 56.1886C101.911 56.1143 101.985 56.04 102.022 55.8914C102.059 55.8171 102.059 55.7428 102.096 55.6313C102.134 55.5198 102.134 55.4455 102.171 55.2969C102.208 55.1483 102.208 54.9997 102.208 54.814C102.208 54.6282 102.208 54.4053 102.208 54.1452C102.208 53.8852 102.208 53.6623 102.208 53.4765C102.208 53.2907 102.171 53.105 102.134 52.9564C102.096 52.8078 102.059 52.6963 102.022 52.5849C101.985 52.4734 101.911 52.362 101.836 52.2876C101.725 52.139 101.613 52.0647 101.465 51.9904C101.316 51.9161 101.13 51.879 100.87 51.879H99.0871V60.3124H100.053V56.7459H100.536C100.685 56.7459 100.796 56.783 100.87 56.8573C100.945 56.9316 100.982 57.0802 101.019 57.3031C101.056 57.6003 101.093 57.8604 101.093 58.1576C101.093 58.4548 101.13 58.7149 101.13 59.0121C101.13 59.2722 101.168 59.4579 101.168 59.6065C101.168 59.7551 101.205 59.8666 101.205 59.9781C101.205 60.0524 101.242 60.1267 101.242 60.201C101.242 60.2381 101.279 60.3124 101.279 60.3496H102.282V60.3124C102.245 60.201 102.208 60.0895 102.208 59.9781C102.208 59.8666 102.171 59.6808 102.171 59.4951ZM101.168 54.7397C101.168 54.8883 101.168 55.0369 101.13 55.1112C101.13 55.2226 101.093 55.2969 101.093 55.3341C101.093 55.4084 101.056 55.4455 101.019 55.5198C100.945 55.6313 100.87 55.7428 100.796 55.7799C100.722 55.8171 100.61 55.8171 100.462 55.8171H100.016V52.8449H100.647C100.833 52.8449 100.945 52.9192 101.019 53.0678C101.056 53.105 101.056 53.1421 101.093 53.1793C101.093 53.2164 101.13 53.2907 101.13 53.365C101.13 53.4394 101.13 53.5508 101.13 53.6623C101.13 53.7737 101.13 53.9223 101.13 54.1081C101.205 54.4053 101.168 54.5911 101.168 54.7397Z" fill="#8E8E8E"/>
<path d="M108.524 51.879L107.706 60.3124H108.709L108.895 58.009H109.787L109.973 60.3124H110.976L110.195 51.879H108.524ZM108.932 57.0431L109.229 53.8852C109.229 53.6994 109.267 53.5508 109.267 53.365C109.267 53.2164 109.304 53.0307 109.304 52.8821H109.378C109.378 53.0678 109.415 53.2164 109.415 53.365C109.415 53.5137 109.452 53.6994 109.452 53.8852L109.712 57.0431H108.932Z" fill="#8E8E8E"/>
<path d="M118.815 55.1112C118.815 55.3712 118.815 55.557 118.815 55.7056C118.815 55.8542 118.815 56.0028 118.815 56.1514H118.777C118.777 56.1143 118.777 56.04 118.74 56.0028C118.74 55.9285 118.703 55.8542 118.703 55.7428C118.666 55.6313 118.629 55.4827 118.592 55.2969C118.555 55.1112 118.48 54.8883 118.406 54.5539C118.332 54.2567 118.22 53.8852 118.109 53.4394C117.997 52.9935 117.849 52.4734 117.7 51.8418H116.548V60.2753H117.44V56.04C117.44 55.7428 117.44 55.4455 117.44 55.1855C117.44 54.9254 117.44 54.6654 117.44 54.4424H117.477C117.477 54.5168 117.514 54.5911 117.551 54.7025C117.589 54.7768 117.626 54.9254 117.663 55.074C117.7 55.2226 117.774 55.4455 117.849 55.7056C117.923 55.9657 118.034 56.3 118.146 56.7087C118.257 57.1174 118.406 57.6003 118.592 58.1948C118.777 58.7892 118.963 59.4951 119.223 60.3124H119.743V51.879H118.815V55.1112Z" fill="#8E8E8E"/>
<path d="M125.242 52.8821H126.282V60.3124H127.285V52.8821H128.288V51.879H125.242V52.8821Z" fill="#8E8E8E"/>
</svg>
