<svg width="129" height="60" viewBox="0 0 129 60" fill="none" xmlns="http://www.w3.org/2000/svg">
<path d="M10.0154 2.68933C10.5718 2.22565 11.221 1.85471 11.8701 1.5765C12.5193 1.2983 13.2612 1.11283 13.9103 0.927355C14.2813 0.83462 14.6522 0.83462 14.9304 0.741884C15.0231 0.741884 15.1159 0.741884 15.2086 0.741884H15.3941C15.5795 0.741884 15.765 0.741884 15.9505 0.741884C16.6924 0.83462 17.3415 0.927355 17.9907 1.11283C18.3616 1.20556 18.6398 1.39103 18.918 1.48377C19.1035 1.5765 19.1962 1.66924 19.3817 1.76198C19.5672 1.85471 19.6599 1.94745 19.8454 2.04018C20.1236 2.22565 20.4018 2.41112 20.68 2.5966C20.9582 2.78207 21.2364 3.06027 21.4219 3.24574C21.7001 3.52395 21.8856 3.70942 22.071 3.98763C22.071 4.08036 22.1638 4.08036 22.1638 4.1731C22.071 4.1731 22.071 4.26583 21.9783 4.26583C21.4219 4.54404 20.8655 4.82225 20.4018 5.00772C19.8454 5.28593 19.3817 5.4714 18.8253 5.65687C18.2689 5.7496 17.7125 5.84234 17.0633 5.84234C17.6197 6.02781 18.2689 6.12055 18.918 6.12055C19.1962 6.12055 19.5672 6.12055 19.8454 6.02781C20.1236 5.93507 20.4945 5.93507 20.7727 5.84234C21.3292 5.65687 21.9783 5.4714 22.5347 5.28593C22.6274 5.28593 22.8129 5.19319 22.9057 5.19319C22.9984 5.19319 23.1839 5.10045 23.2766 5.10045C23.5548 5.00772 23.833 5.00772 24.1112 4.91498C24.3894 4.82225 24.6676 4.82225 24.9458 4.82225C25.0386 4.82225 25.224 4.82225 25.3168 4.82225C25.4095 4.82225 25.4095 4.82225 25.5023 4.82225H25.595C25.6877 4.82225 25.6877 4.82225 25.7805 4.82225C25.8732 4.82225 25.8732 4.82225 25.9659 4.82225C26.0587 4.82225 26.0587 4.82225 26.1514 4.82225C26.2441 4.82225 26.2441 4.82225 26.3369 4.82225C26.6151 4.91498 26.8005 5.00772 26.986 5.10045C27.357 5.4714 27.6352 5.56413 27.8206 5.7496C27.9134 5.84234 28.0061 5.93507 28.0988 6.02781C28.1916 6.12055 28.2843 6.21328 28.3771 6.30602C28.748 6.58422 29.0262 6.95517 29.2117 7.41884C29.3971 7.88252 29.5826 8.3462 29.6754 8.90261C29.7681 9.36629 29.7681 9.9227 29.6754 10.3864C29.5826 10.9428 29.4899 11.4065 29.2117 11.8701C29.1189 12.1484 28.9335 12.3338 28.8407 12.5193C28.6553 12.7048 28.5625 12.8902 28.3771 13.0757C28.0061 13.4467 27.6352 13.8176 27.0788 14.0031C26.986 14.0958 26.8005 14.0958 26.7078 14.1885C26.6151 14.1885 26.4296 14.2813 26.3369 14.2813C26.0587 14.374 25.7805 14.374 25.5023 14.4667C25.224 14.4667 24.9458 14.4667 24.7604 14.4667C24.4822 14.4667 24.204 14.4667 23.9257 14.374C23.3693 14.2813 22.8129 14.0958 22.2565 13.9103C22.442 14.0958 22.7202 14.2813 22.9984 14.4667C23.2766 14.6522 23.5548 14.745 23.833 14.8377C24.0185 14.9304 24.204 15.0232 24.3894 15.0232C24.2967 15.1159 24.2967 15.2086 24.204 15.3014L24.0185 15.5796C23.7403 16.0432 23.5548 16.4142 23.2766 16.8779C23.1839 17.0633 23.1839 17.1561 23.0911 17.3415C22.9984 17.3415 22.9057 17.3415 22.9057 17.2488L22.7202 17.1561C22.5347 17.1561 22.442 17.0633 22.2565 17.0633C21.9783 16.9706 21.7001 16.9706 21.3292 16.8779C20.7727 16.7851 20.1236 16.6924 19.5672 16.6924C18.3616 16.5997 17.1561 16.5997 15.9505 16.6924C15.3941 16.6924 14.7449 16.7851 14.1885 16.8779C14.003 16.8779 13.9103 16.8779 13.7248 16.9706C13.5394 16.9706 13.4466 16.9706 13.2612 17.0633L12.3338 17.2488C12.1483 17.2488 12.0556 17.3415 11.8701 17.3415C11.6847 17.3415 11.5919 17.4343 11.4064 17.4343C11.1282 17.527 10.85 17.6198 10.5718 17.7125C10.0154 17.898 9.459 18.0834 8.90259 18.2689C9.459 18.0834 10.0154 17.9907 10.6646 17.8052C10.9428 17.7125 11.221 17.7125 11.4992 17.6198C11.6847 17.6198 11.7774 17.6198 11.9629 17.527C12.1483 17.527 12.2411 17.527 12.4265 17.4343L12.8902 17.3415H13.3539C13.5394 17.3415 13.6321 17.3415 13.8176 17.3415C14.003 17.3415 14.0958 17.3415 14.2812 17.3415C14.8377 17.3415 15.4868 17.3415 16.0432 17.3415C17.2488 17.3415 18.3616 17.527 19.4744 17.7125C20.0309 17.8052 20.5873 17.898 21.1437 18.0834C21.4219 18.1762 21.7001 18.1762 21.9783 18.2689C22.071 18.2689 22.2565 18.3616 22.3492 18.3616L22.5347 18.4544C22.6274 18.4544 22.6274 18.4544 22.7202 18.5471V18.6398C22.7202 18.7326 22.6274 18.9181 22.6274 19.0108V19.289C22.5347 19.289 22.3492 19.1963 22.2565 19.1963C21.9783 19.1035 21.7001 19.1035 21.3292 19.0108C20.7727 18.9181 20.1236 18.8253 19.5672 18.8253C18.3616 18.7326 17.1561 18.7326 15.9505 18.7326C15.3941 18.7326 14.7449 18.8253 14.1885 18.918C14.003 18.918 13.9103 18.9181 13.7248 19.0108C13.5394 19.0108 13.4466 19.0108 13.2612 19.1035L12.3338 19.289C12.1483 19.289 12.0556 19.3817 11.8701 19.3817C11.6847 19.3817 11.4992 19.4745 11.4064 19.4745C11.1282 19.5672 10.85 19.6599 10.5718 19.7527C10.0154 19.9381 9.459 20.1236 8.90259 20.3091C9.459 20.1236 10.0154 19.9381 10.6646 19.8454C10.9428 19.7527 11.221 19.7527 11.4992 19.6599C11.6847 19.6599 11.7774 19.6599 11.9629 19.5672C12.1483 19.5672 12.2411 19.5672 12.4265 19.4745L12.8902 19.3817H13.3539C13.5394 19.3817 13.6321 19.3817 13.8176 19.3817C14.003 19.3817 14.0958 19.3817 14.2812 19.3817C14.8377 19.3817 15.4868 19.3817 16.0432 19.3817C17.2488 19.3817 18.3616 19.4745 19.5672 19.6599C20.1236 19.7527 20.68 19.8454 21.3292 20.0309C21.6074 20.1236 21.8856 20.1236 22.1638 20.2163C22.2565 20.2163 22.442 20.3091 22.5347 20.3091C22.6274 20.3091 22.8129 20.4018 22.9057 20.4018L23.3693 20.5873L23.4621 20.0309L23.5548 19.6599V19.289C23.5548 19.1963 23.6475 19.1035 23.6475 19.0108L23.7403 18.7326C23.9257 18.2689 24.1112 17.898 24.2967 17.527C24.4822 17.1561 24.7604 16.6924 25.0386 16.3215L25.224 16.0432C25.3168 15.9505 25.3168 15.8578 25.4095 15.765C25.5023 15.6723 25.5023 15.5796 25.595 15.4868L25.8732 15.2086C26.1514 15.2086 26.4296 15.2086 26.7078 15.2086C27.0788 15.2086 27.357 15.1159 27.6352 15.0232C27.7279 15.0232 27.8206 14.9304 27.9134 14.9304C28.0061 14.9304 28.0988 14.8377 28.1916 14.8377C28.3771 14.745 28.4698 14.745 28.6553 14.5595C28.748 14.5595 28.8407 14.4667 28.8407 14.4667L29.0262 14.374C29.1189 14.374 29.1189 14.2813 29.2117 14.1885C29.3044 14.0958 29.3044 14.0958 29.3971 14.0031C29.9536 13.5394 30.3245 13.0757 30.6954 12.4266C31.0664 11.8701 31.2519 11.221 31.4373 10.4791C31.7155 9.82997 31.7155 9.18082 31.6228 8.53167C31.5301 7.88252 31.3446 7.23337 31.0664 6.58422C30.6027 6.12055 30.139 5.56413 29.6754 5.00772C29.5826 4.91498 29.3971 4.72951 29.3044 4.63678C29.2117 4.54404 29.0262 4.45131 28.9335 4.35857C28.6553 4.1731 28.3771 3.98763 28.0061 3.89489C27.6352 3.70942 27.2642 3.61669 26.8933 3.61669C26.8005 3.61669 26.7078 3.61669 26.6151 3.52395H26.4296C26.3369 3.52395 26.2441 3.52395 26.1514 3.52395C26.0587 3.52395 25.9659 3.52395 25.8732 3.52395H25.595C25.5023 3.52395 25.4095 3.52395 25.3168 3.52395C25.1313 3.52395 25.0386 3.61669 24.8531 3.61669C24.5749 3.70942 24.2967 3.70942 24.0185 3.80216L23.9257 3.70942C23.833 3.52395 23.6475 3.43122 23.5548 3.24574C23.2766 2.96754 22.9984 2.68933 22.7202 2.41112C22.442 2.13292 22.071 1.94745 21.7928 1.66924C21.4219 1.48377 21.1437 1.20556 20.7727 1.11283C20.5873 1.02009 20.4018 0.927355 20.2163 0.83462C20.0309 0.741884 19.8454 0.649149 19.6599 0.649149C19.289 0.556413 18.918 0.370942 18.5471 0.370942C17.7125 0.0927355 16.8778 0 16.136 0C15.9505 0 15.765 0 15.5795 0H15.3941C15.3013 0 15.3013 0 15.2086 0C15.1159 0 15.0231 0 14.9304 0C14.5595 0.0927355 14.1885 0.185471 13.8176 0.278207C13.0757 0.463678 12.4265 0.83462 11.6847 1.20556C11.0355 1.5765 10.3864 2.04018 9.82994 2.50386C9.55174 2.96754 9.1808 3.33848 8.90259 3.70942C9.27353 3.33848 9.64447 2.96754 10.0154 2.68933Z" fill="#8E8E8E"/>
<path d="M4.82225 15.4868C5.65687 15.5796 6.49149 15.4868 7.23337 15.2086C7.97526 14.9304 8.71714 14.5595 9.27355 14.0958C8.90261 14.2813 8.53167 14.374 8.25346 14.4667C7.88252 14.5595 7.51158 14.6522 7.14064 14.745C6.39875 14.8377 5.65687 14.8377 5.00772 14.6522C4.35857 14.4667 3.70942 14.0958 3.24574 13.6321C2.96754 13.3539 2.78207 13.1684 2.5966 12.8902C2.41112 12.612 2.22565 12.3338 2.13292 12.0556C1.85471 11.4065 1.76198 10.7573 1.66924 10.1082C1.66924 9.73723 1.66924 9.45903 1.76198 9.08808C1.76198 8.99535 1.76198 8.90261 1.76198 8.80988L1.85471 8.53167C1.76198 8.43893 1.85471 8.25346 1.85471 8.16073C1.94745 7.88252 2.13292 7.60431 2.31839 7.32611C2.50386 6.95517 2.68933 6.76969 2.96754 6.49149C3.43122 6.02781 3.98763 5.65687 4.54404 5.4714C4.82225 5.37866 5.19319 5.28593 5.4714 5.28593H5.65687C5.65687 5.28593 5.65687 5.28593 5.7496 5.28593H5.84234C5.93507 5.28593 6.02781 5.28593 6.12055 5.28593H6.30602C6.49149 5.28593 6.67696 5.37866 6.86243 5.37866L7.14064 5.4714C7.23337 5.4714 7.32611 5.4714 7.41884 5.56413C7.60431 5.56413 7.78979 5.56413 7.97526 5.65687C8.16073 5.7496 8.3462 5.7496 8.53167 5.84234L9.6445 6.21328C9.82997 6.30602 10.2009 6.49149 10.4791 6.58422C10.6646 6.67696 10.8501 6.76969 11.0355 6.76969L11.4992 7.0479C11.6847 7.14064 11.8701 7.23337 11.9629 7.32611L12.4266 7.60431C12.5193 7.60431 12.612 7.69705 12.7048 7.69705L13.2612 7.97526C13.3539 7.97526 13.4467 8.06799 13.5394 8.06799L14.1885 8.3462C14.2813 8.3462 14.374 8.43893 14.4667 8.43893L14.745 8.53167C15.4868 8.80988 16.3215 8.90261 17.1561 8.99535C17.9907 9.08808 18.7326 8.99535 19.5672 8.80988L19.8454 8.71714C19.9381 8.71714 20.0309 8.62441 20.1236 8.62441C20.2163 8.62441 20.3091 8.53167 20.4018 8.53167L20.5873 8.3462C20.9582 8.16073 21.2364 7.97526 21.6074 7.69705C21.2364 7.88252 20.8655 7.97526 20.4946 8.06799C20.3091 8.06799 20.1236 8.16073 19.9381 8.16073H19.3817C18.6398 8.25346 17.898 8.16073 17.1561 8.06799L16.3215 7.78979H16.136C15.9505 7.69705 15.765 7.69705 15.5796 7.60431C15.3941 7.51158 15.2086 7.41884 15.1159 7.41884L14.8377 7.32611C14.745 7.32611 14.6522 7.23337 14.5595 7.23337L14.0958 6.95517C14.0031 6.95517 13.9103 6.86243 13.8176 6.86243L13.5394 6.76969L12.612 6.21328C12.4266 6.12055 12.2411 6.02781 12.0556 5.93507L11.4992 5.65687C11.3137 5.56413 11.1283 5.4714 10.9428 5.37866C10.5719 5.19319 10.2009 5.00772 9.82997 4.82225C9.45903 4.63678 9.08808 4.54404 8.71714 4.35857C8.80988 4.1731 8.71714 4.1731 8.62441 4.1731C8.53167 4.1731 8.53167 4.1731 8.43893 4.08036C8.25346 4.08036 8.06799 3.98763 7.88252 3.98763C7.78979 3.98763 7.69705 3.89489 7.60431 3.89489L7.23337 3.80216C7.0479 3.70942 6.86243 3.70942 6.67696 3.70942H6.39875C6.30602 3.70942 6.21328 3.70942 6.02781 3.70942C5.93507 3.70942 5.93507 3.70942 5.84234 3.70942H5.37866C5.28593 3.70942 5.28593 3.70942 5.19319 3.70942C4.72951 3.70942 4.26583 3.80216 3.89489 3.98763C3.70942 3.98763 3.52395 4.08036 3.33848 4.1731C3.15301 4.26583 2.96754 4.35857 2.78207 4.54404C2.5966 4.63678 2.41112 4.72951 2.22565 4.91498C2.04018 5.00772 1.85471 5.19319 1.66924 5.37866C1.11283 6.02781 0.649149 6.76969 0.370942 7.60431C0.278207 7.78979 0.185471 8.06799 0.185471 8.25346L0.0927355 8.53167C0.0927355 8.62441 0.0927355 8.71714 0.0927355 8.80988C0 9.27355 0 9.73723 0 10.2009C0 10.2936 0 10.3864 0 10.4791V10.8501C0 11.0355 0.0927355 11.3137 0.185471 11.4992C0.278207 11.8701 0.463678 12.3338 0.649149 12.7048C0.83462 13.0757 1.11283 13.4467 1.39103 13.7249C1.66924 14.0031 2.04018 14.374 2.31839 14.5595C2.78207 14.8377 3.15301 15.0232 3.61669 15.2086C3.98763 15.3014 4.35857 15.3941 4.82225 15.4868Z" fill="#8E8E8E"/>
<path d="M8.53168 4.08036C8.62442 4.1731 8.62442 4.1731 8.53168 4.08036Z" fill="#8E8E8E"/>
<path d="M12.4266 13.1684C13.4467 13.7248 14.6522 14.0958 15.9505 14.0958C16.5997 14.0958 17.1561 14.003 17.8052 13.9103L18.2689 13.8176C18.4544 13.8176 18.5471 13.7248 18.7326 13.6321C18.8253 13.6321 18.8253 13.5393 18.918 13.5393L19.1035 13.4466C19.1963 13.3539 19.3817 13.3539 19.4745 13.2611C19.7527 13.0757 20.0309 12.9829 20.2163 12.7975L20.4018 12.7047C20.4946 12.7047 20.4946 12.612 20.5873 12.612L21.051 12.1483C21.1437 12.0556 21.1437 12.0556 21.2364 11.9628C21.3292 11.8701 21.4219 11.7774 21.5146 11.5919C21.6074 11.4992 21.7001 11.3137 21.7929 11.221C21.8856 11.1282 21.9783 10.9427 22.0711 10.85C21.7929 10.9427 21.5146 11.1282 21.3292 11.221C21.2364 11.3137 21.051 11.3137 20.9582 11.4064C20.8655 11.4064 20.8655 11.4992 20.7728 11.4992H20.4018L20.0309 11.6846C19.9381 11.7774 19.7527 11.7774 19.6599 11.8701C19.5672 11.9628 19.3817 11.9628 19.289 12.0556C19.1963 12.0556 19.0108 12.1483 18.918 12.1483C18.4544 12.3338 17.898 12.4265 17.4343 12.5193C16.9706 12.612 16.4142 12.612 15.9505 12.612C14.9304 12.612 13.9103 12.4265 12.8902 12.0556C12.3338 11.8701 11.8701 11.6846 11.3137 11.4992C10.7573 11.3137 10.2936 11.0355 9.73723 10.85C9.9227 11.1282 10.1082 11.3137 10.2936 11.4992C10.4791 11.6846 10.6646 11.8701 10.9428 12.1483C11.4065 12.5193 11.8701 12.8902 12.4266 13.1684Z" fill="#8E8E8E"/>
<path d="M16.2287 48.0369C17.6198 48.0369 19.0108 47.4805 20.3091 46.2749C21.6074 45.0694 22.7202 43.4929 23.7403 41.4527C24.4822 39.9689 25.0386 38.2997 25.4095 36.5377C25.7805 34.7757 25.966 33.0138 25.966 31.3445C25.966 28.1915 25.1313 25.6877 23.4621 23.9257C21.8856 22.071 19.5672 21.2363 16.5069 21.2363C15.0232 21.2363 13.4467 21.4218 12.0556 21.7928C10.6646 22.1637 9.27357 22.7201 8.068 23.462C6.58423 24.3894 5.47141 25.5022 4.63679 26.7077C3.80217 27.9133 3.43123 29.2116 3.43123 30.5099C3.43123 31.6227 3.70943 32.4573 4.35858 33.0138C5.00773 33.5702 5.93509 33.8484 7.23338 33.8484V33.7556C7.23338 33.6629 7.23338 33.6629 7.14065 33.5702C6.95518 33.292 6.86244 32.921 6.86244 32.6428C6.76971 32.2719 6.76971 31.9009 6.76971 31.4373C6.76971 28.8407 7.60433 26.8005 9.27357 25.224C10.9428 23.6475 13.2612 22.9056 15.9505 22.9056C17.6198 22.9056 18.9181 23.462 19.7527 24.5748C20.5873 25.6877 21.051 27.3569 21.051 29.5825C21.051 33.6629 20.4018 37.2796 19.1035 40.4326C17.8052 43.5856 16.2287 45.1621 14.2813 45.1621C13.9103 45.1621 13.6321 45.0694 13.2612 44.9766C12.8903 44.8839 12.612 44.6984 12.2411 44.4202L16.5069 24.6676L11.3137 25.4094L6.58423 47.5732H11.6847L11.9629 46.1822C12.7048 46.8314 13.4467 47.295 14.0958 47.5732C14.8377 47.8514 15.4868 48.0369 16.2287 48.0369Z" fill="#8E8E8E"/>
<path d="M55.1776 28.0061C55.9195 28.0061 56.5687 27.7279 57.1251 27.1715C57.6815 26.6151 57.9597 25.9659 57.9597 25.224C57.9597 24.4821 57.6815 23.833 57.1251 23.2766C56.5687 22.7202 55.9195 22.442 55.1776 22.442C54.4358 22.442 53.7866 22.7202 53.2302 23.2766C52.6738 23.833 52.3956 24.4821 52.3956 25.224C52.3956 25.9659 52.6738 26.6151 53.2302 27.1715C53.7866 27.8206 54.4358 28.0061 55.1776 28.0061Z" fill="#8E8E8E"/>
<path d="M77.2487 28.0061C77.9906 28.0061 78.6397 27.7279 79.1961 27.1715C79.7526 26.6151 80.0308 25.9659 80.0308 25.224C80.0308 24.4821 79.7526 23.833 79.1961 23.2766C78.6397 22.7202 77.9906 22.442 77.2487 22.442C76.5068 22.442 75.8577 22.7202 75.3012 23.2766C74.7448 23.833 74.4666 24.4821 74.4666 25.224C74.4666 25.9659 74.7448 26.6151 75.3012 27.1715C75.7649 27.8206 76.4141 28.0061 77.2487 28.0061Z" fill="#8E8E8E"/>
<path d="M127.14 41.2673C126.77 41.5455 126.399 41.8237 125.935 42.1946C125.471 42.4728 125.008 42.751 124.544 43.122C124.637 42.9365 124.637 42.751 124.637 42.5656C124.637 42.3801 124.637 42.1019 124.637 41.8237C124.637 41.4527 124.637 41.0818 124.637 40.6181C124.637 40.2472 124.544 39.5053 124.451 38.5779C124.266 36.9087 124.173 35.2395 124.08 33.8484C123.987 32.3647 123.895 30.7882 123.802 29.0262L118.609 29.7681C117.867 31.9937 117.218 33.9412 116.476 35.6104C115.827 37.1869 115.085 38.7634 114.25 40.1544C113.694 40.4326 113.23 40.8036 112.952 41.4527C112.581 42.0092 112.395 42.6583 112.395 43.4002C112.395 43.5857 112.395 43.6784 112.395 43.8639C111.932 44.2348 111.468 44.513 110.912 44.513C110.355 44.513 109.984 44.4203 109.799 44.2348C109.613 44.0493 109.521 43.6784 109.521 43.2147C109.521 43.0292 109.521 42.8438 109.521 42.6583C109.521 42.4728 109.613 42.2874 109.613 42.1019L112.117 30.139H107.017L104.606 41.4527C104.328 42.4728 103.864 43.2147 103.4 43.7711C102.936 44.3275 102.38 44.513 101.824 44.513C101.453 44.513 101.174 44.4203 100.989 44.1421C100.804 43.8639 100.711 43.4929 100.711 43.0292C100.711 42.8438 100.711 42.751 100.711 42.5656C100.711 42.3801 100.804 42.1946 100.804 42.0092L103.307 30.0463H98.2069L97.1869 34.7758C97.0941 34.7758 97.0014 34.8685 97.0014 34.8685C95.9813 35.2395 95.1467 35.4249 94.4048 35.4249C94.3121 35.4249 94.2193 35.4249 94.1266 35.4249C94.1266 35.4249 94.0339 35.3322 93.9411 35.3322C93.9411 33.4775 93.5702 32.0865 92.8283 31.0664C92.0864 30.139 90.9736 29.6753 89.4898 29.6753C88.006 29.6753 86.615 30.0463 85.4094 30.7882C84.2039 31.53 83.1838 32.5501 82.2564 33.9412C81.5146 35.1467 80.8654 36.445 80.4945 37.9288C80.0308 39.4126 79.8453 40.8963 79.8453 42.1946C79.8453 42.2874 79.8453 42.3801 79.8453 42.4728C79.6598 42.8438 79.3816 43.2147 79.0107 43.5857C78.4543 44.1421 77.8051 44.4203 77.156 44.4203C76.5996 44.4203 76.2286 44.3275 76.0432 44.1421C75.8577 43.9566 75.7649 43.5857 75.7649 43.122C75.7649 42.9365 75.7649 42.751 75.7649 42.5656C75.7649 42.3801 75.8577 42.1946 75.8577 42.0092L78.8252 29.9535H73.7248L71.3136 41.2673C70.1081 42.6583 69.088 43.5857 68.1606 44.0493C67.2333 44.513 66.2132 44.7912 65.1004 44.7912C64.173 44.7912 63.4311 44.6057 63.0602 44.1421C62.6892 43.6784 62.5038 42.9365 62.5038 41.8237C62.5038 39.6908 62.9674 37.4651 63.9875 35.054C65.0076 32.6429 66.0277 31.4373 67.0478 31.4373C67.4188 31.4373 67.6042 31.53 67.7897 31.8082C67.9752 32.0865 68.0679 32.3647 68.0679 32.8283C68.0679 33.1065 68.0679 33.4775 67.9752 33.8484C67.8824 34.2194 67.7897 34.5903 67.697 34.9613C67.8824 35.1467 68.1606 35.2395 68.3461 35.2395C68.5316 35.3322 68.7171 35.3322 68.9025 35.3322C69.4589 35.3322 69.9226 35.1467 70.2008 34.683C70.5718 34.2194 70.7572 33.5702 70.7572 32.7356C70.7572 31.7155 70.3863 30.8809 69.7371 30.3245C69.088 29.9535 68.0679 29.6753 66.7696 29.6753C65.2858 29.6753 63.8948 30.0463 62.6892 30.7882C61.4837 31.53 60.4636 32.5501 59.629 33.9412C58.8871 35.1467 58.3307 36.445 57.867 37.9288C57.496 39.4126 57.3106 40.8963 57.3106 42.1946C57.3106 42.6583 57.3106 43.122 57.4033 43.4929C56.8469 44.0493 56.1977 44.3275 55.5486 44.3275C54.9922 44.3275 54.6212 44.2348 54.4358 44.0493C54.2503 43.8639 54.1576 43.4929 54.1576 43.0292C54.1576 42.8438 54.1576 42.6583 54.1576 42.4728C54.1576 42.2874 54.2503 42.1019 54.2503 41.9164L56.7542 29.9535H51.6537L49.2426 41.2673C49.1498 41.5455 49.1498 41.8237 49.1498 42.1019C48.8716 42.6583 48.5934 43.122 48.1298 43.4929C47.5733 44.0493 46.9242 44.3275 46.275 44.3275C45.7186 44.3275 45.3477 44.2348 45.1622 44.0493C44.9767 43.8639 44.884 43.4929 44.884 43.0292C44.884 42.8438 44.884 42.6583 44.884 42.4728C44.884 42.2874 44.9767 42.1019 44.9767 41.9164L49.0571 22.9056L43.8639 23.6475L40.0618 41.2673C40.0618 41.2673 40.0618 41.2673 40.0618 41.36C38.8562 42.6583 37.8361 43.5857 36.9088 44.1421C35.9814 44.6057 34.9613 44.884 33.8485 44.884C32.9211 44.884 32.1792 44.6985 31.8083 44.2348C31.4374 43.7711 31.2519 43.0292 31.2519 41.9164C31.2519 41.7309 31.2519 41.6382 31.2519 41.4527C31.2519 41.2673 31.3446 40.8963 31.3446 40.5254C33.5703 40.4327 35.425 39.598 37.0942 38.207C38.6707 36.7232 39.5053 35.054 39.5053 33.1065C39.5053 31.9937 39.1344 31.0664 38.4853 30.6027C37.8361 30.0463 36.9088 29.7681 35.6105 29.7681C34.1267 29.7681 32.7357 30.139 31.5301 30.8809C30.3245 31.6228 29.3044 32.6429 28.4698 34.0339C27.7279 35.2395 27.1715 36.5378 26.8006 38.0215C26.3369 39.5053 26.1514 40.9891 26.1514 42.2874C26.1514 44.1421 26.6151 45.5331 27.5425 46.4605C28.4698 47.3878 29.8609 47.8515 31.6228 47.8515C33.5703 47.8515 35.2395 47.2951 36.9088 46.275C37.9288 45.6258 38.9489 44.6985 39.8763 43.4929V43.5857C39.8763 44.884 40.2472 45.9968 40.8964 46.7387C41.5455 47.4806 42.4729 47.8515 43.6784 47.8515C45.3477 47.8515 46.7387 47.2951 48.037 46.1823C48.5007 45.8113 48.8716 45.3476 49.2426 44.7912C49.4281 45.5331 49.7063 46.1823 50.0772 46.7387C50.7264 47.4806 51.6537 47.8515 52.8593 47.8515C54.5285 47.8515 55.9195 47.2951 57.2178 46.1823C57.496 45.904 57.7743 45.6258 58.0525 45.3476C58.2379 45.7186 58.5161 46.0895 58.7943 46.3677C59.7217 47.2951 61.1127 47.7588 62.8747 47.7588C64.8222 47.7588 66.4914 47.2023 68.1606 46.1823C69.1807 45.4404 70.2008 44.513 71.1282 43.4002C71.1282 43.4929 71.1282 43.4929 71.1282 43.5857C71.1282 44.884 71.4991 45.9968 72.1483 46.7387C72.7974 47.4806 73.7248 47.8515 74.9303 47.8515C76.5996 47.8515 77.9906 47.2951 79.2889 46.1823C79.8453 45.7186 80.2163 45.1622 80.6799 44.6057C80.9581 45.3476 81.3291 45.904 81.7928 46.3677C82.7201 47.2951 84.1111 47.7588 85.9659 47.7588C88.1915 47.7588 90.0462 46.7387 91.6227 44.7912C93.1992 42.8438 94.1266 40.2472 94.4048 37.0942C95.5176 36.9087 96.445 36.6305 97.3723 36.2595L96.3522 41.2673C96.2595 41.7309 96.1668 42.1019 96.1668 42.5656C96.1668 42.9365 96.074 43.3075 96.074 43.5857C96.074 44.884 96.445 45.9968 97.0941 46.7387C97.7433 47.4806 98.6706 47.8515 99.8762 47.8515C100.989 47.8515 101.916 47.5733 102.751 47.0169C103.586 46.4605 104.42 45.6258 105.069 44.513C105.162 45.6258 105.533 46.4605 106.089 47.0169C106.739 47.5733 107.481 47.8515 108.501 47.8515C110.077 47.8515 111.468 47.2951 112.674 46.275C112.859 46.0895 113.045 45.8113 113.23 45.6258C113.416 45.9968 113.694 46.3677 113.972 46.6459C114.899 47.4806 116.198 47.9442 117.774 47.9442C118.887 47.9442 119.907 47.7588 120.834 47.3878C121.855 47.0169 122.596 46.4605 123.246 45.8113C124.358 45.1622 125.378 44.513 126.213 43.7711C127.14 43.0292 127.882 42.2874 128.624 41.4527H127.14V41.2673ZM33.4775 33.663C34.3122 32.2719 35.1468 31.53 35.8887 31.53C36.1669 31.53 36.4451 31.6228 36.5378 31.901C36.7233 32.1792 36.7233 32.4574 36.7233 33.0138C36.7233 34.4976 36.1669 35.7959 35.1468 37.0014C34.1267 38.1143 32.9211 38.7634 31.6228 38.8561C32.0865 36.7232 32.7357 35.054 33.4775 33.663ZM90.6026 36.7232C90.7881 37.0014 90.9736 37.0942 91.3445 37.1869C91.0663 39.2271 90.5099 40.9891 89.768 42.3801C88.9334 43.8639 88.0988 44.513 87.2641 44.513C86.5223 44.513 86.0586 44.3275 85.7804 43.9566C85.5022 43.5857 85.4094 42.8438 85.4094 41.7309C85.4094 39.6908 85.8731 37.5578 86.8932 35.2395C87.9133 32.9211 88.9334 31.8082 90.139 31.8082C90.6026 31.8082 90.8808 31.9937 91.0663 32.2719C91.2518 32.5501 91.4372 33.1065 91.4372 33.8484C91.0663 34.0339 90.7881 34.2194 90.6026 34.5903C90.4172 34.9613 90.3244 35.3322 90.3244 35.7959C90.4172 36.1668 90.5099 36.5378 90.6026 36.7232ZM118.794 44.1421C118.238 44.6985 117.496 44.9767 116.569 44.9767C115.827 44.9767 115.27 44.7912 114.899 44.4203C114.714 44.1421 114.621 43.8639 114.528 43.4929C114.621 43.3075 114.714 43.122 114.807 42.9365C114.992 43.0292 115.178 43.0292 115.363 43.0292C115.827 43.0292 116.105 42.8438 116.476 42.4728C116.754 42.1019 116.94 41.7309 116.94 41.2673C116.94 40.9891 116.847 40.7109 116.754 40.5254C116.569 40.3399 116.383 40.1544 116.198 40.0617C116.94 38.6707 117.496 37.4651 117.96 36.445C118.423 35.4249 118.794 34.4048 119.072 33.3847C119.165 34.3121 119.258 35.2395 119.258 36.0741C119.258 36.9087 119.443 37.9288 119.536 39.0416C119.629 39.8762 119.629 40.4326 119.722 40.8036C119.722 41.1745 119.722 41.4527 119.722 41.8237C119.629 42.751 119.351 43.5857 118.794 44.1421Z" fill="#8E8E8E"/>
<path d="M114.714 51.3756L113.787 51.1901L112.952 51.0974C111.839 51.0047 110.726 50.8192 109.613 50.7264C109.335 50.7264 109.057 50.6337 108.779 50.6337L106.275 50.3555C105.719 50.2628 105.162 50.2628 104.606 50.2628C104.049 50.2628 103.493 50.17 102.936 50.17C102.38 50.17 101.824 50.0773 101.267 50.0773L99.598 49.9846L98.7634 49.8918C98.4851 49.8918 98.2069 49.8918 97.9287 49.8918L94.5903 49.7064C94.0338 49.7064 93.4774 49.7064 92.921 49.6136C83.8329 49.3354 74.7448 49.6136 65.7495 50.2628C56.7542 50.9119 47.6661 51.932 38.7635 53.4158C34.3121 54.1577 29.8608 55.085 25.4095 56.1051L23.5548 56.5688C22.9984 56.6615 22.442 56.847 21.8856 56.9397C20.7728 57.2179 19.6599 57.4961 18.5471 57.7743C16.3215 58.3308 14.1885 58.9799 12.0556 59.7218L12.1484 60C14.374 59.5363 16.5997 59.1654 18.8253 58.7944C21.051 58.4235 23.2766 58.0526 25.5023 57.7743C29.9536 57.1252 34.4049 56.4761 38.8562 56.0124C39.969 55.9196 41.0818 55.7342 42.1947 55.6414L48.8716 54.8995C49.9845 54.8068 51.0973 54.6213 52.2101 54.5286C56.6614 54.0649 61.2055 53.694 65.6568 53.4158L67.326 53.323C67.8824 53.323 68.4388 53.2303 68.9952 53.2303L72.3337 53.0448C72.8901 53.0448 73.4466 52.9521 74.003 52.9521L77.3414 52.7666C77.8979 52.7666 78.4543 52.6739 79.0107 52.6739L82.3492 52.4884L85.6876 52.3957L87.3569 52.303H89.0261L95.7031 52.1175H97.3723C97.9287 52.1175 98.4851 52.1175 99.0416 52.1175H102.38C103.493 52.1175 104.606 52.1175 105.719 52.1175H109.057L112.395 52.2102C113.508 52.2102 114.621 52.2102 115.734 52.303L119.072 52.3957V52.1175C117.96 51.932 116.847 51.7465 115.734 51.5611L114.714 51.3756Z" fill="#8E8E8E"/>
</svg>
