<svg width="186" height="41" viewBox="0 0 186 41" fill="none" xmlns="http://www.w3.org/2000/svg">
<path d="M185.034 20.7616C181.701 20.8923 178.367 21.023 175.033 21.1538C170 21.2845 169.98 21.4152 164.947 21.6113C164.293 21.6113 163.705 22.265 163.051 22.5918C163.705 22.9186 164.293 23.5723 164.947 23.6377C172.66 23.8338 175.36 23.8991 183.073 23.9645C183.727 23.9645 184.381 24.0299 185.034 24.0952C185.034 24.2913 185.034 24.4221 185.1 24.6182C184.577 24.6835 184.119 24.7489 183.596 24.8142C176.144 24.945 173.771 25.0757 166.319 25.1411C165.992 25.1411 165.6 25.1411 165.273 25.1411C164.424 25.2064 163.182 24.8796 163.182 26.2523C163.182 26.5791 164.489 27.1674 165.208 27.1674C172.921 27.3635 175.622 27.4289 183.335 27.5596C183.923 27.5596 184.511 27.6903 185.1 27.6903C185.1 27.8864 185.1 28.0172 185.1 28.2133C184.381 28.2786 183.662 28.344 183.008 28.4094C175.556 28.4747 173.183 28.6055 165.731 28.6708C165.273 28.6708 164.751 28.5401 164.358 28.7362C163.901 28.9976 163.509 29.4552 163.116 29.8474C163.574 30.1742 163.966 30.6972 164.424 30.6972C167.823 30.8932 171.156 30.9586 174.555 31.024C179.327 31.1547 179.021 31.2854 183.792 31.4162C184.25 31.4162 184.707 31.5469 185.165 31.6123C185.165 31.8084 185.165 31.9391 185.165 32.1352C184.577 32.2006 183.988 32.3313 183.4 32.3313C173.399 32.3967 168.476 32.3967 158.475 32.462C155.795 32.462 153.508 31.6776 151.677 29.5859C150.109 27.8211 147.821 27.8211 145.729 27.5596C145.01 27.4942 144.226 27.5596 143.376 27.5596C143.376 26.6445 143.376 25.8601 143.376 24.945C144.879 24.8142 146.514 24.8796 147.952 24.4221C149.455 23.9645 150.958 23.2455 152.135 22.1996C153.834 20.7616 155.665 19.9118 157.822 19.9118C168.215 19.9118 173.595 19.9772 183.988 20.0426C184.381 20.0426 184.838 20.1733 185.23 20.304C185.1 20.4348 185.1 20.6308 185.034 20.7616Z" fill="#8E8E8E"/>
<path d="M31.8622 23.3108C31.8622 25.2718 31.8622 27.0367 31.8622 28.9976C28.3325 29.1937 24.9335 29.3898 21.5345 29.5859C15.6516 29.9128 13.6426 30.2396 7.75974 30.5011C6.58316 30.5664 5.40658 30.5664 4.29537 30.305C1.87684 29.8474 0.765625 28.4747 0.765625 26.1216C0.765625 23.7684 1.87684 22.1996 4.36073 21.9382C6.77926 21.6767 9.19779 21.8728 11.6163 21.9382C18.8065 22.265 22.1881 22.6572 29.3783 23.0494C30.1627 23.1147 30.8817 23.2455 31.8622 23.3108Z" fill="#8E8E8E"/>
<path d="M41.7324 39.783C41.6671 39.6522 41.6017 39.5215 41.6017 39.3254C41.5363 39.1947 41.5363 38.9332 41.5363 38.6718C41.5363 38.4103 41.471 38.0181 41.471 37.4952C41.471 36.9723 41.4056 36.3186 41.4056 35.5342C41.3402 34.6191 41.3402 33.704 41.2749 32.7889C41.2095 31.8737 41.1441 30.9586 41.0788 30.0435C41.0134 29.3245 40.8827 28.8016 40.6866 28.6055C40.4905 28.4094 40.1637 28.2786 39.8368 28.2786H38.6602V39.783H36.1764V12.5255H40.6866C41.3402 12.5255 41.8632 12.6562 42.19 12.8523C42.5168 13.0484 42.8436 13.3753 43.1051 13.8328C43.3012 14.0943 43.4319 14.4211 43.5627 14.8133C43.6934 15.1401 43.7588 15.5977 43.8241 16.0553C43.8895 16.5128 43.9549 17.1011 43.9549 17.7548C43.9549 18.4084 44.0202 19.1274 44.0202 19.9772C44.0202 20.8269 44.0202 21.546 44.0202 22.1343C44.0202 22.7226 43.9549 23.2455 43.9549 23.6377C43.8895 24.0299 43.8895 24.4221 43.8241 24.6835C43.7588 24.945 43.6934 25.2064 43.628 25.4679C43.4973 25.8601 43.3666 26.1869 43.1705 26.383C42.9744 26.5791 42.7783 26.7752 42.5822 26.906V27.102C42.7783 27.2328 42.9744 27.4289 43.1051 27.7557C43.3012 28.0825 43.4319 28.6055 43.4973 29.3245C43.628 30.5664 43.7588 31.8084 43.8241 33.1157C43.8895 34.423 43.9549 35.7303 44.0202 37.103C44.0856 37.6259 44.0856 38.1488 44.151 38.4757C44.2163 38.8679 44.2817 39.2601 44.3471 39.5869V39.7176H41.7324V39.783ZM39.7715 25.3372C40.0983 25.3372 40.3598 25.2718 40.6212 25.1411C40.8173 25.0103 41.0134 24.7489 41.2095 24.3567C41.2749 24.1606 41.3402 23.9645 41.4056 23.7684C41.471 23.5723 41.471 23.3108 41.471 22.984C41.471 22.6572 41.5363 22.265 41.5363 21.7421C41.5363 21.2191 41.5363 20.6309 41.5363 19.8465C41.5363 19.2582 41.5363 18.7352 41.5363 18.3431C41.5363 17.9509 41.5363 17.624 41.471 17.3626C41.471 17.1011 41.4056 16.905 41.4056 16.7743C41.3402 16.6435 41.3402 16.5128 41.2749 16.3821C41.0788 15.9245 40.752 15.7284 40.2944 15.7284H38.7256V25.3372H39.7715Z" fill="#8E8E8E"/>
<path d="M47.4193 39.783V12.5255H53.9558V15.7284H49.8378V24.3567H53.8904V27.4289H49.8378V36.384H53.8904V39.783H47.4193Z" fill="#8E8E8E"/>
<path d="M59.2504 30.6972C59.185 30.9586 59.185 31.2854 59.185 31.6123C59.185 31.9391 59.185 32.3967 59.185 32.8542C59.185 33.9001 59.185 34.6845 59.2504 35.142C59.3158 35.5996 59.3811 35.9918 59.5119 36.3186C59.6426 36.5801 59.7733 36.7762 59.9041 36.9069C60.0348 37.0376 60.2963 37.0376 60.6231 37.0376C61.0153 37.0376 61.2767 36.9723 61.4075 36.9069C61.5382 36.7762 61.7343 36.5801 61.865 36.2532C61.9958 35.9264 62.0611 35.4688 62.1265 34.9459C62.1919 34.423 62.1919 33.5732 62.1919 32.3313C62.1919 31.8737 62.1919 31.4815 62.1919 31.1547C62.1919 30.8279 62.1919 30.5664 62.1919 30.3703C62.1919 30.1742 62.1265 29.9781 62.1265 29.8474C62.1265 29.7167 62.0611 29.5206 62.0611 29.3245C61.9958 28.9977 61.865 28.7362 61.7997 28.5401C61.6689 28.344 61.4728 28.1479 61.2114 27.8864C61.0153 27.6903 60.7538 27.4289 60.427 27.2328C60.1655 27.0367 59.8387 26.7752 59.5772 26.5138C59.3158 26.2523 59.0543 26.0562 58.7928 25.7947C58.5314 25.5333 58.3353 25.2718 58.1392 25.0757C57.9431 24.8142 57.8124 24.5528 57.6816 24.2913C57.5509 23.9645 57.4202 23.5723 57.3548 23.1147C57.2894 22.6572 57.2241 22.0035 57.1587 21.2845C57.0933 20.5655 57.0933 19.585 57.0933 18.4738C57.0933 16.9704 57.1587 15.8592 57.2894 15.0748C57.4202 14.2904 57.6816 13.7021 58.0085 13.2445C58.3353 12.8523 58.6621 12.5255 59.0543 12.3948C59.4465 12.1987 60.0348 12.1333 60.7538 12.1333C61.6036 12.1333 62.2572 12.2641 62.7148 12.5255C63.1723 12.787 63.4992 13.1138 63.7606 13.506C64.0221 13.9636 64.2182 14.4865 64.2836 15.2055C64.3489 15.8592 64.4143 16.7743 64.4143 18.0162C64.4143 18.8006 64.4143 19.3889 64.3489 19.9118C64.3489 20.4348 64.2836 20.827 64.2182 21.0884H62.1265C62.1919 20.827 62.1919 20.5655 62.1919 20.2387C62.1919 19.9118 62.1919 19.4543 62.1919 18.866C62.1919 17.9509 62.1919 17.2972 62.1265 16.8396C62.0611 16.3821 61.9958 16.0553 61.7997 15.7938C61.6689 15.5977 61.5382 15.467 61.4075 15.4016C61.2767 15.3362 61.0153 15.3362 60.7538 15.3362C60.427 15.3362 60.2309 15.4016 60.1002 15.467C59.9694 15.5323 59.8387 15.6631 59.708 15.9245C59.5772 16.186 59.5119 16.5128 59.4465 16.9704C59.3811 17.4279 59.3811 18.0816 59.3811 19.0621C59.3811 19.585 59.3811 20.0426 59.3811 20.4348C59.3811 20.7616 59.3811 21.0884 59.3811 21.2845C59.3811 21.4806 59.3811 21.6767 59.4465 21.8728C59.4465 22.0035 59.5119 22.1996 59.5772 22.3304C59.6426 22.6572 59.7733 22.8533 59.8387 23.0494C59.9041 23.1801 60.1002 23.4416 60.427 23.703C60.7538 24.0299 61.146 24.3567 61.6689 24.6835C62.1265 25.0103 62.5841 25.4025 63.0416 25.7947C63.3684 26.1216 63.6299 26.383 63.7606 26.5791C63.8914 26.7752 64.0875 27.102 64.2182 27.4289C64.2836 27.625 64.3489 27.8864 64.4143 28.0825C64.4797 28.2786 64.4797 28.6055 64.545 28.9323C64.545 29.2591 64.6104 29.782 64.6104 30.305C64.6104 30.8933 64.6104 31.6123 64.6104 32.462C64.6104 33.3771 64.6104 34.1615 64.545 34.8806C64.4797 35.5342 64.4797 36.1225 64.4143 36.5801C64.3489 37.0376 64.2836 37.4298 64.1528 37.7566C64.0875 38.0835 63.9567 38.4103 63.826 38.6718C63.6299 39.1947 63.2377 39.6522 62.7801 39.9137C62.3226 40.1752 61.6036 40.3713 60.6884 40.3713C59.9041 40.3713 59.3158 40.2405 58.8582 40.0444C58.4006 39.8483 58.0738 39.3908 57.8124 38.8025C57.6816 38.541 57.6163 38.2796 57.4855 37.9527C57.4202 37.6913 57.2894 37.2991 57.2894 36.9723C57.0933 36.4493 57.0933 35.9918 57.028 35.4688C57.028 34.9459 56.9626 34.2923 56.9626 33.5079C56.9626 32.8542 56.9626 32.3313 57.028 31.8737C57.028 31.4162 57.0933 31.024 57.0933 30.6972H59.2504Z" fill="#8E8E8E"/>
<path d="M69.3167 39.783V15.7938H66.7021V12.5909H74.4152V15.7938H71.8006V39.783H69.3167Z" fill="#8E8E8E"/>
<path d="M81.4747 39.783L81.0172 32.3967H78.7294L78.2718 39.783H75.7879L77.8796 12.5909H82.063L84.024 39.783H81.4747ZM80.2328 18.9967C80.1674 18.4738 80.1674 17.8855 80.1021 17.3626C80.0367 16.8396 80.0367 16.3167 79.9713 15.7284H79.7752C79.7099 16.2514 79.7099 16.8396 79.6445 17.3626C79.5791 17.8855 79.5791 18.4084 79.5138 18.9967L78.7947 29.1937H80.8211L80.2328 18.9967Z" fill="#8E8E8E"/>
<path d="M92.064 12.5255H94.5478V32.2006C94.5478 33.1157 94.5478 33.9001 94.5478 34.4884C94.5478 35.142 94.5478 35.6649 94.4825 36.1225C94.4825 36.5801 94.4171 36.9723 94.3517 37.2991C94.2864 37.6259 94.1557 37.9527 94.0249 38.2796C93.7635 38.9986 93.3713 39.5215 92.8483 39.783C92.3254 40.0444 91.6064 40.1752 90.6259 40.1752C89.6454 40.1752 88.861 40.0444 88.3381 39.783C87.8152 39.5215 87.423 38.9986 87.1615 38.2796C87.0308 37.9527 86.9001 37.6259 86.8347 37.2991C86.7693 36.9723 86.704 36.5801 86.6386 36.1225C86.5732 35.6649 86.5732 35.142 86.5732 34.4884C86.5732 33.8347 86.5732 33.1157 86.5732 32.2006V12.5255H89.1225V32.2006C89.1225 32.9196 89.1225 33.5079 89.1225 33.9654C89.1225 34.423 89.1225 34.7498 89.1879 35.0767C89.1879 35.3381 89.2532 35.5996 89.2532 35.7303C89.3186 35.9264 89.384 36.0571 89.4493 36.2532C89.5801 36.5147 89.7108 36.6454 89.9069 36.7108C90.103 36.7762 90.2991 36.8415 90.6259 36.8415C90.9527 36.8415 91.2142 36.7762 91.3449 36.7108C91.541 36.6454 91.6718 36.4493 91.7371 36.2532C91.8025 36.0571 91.8678 35.9264 91.9332 35.7303C91.9986 35.5342 91.9986 35.3381 91.9986 35.0767C91.9986 34.8152 91.9986 34.423 92.064 33.9654C92.064 33.5079 92.064 32.9196 92.064 32.2006V12.5255Z" fill="#8E8E8E"/>
<path d="M103.503 39.783C103.438 39.6522 103.372 39.5215 103.372 39.3254C103.307 39.1947 103.307 38.9332 103.307 38.6718C103.307 38.4103 103.241 38.0181 103.241 37.4952C103.241 36.9723 103.176 36.3186 103.111 35.5342C103.045 34.6191 103.045 33.704 102.98 32.7889C102.915 31.8737 102.849 30.9586 102.784 30.0435C102.719 29.3245 102.588 28.8016 102.392 28.6055C102.261 28.4094 101.934 28.2786 101.607 28.2786H100.431V39.783H97.9469V12.5255H102.457C103.111 12.5255 103.634 12.6562 103.96 12.8523C104.287 13.0484 104.614 13.3753 104.876 13.8328C105.072 14.0943 105.202 14.4211 105.333 14.8133C105.464 15.1401 105.529 15.5977 105.66 16.0553C105.725 16.5128 105.791 17.1011 105.791 17.7548C105.791 18.4084 105.856 19.1274 105.856 19.9772C105.856 20.8269 105.856 21.546 105.856 22.1343C105.856 22.7226 105.791 23.2455 105.725 23.6377C105.66 24.0299 105.66 24.4221 105.595 24.6835C105.529 24.945 105.464 25.2064 105.399 25.4679C105.268 25.8601 105.137 26.1869 104.941 26.383C104.745 26.5791 104.549 26.7752 104.353 26.906V27.102C104.549 27.2328 104.745 27.4289 104.876 27.7557C105.072 28.0825 105.202 28.6055 105.268 29.3245C105.399 30.5664 105.529 31.8084 105.595 33.1157C105.66 34.423 105.725 35.7303 105.791 37.103C105.856 37.6259 105.856 38.1488 105.921 38.4757C105.987 38.8679 106.052 39.2601 106.118 39.5869V39.7176H103.503V39.783ZM101.477 25.3372C101.803 25.3372 102.065 25.2718 102.326 25.1411C102.522 25.0103 102.719 24.7489 102.915 24.3567C102.98 24.1606 103.045 23.9645 103.111 23.7684C103.176 23.5723 103.176 23.3108 103.241 22.984C103.307 22.6572 103.307 22.265 103.307 21.7421C103.307 21.2191 103.307 20.6309 103.307 19.8465C103.307 19.2582 103.307 18.7352 103.307 18.3431C103.307 17.9509 103.307 17.624 103.241 17.3626C103.241 17.1011 103.176 16.905 103.111 16.7743C103.045 16.6435 103.045 16.5128 102.98 16.3821C102.784 15.9245 102.457 15.7284 102 15.7284H100.431V25.3372H101.477Z" fill="#8E8E8E"/>
<path d="M114.354 39.783L113.896 32.3967H111.608L111.151 39.783H108.667L110.759 12.5909H114.942L116.903 39.783H114.354ZM113.112 18.9967C113.046 18.4738 113.046 17.8855 112.981 17.3626C112.916 16.8396 112.916 16.3167 112.85 15.7284H112.654C112.589 16.2514 112.589 16.8396 112.523 17.3626C112.458 17.8855 112.458 18.4084 112.393 18.9967L111.674 29.1937H113.7L113.112 18.9967Z" fill="#8E8E8E"/>
<path d="M126.708 39.783C126.119 37.1683 125.531 34.8806 125.139 32.985C124.681 31.0894 124.289 29.4552 124.028 28.1479C123.701 26.8406 123.439 25.7294 123.309 24.945C123.113 24.0952 122.982 23.4416 122.851 22.9186C122.72 22.3957 122.655 22.0035 122.59 21.6767C122.524 21.3499 122.459 21.0884 122.459 20.8923H122.328C122.328 21.6767 122.328 22.4611 122.328 23.3108C122.328 24.1606 122.328 25.0757 122.328 26.0562V39.8483H120.04V12.5255H122.917C123.309 14.5519 123.701 16.2514 123.962 17.6894C124.289 19.1274 124.485 20.304 124.681 21.2845C124.877 22.265 125.008 23.0494 125.139 23.6377C125.27 24.226 125.335 24.6835 125.4 25.0103C125.466 25.3372 125.531 25.5986 125.531 25.7947C125.531 25.9908 125.596 26.1216 125.596 26.2523H125.727C125.727 25.7947 125.727 25.3372 125.727 24.8796C125.727 24.4221 125.727 23.7684 125.727 22.9186V12.5255H128.015V39.7176H126.708V39.783Z" fill="#8E8E8E"/>
<path d="M133.506 39.783V15.7938H130.891V12.5909H138.604V15.7938H135.99V39.783H133.506Z" fill="#8E8E8E"/>
<path d="M74.6767 3.92323H63.6299V4.90372H74.6767V3.92323Z" fill="#8E8E8E"/>
<path d="M108.667 3.92323H97.62V4.90372H108.667V3.92323Z" fill="#8E8E8E"/>
<path d="M84.8084 5.16518L84.9391 5.29591C84.8737 5.36128 84.8737 5.42664 84.8084 5.49201C84.743 5.55737 84.743 5.62274 84.6776 5.68811C84.6123 5.75347 84.6123 5.81884 84.5469 5.8842C84.3508 6.2764 84.1547 6.40713 83.9586 6.40713C83.8932 6.40713 83.8279 6.40713 83.7625 6.34176C83.6971 6.2764 83.6971 6.21103 83.6971 6.0803C83.6971 5.94957 83.7625 5.75347 83.8279 5.42664C83.9586 5.16518 84.0893 4.83835 84.3508 4.44616C84.5469 4.05396 84.8737 3.59641 85.2006 3.13885C85.5274 2.68129 85.9196 2.15836 86.3771 1.57007C86.1157 1.50471 85.8542 1.50471 85.5274 1.50471C85.1352 1.50471 84.6776 1.57007 84.2201 1.63544C83.7625 1.7008 83.305 1.83153 82.9781 1.96227C82.6513 2.093 82.4552 2.15836 82.4552 2.22373V2.28909H82.5206C82.5206 2.28909 82.5859 2.28909 82.6513 2.28909C82.9781 2.35446 83.1742 2.35446 83.1742 2.41982C83.1742 2.41982 83.1089 2.48519 82.9781 2.48519C82.8474 2.48519 82.6513 2.48519 82.4552 2.48519C82.3245 2.48519 82.1937 2.48519 82.1284 2.48519C82.063 2.48519 81.9976 2.41982 81.9976 2.41982C81.9976 2.35446 81.9323 2.35446 81.9323 2.28909C81.9323 2.22373 81.9323 2.15836 81.9976 1.96227C82.063 1.63544 82.1284 1.43934 82.2591 1.24324C82.3898 1.04715 82.5206 0.916416 82.782 0.785684C82.9781 0.654953 83.305 0.589587 83.6971 0.524222C84.3508 0.393491 84.9391 0.328125 85.3313 0.328125C85.6581 0.328125 85.9196 0.328125 86.1157 0.393491C86.3118 0.393491 86.4425 0.458856 86.5079 0.524222C86.5732 0.589587 86.6386 0.654953 86.704 0.654953C86.704 0.720319 86.7693 0.785684 86.7693 0.916416L86.9001 1.30861V1.37397C86.9001 1.37397 86.9001 1.37397 86.9001 1.43934C86.9001 1.43934 86.9001 1.43934 86.9001 1.50471C86.9001 1.63544 86.9001 1.7008 86.8347 1.76617C86.7693 1.83153 86.704 1.96227 86.5732 2.15836C86.4425 2.35446 86.3771 2.48519 86.3118 2.55056C85.5927 3.72714 85.0698 4.64226 84.8084 5.16518Z" fill="#8E8E8E"/>
<path d="M89.9069 4.70762V4.96908C89.6454 5.23055 89.4493 5.42664 89.2532 5.55737C89.0571 5.6881 88.9264 5.81883 88.7957 5.8842C88.6649 5.94957 88.5342 6.01493 88.4688 6.01493C88.2727 6.01493 88.142 5.8842 88.142 5.62274C88.142 5.42664 88.2074 5.16518 88.3381 4.90372C88.4688 4.64225 88.6649 4.31543 88.9264 3.92323C88.7957 3.9886 88.6649 4.05396 88.5996 4.1847C88.4688 4.25006 88.4035 4.38079 88.2727 4.44616C88.2074 4.57689 88.142 4.64225 88.0766 4.70762C87.8805 4.90372 87.7498 5.09981 87.5537 5.36128C87.3576 5.55737 87.2923 5.6881 87.2269 5.75347C87.1615 5.81884 87.0962 5.81884 87.0308 5.81884C86.8347 5.81884 86.704 5.55737 86.704 5.03445C86.704 4.83835 86.704 4.64225 86.7693 4.44616C86.8347 4.25006 86.9654 3.92323 87.2269 3.5964C87.6845 2.87738 88.142 2.28909 88.4688 1.76617C88.7957 1.30861 89.1225 0.916415 89.3186 0.720318C89.5801 0.458855 89.7108 0.39349 89.7761 0.39349C89.8415 0.39349 89.9722 0.39349 90.0376 0.458855C90.103 0.458855 90.103 0.524221 90.103 0.589587C90.103 0.654952 90.0376 0.785683 89.9722 0.916415C89.9069 1.04715 89.7108 1.30861 89.4493 1.7008C89.1879 2.093 88.9918 2.28909 88.9264 2.48519C88.861 2.68129 88.6649 2.81202 88.4688 3.13885C88.2727 3.40031 88.0766 3.66177 87.8805 3.85787C87.6844 4.05396 87.4883 4.31543 87.2922 4.51152V5.03445C87.6844 4.64225 88.0113 4.25006 88.2727 3.9886C88.5342 3.72714 88.7957 3.53104 88.9918 3.40031C89.1879 3.26958 89.3186 3.20421 89.384 3.20421C89.4493 3.20421 89.5147 3.26958 89.6454 3.33494C89.7108 3.46567 89.7761 3.53104 89.7761 3.5964C89.7761 3.5964 89.7761 3.66177 89.7108 3.72714C89.5147 3.9886 89.3186 4.1847 89.2532 4.31543C89.1225 4.44616 89.0571 4.64225 88.9918 4.70762C88.9264 4.83835 88.9264 4.96908 88.9264 5.03445C88.9264 5.16518 88.9918 5.23055 89.1225 5.23055C89.1225 5.23055 89.4493 5.03445 89.9069 4.70762Z" fill="#8E8E8E"/>
<path d="M91.0835 4.83835V4.96908C91.0835 5.16518 91.1488 5.23055 91.2142 5.36128C91.2796 5.42664 91.4103 5.49201 91.541 5.49201C91.6718 5.49201 91.8025 5.49201 91.9986 5.42664C92.1293 5.36128 92.2601 5.29591 92.4561 5.16518C92.5869 5.03445 92.783 4.90372 92.9791 4.70762V4.96908C92.6522 5.36128 92.3908 5.62274 92.064 5.81884C91.8025 6.01493 91.4757 6.14566 91.2142 6.14566C90.9527 6.14566 90.7566 6.0803 90.6259 5.8842C90.4952 5.6881 90.4298 5.42664 90.4298 5.09981C90.4298 4.83835 90.4952 4.51152 90.6259 4.31543C90.7566 4.05396 91.0181 3.7925 91.2796 3.53104C91.4757 3.33494 91.6718 3.20421 91.9332 3.13885C92.1293 3.07348 92.3254 3.00811 92.5215 3.00811C92.6522 3.00811 92.783 3.00811 92.8483 3.07348C92.9137 3.13885 92.9791 3.20421 92.9791 3.33494C92.9791 3.53104 92.9137 3.66177 92.783 3.85787C92.6522 4.05396 92.4561 4.1847 92.1947 4.38079C91.8025 4.51152 91.4757 4.70762 91.0835 4.83835ZM91.1488 4.57689C91.4103 4.51152 91.6064 4.38079 91.8025 4.1847C91.9986 4.05396 92.1293 3.92323 92.1947 3.7925C92.26 3.66177 92.3254 3.53104 92.3254 3.53104C92.3254 3.46567 92.3254 3.46567 92.2601 3.46567C92.1947 3.46567 92.1293 3.46567 91.9986 3.53104C91.8678 3.5964 91.8025 3.66177 91.6718 3.7925C91.541 3.92323 91.4757 3.9886 91.3449 4.1847C91.2142 4.25006 91.1488 4.38079 91.1488 4.57689Z" fill="#8E8E8E"/>
</svg>
