<svg width="140" height="55" viewBox="0 0 140 55" fill="none" xmlns="http://www.w3.org/2000/svg">
<path d="M13.7388 24.2288C15.539 23.743 17.3393 23.2858 19.1395 22.8572C19.2824 27.4578 19.4538 32.0584 19.6539 36.659C21.3398 36.2304 23.0543 35.8018 24.7403 35.4017C24.5117 26.2291 24.3402 17.085 24.2831 7.91238C22.4257 8.31244 20.5969 8.74106 18.768 9.16969C18.8538 12.8273 18.9395 16.4849 19.0538 20.1426C17.225 20.5998 15.4247 21.057 13.6245 21.5142C13.4531 17.8566 13.3102 14.1989 13.1673 10.5699C12.7672 10.6556 12.4243 10.7128 12.2243 10.7699C11.9957 10.8271 11.7957 10.8556 11.6242 10.9128C10.1955 11.2843 8.82387 11.8843 7.45226 12.713C6.10922 13.5417 4.90906 14.5133 3.85178 15.6563C2.59447 16.9421 1.76579 18.3138 1.30859 19.7139C0.851385 21.1141 0.794235 22.3714 1.16571 23.5144C1.53719 24.6575 2.10869 25.4004 2.88022 25.7719C3.68033 26.1148 4.73761 26.1148 6.08065 25.7147C6.08065 25.6862 6.05207 25.6576 6.0235 25.629C5.99492 25.6004 5.93777 25.5433 5.88062 25.4576C5.65202 25.2004 5.45199 24.9146 5.28054 24.6289C5.10909 24.3145 4.96621 23.9431 4.85191 23.5144C4.30899 21.7142 4.28041 20.0568 4.76619 18.5138C5.25197 16.9707 6.28067 15.6277 7.79516 14.5133C8.28094 22.8286 8.82387 31.144 9.42395 39.4594C11.1099 38.9736 12.7672 38.4878 14.4532 38.0306C14.196 33.43 13.9674 28.8294 13.7388 24.2288Z" fill="#8E8E8E"/>
<path d="M30.0267 32.8585C31.2268 33.5729 32.7413 33.7444 34.5987 33.3443C36.8561 32.8871 38.5992 31.5155 39.7994 29.2866C41.0281 27.0292 41.4853 24.286 41.171 21.057C42.514 20.5998 43.7142 20.0283 44.7715 19.3139C44.6857 21.1427 44.6 22.9715 44.5429 24.7718C44.5143 25.229 44.5143 25.6576 44.5429 26.0576C44.5714 26.4577 44.6 26.8006 44.6572 27.1149C44.8858 28.458 45.4287 29.4581 46.2574 30.0582C47.0861 30.6868 48.0862 30.8868 49.2864 30.7154C50.9723 30.4582 52.3725 29.6581 53.5155 28.3437C54.6585 27.0292 55.4586 25.2575 55.9444 23.0001C55.43 23.0572 54.9157 23.143 54.3727 23.2287C54.2013 24.2002 53.887 25.0004 53.344 25.6862C52.8297 26.3434 52.2296 26.7434 51.5438 26.8577C51.0009 26.9435 50.6008 26.8863 50.3436 26.7434C50.0865 26.572 49.915 26.2577 49.8293 25.7719C49.8007 25.5719 49.7721 25.4004 49.7721 25.229C49.7721 25.0575 49.7721 24.8575 49.8007 24.6289C50.0007 20.9713 50.2293 17.285 50.4579 13.6274C51.2295 13.5131 51.9724 13.3988 52.744 13.2845C52.7725 12.7987 52.8011 12.313 52.8297 11.8272C52.0582 11.9415 51.2866 12.0558 50.5437 12.1701C50.658 10.227 50.8008 8.31244 50.9437 6.36932C49.0578 6.88368 47.2004 7.39803 45.3144 7.96953C45.2287 9.65547 45.143 11.3414 45.0572 13.0559C44.6286 13.1131 44.2285 13.1988 43.7999 13.2559C43.7713 13.7417 43.7713 14.2275 43.7428 14.7133C44.1714 14.6561 44.5714 14.5704 45.0001 14.5133C44.9429 15.5705 44.9144 16.5992 44.8572 17.6565C44.6 17.828 44.3143 17.9994 44.0285 18.1709C43.0284 18.7424 42.1426 19.1139 41.371 19.2567C41.2853 19.2853 41.1996 19.2853 41.1138 19.2853C41.0567 19.2853 40.9995 19.2853 40.971 19.2567C41.1138 18.9138 41.1996 18.5424 41.2567 18.1137C41.8854 14.1989 39.6565 13.7417 41.9425 10.8842C41.9425 10.8842 39.828 10.7699 39.4279 12.6844C39.1422 13.9418 38.885 14.7704 38.4564 14.9133C38.2277 14.7704 37.9706 14.6561 37.6848 14.5704C37.1133 13.6846 40.3137 11.1985 39.9994 9.82692C39.6851 8.39816 37.5134 8.25529 37.2276 7.3123C37.2276 7.3123 36.6847 8.22671 37.3705 9.05539C38.2278 10.1127 37.2562 10.9128 36.2561 10.3984C34.9988 9.7412 36.0275 8.45531 35.5417 7.45518C34.7702 5.82639 32.6556 5.45492 34.4558 3.65468C34.4558 3.65468 32.7127 4.31191 31.9126 6.1693C31.5412 7.05513 31.7698 8.42674 32.3413 9.36972C32.827 10.1698 33.1414 10.7699 32.4556 10.9414C31.2554 11.2271 30.7982 8.99824 31.5697 8.14098C31.5697 8.14098 29.6552 8.65534 29.7695 10.3413C29.8838 12.0272 31.7698 12.3415 31.3411 13.856C30.9125 15.3991 30.7125 11.7415 29.0837 11.1985C29.0837 11.1985 29.6838 11.4843 29.7981 12.4273C29.9124 13.3702 28.6265 14.9419 29.9124 16.3706C30.1124 16.5707 30.2267 16.7421 30.341 16.9136C30.1981 17.0564 30.0552 17.2279 29.9124 17.3708C29.7123 17.2279 29.4837 17.0279 29.3123 16.7135C28.5979 15.5134 28.9694 12.7416 27.4835 12.6273C27.4835 12.6273 28.2836 13.2845 27.8835 15.3705C27.6264 16.685 27.8264 18.1995 28.455 19.6282C28.3693 19.8282 28.2836 20.0283 28.2264 20.2283C27.7121 21.5713 27.3978 23.0287 27.2835 24.6289C27.1691 26.2291 27.2835 27.6864 27.5978 29.0295C28.0264 30.8583 28.8265 32.1156 30.0267 32.8585ZM37.4848 27.2578C36.9419 28.8294 36.2561 29.6867 35.3702 29.8867C34.6559 30.0296 34.1129 29.9439 33.77 29.601C33.4271 29.2581 33.1414 28.5437 32.9128 27.4292C32.4841 25.4004 32.5127 23.1144 33.0842 20.6283C33.6557 18.1423 34.5416 16.7707 35.7417 16.5421C35.7703 16.5421 35.7989 16.5421 35.8274 16.5421C35.9417 16.5707 36.056 16.5421 36.1703 16.5135C36.4561 16.5421 36.6847 16.6278 36.8847 16.7993C37.1705 17.0564 37.3991 17.5708 37.5991 18.3138C37.2562 18.5424 37.0276 18.8567 36.8847 19.2282C36.7418 19.5996 36.7418 19.9997 36.8276 20.4569C36.9133 20.8855 37.0562 21.1999 37.2848 21.4285C37.4848 21.6571 37.7705 21.7428 38.142 21.7714C38.2278 23.8573 37.9992 25.6862 37.4848 27.2578ZM34.2272 13.656C34.8559 12.8273 34.6844 12.1415 34.6844 12.1415C35.5988 12.7987 35.2559 13.5703 35.0845 14.399C35.0559 14.399 34.9988 14.399 34.9702 14.4275C34.3701 14.5418 33.7986 14.7133 33.2842 14.9133C33.4557 14.5133 33.8272 14.1989 34.2272 13.656Z" fill="#8E8E8E"/>
<path d="M65.2028 22.0285C66.7458 23.4287 68.8032 24.0002 71.4321 23.7716C71.9465 23.7145 72.6323 23.543 73.4896 23.2573C74.3468 22.9715 75.1183 22.5715 75.8613 22.1143C75.547 24.286 75.2327 26.4577 74.9469 28.658C74.7183 30.2582 74.3754 31.4298 73.8896 32.1442C73.4038 32.8585 72.6895 33.2872 71.6893 33.3729C71.0035 33.43 70.4034 33.2586 69.9462 32.8585C69.489 32.4585 69.2319 31.887 69.1461 31.1726C69.0604 30.4011 69.2319 29.7438 69.6605 29.1723C70.0891 28.6008 70.6606 28.2865 71.4321 28.2008C71.8608 28.1722 72.2322 28.2008 72.5466 28.3151C72.8895 28.4294 73.261 28.6294 73.7182 28.9437C73.7753 28.6866 73.8039 28.4008 73.8039 28.1722C73.8325 27.915 73.8039 27.6864 73.8039 27.515C73.7182 26.7149 73.4038 26.1148 72.8323 25.7719C72.2608 25.429 71.2893 25.3147 69.9748 25.429C68.6318 25.5433 67.6031 26.1434 66.8887 27.1721C66.1457 28.2008 65.8886 29.4009 66.0314 30.8011C66.2029 32.2299 66.7744 33.3729 67.8031 34.2016C68.8032 35.0303 70.0605 35.3732 71.575 35.2303C74.1468 35.0017 76.0899 34.173 77.4329 32.6871C78.776 31.2297 79.6904 28.858 80.1762 25.5433C80.862 20.9713 81.5763 16.4278 82.2907 11.8558C80.6334 11.9415 78.976 12.0272 77.3186 12.1415C76.9757 14.4561 76.6043 16.7707 76.2614 19.0853C75.9185 19.5711 75.5184 19.9425 75.0326 20.1997C74.5468 20.4569 73.9468 20.5998 73.1752 20.6855C71.8036 20.7998 70.6892 20.3712 69.8034 19.3996C68.9175 18.4281 68.3746 17.0279 68.1746 15.1705C68.0317 13.9418 68.0888 12.6273 68.3174 11.2843C68.546 9.91265 68.9747 8.62676 69.5748 7.39803C70.2891 5.82639 71.175 4.54051 72.2323 3.59753C73.2895 2.65455 74.3754 2.14019 75.5184 2.05447C76.4042 1.99732 77.09 2.16877 77.6044 2.5974C78.1187 3.02602 78.4045 3.6261 78.4902 4.39763C78.5474 4.94056 78.4045 5.56922 78.1188 6.22645C77.833 6.88368 77.4615 7.3123 77.0329 7.45518C77.3472 7.71236 77.7473 7.91238 78.2331 8.05526C78.7188 8.19814 79.2618 8.22671 79.8047 8.19814C80.6905 8.14098 81.3477 7.82666 81.7764 7.22658C82.205 6.6265 82.3764 5.79782 82.2907 4.74054C82.1764 3.22605 81.4049 2.08304 79.9761 1.31151C78.5474 0.539981 76.7186 0.225654 74.4897 0.397105C72.4323 0.539981 70.6035 1.08291 68.9461 1.94017C67.2887 2.826 65.9171 3.99758 64.8027 5.48349C63.774 6.88368 63.031 8.45531 62.5738 10.1984C62.1452 11.9415 62.0309 13.7131 62.2595 15.4562C62.7167 18.4281 63.6597 20.6283 65.2028 22.0285Z" fill="#8E8E8E"/>
<path d="M90.8347 12.8273C91.4634 12.2272 91.9777 11.8558 92.3778 11.6557C92.7492 11.4843 93.1779 11.37 93.6065 11.37C93.7779 11.37 93.9208 11.4271 94.0351 11.5129C94.1494 11.6272 94.2352 11.8558 94.3495 12.2558C94.4638 12.8559 94.6638 13.2559 94.921 13.4274C95.1781 13.6274 95.521 13.7131 95.9497 13.6846C96.7783 13.6846 97.4356 13.3988 97.9499 12.913C98.4643 12.3987 98.6929 11.77 98.6643 11.0271C98.6357 10.2556 98.3786 9.6269 97.8642 9.11254C97.3498 8.59819 96.6926 8.34101 95.8925 8.36959C95.2067 8.36959 94.5495 8.54104 93.8923 8.85536C93.235 9.16969 92.3492 9.79835 91.2633 10.7128C91.4062 9.9698 91.5205 9.22684 91.6634 8.45531C89.7774 8.51246 87.92 8.56961 86.0341 8.65534C85.0339 14.7133 84.0624 20.7426 83.148 26.8006C84.9196 26.7149 86.6913 26.6006 88.4915 26.5434C89.2345 22 90.0346 17.4279 90.8347 12.8273Z" fill="#8E8E8E"/>
<path d="M98.4929 22.2571C98.5214 23.6287 98.8929 24.686 99.6359 25.429C100.35 26.1719 101.35 26.5434 102.579 26.5434C104.322 26.5434 105.865 26.0005 107.208 24.8861C107.723 24.4574 108.208 23.9431 108.666 23.3716C108.809 24.2288 109.123 24.9432 109.637 25.4861C110.352 26.2577 111.323 26.6577 112.552 26.6863C114.295 26.7434 115.867 26.2291 117.267 25.1718C117.81 24.7718 118.295 24.2574 118.781 23.6859C118.896 24.5431 119.181 25.2575 119.696 25.829C120.381 26.6291 121.353 27.0578 122.582 27.1435C124.325 27.2578 125.925 26.8006 127.354 25.7719C128.783 24.7432 129.983 23.2001 130.954 21.0856C130.411 21.0284 129.868 20.9998 129.354 20.9427C128.983 21.8571 128.468 22.5715 127.782 23.1144C127.125 23.6573 126.411 23.8859 125.725 23.8573C125.182 23.8288 124.782 23.6859 124.553 23.4573C124.325 23.2287 124.211 22.8858 124.239 22.4C124.239 22.2 124.268 22.0285 124.296 21.8571C124.325 21.6856 124.382 21.4856 124.439 21.2856C126.239 14.9133 128.068 8.54104 129.954 2.19734C127.954 2.28307 125.954 2.39737 123.953 2.51167C122.296 8.42674 120.696 14.3704 119.124 20.2854C118.781 21.1999 118.295 21.9428 117.638 22.5143C116.981 23.0858 116.295 23.343 115.609 23.3144C115.066 23.2858 114.666 23.1715 114.438 22.9715C114.209 22.7715 114.095 22.4 114.095 21.9428C114.095 21.7428 114.123 21.5713 114.152 21.3999C114.181 21.2284 114.238 21.0284 114.266 20.7998C115.867 14.3704 117.524 7.96953 119.21 1.56869C117.21 1.71156 115.238 1.88302 113.238 2.05447C111.78 8.02668 110.323 13.9989 108.923 19.9711C108.608 20.9141 108.123 21.6571 107.494 22.2286C106.865 22.8001 106.18 23.0858 105.494 23.0858C104.951 23.0858 104.551 22.9715 104.294 22.7715C104.065 22.5715 103.922 22.2286 103.922 21.7428C103.922 21.5428 103.922 21.3713 103.951 21.1999C103.979 21.0284 104.008 20.8284 104.065 20.5998C104.951 16.5421 105.865 12.4558 106.78 8.39816C104.894 8.36959 103.008 8.36959 101.122 8.36959C100.322 12.2272 99.5216 16.0849 98.75 19.9425C98.6643 20.3997 98.5786 20.8284 98.55 21.2284C98.5214 21.5713 98.4929 21.9428 98.4929 22.2571Z" fill="#8E8E8E"/>
<path d="M102.751 5.56922C103.379 6.11215 104.122 6.3979 104.979 6.3979C105.837 6.3979 106.58 6.14072 107.208 5.59779C107.837 5.05486 108.123 4.39763 108.123 3.59753C108.123 2.79742 107.808 2.11162 107.18 1.54011C106.551 0.968609 105.78 0.682857 104.894 0.654282C104.008 0.654282 103.265 0.940034 102.665 1.48296C102.065 2.05447 101.779 2.7117 101.779 3.5118C101.836 4.34048 102.15 5.02629 102.751 5.56922Z" fill="#8E8E8E"/>
<path d="M113.723 39.4023L113.781 39.0594C113.781 39.0594 114.609 34.6873 116.981 34.4016C119.353 34.1158 139.355 35.6589 139.355 35.6589C139.355 35.6589 138.927 34.2301 129.983 32.9157C123.296 31.9441 115.438 30.4868 112.123 31.6298C109.323 32.5728 108.723 33.9444 106.237 36.1161C105.494 36.7733 103.436 37.1734 102.779 37.1734C87.72 35.9161 70.6892 37.4306 58.2018 39.1165C47.5147 40.5453 38.5421 42.2598 33.77 43.2599C33.3414 41.7168 32.8842 40.3452 32.227 40.5453C32.227 40.5453 30.341 40.3167 30.1124 41.1739C29.8838 42.0312 29.9695 43.9171 28.055 44.5172C26.169 45.1173 16.1391 44.26 12.4815 47.4319C8.85244 50.6037 11.71 54.9186 14.8532 54.2899C17.9965 53.6613 24.9117 49.0893 27.4549 47.7176C31.2268 45.6888 31.8269 49.6036 33.6843 48.4892C34.913 47.7462 34.7987 46.9461 34.2272 44.9744V44.9458C38.9993 43.9743 47.8862 42.2598 58.4304 40.831C70.6892 39.2022 87.3771 37.6877 102.122 38.8593C102.179 38.8593 104.808 39.2308 106.037 40.2881C108.151 42.1455 107.723 44.4029 109.98 46.0317C112.809 48.0605 120.782 48.9749 127.44 49.9751C136.412 51.3181 137.212 50.0608 137.212 50.0608C137.212 50.0608 117.638 45.7174 115.438 44.7744C113.238 43.8314 113.723 39.4023 113.723 39.4023Z" fill="#8E8E8E"/>
<path d="M36.056 7.3123C36.3418 6.54077 35.4845 5.82639 35.0559 5.51207C34.6273 5.16916 34.6844 4.51193 34.6844 4.51193C34.5987 4.85484 34.6273 5.31204 35.3131 5.99784C35.9989 6.68365 36.0275 7.36945 36.056 7.3123Z" fill="#8E8E8E"/>
<path d="M29.1694 13.1702C29.1694 13.1702 29.7123 12.8845 29.4266 12.1129C29.1694 11.3986 28.3979 11.6272 28.1979 10.7128C28.1979 10.7128 27.9407 11.3128 28.2264 11.6843C28.4836 12.0272 29.398 12.1987 29.1694 13.1702Z" fill="#8E8E8E"/>
<path d="M39.6279 8.74106C40.2566 9.16969 40.5709 9.51259 40.1423 10.5699C40.1423 10.5699 40.971 9.8555 40.7138 9.08397C40.4566 8.31244 39.1136 8.25529 38.9421 7.34088C38.9421 7.34088 38.7135 8.11241 39.6279 8.74106Z" fill="#8E8E8E"/>
</svg>
