<svg width="27" height="26" viewBox="0 0 27 26" fill="none" xmlns="http://www.w3.org/2000/svg">
<path fill-rule="evenodd" clip-rule="evenodd" d="M26.1184 12.7786C26.1184 5.83404 20.2709 0.203126 13.0592 0.203126C5.84748 0.203125 -2.46135e-07 5.83403 -5.49693e-07 12.7786C-8.24049e-07 19.0552 4.77476 24.2577 11.0187 25.202L11.0187 16.4149L7.702 16.4149L7.702 12.7786L11.0187 12.7786L11.0187 10.0081C11.0187 6.85692 12.9688 5.11487 15.9514 5.11487C17.3804 5.11487 18.8752 5.36077 18.8752 5.36077L18.8752 8.4558L17.2276 8.4558C15.6063 8.4558 15.0991 9.42479 15.0991 10.4207L15.0991 12.7786L18.7207 12.7786L18.1424 16.4149L15.0997 16.4149L15.0997 25.2031C21.3436 24.2594 26.1184 19.0568 26.1184 12.7786V12.7786Z" fill="white"/>
</svg>
