<svg width="26" height="26" viewBox="0 0 26 26" fill="none" xmlns="http://www.w3.org/2000/svg">
<path d="M12.62 0.125001C5.71553 0.125 0.117187 5.72085 0.117187 12.6222C0.117187 17.7383 3.19823 22.1346 7.60212 24.0705C7.56863 23.2002 7.59653 22.1513 7.8198 21.2029C8.05981 20.1875 9.4273 14.3908 9.4273 14.3908C9.4273 14.3908 9.02542 13.593 9.02542 12.4158C9.02542 10.5635 10.0971 9.1799 11.4367 9.1799C12.5753 9.1799 13.1223 10.0335 13.1223 11.0545C13.1223 12.1982 12.3911 13.9054 12.0172 15.4899C11.7046 16.8177 12.6814 17.8945 13.9931 17.8945C16.3597 17.8945 17.956 14.8539 17.956 11.2497C17.956 8.51041 16.1085 6.46287 12.7539 6.46287C8.96403 6.46287 6.59743 9.29148 6.59743 12.4493C6.59743 13.5372 6.92116 14.3071 7.4235 14.8985C7.65235 15.1719 7.68584 15.2834 7.60212 15.5959C7.54072 15.8246 7.40676 16.377 7.34536 16.6001C7.26164 16.9181 7.00488 17.0297 6.72022 16.9125C4.97318 16.1984 4.15827 14.2904 4.15827 12.1368C4.15827 8.58851 7.15559 4.33165 13.0944 4.33165C17.8667 4.33165 21.0091 7.78512 21.0091 11.4897C21.0091 16.3937 18.2797 20.0536 14.261 20.0536C12.9102 20.0536 11.6432 19.3227 11.2078 18.497C11.2078 18.497 10.4822 21.3758 10.3259 21.9337C10.0636 22.8989 9.54451 23.8585 9.07008 24.6117C10.2209 24.9511 11.4145 25.1239 12.6144 25.125C19.5188 25.125 25.1172 19.5292 25.1172 12.6278C25.1172 5.72643 19.5244 0.125001 12.62 0.125001Z" fill="white"/>
</svg>
