<svg width="27" height="26" viewBox="0 0 27 26" fill="none" xmlns="http://www.w3.org/2000/svg">
<path d="M18.483 2.28627C19.9162 2.29039 21.2896 2.84049 22.303 3.81642C23.3165 4.79235 23.8877 6.11481 23.892 7.49498L23.892 17.9113C23.8877 19.2914 23.3165 20.6139 22.303 21.5898C21.2896 22.5658 19.9162 23.1159 18.483 23.12L7.66606 23.12C6.23281 23.1159 4.85948 22.5658 3.84602 21.5898C2.83255 20.6139 2.2613 19.2914 2.25702 17.9113L2.25702 7.49498C2.2613 6.11481 2.83255 4.79235 3.84602 3.81642C4.85948 2.84049 6.23281 2.29039 7.66606 2.28627L18.483 2.28627V2.28627ZM18.483 0.203126L7.66606 0.203125C3.5012 0.203125 0.0937499 3.48437 0.0937497 7.49498L0.0937492 17.9113C0.0937491 21.9219 3.5012 25.2031 7.66606 25.2031L18.483 25.2031C22.6478 25.2031 26.0553 21.9219 26.0553 17.9113L26.0553 7.49498C26.0553 3.48438 22.6478 0.203126 18.483 0.203126V0.203126Z" fill="#FB5629"/>
<path d="M20.1074 7.49609C19.7865 7.49609 19.4727 7.40446 19.2059 7.23277C18.9391 7.06108 18.7311 6.81705 18.6083 6.53154C18.4855 6.24603 18.4534 5.93186 18.516 5.62877C18.5786 5.32567 18.7331 5.04726 18.96 4.82874C19.187 4.61022 19.4761 4.46141 19.7908 4.40112C20.1056 4.34083 20.4318 4.37177 20.7283 4.49003C21.0248 4.6083 21.2782 4.80856 21.4565 5.06552C21.6348 5.32247 21.73 5.62456 21.73 5.93359C21.7304 6.13891 21.6888 6.34229 21.6074 6.53206C21.526 6.72183 21.4065 6.89425 21.2557 7.03943C21.105 7.18461 20.9259 7.29969 20.7289 7.37806C20.5318 7.45642 20.3206 7.49654 20.1074 7.49609V7.49609ZM13.0763 8.53739C13.9321 8.53739 14.7687 8.78177 15.4803 9.23963C16.1919 9.69749 16.7465 10.3483 17.0741 11.1097C17.4016 11.8711 17.4873 12.7089 17.3203 13.5172C17.1533 14.3254 16.7412 15.0679 16.1361 15.6507C15.5309 16.2334 14.7599 16.6303 13.9205 16.791C13.0811 16.9518 12.2111 16.8693 11.4204 16.5539C10.6297 16.2385 9.95393 15.7045 9.47846 15.0192C9.00299 14.334 8.74921 13.5284 8.74921 12.7042C8.75043 11.5995 9.20672 10.5403 10.0179 9.75914C10.8292 8.97796 11.9291 8.53857 13.0763 8.53739V8.53739ZM13.0763 6.45424C11.7926 6.45424 10.5378 6.8208 9.47046 7.50756C8.40312 8.19432 7.57123 9.17043 7.07999 10.3125C6.58875 11.4545 6.46022 12.7112 6.71065 13.9236C6.96108 15.1359 7.57923 16.2496 8.48693 17.1237C9.39463 17.9977 10.5511 18.593 11.8101 18.8342C13.0691 19.0753 14.3741 18.9515 15.5601 18.4785C16.746 18.0054 17.7597 17.2044 18.4729 16.1766C19.1861 15.1487 19.5667 13.9404 19.5667 12.7042C19.5667 11.0466 18.8829 9.45693 17.6657 8.28483C16.4485 7.11272 14.7977 6.45424 13.0763 6.45424V6.45424Z" fill="#FB5629"/>
</svg>
