<svg width="179" height="44" viewBox="0 0 179 44" fill="none" xmlns="http://www.w3.org/2000/svg">
<circle cx="20.4402" cy="20.6772" r="19.6958" fill="#FB5629" fill-opacity="0.1"/>
<path d="M24.6125 40.293C23.3058 40.293 22.0525 40.173 20.8525 39.933C19.6792 39.693 18.6392 39.2397 17.7325 38.573C16.8525 37.8797 16.1458 36.893 15.6125 35.613C15.1058 34.3064 14.8525 32.5997 14.8525 30.493C14.8525 28.5997 15.1058 26.973 15.6125 25.613C16.1192 24.253 16.7192 23.173 17.4125 22.373C18.1325 21.573 18.7858 21.0797 19.3725 20.893L19.1725 20.133H18.4925C17.2658 20.133 16.2925 19.7464 15.5725 18.973C14.8792 18.173 14.5192 17.093 14.4925 15.733C14.4658 14.3997 14.8125 13.333 15.5325 12.533C16.2792 11.733 17.2658 11.333 18.4925 11.333H32.8525C35.7058 11.333 37.1325 12.6664 37.1325 15.333C37.1325 16.533 36.7858 17.493 36.0925 18.213C35.3992 18.933 34.3192 19.293 32.8525 19.293H24.5725C23.5858 19.293 23.0925 19.8664 23.0925 21.013V24.013C24.4258 23.7197 25.8125 23.373 27.2525 22.973C28.7192 22.573 30.1058 22.373 31.4125 22.373C32.6658 22.373 33.5992 22.653 34.2125 23.213C34.8525 23.7464 35.1725 24.4797 35.1725 25.413C35.1725 26.373 34.8525 27.133 34.2125 27.693C33.5992 28.2264 32.6658 28.5064 31.4125 28.533C30.1058 28.5597 28.7192 28.373 27.2525 27.973C25.7858 27.573 24.3858 27.2264 23.0525 26.933V32.173C23.0525 32.6797 23.1858 33.0397 23.4525 33.253C23.7458 33.4397 24.1992 33.3597 24.8125 33.013C26.1458 32.2397 27.4525 31.6264 28.7325 31.173C30.0125 30.693 31.2658 30.453 32.4925 30.453C34.2258 30.453 35.5325 30.9064 36.4125 31.813C37.3192 32.7197 37.7725 33.9064 37.7725 35.373C37.7725 36.9464 37.2925 38.1597 36.3325 39.013C35.3992 39.8664 33.8792 40.293 31.7725 40.293H24.6125ZM45.1428 40.373C43.1695 40.373 41.6228 39.8397 40.5028 38.773C39.4095 37.7064 38.8628 36.213 38.8628 34.293C38.8628 32.373 39.5028 30.9864 40.7828 30.133C42.0628 29.253 43.7028 28.813 45.7028 28.813C46.8762 28.813 47.9428 28.893 48.9028 29.053C49.8628 29.213 50.7295 29.4397 51.5028 29.733H51.6228V29.133C51.6228 28.5197 51.3962 28.0397 50.9428 27.693C50.4895 27.3197 49.9162 27.1464 49.2228 27.173C48.5562 27.173 47.9828 27.213 47.5028 27.293C47.0495 27.373 46.4762 27.5064 45.7828 27.693C44.5028 28.013 43.3962 27.9864 42.4628 27.613C41.5295 27.2397 40.8895 26.5064 40.5428 25.413C40.2228 24.2664 40.2895 23.3064 40.7428 22.533C41.2228 21.7597 41.9428 21.1597 42.9028 20.733C43.7295 20.333 44.6495 19.9997 45.6628 19.733C46.7028 19.4664 47.8228 19.333 49.0228 19.333C52.5162 19.333 55.0762 20.1864 56.7028 21.893C58.3562 23.573 59.1828 26.3997 59.1828 30.373V36.573C59.1828 37.6664 58.8495 38.573 58.1828 39.293C57.5162 40.013 56.5962 40.373 55.4228 40.373C54.1428 40.373 53.1828 40.013 52.5428 39.293C51.9295 38.573 51.6228 37.693 51.6228 36.653V35.733H50.8228C50.8228 36.4264 50.6895 37.133 50.4228 37.853C50.1828 38.573 49.6628 39.173 48.8628 39.653C48.0895 40.133 46.8495 40.373 45.1428 40.373ZM45.5428 31.613C45.5428 32.0664 45.7028 32.3864 46.0228 32.573C46.3695 32.7597 47.1028 32.853 48.2228 32.853C49.2362 32.853 49.9428 32.7597 50.3428 32.573C50.7428 32.3864 50.9428 32.0664 50.9428 31.613C50.9428 31.1864 50.7428 30.893 50.3428 30.733C49.9428 30.5464 49.2362 30.453 48.2228 30.453C47.1028 30.453 46.3695 30.5464 46.0228 30.733C45.7028 30.893 45.5428 31.1864 45.5428 31.613ZM71.5259 40.493C70.1126 40.493 68.8326 40.173 67.6859 39.533C66.5659 38.893 65.6859 37.9864 65.0459 36.813C64.4059 35.613 64.0859 34.213 64.0859 32.613V25.573L62.6059 25.773C61.8059 25.8797 61.0993 25.5997 60.4859 24.933C59.8726 24.2664 59.5659 23.4264 59.5659 22.413C59.5659 21.3997 59.8726 20.573 60.4859 19.933C61.0993 19.2664 61.8059 18.9864 62.6059 19.093L64.0859 19.293L64.0459 16.573C64.0193 15.5064 64.3259 14.6664 64.9659 14.053C65.6059 13.413 66.5393 13.093 67.7659 13.093C68.9926 13.093 69.9393 13.413 70.6059 14.053C71.2726 14.6664 71.5793 15.5064 71.5259 16.573L71.4459 19.293L73.5659 19.013C75.0059 18.7997 76.0993 19.0664 76.8459 19.813C77.5926 20.533 77.9659 21.3997 77.9659 22.413C77.9659 23.4264 77.5926 24.3064 76.8459 25.053C76.1259 25.773 75.0726 26.0397 73.6859 25.853L71.4459 25.573V31.533C71.4459 31.8797 71.5659 32.1997 71.8059 32.493C72.0459 32.7597 72.3393 32.8397 72.6859 32.733C73.0859 32.6264 73.4993 32.3997 73.9259 32.053C74.3793 31.7064 74.9526 31.533 75.6459 31.533C76.6859 31.533 77.4859 31.9064 78.0459 32.653C78.6059 33.3997 78.8859 34.3197 78.8859 35.413C78.8859 36.2664 78.5793 37.093 77.9659 37.893C77.3793 38.6664 76.5393 39.293 75.4459 39.773C74.3526 40.253 73.0459 40.493 71.5259 40.493ZM85.1081 40.373C83.8015 40.373 82.7615 40.013 81.9881 39.293C81.2415 38.573 80.8681 37.5197 80.8681 36.133V30.493C80.8681 27.6664 81.2948 25.5197 82.1481 24.053C83.0015 22.5864 84.0815 21.533 85.3881 20.893L85.1881 20.133H84.5081C83.2815 20.133 82.3081 19.7464 81.5881 18.973C80.8948 18.173 80.5348 17.093 80.5081 15.733C80.4815 14.3997 80.8281 13.333 81.5481 12.533C82.2948 11.733 83.2815 11.333 84.5081 11.333H98.5081C101.361 11.333 102.788 12.6664 102.788 15.333C102.788 16.533 102.441 17.493 101.748 18.213C101.055 18.933 99.9748 19.293 98.5081 19.293H90.7081C89.7215 19.293 89.2281 19.8664 89.2281 21.013V23.893C90.4815 23.5464 91.7881 23.1464 93.1481 22.693C94.5081 22.2397 95.8148 22.013 97.0681 22.013C98.4015 22.013 99.4281 22.3464 100.148 23.013C100.895 23.653 101.268 24.6397 101.268 25.973C101.268 27.2797 100.895 28.2664 100.148 28.933C99.4281 29.573 98.4015 29.9064 97.0681 29.933C95.8148 29.9597 94.4948 29.7597 93.1081 29.333C91.7481 28.8797 90.4415 28.4797 89.1881 28.133L89.1481 36.133C89.1481 37.5197 88.7748 38.573 88.0281 39.293C87.3081 40.013 86.3348 40.373 85.1081 40.373ZM108.139 40.373C106.832 40.373 105.846 40.0264 105.179 39.333C104.539 38.6397 104.219 37.773 104.219 36.733V13.533C104.219 12.3864 104.539 11.4397 105.179 10.693C105.846 9.91971 106.832 9.53305 108.139 9.53305C109.312 9.53305 110.219 9.91971 110.859 10.693C111.499 11.4397 111.819 12.3597 111.819 13.453V36.733C111.819 37.773 111.499 38.6397 110.859 39.333C110.219 40.0264 109.312 40.373 108.139 40.373ZM123.912 40.453C120.792 40.453 118.299 39.533 116.432 37.693C114.592 35.8264 113.672 33.1997 113.672 29.813C113.672 27.733 114.099 25.9064 114.952 24.333C115.806 22.7597 116.992 21.533 118.512 20.653C120.059 19.7464 121.859 19.293 123.912 19.293C126.206 19.293 128.112 19.7464 129.632 20.653C131.152 21.533 132.286 22.7597 133.032 24.333C133.806 25.9064 134.192 27.733 134.192 29.813C134.192 33.1997 133.339 35.8264 131.632 37.693C129.952 39.533 127.379 40.453 123.912 40.453ZM118.432 29.133C118.432 29.9597 118.846 30.5464 119.672 30.893C120.499 31.213 121.912 31.373 123.912 31.373C125.912 31.373 127.326 31.213 128.152 30.893C128.979 30.5464 129.392 29.9597 129.392 29.133C129.392 28.333 128.979 27.773 128.152 27.453C127.326 27.133 125.912 26.973 123.912 26.973C121.912 26.973 120.499 27.133 119.672 27.453C118.846 27.773 118.432 28.333 118.432 29.133ZM143.971 40.373C142.424 40.373 141.157 39.8664 140.171 38.853C139.211 37.8397 138.331 36.173 137.531 33.853L134.491 24.813C134.144 23.7997 134.131 22.773 134.451 21.733C134.771 20.693 135.504 19.9864 136.651 19.613C137.717 19.2397 138.691 19.2664 139.571 19.693C140.451 20.1197 141.064 20.853 141.411 21.893L144.691 31.693C145.064 32.8397 145.451 33.613 145.851 34.013C146.251 34.3864 146.784 34.4664 147.451 34.253C148.011 34.0664 148.357 33.6664 148.491 33.053C148.651 32.413 148.464 31.3197 147.931 29.773L146.291 24.813C145.944 23.773 145.931 22.7464 146.251 21.733C146.597 20.693 147.344 19.9864 148.491 19.613C149.557 19.2397 150.531 19.2664 151.411 19.693C152.291 20.1197 152.904 20.853 153.251 21.893L156.611 32.133C156.824 32.7464 157.157 33.3064 157.611 33.813C158.064 34.3197 158.651 34.4664 159.371 34.253C159.931 34.0664 160.291 33.693 160.451 33.133C160.637 32.573 160.611 31.9197 160.371 31.173C160.051 30.1597 159.691 29.3597 159.291 28.773C158.917 28.1864 158.544 27.6797 158.171 27.253C157.824 26.8264 157.531 26.373 157.291 25.893C157.077 25.413 156.944 24.7597 156.891 23.933C156.837 23.0797 157.011 22.333 157.411 21.693C157.837 21.0264 158.397 20.5064 159.091 20.133C159.811 19.7597 160.597 19.573 161.451 19.573C162.757 19.573 163.811 20.013 164.611 20.893C165.437 21.7464 165.851 22.7597 165.851 23.933C165.851 24.3597 165.784 24.9197 165.651 25.613C165.517 26.3064 165.344 26.9464 165.131 27.533L163.451 31.893C163.104 32.853 162.704 33.8397 162.251 34.853C161.824 35.8397 161.317 36.7464 160.731 37.573C160.171 38.3997 159.517 39.0797 158.771 39.613C158.024 40.1197 157.157 40.373 156.171 40.373C154.464 40.373 153.091 39.933 152.051 39.053C151.037 38.173 150.237 36.7197 149.651 34.693H149.251C148.904 36.3464 148.331 37.7064 147.531 38.773C146.731 39.8397 145.544 40.373 143.971 40.373Z" fill="white"/>
<path d="M172.424 41.133C170.851 41.133 169.624 40.7197 168.744 39.893C167.864 39.0397 167.424 37.9197 167.424 36.533C167.424 35.1197 167.877 33.973 168.784 33.093C169.691 32.213 170.904 31.773 172.424 31.773C173.917 31.773 175.104 32.213 175.984 33.093C176.891 33.9464 177.344 35.0797 177.344 36.493C177.344 37.8797 176.917 38.9997 176.064 39.853C175.211 40.7064 173.997 41.133 172.424 41.133Z" fill="#FB5629"/>
</svg>
