<svg width="1690" height="607" viewBox="0 0 1690 607" fill="none" xmlns="http://www.w3.org/2000/svg">
<path d="M575.079 253.413C575.079 253.413 570.237 273.858 552.302 284.977C529.705 298.966 502.983 301.118 495.988 292.33C493.119 288.923 494.016 285.336 494.912 281.749C495.809 278.162 497.065 276.369 499.217 274.575C509.977 265.967 528.27 272.602 544.052 268.657C563.601 263.815 571.492 251.261 574.9 251.44C575.617 251.44 575.079 251.619 575.079 253.413Z" stroke="#37363E" stroke-miterlimit="10" stroke-linecap="round"/>
<path d="M494.375 289.102C494.375 289.102 491.505 284.977 485.946 285.874C480.386 286.591 467.653 282.646 468.011 279.238L469.446 278.341C469.446 278.341 474.109 282.466 481.821 282.825C489.532 283.184 491.685 284.618 495.451 279.597" stroke="#37363E" stroke-miterlimit="10" stroke-linecap="round"/>
<path d="M498.141 281.928C498.141 281.928 501.908 274.933 509.978 274.575" stroke="#37363E" stroke-miterlimit="10" stroke-linecap="round"/>
<path d="M517.869 292.33C517.869 292.33 545.308 289.999 560.014 274.396" stroke="#37363E" stroke-miterlimit="10" stroke-linecap="round"/>
<path d="M563.242 270.271C563.242 270.271 568.623 263.994 571.492 256.641" stroke="#37363E" stroke-miterlimit="10" stroke-linecap="round"/>
<path d="M729.665 351.689C729.665 351.689 732.035 358.326 753.684 361.487C775.492 364.805 813.576 365.911 819.739 356.588M808.361 359.432C808.835 358.484 809.151 357.378 809.151 356.114M813.26 358.959C813.26 355.008 810.257 351.689 806.781 351.689C805.517 351.689 804.253 352.163 803.146 352.954C802.356 344.894 794.929 338.573 785.764 338.573C783.867 338.573 781.971 338.889 780.233 339.363C778.336 338.099 775.65 337.151 772.806 337.151C768.381 337.151 764.746 339.047 763.166 341.576C762.376 339.996 760.954 339.047 759.215 339.047C757.477 339.047 756.055 339.996 755.265 341.418C754.475 340.786 753.527 340.312 752.42 340.312C750.05 340.312 748.154 342.366 748.154 344.894C742.307 345.368 737.724 349.477 737.724 354.376M749.734 352.322C749.734 352.322 751.314 347.265 757.635 348.055C763.956 348.845 764.114 351.057 764.114 351.057M760.795 345.052C760.795 345.052 761.269 342.208 765.22 342.998M773.121 348.055C773.121 348.055 776.123 343.314 782.919 344.104C789.714 344.894 788.765 351.847 788.765 351.847M792.085 354.376C792.085 354.376 795.087 352.638 797.141 355.798M798.09 397.516C798.88 398.465 799.196 399.413 799.196 400.361C799.196 405.734 787.502 410 772.964 410C758.425 410 746.732 405.734 746.732 400.361C746.732 399.097 747.522 397.833 748.786 396.568M727.926 350.267C727.926 350.267 727.136 388.193 758.267 400.835C789.398 413.477 826.218 382.978 823.847 355.008C821.477 327.038 724.134 328.776 727.926 350.267Z" stroke="#37363E" stroke-miterlimit="10" stroke-linecap="round"/>
<path d="M3.82842 51.9672C6.69791 56.6302 7.77397 63.4452 9.20872 71.3363C10.6435 80.6622 12.4369 91.0641 17.4585 101.645C21.4041 110.075 29.1159 116.89 38.083 120.118C46.5122 123.167 55.6587 122.449 63.7291 118.504C70.9029 114.917 77.1799 108.819 82.5602 100.39C89.5546 89.0913 89.9132 78.6894 87.5818 68.2875C83.8156 52.3259 69.8268 43.8968 56.1967 38.1578C43.2839 32.7775 35.9309 26.6798 35.9309 26.6798C26.2463 18.968 17.4585 19.6854 10.6434 24.169C6.69789 26.6798 3.29038 30.2667 1.85563 35.2883C-0.11715 40.6686 0.600235 46.7663 3.82842 51.9672ZM11.1815 26.8591C17.0998 22.7342 26.2463 21.6582 33.7787 29.3699C33.7787 29.3699 40.7732 35.2883 55.1206 41.0273C67.316 46.0489 88.6579 60.3964 85.9677 82.2763C85.4297 87.2979 83.4569 92.6782 79.6907 98.5965C59.7836 130.52 28.9365 119.759 19.79 100.211C10.6435 80.6622 12.6162 61.1137 6.15986 50.1738C0.779557 41.386 4.5458 31.3427 11.1815 26.8591Z" stroke="#37363E" stroke-miterlimit="10"/>
<path d="M33.2408 83.7108C39.3385 97.1616 59.7836 96.9822 61.5771 80.8413C62.4738 72.5915 53.8653 53.7604 38.2624 60.7548C27.5018 65.4178 31.2681 79.5859 33.2408 83.7108Z" stroke="#37363E" stroke-miterlimit="10" stroke-linecap="round"/>
<path d="M52.7889 88.7325C52.7889 88.7325 47.2292 91.9607 41.6695 88.7325C35.9306 85.5043 34.3165 79.4067 34.4958 77.0752" stroke="#37363E" stroke-miterlimit="10" stroke-linecap="round"/>
<path d="M1490.48 311.701C1490.48 311.701 1470.75 319.772 1461.79 300.761M1490.48 311.701C1479.9 289.463 1461.79 300.582 1461.79 300.761M1490.48 311.701C1490.48 311.701 1478.11 301.12 1461.79 300.761M1529.4 334.837C1529.4 334.837 1526.17 321.745 1518.64 320.49C1511.11 319.234 1506.44 323.359 1506.44 323.359M1454.25 347.032C1454.25 347.032 1451.92 374.651 1476.13 385.591C1476.13 385.591 1482.95 388.281 1491.92 382.901M1484.74 323.359C1484.74 323.359 1476.13 319.055 1468.96 323.359M1498.19 322.821C1498.19 322.821 1488.15 307.218 1496.94 300.582C1496.94 300.582 1500.17 299.148 1497.3 297.713C1494.25 296.099 1494.25 296.637 1493.17 297.892C1492.1 299.148 1489.23 307.935 1492.28 318.158C1494.43 325.69 1498.19 322.821 1498.19 322.821ZM1483.85 391.15C1498.01 388.998 1495.68 384.694 1510.93 383.976C1526.89 383.08 1537.29 367.118 1537.65 349.901C1537.83 342.727 1536.21 335.195 1532.63 328.559C1531.91 327.304 1531.37 326.228 1530.65 325.331C1530.48 324.972 1530.3 324.614 1529.94 324.434C1529.04 323.179 1528.14 322.103 1527.25 321.206C1516.13 309.728 1503.75 321.206 1498.01 323C1494.43 324.434 1492.63 324.076 1490.48 323C1488.51 322.282 1487.07 321.206 1486.89 321.027C1485.46 320.13 1483.31 319.233 1480.8 318.695C1480.44 318.695 1480.08 318.516 1479.72 318.516C1470.57 317.44 1457.12 321.206 1452.28 342.189C1445.83 370.167 1470.4 393.302 1483.85 391.15Z" stroke="#37363E" stroke-miterlimit="10" stroke-linecap="round"/>
<path d="M1652.01 211.59C1659.19 211.77 1699 315.609 1699 315.609C1698.28 324.577 1586.37 264.138 1584.94 256.426C1583.5 248.535 1644.84 211.59 1652.01 211.59ZM1652.01 211.59C1652.01 211.59 1658.29 203.52 1654.34 196.167C1650.94 189.711 1643.04 190.787 1640 191.863C1625.11 197.243 1567.18 237.595 1567.18 243.334M1567.18 243.334C1567.18 249.253 1588.17 260.013 1588.17 260.013M1567.18 243.334C1567.18 243.334 1572.74 236.34 1577.94 239.03C1582.96 241.721 1584.94 253.378 1584.94 253.378C1584.94 253.378 1696.13 319.376 1697.92 312.741M1681.6 271.492C1681.25 271.492 1680.89 271.492 1680.53 271.492C1671.92 271.492 1664.75 277.948 1664.75 285.839C1664.75 293.73 1671.74 300.187 1680.53 300.187C1684.83 300.187 1688.78 298.573 1691.47 296.062M1683.76 291.398C1683.76 292.116 1684.29 292.833 1685.19 292.833C1685.91 292.833 1686.63 292.295 1686.63 291.398C1686.63 290.681 1686.09 289.963 1685.19 289.963C1684.29 289.963 1683.76 290.681 1683.76 291.398ZM1656.68 231.498C1656.68 235.361 1653.22 238.492 1648.96 238.492C1644.7 238.492 1641.25 235.361 1641.25 231.498C1641.25 227.635 1644.7 224.503 1648.96 224.503C1653.22 224.503 1656.68 227.635 1656.68 231.498ZM1644.3 230.959C1644.3 233.291 1646.45 235.084 1649.14 235.084C1651.83 235.084 1653.98 233.291 1653.98 230.959C1653.98 228.628 1651.83 226.834 1649.14 226.834C1646.27 226.834 1644.3 228.628 1644.3 230.959ZM1642.33 271.671C1641.25 275.258 1643.58 279.383 1647.71 280.638C1651.83 281.894 1655.96 279.921 1657.03 276.334C1658.11 272.747 1655.78 268.622 1651.65 267.367C1647.71 266.111 1643.4 268.084 1642.33 271.671ZM1645.2 272.209C1644.48 274.361 1646.09 276.872 1648.6 277.589C1651.12 278.307 1653.81 277.231 1654.34 275.078C1655.06 272.926 1653.45 270.416 1650.94 269.698C1648.6 268.801 1645.91 269.877 1645.2 272.209ZM1639.28 250.866C1639.28 258.79 1632.21 265.214 1623.5 265.214C1614.78 265.214 1607.71 258.79 1607.71 250.866C1607.71 242.943 1614.78 236.519 1623.5 236.519C1632.21 236.519 1639.28 242.943 1639.28 250.866ZM1633.54 244.231C1633.54 245.122 1632.82 245.845 1631.93 245.845C1631.03 245.845 1630.31 245.122 1630.31 244.231C1630.31 243.339 1631.03 242.617 1631.93 242.617C1632.82 242.617 1633.54 243.339 1633.54 244.231ZM1619.37 241.899C1619.37 242.616 1620.09 243.154 1620.81 243.154C1621.52 243.154 1622.06 242.437 1622.06 241.72C1622.06 241.002 1621.34 240.464 1620.63 240.464C1619.91 240.644 1619.37 241.182 1619.37 241.899ZM1627.62 256.067C1627.62 256.784 1628.16 257.502 1629.06 257.502C1629.77 257.502 1630.49 256.964 1630.49 256.067C1630.49 255.35 1629.95 254.632 1629.06 254.632C1628.16 254.812 1627.62 255.35 1627.62 256.067ZM1623.5 248.714C1623.5 249.252 1624.03 249.79 1624.57 249.79C1625.11 249.79 1625.65 249.252 1625.65 248.714C1625.65 248.176 1625.11 247.638 1624.57 247.638C1623.86 247.638 1623.5 247.997 1623.5 248.714ZM1616.68 257.502C1616.68 258.04 1617.22 258.578 1617.76 258.578C1618.3 258.578 1618.83 258.04 1618.83 257.502C1618.83 256.964 1618.3 256.426 1617.76 256.426C1617.22 256.426 1616.68 256.964 1616.68 257.502ZM1612.74 248.714C1612.74 249.252 1613.27 249.79 1613.81 249.79C1614.35 249.79 1614.89 249.252 1614.89 248.714C1614.89 248.176 1614.35 247.638 1613.81 247.638C1613.09 247.638 1612.74 247.997 1612.74 248.714ZM1676.76 276.872C1676.76 277.589 1677.48 278.127 1678.2 278.127C1678.91 278.127 1679.45 277.41 1679.45 276.692C1679.45 275.975 1678.73 275.437 1678.02 275.437C1677.3 275.437 1676.76 276.154 1676.76 276.872ZM1678.02 284.762C1678.02 285.3 1678.55 285.838 1679.09 285.838C1679.63 285.838 1680.17 285.3 1680.17 284.762C1680.17 284.224 1679.63 283.686 1679.09 283.686C1678.55 283.686 1678.02 284.045 1678.02 284.762ZM1673.71 292.475C1673.71 293.013 1674.25 293.551 1674.79 293.551C1675.33 293.551 1675.86 293.013 1675.86 292.475C1675.86 291.937 1675.33 291.399 1674.79 291.399C1674.07 291.399 1673.71 291.937 1673.71 292.475ZM1669.77 283.149C1669.77 283.687 1670.31 284.225 1670.84 284.225C1671.38 284.225 1671.92 283.687 1671.92 283.149C1671.92 282.611 1671.38 282.073 1670.84 282.073C1670.13 282.073 1669.77 282.431 1669.77 283.149Z" stroke="#37363E" stroke-miterlimit="10" stroke-linecap="round"/>
<path d="M218.649 91.9884C223.133 92.8851 223.85 91.271 224.209 102.39C224.567 113.689 225.105 144.536 229.948 150.634L231.92 151.71C231.92 151.71 280.343 145.791 280.881 138.259C281.419 130.727 281.419 80.8691 284.468 79.793C287.517 78.7169 291.462 74.9507 290.566 70.1085C290.566 70.1085 290.207 64.1901 284.827 63.2934C274.604 61.6793 218.29 70.6465 212.91 78.1789C207.709 85.7113 214.165 91.0916 218.649 91.9884Z" stroke="#37363E" stroke-miterlimit="10" stroke-linecap="round"/>
<path d="M229.947 150.634C230.485 151.351 231.202 151.889 231.92 151.71L229.947 150.634Z" stroke="#37363E" stroke-miterlimit="10"/>
<path d="M164.128 67.5979C165.742 67.7773 166.998 66.7012 167.177 76.7444C167.536 88.4018 168.074 122.836 174.351 121.939L228.513 149.737C223.67 143.64 224.567 113.51 224.208 102.211C223.85 91.0919 223.132 92.8854 218.649 91.8093C214.165 90.7332 207.709 85.5323 213.089 77.9999C218.469 70.4674 274.783 61.5002 285.006 63.1143L224.926 41.5931C224.388 41.2344 223.67 41.0551 222.953 40.8757C213.627 39.441 167.356 48.4082 161.438 54.5058C156.596 59.7068 160.003 67.0599 164.128 67.5979Z" stroke="#37363E" stroke-miterlimit="10" stroke-linecap="round"/>
<path d="M208.785 77.103L170.047 58.272" stroke="#37363E" stroke-miterlimit="10" stroke-linecap="round"/>
<path d="M208.785 80.6901L193.182 72.6196" stroke="#37363E" stroke-miterlimit="10" stroke-linecap="round"/>
<path d="M278.549 110.999C278.549 110.999 278.011 136.824 277.653 137.363C277.294 137.721 276.397 139.335 274.424 139.873" stroke="#37363E" stroke-miterlimit="10" stroke-linecap="round"/>
<path d="M219.546 78.3583C219.546 78.3583 244.833 69.3911 268.686 67.5977" stroke="#37363E" stroke-miterlimit="10" stroke-linecap="round"/>
<path d="M1563.04 115.939C1543.07 114.025 1541.98 108.009 1541.98 108.009C1541.98 108.009 1541.98 108.009 1554.83 92.4226C1563.04 82.5784 1564.13 67.2652 1564.13 57.421C1567.68 57.421 1571.24 56.6007 1574.25 54.96C1574.25 67.5386 1570.69 80.6642 1570.42 81.758C1578.35 68.0856 1586.01 59.8821 1592.29 54.96C1593.39 55.2334 1594.48 55.5069 1595.58 55.5069C1594.48 58.7882 1594.21 62.3431 1594.48 65.8979C1594.76 68.359 1595.3 70.5466 1596.12 72.7342C1597.49 76.5625 1599.68 80.1173 1602.69 82.8518C1576.16 93.2429 1563.04 115.939 1563.04 115.939Z" stroke="#37363E" stroke-miterlimit="10"/>
<path d="M1595.85 72.1878C1589.29 74.9223 1583.54 77.6568 1583.54 77.6568C1587.65 71.9144 1591.47 67.8126 1594.48 65.3516C1594.76 67.8126 1595.3 70.0002 1595.85 72.1878Z" stroke="#37363E" stroke-miterlimit="10"/>
<path d="M1557.29 26.7951C1556.47 27.8889 1555.1 28.1623 1554.01 27.6154C1552.92 27.0685 1552.64 25.4278 1553.19 24.334C1554.01 23.2402 1555.38 22.9668 1556.47 23.5137C1557.57 24.334 1557.84 25.7013 1557.29 26.7951Z" stroke="#37363E" stroke-miterlimit="10"/>
<path d="M1566.04 37.4596C1565.5 38.5534 1564.13 38.8269 1563.04 38.28C1561.94 37.7331 1561.67 36.3658 1562.21 35.272C1562.76 34.1782 1564.13 33.9048 1565.22 34.4517C1566.32 35.272 1566.59 36.6393 1566.04 37.4596Z" stroke="#37363E" stroke-miterlimit="10"/>
<path d="M1582.72 29.8029C1582.18 30.8967 1580.81 31.1701 1579.72 30.6232C1578.62 30.0763 1578.35 28.7091 1578.9 27.6153C1579.44 26.5215 1580.81 26.248 1581.9 26.7949C1583 27.3418 1583.27 28.7091 1582.72 29.8029Z" stroke="#37363E" stroke-miterlimit="10"/>
<path d="M1611.98 45.9362C1611.44 47.03 1610.07 47.3034 1608.97 46.7565C1607.88 46.2096 1607.61 44.8424 1608.15 43.7486C1608.7 42.6548 1610.07 42.3813 1611.16 42.9282C1612.53 43.7486 1612.8 45.1158 1611.98 45.9362Z" stroke="#37363E" stroke-miterlimit="10"/>
<path d="M1599.68 22.1466C1599.13 23.2404 1597.76 23.5139 1596.67 22.967C1595.58 22.4201 1595.3 21.0528 1595.85 19.959C1596.4 18.8652 1597.76 18.5918 1598.86 19.1387C1599.95 19.6856 1600.22 21.0528 1599.68 22.1466Z" stroke="#37363E" stroke-miterlimit="10"/>
<path d="M1586.83 12.8493C1586.28 13.9431 1584.91 14.2165 1583.82 13.6696C1582.72 13.1227 1582.45 11.7555 1583 10.6617C1583.54 9.56788 1584.91 9.29442 1586 9.84132C1587.1 10.3882 1587.37 11.7555 1586.83 12.8493Z" stroke="#37363E" stroke-miterlimit="10"/>
<path d="M1603.51 18.8654C1602.96 19.9592 1601.59 20.2326 1600.5 19.6857C1599.4 19.1388 1599.13 17.7716 1599.68 16.6778C1600.22 15.584 1601.59 15.3105 1602.69 15.8574C1604.05 16.6778 1604.33 18.045 1603.51 18.8654Z" stroke="#37363E" stroke-miterlimit="10"/>
<path d="M1608.15 30.8971C1607.61 31.9909 1606.24 32.2644 1605.15 31.7175C1604.05 31.1706 1603.78 29.8033 1604.33 28.7095C1604.87 27.6157 1606.24 27.3423 1607.33 27.8892C1608.43 28.7095 1608.7 29.8033 1608.15 30.8971Z" stroke="#37363E" stroke-miterlimit="10"/>
<path d="M1566.32 19.9586C1565.77 21.0524 1564.4 21.3259 1563.31 20.779C1562.21 20.2321 1561.94 18.8649 1562.49 17.7711C1563.04 16.6773 1564.4 16.4038 1565.5 16.9507C1566.59 17.4976 1566.86 18.8648 1566.32 19.9586Z" stroke="#37363E" stroke-miterlimit="10"/>
<path d="M1601.04 49.4918C1600.5 50.5856 1599.13 50.8591 1598.04 50.3122C1596.94 49.7653 1596.67 48.398 1597.22 47.3042C1597.76 46.2104 1599.13 45.937 1600.22 46.4839C1601.32 47.3043 1601.59 48.6715 1601.04 49.4918Z" stroke="#37363E" stroke-miterlimit="10"/>
<path d="M1634.68 55.234C1634.13 56.3278 1632.76 56.6013 1631.67 56.0544C1630.58 55.5075 1630.3 54.1402 1630.85 53.0464C1631.4 51.9526 1632.76 51.6792 1633.86 52.2261C1634.95 52.773 1635.23 54.1402 1634.68 55.234Z" stroke="#37363E" stroke-miterlimit="10"/>
<path d="M1595.58 55.2344L1592.29 54.6875C1592.29 54.6875 1581.9 65.6255 1574.25 54.6875" stroke="#37363E" stroke-miterlimit="10"/>
<path d="M1587.1 10.6616C1587.1 10.6616 1590.38 5.19261 1597.22 8.20056C1604.05 10.9351 1601.87 16.404 1601.87 16.404C1601.87 16.404 1607.61 4.37226 1623.74 16.1306C1639.87 27.8889 1630.03 39.6473 1630.03 39.6473C1630.03 39.6473 1638.78 40.7411 1639.6 46.4835C1640.15 52.226 1636.87 54.687 1636.87 54.687C1636.87 54.687 1642.34 59.0622 1643.16 67.2657C1644.8 83.9461 1619.37 104.455 1602.69 82.8523C1586 60.9763 1595.58 55.5073 1595.58 55.5073" stroke="#37363E" stroke-miterlimit="10"/>
<path d="M1564.13 57.1482C1564.13 57.1482 1551 57.1482 1549.09 43.7491C1549.09 43.7491 1534.87 35.2722 1540.61 22.9669C1546.35 10.6617 1558.93 10.3883 1564.13 15.3104C1564.13 15.3104 1566.32 0.270624 1576.71 1.09097C1587.1 1.91132 1586.83 10.3882 1586.83 10.3882" stroke="#37363E" stroke-miterlimit="10"/>
<path d="M100.882 351C100.882 351 64.8344 350.641 63.041 390.994C61.2476 431.346 118.817 426.324 129.219 435.471C133.164 438.878 136.751 439.596 139.979 438.699C145.36 437.444 149.126 432.243 149.305 429.553C149.664 425.428 150.74 417.716 139.441 401.754C128.143 385.972 129.936 354.408 100.882 351Z" stroke="#37363E" stroke-miterlimit="10" stroke-linecap="round"/>
<path d="M139.979 438.878C139.979 438.878 148.587 446.949 152.533 454.302C152.533 454.302 147.87 463.627 155.761 465.78C163.652 467.932 163.652 458.606 163.652 458.606C163.652 458.606 173.157 461.834 173.875 455.378C174.951 446.411 164.728 448.025 164.728 448.025L149.663 431.346C149.663 431.525 149.125 435.471 139.979 438.878Z" stroke="#37363E" stroke-miterlimit="10" stroke-linecap="round"/>
<path d="M73.6222 376.646C73.6222 376.646 68.0626 393.505 75.595 404.086" stroke="#37363E" stroke-miterlimit="10" stroke-linecap="round"/>
<path d="M75.595 393.685C75.595 393.685 78.1058 406.597 86.1763 413.233" stroke="#37363E" stroke-miterlimit="10" stroke-linecap="round"/>
<path d="M96.5786 418.434C96.5786 418.434 104.649 422.2 118.638 424.711C132.627 427.221 133.344 432.96 133.344 432.96" stroke="#37363E" stroke-miterlimit="10" stroke-linecap="round"/>
<path d="M1569.27 611.672C1558.15 613.645 1548.29 629.785 1534.12 582.977C1519.77 535.989 1560.3 518.951 1575.37 533.299C1590.43 547.646 1589.18 544.597 1604.06 548.364C1618.95 551.95 1631.5 575.803 1618.95 591.765C1611.24 601.449 1612.67 607.368 1602.63 612.21C1589.36 618.308 1579.49 609.878 1569.27 611.672Z" stroke="#37363E" stroke-miterlimit="10" stroke-linecap="round"/>
<path d="M1581.82 592.124C1573.93 594.276 1565.5 589.075 1562.99 580.466C1560.48 571.858 1565.15 562.891 1573.04 560.739C1580.93 558.586 1589.36 563.787 1591.87 572.396C1594.2 581.004 1589.72 589.792 1581.82 592.124Z" stroke="#37363E" stroke-miterlimit="10" stroke-linecap="round"/>
<path d="M1566.22 572.396C1566.22 572.396 1564.61 581.183 1570.88 586.205" stroke="#37363E" stroke-miterlimit="10" stroke-linecap="round"/>
<path d="M1576.98 587.998C1576.98 587.998 1585.59 588.178 1587.92 583.515" stroke="#37363E" stroke-miterlimit="10" stroke-linecap="round"/>
<path d="M991.085 584.516C991.085 594.053 983.402 601.736 973.864 601.736C964.326 601.736 956.643 594.053 956.643 584.516C956.643 574.978 964.326 567.295 973.864 567.295C983.402 567.295 991.085 574.978 991.085 584.516Z" stroke="#37363E" stroke-miterlimit="10" stroke-linecap="round"/>
<path d="M1036.39 576.038C1036.39 585.311 1028.71 592.994 1019.43 592.994C1010.16 592.994 1002.48 585.311 1002.48 576.038C1002.48 566.765 1010.16 559.082 1019.43 559.082C1028.71 559.082 1036.39 566.765 1036.39 576.038Z" stroke="#37363E" stroke-miterlimit="10" stroke-linecap="round"/>
<path d="M982.342 519.606C982.342 519.606 993.204 550.074 978.898 567.825" stroke="#37363E" stroke-miterlimit="10" stroke-linecap="round"/>
<path d="M982.342 519.606C1005.66 529.674 1011.22 559.082 1011.22 559.082" stroke="#37363E" stroke-miterlimit="10" stroke-linecap="round"/>
<path d="M953.464 542.391C953.464 542.391 970.155 517.222 982.342 519.607C982.342 519.607 990.82 538.947 953.464 542.391Z" stroke="#37363E" stroke-miterlimit="10" stroke-linecap="round"/>
<path d="M968.3 596.173C968.3 596.173 983.137 601.207 986.316 584.516" stroke="#37363E" stroke-miterlimit="10" stroke-linecap="round"/>
<path d="M1016.78 587.695C1016.78 587.695 1031.62 589.02 1032.15 573.124" stroke="#37363E" stroke-miterlimit="10" stroke-linecap="round"/>
<path d="M1342.75 632.72C1342.75 632.72 1352.09 626.402 1349.07 616.237C1343.3 597.555 1320.49 583.819 1324.62 576.401C1327.64 570.907 1331.48 573.929 1333.68 579.423C1335.88 584.643 1338.08 589.314 1349.07 583.27C1357.86 578.325 1362.8 566.511 1352.91 552.5C1343.3 538.489 1321.59 528.599 1288.9 543.709C1256.21 558.819 1260.88 591.786 1267.2 600.852C1273.52 609.918 1282.86 615.138 1291.65 608.27C1300.44 601.402 1290.82 596.182 1292.2 592.061C1293.57 587.94 1301.54 584.369 1303.19 594.533C1304.29 601.402 1303.46 631.896 1319.12 638.215C1330.38 642.336 1342.75 632.72 1342.75 632.72Z" stroke="#37363E" stroke-miterlimit="10" stroke-linecap="round"/>
<path d="M1333.96 579.423C1333.96 579.423 1328.74 576.401 1327.36 579.973C1326.26 583.544 1327.91 586.017 1327.91 586.017" stroke="#37363E" stroke-miterlimit="10" stroke-linecap="round"/>
<path d="M1303.19 594.533C1303.19 594.533 1300.71 590.137 1296.87 592.885C1293.02 595.632 1295.22 600.852 1295.22 600.852" stroke="#37363E" stroke-miterlimit="10" stroke-linecap="round"/>
<path d="M1284.51 549.753C1284.51 549.753 1266.37 561.566 1267.75 582.445" stroke="#37363E" stroke-miterlimit="10" stroke-linecap="round"/>
<path d="M769.432 211.045C769.432 211.045 777.023 205.91 774.567 197.649C769.878 182.467 751.347 171.304 754.696 165.276C757.152 160.811 760.278 163.266 762.064 167.732C763.85 171.974 765.636 175.769 774.567 170.857C781.712 166.839 785.73 157.238 777.693 145.852C769.878 134.465 752.241 126.428 725.672 138.707C699.103 150.987 702.899 177.779 708.034 185.146C713.169 192.514 720.76 196.756 727.905 191.175C735.049 185.593 727.235 181.351 728.351 178.002C729.467 174.653 735.942 171.751 737.282 180.011C738.175 185.593 737.505 210.375 750.231 215.511C759.385 218.86 769.432 211.045 769.432 211.045Z" stroke="#37363E" stroke-miterlimit="10" stroke-linecap="round"/>
<path d="M762.287 167.732C762.287 167.732 758.045 165.276 756.929 168.178C756.036 171.081 757.375 173.09 757.375 173.09" stroke="#37363E" stroke-miterlimit="10" stroke-linecap="round"/>
<path d="M737.281 180.011C737.281 180.011 735.272 176.439 732.146 178.672C729.021 180.904 730.807 185.146 730.807 185.146" stroke="#37363E" stroke-miterlimit="10" stroke-linecap="round"/>
<path d="M722.1 143.619C722.1 143.619 707.365 153.22 708.481 170.188" stroke="#37363E" stroke-miterlimit="10" stroke-linecap="round"/>
<path d="M770.772 197.649C770.772 197.649 773.004 202.337 765.86 207.919C758.715 213.278 749.561 210.822 749.561 210.822" stroke="#37363E" stroke-miterlimit="10" stroke-linecap="round"/>
<path d="M1026.56 300.381C1026.56 300.381 1033.26 301.214 1033.1 301.714C1032.93 302.38 1031.42 309.543 1031.42 309.543L1023.38 310.042M1024.39 338.028C1024.39 338.028 1033.93 333.53 1034.27 334.363C1034.6 335.362 1038.12 342.192 1038.12 342.192L1028.57 347.523M1055.7 370.511C1055.7 370.511 1058.05 360.183 1059.55 360.849C1061.06 361.515 1066.76 363.348 1066.76 363.348L1065.42 372.676M1090.87 371.677C1090.87 371.677 1089.7 365.014 1090.2 364.514C1090.7 363.848 1095.89 362.515 1095.89 362.515L1099.08 368.678M1112.3 360.516C1089.03 379.672 1055.37 378.34 1035.61 357.018C1015.85 335.696 1017.19 302.213 1038.12 280.725L1112.3 360.516ZM1108.62 356.518C1087.86 369.844 1060.39 367.346 1043.81 349.522C1027.23 331.531 1026.9 304.212 1041.97 284.556L1108.62 356.518ZM1106.11 353.853C1087.52 365.347 1062.57 362.682 1047.16 346.024C1031.92 329.366 1031.09 304.546 1044.15 287.055L1106.11 353.853ZM1049.34 306.878C1048.33 307.877 1046.99 308.21 1046.49 307.711C1045.99 307.211 1046.49 305.878 1047.5 305.045C1048.5 304.046 1049.84 303.713 1050.34 304.212C1050.68 304.546 1050.34 305.878 1049.34 306.878ZM1057.88 341.359C1056.87 342.359 1055.54 342.692 1055.03 342.192C1054.53 341.693 1055.03 340.36 1056.04 339.527C1057.04 338.528 1058.38 338.194 1058.88 338.694C1059.39 339.194 1058.88 340.36 1057.88 341.359ZM1093.38 350.688C1092.38 351.688 1091.04 352.021 1090.53 351.521C1090.03 351.021 1090.53 349.689 1091.54 348.856C1092.54 347.856 1093.88 347.523 1094.39 348.023C1094.89 348.356 1094.55 349.689 1093.38 350.688ZM1070.44 329.698C1069.77 331.031 1068.76 331.697 1068.09 331.364C1067.42 331.031 1067.43 329.698 1067.93 328.532C1068.6 327.2 1069.6 326.533 1070.27 326.867C1070.94 327.2 1070.94 328.366 1070.44 329.698ZM1052.19 322.202C1050.85 322.369 1049.51 322.036 1049.34 321.369C1049.17 320.703 1050.18 319.87 1051.68 319.537C1053.02 319.371 1054.36 319.704 1054.53 320.37C1054.7 321.036 1053.53 322.036 1052.19 322.202ZM1077.14 346.023C1076.97 347.356 1076.13 348.522 1075.3 348.355C1074.63 348.189 1074.12 347.023 1074.46 345.523C1074.63 344.191 1075.46 343.025 1076.3 343.191C1077.14 343.358 1077.47 344.69 1077.14 346.023Z" stroke="#37363E" stroke-miterlimit="10" stroke-linecap="round"/>
</svg>
