<svg width="52" height="42" viewBox="0 0 52 42" fill="none" xmlns="http://www.w3.org/2000/svg">
<path d="M18.8652 40.6629H33.1348M25.9438 31.6741V40.6629M10.3258 19.2022H8.07865C6.16854 19.2022 4.37079 18.4157 3.02247 17.0674C1.67416 15.7191 1 13.9213 1 12.0112V8.41569C1 7.96625 1.22472 7.51681 1.5618 7.17973C1.89888 6.84265 2.34831 6.61794 2.79775 6.61794H9.98876M42.6854 19.2022H43.809C45.7191 19.2022 47.5169 18.4157 48.8652 17.0674C50.2135 15.7191 51 13.9213 51 12.0112V8.41569C51 7.96625 50.7753 7.51681 50.4382 7.17973C50.1011 6.84265 49.6517 6.61794 49.2022 6.61794H42.0112M37.6292 26.6179C34.7079 29.6516 30.6629 31.6741 26.1685 31.6741C24.0337 31.6741 21.8989 31.337 19.9888 30.4382C18.0787 29.6516 16.2809 28.4157 14.7079 26.955C13.2472 25.4943 12.0112 23.6966 11.2247 21.6741C10.4382 19.764 9.98876 17.6292 9.98876 15.4943V1.33704H42.1236M42.1236 1.33704V15.382M42.1236 1.33704V31.6741L39.8764 29.8764L37.6292 31.6741V1.33704M25.9438 18.6404L29.6517 20.8876C29.764 21 29.8764 21 29.9888 21C30.1011 21 30.2135 21 30.3258 20.8876C30.4382 20.7752 30.4382 20.7752 30.5506 20.6629C30.5506 20.5505 30.5506 20.4382 30.5506 20.3258L29.5393 16.0561L32.7977 13.2472C32.9101 13.1348 32.9101 13.0224 33.0225 13.0224C33.0225 12.9101 33.0225 12.7977 33.0225 12.6854C33.0225 12.573 32.9101 12.4606 32.7977 12.4606C32.6854 12.3483 32.573 12.3483 32.4607 12.3483L28.191 11.7865L26.5056 7.74153C26.5056 7.62917 26.3933 7.51681 26.2809 7.51681C26.1685 7.40445 26.0562 7.40445 25.9438 7.40445C25.8315 7.40445 25.7191 7.40445 25.6067 7.51681C25.4944 7.62917 25.4944 7.62917 25.382 7.74153L23.6966 11.7865L19.427 12.1236C19.3146 12.1236 19.2022 12.1236 19.0899 12.2359C18.9775 12.3483 18.9775 12.3483 18.8652 12.4606C18.8652 12.573 18.8652 12.6854 18.8652 12.7977C18.8652 12.9101 18.9775 13.0224 19.0899 13.0224L22.3483 15.8314L21.4494 20.2134C21.4494 20.3258 21.4494 20.4382 21.4494 20.5505C21.4494 20.6629 21.5618 20.7752 21.6742 20.7752C21.7865 20.8876 21.8989 20.8876 22.0112 20.8876C22.1236 20.8876 22.236 20.8876 22.3483 20.7752L25.9438 18.6404Z" stroke="#23222A" stroke-width="2" stroke-linecap="round" stroke-linejoin="round"/>
</svg>
