<svg width="53" height="38" viewBox="0 0 53 38" fill="none" xmlns="http://www.w3.org/2000/svg">
<path d="M51.4751 20.7858C50.2287 19.1213 48.6113 17.7704 46.7513 16.8405C44.8914 15.9105 42.8403 15.4271 40.7608 15.4287C42.0966 15.428 43.4055 15.0527 44.5387 14.3456C45.672 13.6384 46.5842 12.6276 47.1718 11.428C47.7594 10.2284 47.9989 8.88801 47.863 7.55914C47.7271 6.23027 47.2213 4.96613 46.403 3.91029C45.5848 2.85445 44.4868 2.04923 43.2339 1.58606C41.9809 1.12289 40.6232 1.02035 39.3149 1.29007C38.0067 1.55979 36.8002 2.19097 35.8326 3.11193C34.8651 4.03288 34.1751 5.2067 33.8412 6.50009M1.4751 20.7858C2.72152 19.1213 4.33894 17.7704 6.19885 16.8405C8.05877 15.9105 10.1099 15.4271 12.1894 15.4287C10.8536 15.428 9.54473 15.0527 8.41149 14.3456C7.27824 13.6384 6.366 12.6276 5.77838 11.428C5.19075 10.2284 4.95129 8.88801 5.08719 7.55914C5.22308 6.23027 5.72889 4.96613 6.54716 3.91029C7.36544 2.85445 8.46339 2.04923 9.71632 1.58606C10.9693 1.12289 12.327 1.02035 13.6352 1.29007C14.9435 1.55979 16.15 2.19097 17.1176 3.11193C18.0851 4.03288 18.7751 5.2067 19.109 6.50009M26.4751 29.7144C31.4062 29.7144 35.4037 25.7169 35.4037 20.7858C35.4037 15.8547 31.4062 11.8572 26.4751 11.8572C21.544 11.8572 17.5465 15.8547 17.5465 20.7858C17.5465 25.7169 21.544 29.7144 26.4751 29.7144ZM26.4751 29.7144C23.9502 29.7144 21.4689 30.3733 19.2767 31.626C17.0844 32.8787 15.257 34.6819 13.9751 36.8572M26.4751 29.7144C29 29.7144 31.4813 30.3733 33.6735 31.626C35.8658 32.8787 37.6932 34.6819 38.9751 36.8572" stroke="#23222A" stroke-width="2" stroke-linecap="round" stroke-linejoin="round"/>
</svg>
