<svg width="52" height="48" viewBox="0 0 52 48" fill="none" xmlns="http://www.w3.org/2000/svg">
<path d="M40.8636 37.3529V46.0274L44.7622 43.7856L48.6608 46.0274V36.7681M22.9298 31.2125C31.0195 31.2125 37.5497 24.6823 37.5497 16.5927C37.5497 8.50299 31.0195 1.97278 22.9298 1.97278C14.8402 1.97278 8.30994 8.50299 8.30994 16.5927C8.21248 24.5849 14.8402 31.2125 22.9298 31.2125ZM22.9298 31.2125C13.4756 31.2125 5.38596 36.3782 1 43.9806M22.9298 31.2125C27.9981 31.2125 32.6764 32.6745 36.5751 35.3061M51 31.8948C51 35.3061 48.271 38.0352 44.8596 38.0352C41.4483 38.0352 38.7193 35.3061 38.7193 31.8948C38.7193 28.4835 41.4483 25.7545 44.8596 25.7545C48.271 25.7545 51 28.4835 51 31.8948Z" stroke="#23222A" stroke-width="2" stroke-linecap="round" stroke-linejoin="round"/>
</svg>
