<svg width="25" height="26" viewBox="0 0 25 26" fill="none" xmlns="http://www.w3.org/2000/svg">
<path d="M24.9967 13.7005C24.7923 16.0768 23.9135 18.3453 22.4636 20.2391C21.0138 22.1328 19.0532 23.5732 16.8126 24.3905C14.5719 25.2079 12.1445 25.3684 9.81574 24.853C7.48702 24.3376 5.35393 23.1679 3.66743 21.4814C1.98094 19.7949 0.811192 17.6618 0.29582 15.3331C-0.219552 13.0043 -0.0591109 10.5769 0.758268 8.33624C1.57565 6.0956 3.01596 4.13502 4.90975 2.68516C6.80354 1.2353 9.07203 0.356472 11.4483 0.152072C11.5747 0.141649 11.7018 0.156213 11.8225 0.194932C11.9432 0.233651 12.0551 0.295767 12.1519 0.377733C12.2486 0.4597 12.3282 0.559912 12.3862 0.672647C12.4441 0.785383 12.4793 0.908434 12.4898 1.03478C12.5002 1.16112 12.4856 1.28827 12.4469 1.40899C12.4082 1.5297 12.3461 1.6416 12.2641 1.73831C12.1821 1.83502 12.0819 1.91464 11.9692 1.97261C11.8565 2.03059 11.7334 2.0658 11.6071 2.07622C9.59583 2.24903 7.67579 2.99268 6.07286 4.21968C4.46993 5.44668 3.2508 7.10598 2.5589 9.00234C1.86701 10.8987 1.73114 12.9532 2.16729 14.9242C2.60344 16.8952 3.59345 18.7006 5.02085 20.128C6.44824 21.5554 8.25363 22.5454 10.2246 22.9815C12.1956 23.4177 14.2501 23.2818 16.1465 22.5899C18.0428 21.898 19.7021 20.6789 20.9291 19.0759C22.1561 17.473 22.8998 15.553 23.0726 13.5417C23.0936 13.2866 23.2152 13.0502 23.4105 12.8847C23.6058 12.7192 23.8589 12.638 24.114 12.659C24.3692 12.6801 24.6055 12.8016 24.7711 12.9969C24.9366 13.1923 25.0178 13.4453 24.9967 13.7005ZM16.3381 3.0383C16.6235 3.0383 16.9025 2.95366 17.1398 2.79509C17.3771 2.63652 17.5621 2.41113 17.6713 2.14744C17.7805 1.88374 17.8091 1.59358 17.7534 1.31365C17.6978 1.03371 17.5603 0.776573 17.3585 0.57475C17.1567 0.372927 16.8995 0.235484 16.6196 0.179801C16.3397 0.124119 16.0495 0.152697 15.7858 0.261923C15.5221 0.371148 15.2967 0.556115 15.1382 0.793434C14.9796 1.03075 14.895 1.30976 14.895 1.59518C14.895 1.97792 15.047 2.34498 15.3176 2.61562C15.5883 2.88625 15.9553 3.0383 16.3381 3.0383ZM20.6674 5.92452C20.9528 5.92452 21.2318 5.83988 21.4691 5.68131C21.7065 5.52274 21.8914 5.29736 22.0007 5.03366C22.1099 4.76997 22.1385 4.47981 22.0828 4.19987C22.0271 3.91993 21.8897 3.6628 21.6878 3.46097C21.486 3.25915 21.2289 3.12171 20.9489 3.06602C20.669 3.01034 20.3788 3.03892 20.1151 3.14815C19.8514 3.25737 19.6261 3.44234 19.4675 3.67966C19.3089 3.91698 19.2243 4.19599 19.2243 4.48141C19.2243 4.86414 19.3763 5.2312 19.647 5.50184C19.9176 5.77248 20.2847 5.92452 20.6674 5.92452ZM23.5536 10.2539C23.839 10.2539 24.1181 10.1692 24.3554 10.0106C24.5927 9.85207 24.7777 9.62669 24.8869 9.363C24.9961 9.0993 25.0247 8.80914 24.969 8.5292C24.9133 8.24927 24.7759 7.99213 24.5741 7.79031C24.3722 7.58848 24.1151 7.45104 23.8352 7.39536C23.5552 7.33968 23.2651 7.36825 23.0014 7.47748C22.7377 7.58671 22.5123 7.77167 22.3537 8.00899C22.1951 8.24631 22.1105 8.52532 22.1105 8.81074C22.1105 9.19348 22.2626 9.56054 22.5332 9.83117C22.8038 10.1018 23.1709 10.2539 23.5536 10.2539ZM12.4898 4.00037C14.2023 4.00037 15.8764 4.50819 17.3003 5.45962C18.7242 6.41105 19.834 7.76334 20.4893 9.34551C21.1447 10.9277 21.3162 12.6686 20.9821 14.3483C20.648 16.0279 19.8233 17.5707 18.6124 18.7816C17.4014 19.9926 15.8586 20.8172 14.179 21.1513C12.4994 21.4854 10.7584 21.314 9.17624 20.6586C7.59407 20.0033 6.24177 18.8934 5.29034 17.4695C4.33892 16.0456 3.8311 14.3716 3.8311 12.659C3.83364 10.3634 4.74671 8.16251 6.36997 6.53925C7.99324 4.91598 10.1941 4.00292 12.4898 4.00037ZM11.5277 12.659C11.5277 12.9142 11.6291 13.1589 11.8095 13.3393C11.9899 13.5198 12.2346 13.6211 12.4898 13.6211H18.2622C18.5174 13.6211 18.7621 13.5198 18.9425 13.3393C19.1229 13.1589 19.2243 12.9142 19.2243 12.659C19.2243 12.4039 19.1229 12.1592 18.9425 11.9787C18.7621 11.7983 18.5174 11.697 18.2622 11.697H13.4518V6.88659C13.4518 6.63143 13.3505 6.38673 13.1701 6.2063C12.9896 6.02588 12.7449 5.92452 12.4898 5.92452C12.2346 5.92452 11.9899 6.02588 11.8095 6.2063C11.6291 6.38673 11.5277 6.63143 11.5277 6.88659V12.659Z" fill="#FB5629"/>
</svg>
