<svg width="24" height="25" viewBox="0 0 24 25" fill="none" xmlns="http://www.w3.org/2000/svg">
<path d="M11.9987 0.125C10.3835 0.12691 8.78521 0.454466 7.29951 1.08808C5.81382 1.72169 4.47119 2.64835 3.3519 3.81264C2.23262 4.97693 1.35968 6.35493 0.785274 7.86425C0.210872 9.37357 -0.0531928 10.9832 0.00887228 12.5969C0.251207 18.9078 5.43255 23.9958 11.7563 24.1227C13.8755 24.164 15.9677 23.6434 17.8203 22.6139C19.673 21.5845 21.2198 20.0828 22.3037 18.2617C22.349 18.1861 22.3717 18.099 22.3691 18.0108C22.3665 17.9226 22.3386 17.837 22.2888 17.7641C22.2391 17.6913 22.1694 17.6342 22.0882 17.5997C22.007 17.5652 21.9175 17.5547 21.8305 17.5695C21.48 17.6314 21.1248 17.6623 20.7689 17.6618C18.6571 17.6618 17.48 16.7388 16.8569 15.9658C16.713 15.7828 16.5819 15.59 16.4645 15.3889C15.9059 16.1541 15.1602 16.7632 14.2989 17.158C13.4375 17.5528 12.4893 17.7201 11.5448 17.6438C10.6003 17.5676 9.69117 17.2504 8.90433 16.7225C8.11749 16.1947 7.47925 15.4738 7.05062 14.6289C6.622 13.784 6.41733 12.8433 6.45618 11.8968C6.49503 10.9502 6.77611 10.0294 7.27254 9.22251C7.76896 8.41557 8.46414 7.74945 9.29159 7.28783C10.119 6.82622 11.0511 6.58455 11.9987 6.58593C13.3636 6.58176 14.6807 7.08793 15.6914 8.00502V7.54353C15.6876 7.30402 15.7748 7.07199 15.9354 6.89426C16.0961 6.71654 16.3181 6.60634 16.5569 6.58593C16.6829 6.57804 16.8091 6.59607 16.9279 6.63891C17.0466 6.68175 17.1553 6.74848 17.2473 6.83499C17.3392 6.9215 17.4124 7.02593 17.4624 7.14185C17.5123 7.25777 17.538 7.3827 17.5377 7.50891V12.1239C17.5377 13.8083 18.1032 15.8158 20.7689 15.8158C23.4346 15.8158 23.9538 13.9468 24 12.2969V12.1239C23.9969 8.9425 22.7315 5.89232 20.4815 3.64276C18.2315 1.3932 15.1807 0.128055 11.9987 0.125Z" fill="#FB5629"/>
<path d="M12 16.125C14.2091 16.125 16 14.3341 16 12.125C16 9.91586 14.2091 8.125 12 8.125C9.79086 8.125 8 9.91586 8 12.125C8 14.3341 9.79086 16.125 12 16.125Z" fill="#FB5629"/>
</svg>
