<svg width="26" height="24" viewBox="0 0 26 24" fill="none" xmlns="http://www.w3.org/2000/svg">
<path d="M25.8569 16.7863C25.8569 20.3734 22.9769 23.2792 19.3897 23.292H6.63544C3.06115 23.292 0.142578 20.3992 0.142578 16.812V16.7992C0.142578 16.7992 0.150292 11.1086 0.160578 8.24658C0.161864 7.70916 0.779007 7.4083 1.19944 7.74258C4.25429 10.1662 9.71729 14.5852 9.78544 14.643C10.6983 15.3746 11.8554 15.7873 13.0383 15.7873C14.2212 15.7873 15.3783 15.3746 16.2912 14.6289C16.3593 14.5839 21.7002 10.2973 24.8013 7.83387C25.223 7.4983 25.8427 7.79915 25.844 8.3353C25.8569 11.1754 25.8569 16.7863 25.8569 16.7863Z" fill="#23222A"/>
<path d="M25.183 3.58644C24.0696 1.48815 21.8787 0.148438 19.4667 0.148438H6.63529C4.22329 0.148438 2.03243 1.48815 0.919 3.58644C0.669571 4.05572 0.787857 4.64072 1.20314 4.97244L10.7496 12.6083C11.4181 13.1483 12.2281 13.417 13.0381 13.417C13.0433 13.417 13.0471 13.417 13.051 13.417C13.0549 13.417 13.06 13.417 13.0639 13.417C13.8739 13.417 14.6839 13.1483 15.3524 12.6083L24.8989 4.97244C25.3141 4.64072 25.4324 4.05572 25.183 3.58644Z" fill="#23222A"/>
</svg>
