<svg width="23" height="29" viewBox="0 0 23 29" fill="none" xmlns="http://www.w3.org/2000/svg">
<path d="M20.3636 26.125H14.0636C15.1262 25.1991 16.1253 24.2052 17.0545 23.15C20.5545 19.2125 22.4 15.05 22.4 11.125C22.4 8.20762 21.22 5.40973 19.1196 3.34683C17.0192 1.28393 14.1704 0.125 11.2 0.125C8.22958 0.125 5.38081 1.28393 3.2804 3.34683C1.18 5.40973 0 8.20762 0 11.125C0 15.05 1.84545 19.2125 5.34545 23.15C6.27468 24.2052 7.27382 25.1991 8.33636 26.125H2.03636C1.76632 26.125 1.50735 26.2304 1.3164 26.4179C1.12545 26.6054 1.01818 26.8598 1.01818 27.125C1.01818 27.3902 1.12545 27.6446 1.3164 27.8321C1.50735 28.0196 1.76632 28.125 2.03636 28.125H20.3636C20.6337 28.125 20.8927 28.0196 21.0836 27.8321C21.2745 27.6446 21.3818 27.3902 21.3818 27.125C21.3818 26.8598 21.2745 26.6054 21.0836 26.4179C20.8927 26.2304 20.6337 26.125 20.3636 26.125ZM11.2 7.125C12.0055 7.125 12.7929 7.3596 13.4627 7.79912C14.1324 8.23865 14.6545 8.86336 14.9627 9.59427C15.271 10.3252 15.3516 11.1294 15.1945 11.9054C15.0373 12.6813 14.6494 13.394 14.0799 13.9534C13.5103 14.5128 12.7846 14.8938 11.9945 15.0481C11.2045 15.2025 10.3856 15.1233 9.64143 14.8205C8.89724 14.5178 8.26117 14.0051 7.81365 13.3473C7.36613 12.6895 7.12727 11.9161 7.12727 11.125C7.12727 10.0641 7.55636 9.04672 8.32015 8.29657C9.08393 7.54643 10.1198 7.125 11.2 7.125Z" fill="#29AF66"/>
</svg>
