<svg width="178" height="185" viewBox="0 0 178 185" fill="none" xmlns="http://www.w3.org/2000/svg">
<path d="M82.622 5.5845C85.8761 1.46473 92.1239 1.46474 95.378 5.58451L107.511 20.9458C109.546 23.5211 112.929 24.6204 116.088 23.7326L134.933 18.4369C139.988 17.0166 145.042 20.689 145.253 25.9346L146.04 45.4941C146.172 48.7731 148.263 51.6511 151.341 52.7899L169.7 59.5826C174.624 61.4043 176.554 67.3463 173.642 71.7142L162.782 88.0007C160.961 90.7311 160.961 94.2885 162.782 97.0188L173.642 113.305C176.554 117.673 174.624 123.615 169.7 125.437L151.341 132.23C148.263 133.368 146.172 136.246 146.04 139.525L145.253 159.085C145.042 164.331 139.988 168.003 134.933 166.583L116.088 161.287C112.929 160.399 109.546 161.498 107.511 164.074L95.378 179.435C92.1239 183.555 85.8761 183.555 82.622 179.435L70.4886 164.074C68.4544 161.498 65.0712 160.399 61.9118 161.287L43.0665 166.583C38.0124 168.003 32.9578 164.331 32.7467 159.085L31.9597 139.525C31.8278 136.246 29.7368 133.368 26.659 132.23L8.30007 125.437C3.37637 123.615 1.44569 117.673 4.35826 113.305L15.2183 97.0188C17.0389 94.2885 17.0389 90.7311 15.2183 88.0007L4.35825 71.7142C1.44569 67.3463 3.37637 61.4043 8.30007 59.5826L26.659 52.7899C29.7368 51.6511 31.8278 48.7731 31.9597 45.494L32.7467 25.9346C32.9578 20.689 38.0124 17.0166 43.0665 18.4369L61.9118 23.7326C65.0712 24.6204 68.4544 23.5211 70.4886 20.9458L82.622 5.5845Z" fill="#FFCE53" stroke="white" stroke-width="4"/>
</svg>
