<svg width="141" height="148" viewBox="0 0 141 148" fill="none" xmlns="http://www.w3.org/2000/svg">
<path d="M65.671 3.12587C67.9917 0.187761 72.4475 0.187765 74.7682 3.12587L85.5688 16.7998C87.0195 18.6364 89.4323 19.4204 91.6855 18.7872L108.461 14.0732C112.065 13.0603 115.67 15.6794 115.82 19.4204L116.521 36.8313C116.615 39.1698 118.106 41.2223 120.301 42.0345L136.644 48.081C140.155 49.3802 141.532 53.6179 139.455 56.733L129.788 71.2304C128.489 73.1776 128.489 75.7147 129.788 77.6619L139.455 92.1593C141.532 95.2744 140.155 99.5121 136.644 100.811L120.301 106.858C118.106 107.67 116.615 109.722 116.521 112.061L115.82 129.472C115.67 133.213 112.065 135.832 108.461 134.819L91.6855 130.105C89.4323 129.472 87.0195 130.256 85.5688 132.093L74.7682 145.766C72.4475 148.705 67.9917 148.705 65.671 145.766L54.8704 132.093C53.4197 130.256 51.0068 129.472 48.7537 130.105L31.9785 134.819C28.374 135.832 24.7692 133.213 24.6187 129.472L23.9181 112.061C23.824 109.722 22.3328 107.67 20.1378 106.858L3.79557 100.811C0.284118 99.5121 -1.09279 95.2744 0.984375 92.1593L10.6515 77.6619C11.9499 75.7147 11.9499 73.1776 10.6515 71.2304L0.984373 56.7329C-1.09279 53.6179 0.284124 49.3802 3.79557 48.081L20.1378 42.0345C22.3328 41.2223 23.824 39.1698 23.9181 36.8313L24.6187 19.4204C24.7692 15.6794 28.374 13.0603 31.9785 14.0732L48.7537 18.7872C51.0068 19.4204 53.4197 18.6364 54.8704 16.7998L65.671 3.12587Z" fill="#FFCE53"/>
</svg>
