<svg width="202" height="211" viewBox="0 0 202 211" fill="none" xmlns="http://www.w3.org/2000/svg">
<path d="M94.701 5.57963C97.955 1.45986 104.203 1.45985 107.457 5.57962L122.601 24.753C124.636 27.3282 128.019 28.4275 131.178 27.5397L154.7 20.9298C159.754 19.5096 164.809 23.182 165.02 28.4276L166.002 52.8408C166.134 56.1199 168.225 58.9979 171.303 60.1367L194.218 68.615C199.141 70.4367 201.072 76.3788 198.16 80.7467L184.604 101.075C182.784 103.805 182.784 107.363 184.604 110.093L198.16 130.421C201.072 134.789 199.141 140.731 194.218 142.553L171.303 151.031C168.225 152.17 166.134 155.048 166.002 158.327L165.02 182.74C164.809 187.986 159.754 191.658 154.7 190.238L131.178 183.628C128.019 182.74 124.636 183.839 122.601 186.415L107.457 205.588C104.203 209.708 97.955 209.708 94.701 205.588L79.5565 186.415C77.5224 183.839 74.1391 182.74 70.9798 183.628L47.4579 190.238C42.4037 191.658 37.3491 187.986 37.1381 182.74L36.1557 158.327C36.0238 155.048 33.9328 152.17 30.855 151.031L7.94022 142.553C3.01652 140.731 1.08582 134.789 3.99839 130.421L17.5534 110.093C19.3741 107.363 19.3741 103.805 17.5534 101.075L3.9984 80.7467C1.08583 76.3788 3.01651 70.4367 7.94021 68.615L30.855 60.1367C33.9328 58.9979 36.0238 56.1199 36.1557 52.8408L37.138 28.4276C37.3491 23.182 42.4037 19.5096 47.4579 20.9298L70.9798 27.5397C74.1391 28.4275 77.5224 27.3282 79.5565 24.753L94.701 5.57963Z" fill="#FFCE53" stroke="white" stroke-width="4"/>
</svg>
