<svg width="37" height="34" viewBox="0 0 37 34" fill="none" xmlns="http://www.w3.org/2000/svg">
<path d="M1 25.7464L8.40385 23.0541L15.1346 25.7464L21.8654 23.0541L28.5962 25.7464L36 23.0541M1 17.6695H36M31.9615 24.5231V27.0925C31.9615 28.5206 31.3942 29.8902 30.3844 30.9C29.3746 31.9099 28.005 32.4772 26.5769 32.4772H10.4231C8.99499 32.4772 7.62539 31.9099 6.61558 30.9C5.60577 29.8902 5.03846 28.5206 5.03846 27.0925V24.2774M5.05024 12.2849C4.84779 12.2868 4.64751 12.2431 4.4643 12.1569C4.2811 12.0707 4.11969 11.9443 3.99209 11.7872C3.8645 11.63 3.774 11.446 3.72734 11.249C3.68068 11.052 3.67906 10.847 3.7226 10.6493C4.81635 5.47837 11.0154 1.51562 18.5 1.51562C25.9846 1.51562 32.1837 5.47837 33.2774 10.6493C33.3209 10.847 33.3193 11.052 33.2727 11.249C33.226 11.446 33.1355 11.63 33.0079 11.7872C32.8803 11.9443 32.7189 12.0707 32.5357 12.1569C32.3525 12.2431 32.1522 12.2868 31.9498 12.2849H5.05024Z" stroke="#23222A" stroke-width="2" stroke-linecap="round" stroke-linejoin="round"/>
</svg>
