<svg width="38" height="39" viewBox="0 0 38 39" fill="none" xmlns="http://www.w3.org/2000/svg">
<path d="M1.84192 35.7923H0.841919H1.84192ZM23.0919 29.5423V30.5423H23.2054L23.3161 30.5169L23.0919 29.5423ZM33.5607 27.1345L33.7848 28.1091L33.805 28.1044L33.825 28.0989L33.5607 27.1345ZM36.8419 29.6345L37.8419 29.6341V29.6333L36.8419 29.6345ZM35.4075 31.9548L35.7999 32.8746L35.8274 32.8629L35.8542 32.8495L35.4075 31.9548ZM29.3419 34.5423L29.5845 35.5124L29.6614 35.4932L29.7343 35.4621L29.3419 34.5423ZM19.3419 37.0423V38.0423H19.465L19.5845 38.0124L19.3419 37.0423ZM11.9982 24.3861L11.2923 23.6777L11.2911 23.679L11.9982 24.3861ZM14.6544 23.2923L14.652 24.2923H14.6544V23.2923ZM10.2507 19.7445C10.2507 20.2968 10.6984 20.7445 11.2507 20.7445C11.803 20.7445 12.2507 20.2968 12.2507 19.7445H10.2507ZM21.5202 7.50833V6.50833V7.50833ZM30.7897 19.7445C30.7897 20.2968 31.2374 20.7445 31.7897 20.7445C32.342 20.7445 32.7897 20.2968 32.7897 19.7445H30.7897ZM9.66375 18.7445C9.11147 18.7445 8.66375 19.1922 8.66375 19.7445C8.66375 20.2968 9.11147 20.7445 9.66375 20.7445V18.7445ZM33.3766 20.7445C33.9289 20.7445 34.3766 20.2968 34.3766 19.7445C34.3766 19.1922 33.9289 18.7445 33.3766 18.7445V20.7445ZM8.09192 36.0423H3.09192V38.0423H8.09192V36.0423ZM3.09192 36.0423C3.0256 36.0423 2.96202 36.016 2.91514 35.9691L1.50093 37.3833C1.92289 37.8053 2.49519 38.0423 3.09192 38.0423V36.0423ZM2.91514 35.9691C2.86826 35.9222 2.84192 35.8586 2.84192 35.7923H0.841919C0.841919 36.389 1.07897 36.9613 1.50093 37.3833L2.91514 35.9691ZM2.84192 35.7923V29.5423H0.841919V35.7923H2.84192ZM2.84192 29.5423C2.84192 29.476 2.86826 29.4124 2.91514 29.3655L1.50093 27.9513C1.07897 28.3733 0.841919 28.9456 0.841919 29.5423H2.84192ZM2.91514 29.3655C2.96202 29.3186 3.02561 29.2923 3.09192 29.2923V27.2923C2.49518 27.2923 1.92289 27.5294 1.50093 27.9513L2.91514 29.3655ZM3.09192 29.2923H8.09192V27.2923H3.09192V29.2923ZM18.0919 30.5423H23.0919V28.5423H18.0919V30.5423ZM23.3161 30.5169L33.7848 28.1091L33.3365 26.1599L22.8678 28.5678L23.3161 30.5169ZM33.825 28.0989C34.0616 28.0341 34.3099 28.0247 34.5507 28.0715L34.932 26.1081C34.3893 26.0027 33.8296 26.0239 33.2964 26.1701L33.825 28.0989ZM34.5507 28.0715C34.7915 28.1182 35.0183 28.2199 35.2134 28.3686L36.4255 26.7777C35.9858 26.4426 35.4747 26.2135 34.932 26.1081L34.5507 28.0715ZM35.2134 28.3686C35.4086 28.5172 35.5668 28.7089 35.6758 28.9287L37.4675 28.04C37.2218 27.5447 36.8653 27.1127 36.4255 26.7777L35.2134 28.3686ZM35.6758 28.9287C35.7848 29.1484 35.8416 29.3904 35.8419 29.6357L37.8419 29.6333C37.8413 29.0805 37.7131 28.5352 37.4675 28.04L35.6758 28.9287ZM35.8419 29.6349C35.842 29.9309 35.7597 30.221 35.604 30.4728L37.3052 31.5244C37.6563 30.9564 37.8422 30.3018 37.8419 29.6341L35.8419 29.6349ZM35.604 30.4728C35.4484 30.7245 35.2257 30.9279 34.9609 31.0601L35.8542 32.8495C36.4516 32.5513 36.9541 32.0924 37.3052 31.5244L35.604 30.4728ZM35.0152 31.035L28.9495 33.6225L29.7343 35.4621L35.7999 32.8746L35.0152 31.035ZM29.0994 33.5722L19.0994 36.0722L19.5845 38.0124L29.5845 35.5124L29.0994 33.5722ZM19.3419 36.0423H8.09192V38.0423H19.3419V36.0423ZM9.09192 37.0423V28.2923H7.09192V37.0423H9.09192ZM8.79903 28.9994L12.7053 25.0932L11.2911 23.679L7.38481 27.5852L8.79903 28.9994ZM12.7041 25.0944C12.9601 24.8392 13.2639 24.6371 13.5982 24.4994L12.8367 22.6501C12.2593 22.8878 11.7345 23.237 11.2923 23.6777L12.7041 25.0944ZM13.5982 24.4994C13.9324 24.3618 14.2905 24.2914 14.652 24.2923L14.6569 22.2923C14.0325 22.2908 13.414 22.4124 12.8367 22.6501L13.5982 24.4994ZM14.6544 24.2923H22.4669V22.2923H14.6544V24.2923ZM22.4669 24.2923C23.0305 24.2923 23.571 24.5162 23.9695 24.9147L25.3837 23.5005C24.6101 22.7269 23.5609 22.2923 22.4669 22.2923V24.2923ZM23.9695 24.9147C24.368 25.3132 24.5919 25.8537 24.5919 26.4173H26.5919C26.5919 25.3233 26.1573 24.2741 25.3837 23.5005L23.9695 24.9147ZM24.5919 26.4173C24.5919 26.9809 24.368 27.5214 23.9695 27.9199L25.3837 29.3341C26.1573 28.5605 26.5919 27.5113 26.5919 26.4173H24.5919ZM23.9695 27.9199C23.571 28.3184 23.0305 28.5423 22.4669 28.5423V30.5423C23.5609 30.5423 24.6101 30.1077 25.3837 29.3341L23.9695 27.9199ZM22.4669 28.5423H18.0919V30.5423H22.4669V28.5423ZM12.2507 19.7445V17.1225H10.2507V19.7445H12.2507ZM12.2507 17.1225C12.2507 14.8599 13.2101 12.6756 14.942 11.0543L13.5751 9.59423C11.4551 11.5789 10.2507 14.2853 10.2507 17.1225H12.2507ZM14.942 11.0543C16.6761 9.43085 19.0413 8.50833 21.5202 8.50833V6.50833C18.5518 6.50833 15.6929 7.61164 13.5751 9.59423L14.942 11.0543ZM21.5202 8.50833C23.9991 8.50833 26.3643 9.43085 28.0984 11.0543L29.4653 9.59423C27.3475 7.61164 24.4886 6.50833 21.5202 6.50833V8.50833ZM28.0984 11.0543C29.8303 12.6756 30.7897 14.8599 30.7897 17.1225H32.7897C32.7897 14.2853 31.5853 11.5789 29.4653 9.59423L28.0984 11.0543ZM30.7897 17.1225V19.7445H32.7897V17.1225H30.7897ZM22.2794 3.46448C22.2794 3.88375 21.9395 4.22363 21.5202 4.22363V6.22363C23.044 6.22363 24.2794 4.98832 24.2794 3.46448H22.2794ZM21.5202 4.22363C21.1009 4.22363 20.761 3.88375 20.761 3.46448H18.761C18.761 4.98832 19.9964 6.22363 21.5202 6.22363V4.22363ZM20.761 3.46448C20.761 3.04521 21.1009 2.70532 21.5202 2.70532V0.705322C19.9964 0.705322 18.761 1.94064 18.761 3.46448H20.761ZM21.5202 2.70532C21.9395 2.70532 22.2794 3.04521 22.2794 3.46448H24.2794C24.2794 1.94064 23.044 0.705322 21.5202 0.705322V2.70532ZM9.66375 20.7445H33.3766V18.7445H9.66375V20.7445Z" fill="#030406"/>
</svg>
