<svg width="37" height="37" viewBox="0 0 37 37" fill="none" xmlns="http://www.w3.org/2000/svg">
<path d="M24.4 13.6L13.6 24.4M6.12548 30.8745C4.5774 29.3264 5.60385 26.0738 4.81635 24.169C3.99856 22.2019 1 20.6034 1 18.5C1 16.3966 3.99856 14.7981 4.81635 12.831C5.60385 10.9279 4.5774 7.67356 6.12548 6.12548C7.67356 4.5774 10.9279 5.60385 12.831 4.81635C14.8065 3.99856 16.3966 1 18.5 1C20.6034 1 22.2019 3.99856 24.169 4.81635C26.0738 5.60385 29.3264 4.5774 30.8745 6.12548C32.4226 7.67356 31.3962 10.9262 32.1837 12.831C33.0014 14.8065 36 16.3966 36 18.5C36 20.6034 33.0014 22.2019 32.1837 24.169C31.3962 26.0738 32.4226 29.3264 30.8745 30.8745C29.3264 32.4226 26.0738 31.3962 24.169 32.1837C22.2019 33.0014 20.6034 36 18.5 36C16.3966 36 14.7981 33.0014 12.831 32.1837C10.9279 31.3962 7.67356 32.4226 6.12548 30.8745ZM17.2 15.1C17.2 16.2598 16.2598 17.2 15.1 17.2C13.9402 17.2 13 16.2598 13 15.1C13 13.9402 13.9402 13 15.1 13C16.2598 13 17.2 13.9402 17.2 15.1ZM25 22.9C25 24.0598 24.0598 25 22.9 25C21.7402 25 20.8 24.0598 20.8 22.9C20.8 21.7402 21.7402 20.8 22.9 20.8C24.0598 20.8 25 21.7402 25 22.9Z" stroke="#23222A" stroke-width="2" stroke-linecap="round" stroke-linejoin="round"/>
</svg>
