<svg width="103" height="103" viewBox="0 0 103 103" fill="none" xmlns="http://www.w3.org/2000/svg">
<path d="M48.374 1.95906C49.9475 0.324762 52.5637 0.324761 54.1371 1.95906L59.9439 7.9904C61.013 9.10084 62.625 9.49816 64.0877 9.01175L72.0323 6.36981C74.185 5.65393 76.5015 6.86975 77.1353 9.04807L79.474 17.0871C79.9046 18.5672 81.1473 19.6681 82.6685 19.9172L90.9308 21.2699C93.1697 21.6364 94.6558 23.7895 94.2047 26.0128L92.5396 34.2179C92.233 35.7286 92.8218 37.2809 94.053 38.2084L100.74 43.2458C102.552 44.6108 102.868 47.208 101.435 48.9669L96.1475 55.4584C95.174 56.6535 94.9739 58.3017 95.6331 59.6951L99.2134 67.2632C100.184 69.314 99.2558 71.7602 97.1697 72.6518L89.4712 75.9426C88.0538 76.5484 87.1107 77.9148 87.0468 79.4549L86.6999 87.82C86.6059 90.0867 84.6476 91.8216 82.3861 91.6417L74.0402 90.9778C72.5036 90.8555 71.0335 91.6271 70.2612 92.9611L66.0666 100.207C64.93 102.17 62.3898 102.796 60.4709 101.586L53.3895 97.1196C52.0857 96.2973 50.4254 96.2973 49.1217 97.1196L42.0402 101.586C40.1214 102.796 37.5812 102.17 36.4446 100.207L32.2499 92.9611C31.4776 91.6271 30.0075 90.8555 28.471 90.9778L20.125 91.6417C17.8635 91.8216 15.9053 90.0867 15.8113 87.82L15.4643 79.4549C15.4005 77.9148 14.4573 76.5484 13.0399 75.9426L5.34143 72.6519C3.25538 71.7602 2.32765 69.314 3.2978 67.2632L6.87808 59.6951C7.53725 58.3017 7.33713 56.6535 6.36366 55.4584L1.07622 48.9669C-0.356502 47.208 -0.0411531 44.6108 1.77089 43.2458L8.45819 38.2084C9.68939 37.2809 10.2781 35.7286 9.97157 34.2179L8.3065 26.0128C7.85532 23.7895 9.34151 21.6364 11.5803 21.2699L19.8427 19.9172C21.3638 19.6681 22.6066 18.5672 23.0372 17.0871L25.3759 9.04807C26.0096 6.86975 28.3262 5.65393 30.4789 6.36981L38.4234 9.01175C39.8861 9.49816 41.4981 9.10084 42.5672 7.9904L48.374 1.95906Z" fill="#FFCE53"/>
</svg>
