<svg width="20" height="21" viewBox="0 0 20 21" fill="none" xmlns="http://www.w3.org/2000/svg">
<path d="M10.3912 4.63054L15.8695 10.1088M6.15442 19.5H1.7826C1.57504 19.5 1.37599 19.4175 1.22922 19.2708C1.08245 19.124 1 18.925 1 18.7174V14.3456C1.0001 14.1383 1.08242 13.9395 1.22891 13.7929L13.2927 1.72904C13.4395 1.58238 13.6385 1.5 13.8459 1.5C14.0534 1.5 14.2524 1.58238 14.3991 1.72904L18.771 6.09792C18.9176 6.24467 19 6.44365 19 6.65112C19 6.85859 18.9176 7.05757 18.771 7.20432L6.70713 19.2711C6.56048 19.4176 6.3617 19.4999 6.15442 19.5Z" stroke="#FB5629" stroke-width="1.2" stroke-linecap="round" stroke-linejoin="round"/>
</svg>
