<svg width="22" height="23" viewBox="0 0 22 23" fill="none" xmlns="http://www.w3.org/2000/svg">
<path d="M20.9315 14.8981L15.7647 12.6948C15.4981 12.5753 15.2055 12.5258 14.9144 12.5508C14.6233 12.5759 14.3434 12.6747 14.1012 12.838L11.336 14.6778C9.65078 13.8593 8.28631 12.5026 7.45821 10.822L9.28696 8.0238C9.44917 7.7813 9.54824 7.50212 9.57518 7.21162C9.60211 6.92112 9.55605 6.62849 9.44119 6.3603L7.22686 1.19353C7.07235 0.84465 6.81072 0.554059 6.47992 0.363898C6.14912 0.173736 5.76634 0.09389 5.3871 0.135939C3.89941 0.330827 2.53312 1.05932 1.54223 2.18597C0.55135 3.31261 0.00330756 4.76076 0 6.26115C0 15.0083 7.1167 22.125 15.8638 22.125C17.3642 22.1217 18.8124 21.5736 19.939 20.5828C21.0657 19.5919 21.7942 18.2256 21.9891 16.7379C22.0311 16.3587 21.9513 15.9759 21.7611 15.6451C21.5709 15.3143 21.2803 15.0526 20.9315 14.8981Z" fill="#FFCE53"/>
<path d="M14.6345 2.65259C15.7984 2.97255 16.8592 3.59235 17.7123 4.45083C18.5655 5.30931 19.1814 6.37679 19.4994 7.54794C19.5416 7.71237 19.6367 7.85814 19.7698 7.96251C19.9029 8.06689 20.0666 8.12402 20.2354 8.125C20.3033 8.12487 20.3708 8.11516 20.4361 8.09615C20.5333 8.07056 20.6244 8.0257 20.7042 7.96421C20.7839 7.90273 20.8507 7.82584 20.9005 7.73806C20.9504 7.65029 20.9823 7.55338 20.9945 7.45302C21.0066 7.35267 20.9987 7.25088 20.9713 7.15362C20.589 5.71934 19.8384 4.41151 18.7949 3.36147C17.7514 2.31144 16.4517 1.55616 15.0264 1.17148C14.9266 1.13492 14.8204 1.11965 14.7145 1.12666C14.6086 1.13366 14.5052 1.16278 14.4111 1.21217C14.317 1.26155 14.2341 1.33011 14.1678 1.41349C14.1014 1.49687 14.053 1.59324 14.0257 1.69646C13.9984 1.79968 13.9928 1.90749 14.0091 2.01303C14.0255 2.11857 14.0635 2.21952 14.1208 2.30946C14.1781 2.39941 14.2533 2.47636 14.3417 2.53544C14.4302 2.59451 14.5299 2.63441 14.6345 2.65259Z" fill="#FFCE53"/>
<path d="M13.6556 5.70752C14.324 5.89213 14.9332 6.24923 15.4233 6.74365C15.9133 7.23807 16.2673 7.85276 16.4502 8.52716C16.4923 8.69835 16.5901 8.85034 16.728 8.95874C16.8658 9.06714 17.0358 9.12568 17.2106 9.12497C17.2776 9.12563 17.3443 9.11554 17.4081 9.09508C17.5094 9.06966 17.6047 9.02398 17.6882 8.96075C17.7717 8.89752 17.8417 8.81802 17.8942 8.72697C17.9467 8.63592 17.9806 8.53516 17.9937 8.43067C18.0069 8.32618 17.9992 8.22008 17.971 8.11866C17.7216 7.17165 17.2286 6.30796 16.5418 5.61509C15.8551 4.92221 14.9991 4.42477 14.0604 4.17315C13.9574 4.13527 13.8476 4.11946 13.7382 4.12672C13.6288 4.13397 13.522 4.16414 13.4248 4.2153C13.3275 4.26646 13.2419 4.33749 13.1733 4.42387C13.1048 4.51024 13.0548 4.61008 13.0266 4.71701C12.9984 4.82394 12.9925 4.93563 13.0094 5.04496C13.0264 5.1543 13.0656 5.25888 13.1248 5.35205C13.184 5.44523 13.2617 5.52495 13.3531 5.58615C13.4445 5.64735 13.5475 5.68868 13.6556 5.70752Z" fill="#FFCE53"/>
</svg>
