<svg width="26" height="26" viewBox="0 0 26 26" fill="none" xmlns="http://www.w3.org/2000/svg">
<path d="M16.109 4.77613C15.4969 4.66306 14.9348 5.05365 14.8183 5.6511C14.7018 6.24854 15.0936 6.83186 15.689 6.94878C17.4816 7.29825 18.8658 8.68587 19.2166 10.4846C19.3165 11.0024 19.7723 11.3802 20.2973 11.3802C20.3677 11.3802 20.4382 11.3737 20.5099 11.3609C21.1053 11.2414 21.4971 10.6594 21.3806 10.0606C20.8569 7.37406 18.7889 5.29905 16.109 4.77613Z" fill="#23222A"/>
<path d="M16.0287 0.299258C15.7419 0.258143 15.4538 0.342942 15.2246 0.525388C14.989 0.710404 14.8418 0.977649 14.8097 1.27702C14.7419 1.88217 15.1785 2.42951 15.7829 2.49761C19.9507 2.96271 23.1903 6.20949 23.6589 10.3903C23.7216 10.9505 24.1916 11.3732 24.7524 11.3732C24.7947 11.3732 24.8356 11.3707 24.8779 11.3655C25.1711 11.3334 25.4323 11.1882 25.6167 10.9569C25.7998 10.7257 25.883 10.4379 25.8497 10.1436C25.2659 4.92722 21.2286 0.878717 16.0287 0.299258Z" fill="#23222A"/>
<path fill-rule="evenodd" clip-rule="evenodd" d="M11.7548 14.3964C16.8836 19.5238 18.0471 13.592 21.3127 16.8552C24.4609 20.0026 26.2704 20.6332 22.2816 24.6209C21.782 25.0224 18.6075 29.8531 7.45135 18.7001C-3.70618 7.54563 1.12176 4.36792 1.5234 3.86843C5.52183 -0.130279 6.14154 1.6897 9.28978 4.83706C12.5553 8.1017 6.62599 9.26902 11.7548 14.3964Z" fill="#23222A"/>
</svg>
