<svg width="26" height="25" viewBox="0 0 26 25" fill="none" xmlns="http://www.w3.org/2000/svg">
<path d="M18.3892 2.08315C19.8225 2.08727 21.1958 2.63737 22.2093 3.6133C23.2227 4.58923 23.794 5.91169 23.7983 7.29185V17.7081C23.794 19.0883 23.2227 20.4108 22.2093 21.3867C21.1958 22.3626 19.8225 22.9127 18.3892 22.9169H7.57231C6.13906 22.9127 4.76573 22.3626 3.75227 21.3867C2.7388 20.4108 2.16755 19.0883 2.16327 17.7081L2.16327 7.29185C2.16755 5.91169 2.7388 4.58922 3.75227 3.61329C4.76573 2.63736 6.13906 2.08727 7.57231 2.08315L18.3892 2.08315ZM18.3892 4.72823e-07L7.57231 0C3.40745 -1.82052e-07 6.3062e-07 3.28125 4.55311e-07 7.29185L0 17.7081C-1.75309e-07 21.7187 3.40745 25 7.57231 25H18.3892C22.5541 25 25.9615 21.7188 25.9615 17.7081V7.29185C25.9615 3.28125 22.5541 6.54874e-07 18.3892 4.72823e-07Z" fill="#FB5629"/>
<path d="M20.0119 7.29297C19.691 7.29297 19.3773 7.20133 19.1105 7.02964C18.8436 6.85795 18.6356 6.61392 18.5128 6.32841C18.39 6.0429 18.3579 5.72873 18.4205 5.42564C18.4831 5.12254 18.6376 4.84413 18.8646 4.62561C19.0915 4.40709 19.3806 4.25828 19.6954 4.19799C20.0101 4.1377 20.3364 4.16864 20.6329 4.28691C20.9294 4.40517 21.1828 4.60544 21.3611 4.86239C21.5394 5.11934 21.6345 5.42143 21.6345 5.73047C21.635 5.93578 21.5933 6.13916 21.5119 6.32893C21.4306 6.5187 21.3111 6.69113 21.1603 6.83631C21.0095 6.98149 20.8305 7.09656 20.6334 7.17493C20.4363 7.25329 20.2251 7.29341 20.0119 7.29297ZM12.9809 8.33426C13.8367 8.33426 14.6733 8.57864 15.3849 9.0365C16.0965 9.49436 16.6511 10.1451 16.9786 10.9065C17.3061 11.6679 17.3918 12.5057 17.2248 13.314C17.0579 14.1223 16.6458 14.8648 16.0406 15.4475C15.4354 16.0303 14.6644 16.4271 13.825 16.5879C12.9857 16.7487 12.1156 16.6662 11.3249 16.3508C10.5343 16.0354 9.85847 15.5013 9.383 14.8161C8.90753 14.1309 8.65375 13.3252 8.65375 12.5011C8.65498 11.3964 9.11126 10.3372 9.92249 9.55601C10.7337 8.77483 11.8336 8.33544 12.9809 8.33426ZM12.9809 6.25111C11.6972 6.25111 10.4423 6.61767 9.375 7.30443C8.30766 7.99119 7.47577 8.9673 6.98453 10.1093C6.49329 11.2514 6.36476 12.508 6.61519 13.7204C6.86563 14.9328 7.48377 16.0465 8.39147 16.9205C9.29917 17.7946 10.4556 18.3899 11.7147 18.631C12.9737 18.8722 14.2787 18.7484 15.4646 18.2754C16.6506 17.8023 17.6642 17.0012 18.3774 15.9734C19.0906 14.9456 19.4712 13.7372 19.4712 12.5011C19.4712 10.8435 18.7874 9.2538 17.5703 8.0817C16.3531 6.9096 14.7022 6.25111 12.9809 6.25111Z" fill="#FB5629"/>
</svg>
