<svg width="178" height="43" viewBox="0 0 178 43" fill="none" xmlns="http://www.w3.org/2000/svg">
<circle cx="19.6958" cy="19.6958" r="19.6958" fill="#321108"/>
<path d="M23.8681 39.3116C22.5615 39.3116 21.3081 39.1916 20.1081 38.9516C18.9348 38.7116 17.8948 38.2583 16.9881 37.5916C16.1081 36.8983 15.4015 35.9116 14.8681 34.6316C14.3615 33.3249 14.1081 31.6183 14.1081 29.5116C14.1081 27.6183 14.3615 25.9916 14.8681 24.6316C15.3748 23.2716 15.9748 22.1916 16.6681 21.3916C17.3881 20.5916 18.0415 20.0983 18.6281 19.9116L18.4281 19.1516H17.7481C16.5215 19.1516 15.5481 18.7649 14.8281 17.9916C14.1348 17.1916 13.7748 16.1116 13.7481 14.7516C13.7215 13.4183 14.0681 12.3516 14.7881 11.5516C15.5348 10.7516 16.5215 10.3516 17.7481 10.3516H32.1081C34.9615 10.3516 36.3881 11.6849 36.3881 14.3516C36.3881 15.5516 36.0415 16.5116 35.3481 17.2316C34.6548 17.9516 33.5748 18.3116 32.1081 18.3116H23.8281C22.8415 18.3116 22.3481 18.8849 22.3481 20.0316V23.0316C23.6815 22.7383 25.0681 22.3916 26.5081 21.9916C27.9748 21.5916 29.3615 21.3916 30.6681 21.3916C31.9215 21.3916 32.8548 21.6716 33.4681 22.2316C34.1081 22.7649 34.4281 23.4983 34.4281 24.4316C34.4281 25.3916 34.1081 26.1516 33.4681 26.7116C32.8548 27.2449 31.9215 27.5249 30.6681 27.5516C29.3615 27.5783 27.9748 27.3916 26.5081 26.9916C25.0415 26.5916 23.6415 26.2449 22.3081 25.9516V31.1916C22.3081 31.6983 22.4415 32.0583 22.7081 32.2716C23.0015 32.4583 23.4548 32.3783 24.0681 32.0316C25.4015 31.2583 26.7081 30.6449 27.9881 30.1916C29.2681 29.7116 30.5215 29.4716 31.7481 29.4716C33.4815 29.4716 34.7881 29.9249 35.6681 30.8316C36.5748 31.7383 37.0281 32.9249 37.0281 34.3916C37.0281 35.9649 36.5481 37.1783 35.5881 38.0316C34.6548 38.8849 33.1348 39.3116 31.0281 39.3116H23.8681ZM44.3984 39.3916C42.4251 39.3916 40.8784 38.8583 39.7584 37.7916C38.6651 36.7249 38.1184 35.2316 38.1184 33.3116C38.1184 31.3916 38.7584 30.0049 40.0384 29.1516C41.3184 28.2716 42.9584 27.8316 44.9584 27.8316C46.1318 27.8316 47.1984 27.9116 48.1584 28.0716C49.1184 28.2316 49.9851 28.4583 50.7584 28.7516H50.8784V28.1516C50.8784 27.5383 50.6518 27.0583 50.1984 26.7116C49.7451 26.3383 49.1718 26.1649 48.4784 26.1916C47.8118 26.1916 47.2384 26.2316 46.7584 26.3116C46.3051 26.3916 45.7318 26.5249 45.0384 26.7116C43.7584 27.0316 42.6518 27.0049 41.7184 26.6316C40.7851 26.2583 40.1451 25.5249 39.7984 24.4316C39.4784 23.2849 39.5451 22.3249 39.9984 21.5516C40.4784 20.7783 41.1984 20.1783 42.1584 19.7516C42.9851 19.3516 43.9051 19.0183 44.9184 18.7516C45.9584 18.4849 47.0784 18.3516 48.2784 18.3516C51.7718 18.3516 54.3318 19.2049 55.9584 20.9116C57.6118 22.5916 58.4384 25.4183 58.4384 29.3916V35.5916C58.4384 36.6849 58.1051 37.5916 57.4384 38.3116C56.7718 39.0316 55.8518 39.3916 54.6784 39.3916C53.3984 39.3916 52.4384 39.0316 51.7984 38.3116C51.1851 37.5916 50.8784 36.7116 50.8784 35.6716V34.7516H50.0784C50.0784 35.4449 49.9451 36.1516 49.6784 36.8716C49.4384 37.5916 48.9184 38.1916 48.1184 38.6716C47.3451 39.1516 46.1051 39.3916 44.3984 39.3916ZM44.7984 30.6316C44.7984 31.0849 44.9584 31.4049 45.2784 31.5916C45.6251 31.7783 46.3584 31.8716 47.4784 31.8716C48.4918 31.8716 49.1984 31.7783 49.5984 31.5916C49.9984 31.4049 50.1984 31.0849 50.1984 30.6316C50.1984 30.2049 49.9984 29.9116 49.5984 29.7516C49.1984 29.5649 48.4918 29.4716 47.4784 29.4716C46.3584 29.4716 45.6251 29.5649 45.2784 29.7516C44.9584 29.9116 44.7984 30.2049 44.7984 30.6316ZM70.7816 39.5116C69.3682 39.5116 68.0882 39.1916 66.9416 38.5516C65.8216 37.9116 64.9416 37.0049 64.3016 35.8316C63.6616 34.6316 63.3416 33.2316 63.3416 31.6316V24.5916L61.8616 24.7916C61.0616 24.8983 60.3549 24.6183 59.7416 23.9516C59.1282 23.2849 58.8216 22.4449 58.8216 21.4316C58.8216 20.4183 59.1282 19.5916 59.7416 18.9516C60.3549 18.2849 61.0616 18.0049 61.8616 18.1116L63.3416 18.3116L63.3016 15.5916C63.2749 14.5249 63.5816 13.6849 64.2216 13.0716C64.8616 12.4316 65.7949 12.1116 67.0216 12.1116C68.2482 12.1116 69.1949 12.4316 69.8616 13.0716C70.5282 13.6849 70.8349 14.5249 70.7816 15.5916L70.7016 18.3116L72.8216 18.0316C74.2616 17.8183 75.3549 18.0849 76.1016 18.8316C76.8482 19.5516 77.2216 20.4183 77.2216 21.4316C77.2216 22.4449 76.8482 23.3249 76.1016 24.0716C75.3816 24.7916 74.3282 25.0583 72.9416 24.8716L70.7016 24.5916V30.5516C70.7016 30.8983 70.8216 31.2183 71.0616 31.5116C71.3016 31.7783 71.5949 31.8583 71.9416 31.7516C72.3416 31.6449 72.7549 31.4183 73.1816 31.0716C73.6349 30.7249 74.2082 30.5516 74.9016 30.5516C75.9416 30.5516 76.7416 30.9249 77.3016 31.6716C77.8616 32.4183 78.1416 33.3383 78.1416 34.4316C78.1416 35.2849 77.8349 36.1116 77.2216 36.9116C76.6349 37.6849 75.7949 38.3116 74.7016 38.7916C73.6082 39.2716 72.3016 39.5116 70.7816 39.5116ZM84.3638 39.3916C83.0571 39.3916 82.0171 39.0316 81.2438 38.3116C80.4971 37.5916 80.1238 36.5383 80.1238 35.1516V29.5116C80.1238 26.6849 80.5504 24.5383 81.4038 23.0716C82.2571 21.6049 83.3371 20.5516 84.6438 19.9116L84.4438 19.1516H83.7638C82.5371 19.1516 81.5638 18.7649 80.8438 17.9916C80.1504 17.1916 79.7904 16.1116 79.7638 14.7516C79.7371 13.4183 80.0838 12.3516 80.8038 11.5516C81.5504 10.7516 82.5371 10.3516 83.7638 10.3516H97.7638C100.617 10.3516 102.044 11.6849 102.044 14.3516C102.044 15.5516 101.697 16.5116 101.004 17.2316C100.31 17.9516 99.2304 18.3116 97.7638 18.3116H89.9638C88.9771 18.3116 88.4838 18.8849 88.4838 20.0316V22.9116C89.7371 22.5649 91.0438 22.1649 92.4038 21.7116C93.7638 21.2583 95.0704 21.0316 96.3238 21.0316C97.6571 21.0316 98.6838 21.3649 99.4037 22.0316C100.15 22.6716 100.524 23.6583 100.524 24.9916C100.524 26.2983 100.15 27.2849 99.4037 27.9516C98.6838 28.5916 97.6571 28.9249 96.3238 28.9516C95.0704 28.9783 93.7504 28.7783 92.3638 28.3516C91.0038 27.8983 89.6971 27.4983 88.4438 27.1516L88.4038 35.1516C88.4038 36.5383 88.0304 37.5916 87.2838 38.3116C86.5638 39.0316 85.5904 39.3916 84.3638 39.3916ZM107.395 39.3916C106.088 39.3916 105.101 39.0449 104.435 38.3516C103.795 37.6583 103.475 36.7916 103.475 35.7516V12.5516C103.475 11.4049 103.795 10.4583 104.435 9.7116C105.101 8.93827 106.088 8.5516 107.395 8.5516C108.568 8.5516 109.475 8.93827 110.115 9.7116C110.755 10.4583 111.075 11.3783 111.075 12.4716V35.7516C111.075 36.7916 110.755 37.6583 110.115 38.3516C109.475 39.0449 108.568 39.3916 107.395 39.3916ZM123.168 39.4716C120.048 39.4716 117.554 38.5516 115.688 36.7116C113.848 34.8449 112.928 32.2183 112.928 28.8316C112.928 26.7516 113.354 24.9249 114.208 23.3516C115.061 21.7783 116.248 20.5516 117.768 19.6716C119.314 18.7649 121.114 18.3116 123.168 18.3116C125.461 18.3116 127.368 18.7649 128.888 19.6716C130.408 20.5516 131.541 21.7783 132.288 23.3516C133.061 24.9249 133.448 26.7516 133.448 28.8316C133.448 32.2183 132.594 34.8449 130.888 36.7116C129.208 38.5516 126.634 39.4716 123.168 39.4716ZM117.688 28.1516C117.688 28.9783 118.101 29.5649 118.928 29.9116C119.754 30.2316 121.168 30.3916 123.168 30.3916C125.168 30.3916 126.581 30.2316 127.408 29.9116C128.234 29.5649 128.648 28.9783 128.648 28.1516C128.648 27.3516 128.234 26.7916 127.408 26.4716C126.581 26.1516 125.168 25.9916 123.168 25.9916C121.168 25.9916 119.754 26.1516 118.928 26.4716C118.101 26.7916 117.688 27.3516 117.688 28.1516ZM143.226 39.3916C141.68 39.3916 140.413 38.8849 139.426 37.8716C138.466 36.8583 137.586 35.1916 136.786 32.8716L133.746 23.8316C133.4 22.8183 133.386 21.7916 133.706 20.7516C134.026 19.7116 134.76 19.0049 135.906 18.6316C136.973 18.2583 137.946 18.2849 138.826 18.7116C139.706 19.1383 140.32 19.8716 140.666 20.9116L143.946 30.7116C144.32 31.8583 144.706 32.6316 145.106 33.0316C145.506 33.4049 146.04 33.4849 146.706 33.2716C147.266 33.0849 147.613 32.6849 147.746 32.0716C147.906 31.4316 147.72 30.3383 147.186 28.7916L145.546 23.8316C145.2 22.7916 145.186 21.7649 145.506 20.7516C145.853 19.7116 146.6 19.0049 147.746 18.6316C148.813 18.2583 149.786 18.2849 150.666 18.7116C151.546 19.1383 152.16 19.8716 152.506 20.9116L155.866 31.1516C156.08 31.7649 156.413 32.3249 156.866 32.8316C157.32 33.3383 157.906 33.4849 158.626 33.2716C159.186 33.0849 159.546 32.7116 159.706 32.1516C159.893 31.5916 159.866 30.9383 159.626 30.1916C159.306 29.1783 158.946 28.3783 158.546 27.7916C158.173 27.2049 157.8 26.6983 157.426 26.2716C157.08 25.8449 156.786 25.3916 156.546 24.9116C156.333 24.4316 156.2 23.7783 156.146 22.9516C156.093 22.0983 156.266 21.3516 156.666 20.7116C157.093 20.0449 157.653 19.5249 158.346 19.1516C159.066 18.7783 159.853 18.5916 160.706 18.5916C162.013 18.5916 163.066 19.0316 163.866 19.9116C164.693 20.7649 165.106 21.7783 165.106 22.9516C165.106 23.3783 165.04 23.9383 164.906 24.6316C164.773 25.3249 164.6 25.9649 164.386 26.5516L162.706 30.9116C162.36 31.8716 161.96 32.8583 161.506 33.8716C161.08 34.8583 160.573 35.7649 159.986 36.5916C159.426 37.4183 158.773 38.0983 158.026 38.6316C157.28 39.1383 156.413 39.3916 155.426 39.3916C153.72 39.3916 152.346 38.9516 151.306 38.0716C150.293 37.1916 149.493 35.7383 148.906 33.7116H148.506C148.16 35.3649 147.586 36.7249 146.786 37.7916C145.986 38.8583 144.8 39.3916 143.226 39.3916Z" fill="white"/>
<path d="M171.68 40.1516C170.106 40.1516 168.88 39.7383 168 38.9116C167.12 38.0583 166.68 36.9383 166.68 35.5516C166.68 34.1383 167.133 32.9916 168.04 32.1116C168.946 31.2316 170.16 30.7916 171.68 30.7916C173.173 30.7916 174.36 31.2316 175.24 32.1116C176.146 32.9649 176.6 34.0983 176.6 35.5116C176.6 36.8983 176.173 38.0183 175.32 38.8716C174.466 39.7249 173.253 40.1516 171.68 40.1516Z" fill="#FB5629"/>
</svg>
