<svg width="20" height="25" viewBox="0 0 20 25" fill="none" xmlns="http://www.w3.org/2000/svg">
<path d="M17.1009 2.56188C15.38 0.90987 12.9985 0 10.3951 0C6.41836 0 3.97244 1.63014 2.62087 2.99758C0.955134 4.6828 0 6.92046 0 9.13688C0 11.9198 1.16402 14.0557 3.1133 14.8504C3.24416 14.904 3.37586 14.931 3.50496 14.931C3.91619 14.931 4.24202 14.6619 4.35492 14.2303C4.42074 13.9827 4.57318 13.3718 4.63949 13.1066C4.78138 12.5829 4.66673 12.331 4.35726 11.9663C3.79349 11.2992 3.53093 10.5104 3.53093 9.48376C3.53093 6.43437 5.80156 3.19353 10.0099 3.19353C13.3491 3.19353 15.4234 5.0914 15.4234 8.1464C15.4234 10.0742 15.0081 11.8596 14.2539 13.1738C13.7297 14.087 12.8081 15.1756 11.3932 15.1756C10.7814 15.1756 10.2318 14.9242 9.88503 14.486C9.55744 14.0718 9.44944 13.5368 9.58122 12.9791C9.73005 12.349 9.93303 11.6918 10.1295 11.0564C10.4877 9.89597 10.8264 8.79992 10.8264 7.92545C10.8264 6.42974 9.90686 5.4247 8.53844 5.4247C6.79937 5.4247 5.43691 7.19102 5.43691 9.44592C5.43691 10.5518 5.7308 11.3789 5.86386 11.6965C5.64477 12.6248 4.34271 18.1433 4.09573 19.184C3.95291 19.7915 3.09265 24.5895 4.51654 24.9721C6.11635 25.4019 7.54639 20.729 7.69195 20.2009C7.80992 19.7715 8.22267 18.1476 8.4756 17.1494C9.24792 17.8933 10.4914 18.3962 11.7014 18.3962C13.9824 18.3962 16.0338 17.3698 17.4777 15.5061C18.8781 13.6985 19.6493 11.179 19.6493 8.41222C19.6492 6.24922 18.7203 4.11678 17.1009 2.56188Z" fill="white"/>
</svg>
