<svg width="20" height="20" viewBox="0 0 20 20" fill="none" xmlns="http://www.w3.org/2000/svg">
<path d="M12.7404 1.75463C14.0567 2.10126 15.2574 2.79104 16.2199 3.75353C17.1823 4.71602 17.8721 5.91673 18.2188 7.23302M11.9577 4.88514C13.5739 5.31754 14.6558 6.39952 15.0882 8.01564M13.1698 12.0599C13.2782 11.9877 13.4029 11.9438 13.5325 11.932C13.6622 11.9202 13.7927 11.941 13.9124 11.9924L18.5259 14.0595C18.6814 14.1259 18.8112 14.2409 18.8958 14.3873C18.9805 14.5337 19.0155 14.7035 18.9955 14.8714C18.8435 16.0073 18.2842 17.0493 17.4215 17.8036C16.5589 18.5579 15.4516 18.9733 14.3056 18.9724C10.777 18.9724 7.39292 17.5707 4.89782 15.0756C2.40271 12.5805 1.00098 9.19638 1.00098 5.66777C1.0001 4.52181 1.41545 3.41453 2.16979 2.55187C2.92413 1.6892 3.96611 1.12987 5.10194 0.977878C5.26984 0.957931 5.4397 0.992899 5.58607 1.07755C5.73244 1.1622 5.84746 1.29197 5.91391 1.44745L7.98103 6.06495C8.03181 6.18354 8.0525 6.31286 8.04123 6.44138C8.02997 6.5699 7.9871 6.69364 7.91646 6.80159L5.82587 9.28741C5.75171 9.39931 5.70786 9.52854 5.6986 9.66246C5.68934 9.79638 5.71499 9.93041 5.77304 10.0515C6.58208 11.7077 8.29408 13.3991 9.9552 14.2003C10.0769 14.2581 10.2115 14.2832 10.3459 14.2731C10.4802 14.263 10.6096 14.218 10.7212 14.1426L13.1698 12.0599Z" stroke="#FB5629" stroke-width="1.5" stroke-linecap="round" stroke-linejoin="round"/>
</svg>
