<svg width="18" height="18" viewBox="0 0 18 18" fill="none" xmlns="http://www.w3.org/2000/svg">
<path d="M15.1338 0H2.88262C1.2939 0 0 1.2939 0 2.88262V15.1174C0 16.7061 1.2939 18 2.88262 18H15.1174C16.7061 18 18 16.7061 18 15.1174V2.88262C18.0164 1.2939 16.7225 0 15.1338 0ZM16.3785 15.1338C16.3785 15.8217 15.8217 16.3785 15.1338 16.3785H2.88262C2.19472 16.3785 1.63785 15.8217 1.63785 15.1338V2.88262C1.63785 2.19472 2.19472 1.63785 2.88262 1.63785H15.1174C15.8053 1.63785 16.3621 2.19472 16.3621 2.88262V15.1338H16.3785Z" fill="#29AF66"/>
<path d="M13.518 10.876C14.5496 8.3855 13.3669 5.53031 10.8765 4.4987C8.38601 3.4671 5.53081 4.64973 4.49921 7.14019C3.46761 9.63065 4.65024 12.4858 7.1407 13.5174C9.63116 14.549 12.4864 13.3664 13.518 10.876Z" fill="#29AF66"/>
</svg>
