<svg width="16" height="20" viewBox="0 0 16 20" fill="none" xmlns="http://www.w3.org/2000/svg">
<path d="M13.8912 2.49464C12.5834 1.23911 10.7734 0.547607 8.79484 0.547607C5.77248 0.547607 3.91359 1.78651 2.88639 2.82577C1.62043 4.10653 0.894531 5.80716 0.894531 7.49164C0.894531 9.60663 1.77919 11.23 3.26064 11.8339C3.3601 11.8746 3.46018 11.8951 3.5583 11.8951C3.87084 11.8951 4.11847 11.6906 4.20427 11.3626C4.25429 11.1744 4.37015 10.7102 4.42054 10.5086C4.52838 10.1106 4.44125 9.91917 4.20605 9.642C3.77758 9.135 3.57804 8.5355 3.57804 7.75527C3.57804 5.43773 5.30372 2.97469 8.50209 2.97469C11.0399 2.97469 12.6163 4.41707 12.6163 6.73887C12.6163 8.20403 12.3007 9.56091 11.7275 10.5597C11.3291 11.2537 10.6287 12.081 9.5534 12.081C9.08842 12.081 8.67071 11.89 8.40716 11.557C8.15819 11.2422 8.0761 10.8356 8.17626 10.4117C8.28937 9.93286 8.44364 9.43337 8.59293 8.95049C8.8652 8.06855 9.12259 7.23555 9.12259 6.57095C9.12259 5.43421 8.42375 4.67038 7.38375 4.67038C6.06205 4.67038 5.02658 6.01278 5.02658 7.72651C5.02658 8.56697 5.24994 9.1956 5.35107 9.43696C5.18456 10.1424 4.19499 14.3366 4.00729 15.1274C3.89874 15.5891 3.24495 19.2357 4.3271 19.5264C5.54296 19.8531 6.62979 16.3016 6.74042 15.9003C6.83007 15.5739 7.14376 14.3398 7.33599 13.5811C7.92295 14.1465 8.86802 14.5287 9.7876 14.5287C11.5212 14.5287 13.0802 13.7486 14.1776 12.3323C15.2419 10.9585 15.828 9.04368 15.828 6.9409C15.8279 5.29701 15.122 3.67636 13.8912 2.49464Z" fill="white"/>
</svg>
