<svg width="20" height="20" viewBox="0 0 20 20" fill="none" xmlns="http://www.w3.org/2000/svg">
<path d="M14.3527 2.1308C15.4016 2.13393 16.4067 2.55201 17.1484 3.29371C17.8901 4.03542 18.3082 5.04049 18.3113 6.08942L18.3113 14.0058C18.3082 15.0547 17.8901 16.0598 17.1484 16.8015C16.4067 17.5432 15.4016 17.9613 14.3527 17.9644L6.43634 17.9644C5.38741 17.9613 4.38234 17.5432 3.64063 16.8015C2.89893 16.0598 2.48086 15.0547 2.47772 14.0058L2.47772 6.08942C2.48086 5.04049 2.89893 4.03542 3.64064 3.29371C4.38234 2.552 5.38741 2.13393 6.43634 2.1308L14.3527 2.1308ZM14.3527 0.547608L6.43634 0.547608C3.38828 0.547608 0.894531 3.04136 0.894531 6.08942L0.894531 14.0058C0.894531 17.0539 3.38828 19.5476 6.43634 19.5476L14.3527 19.5476C17.4008 19.5476 19.8945 17.0539 19.8945 14.0058L19.8945 6.08942C19.8945 3.04136 17.4008 0.547608 14.3527 0.547608Z" fill="#23222A"/>
<path d="M15.5383 6.09033C15.3034 6.09033 15.0738 6.02069 14.8785 5.8902C14.6832 5.75972 14.531 5.57426 14.4412 5.35727C14.3513 5.14028 14.3278 4.90152 14.3736 4.67116C14.4194 4.44081 14.5325 4.22922 14.6986 4.06314C14.8647 3.89707 15.0762 3.78397 15.3066 3.73815C15.537 3.69233 15.7757 3.71585 15.9927 3.80573C16.2097 3.89561 16.3952 4.04781 16.5256 4.24309C16.6561 4.43838 16.7258 4.66797 16.7258 4.90283C16.7261 5.05887 16.6956 5.21344 16.6361 5.35767C16.5765 5.50189 16.489 5.63293 16.3787 5.74327C16.2684 5.85361 16.1373 5.94106 15.9931 6.00062C15.8489 6.06018 15.6943 6.09067 15.5383 6.09033ZM10.3926 6.88172C11.0189 6.88172 11.6312 7.06745 12.152 7.41542C12.6727 7.76339 13.0786 8.25798 13.3183 8.83664C13.558 9.4153 13.6207 10.052 13.4985 10.6663C13.3763 11.2806 13.0747 11.8449 12.6318 12.2878C12.189 12.7307 11.6247 13.0323 11.0104 13.1545C10.3961 13.2767 9.75935 13.214 9.18069 12.9743C8.60204 12.7346 8.10745 12.3287 7.75947 11.8079C7.4115 11.2871 7.22577 10.6749 7.22577 10.0485C7.22667 9.20891 7.5606 8.40394 8.1543 7.81025C8.748 7.21655 9.55297 6.88261 10.3926 6.88172ZM10.3926 5.29852C9.45312 5.29852 8.53475 5.57711 7.75362 6.09904C6.97249 6.62098 6.36367 7.36283 6.00415 8.23078C5.64464 9.09873 5.55057 10.0538 5.73385 10.9752C5.91713 11.8966 6.36952 12.743 7.03382 13.4073C7.69812 14.0716 8.54449 14.524 9.4659 14.7073C10.3873 14.8905 11.3424 14.7965 12.2103 14.437C13.0783 14.0774 13.8201 13.4686 14.3421 12.6875C14.864 11.9064 15.1426 10.988 15.1426 10.0485C15.1426 8.78875 14.6421 7.58057 13.7513 6.68977C12.8605 5.79897 11.6524 5.29852 10.3926 5.29852Z" fill="#23222A"/>
</svg>
