<svg width="20" height="19" viewBox="0 0 20 19" fill="none" xmlns="http://www.w3.org/2000/svg">
<path d="M8.6068 0.952158C9.0193 -0.317385 10.8154 -0.317386 11.2279 0.952157L12.6244 5.25013C12.8088 5.81789 13.3379 6.20229 13.9349 6.20229H18.454C19.7889 6.20229 20.3439 7.91045 19.264 8.69507L15.6079 11.3514C15.125 11.7023 14.9229 12.3242 15.1074 12.892L16.5038 17.19C16.9163 18.4595 15.4633 19.5152 14.3834 18.7306L10.7273 16.0743C10.2443 15.7234 9.59035 15.7234 9.10738 16.0743L5.45131 18.7306C4.37137 19.5152 2.91832 18.4595 3.33082 17.19L4.72732 12.892C4.91179 12.3242 4.7097 11.7023 4.22674 11.3514L0.570664 8.69507C-0.509274 7.91045 0.0457386 6.20229 1.38062 6.20229H5.89977C6.49675 6.20229 7.02583 5.81789 7.2103 5.25013L8.6068 0.952158Z" fill="#FFCE53"/>
</svg>
