<svg width="40" height="32" viewBox="0 0 40 32" fill="none" xmlns="http://www.w3.org/2000/svg">
<path d="M31.7618 12.1881C30.9429 10.7737 29.7518 9.65712 28.263 8.91271C26.8486 8.16829 25.2109 7.79608 23.5732 7.87052M16.8734 25.7365H31.8362C33.8461 25.7365 35.4838 24.0988 35.4838 22.0889H23.6476M14.8635 18.4412H37.0471C37.0471 14.868 35.6327 11.4437 33.1017 8.91271C30.5707 6.38169 27.1464 4.9673 23.5732 4.9673C20 4.9673 16.5757 6.38169 14.0446 8.91271C12.5558 10.4015 11.4392 12.1881 10.7692 14.1981M14.1935 22.0889H36.8238C37.866 22.0889 38.6104 21.27 38.6104 20.3023C38.6104 19.2601 37.7915 18.5157 36.8238 18.5157H14.8635M10.3226 25.141L13.598 30.7241L14.268 27.2998L17.7667 28.2675L14.5657 22.7589M8.68484 25.4388L5.48385 30.7241L4.81387 27.2998L1.38956 28.2675L4.44167 23.0566M25.8064 2.95737C25.8064 4.14844 24.8387 5.19062 23.5732 5.19062C22.3821 5.19062 21.3399 4.22288 21.3399 2.95737C21.3399 1.7663 22.3077 0.724121 23.5732 0.724121C24.8387 0.724121 25.8064 1.69186 25.8064 2.95737ZM11.737 19.6323C11.737 20.8234 10.7692 21.8656 9.5037 21.8656C8.31263 21.8656 7.27045 20.8978 7.27045 19.6323C7.27045 18.4412 8.23819 17.3991 9.5037 17.3991C10.7692 17.3991 11.737 18.4412 11.737 19.6323ZM8.68484 14.6447L7.79154 14.2725C7.56822 14.1981 7.27045 14.2725 7.12157 14.4958L6.60048 15.4636C6.52603 15.6125 6.37715 15.7613 6.22827 15.7613L5.26052 15.9102C4.96276 15.9102 4.81387 16.208 4.81387 16.5058L4.88832 17.4735C4.88832 17.6224 4.81387 17.8457 4.66499 17.9202L3.84613 18.5157C3.62281 18.6646 3.54837 19.0368 3.69725 19.2601L4.21834 20.079C4.36722 20.1534 4.36722 20.3767 4.29278 20.5256L3.92057 21.4189C3.84613 21.6422 3.92057 21.94 4.1439 22.0889L5.0372 22.5355C5.18608 22.61 5.33497 22.7589 5.33497 22.9077L5.48385 23.8755C5.48385 24.1733 5.78162 24.3221 6.07938 24.3221L7.04713 24.2477C7.19601 24.2477 7.41933 24.3221 7.49378 24.471L8.08931 25.2899C8.23819 25.5132 8.6104 25.5876 8.83373 25.4388L9.65258 24.9177C9.80147 24.8432 10.0248 24.7688 10.1737 24.8432L11.067 25.2899C11.2903 25.3643 11.5881 25.2899 11.737 25.0666L12.1836 24.1733C12.258 24.0244 12.4069 23.8755 12.5558 23.8755L13.5236 23.7266C13.8213 23.7266 13.9702 23.4288 13.9702 23.1311L13.8958 22.1633C13.8958 22.0144 13.9702 21.7911 14.1191 21.7167L14.9379 21.1211C15.1613 20.9723 15.2357 20.6001 15.0868 20.3767L14.5657 19.5579C14.4913 19.409 14.4169 19.1857 14.4913 19.0368L14.8635 18.1435C14.9379 17.9202 14.8635 17.6224 14.6402 17.4735L13.7469 17.0269C13.598 16.9524 13.4491 16.8035 13.4491 16.6546L13.3002 15.6125C13.3002 15.3147 13.0025 15.1658 12.7047 15.1658L11.737 15.2403C11.5881 15.2403 11.3647 15.1658 11.2903 15.0169L10.6948 14.1981C10.5459 13.9747 10.1737 13.9003 9.95035 14.0492L9.13149 14.5703C8.98261 14.7192 8.83373 14.7192 8.68484 14.6447Z" stroke="#23222A" stroke-linecap="round" stroke-linejoin="round"/>
</svg>
