<svg width="32" height="32" viewBox="0 0 32 32" fill="none" xmlns="http://www.w3.org/2000/svg">
<path d="M1.14302 29.6629H0.643021H1.14302ZM19.1836 24.3568V24.8568H19.2404L19.2957 24.8441L19.1836 24.3568ZM28.0713 22.3127L28.1834 22.8L28.1935 22.7976L28.2035 22.7949L28.0713 22.3127ZM30.857 24.4351L31.357 24.4349L31.357 24.4345L30.857 24.4351ZM29.6392 26.405L29.8354 26.8649L29.8492 26.859L29.8626 26.8523L29.6392 26.405ZM24.4897 28.6017L24.611 29.0868L24.6494 29.0772L24.6859 29.0616L24.4897 28.6017ZM16 30.7241V31.2241H16.0616L16.1213 31.2092L16 30.7241ZM9.76538 19.9793L9.41244 19.6252L9.41182 19.6258L9.76538 19.9793ZM12.0205 19.0508L12.0192 19.5508H12.0205V19.0508ZM28.8582 12.5721L28.8582 13.0721C28.9908 13.0721 29.118 13.0195 29.2117 12.9257C29.3055 12.8319 29.3582 12.7048 29.3582 12.5721H28.8582ZM10.9342 12.5721L10.4342 12.5721C10.4342 12.7047 10.4869 12.8319 10.5807 12.9257C10.6745 13.0195 10.8016 13.0721 10.9342 13.0721L10.9342 12.5721ZM24.9435 8.63888C25.0857 8.87559 25.3929 8.9522 25.6296 8.80999C25.8663 8.66778 25.9429 8.3606 25.8007 8.12389L24.9435 8.63888ZM23.0489 6.1794L22.8147 6.62117L22.8147 6.62117L23.0489 6.1794ZM19.8951 4.99336C19.6193 5.00852 19.4081 5.24433 19.4233 5.52006C19.4384 5.79579 19.6743 6.00701 19.95 5.99185L19.8951 4.99336ZM12.4975 15.0025C12.4975 14.7264 12.2737 14.5025 11.9975 14.5025C11.7214 14.5025 11.4975 14.7264 11.4975 15.0025H12.4975ZM27.8455 15.0025H28.3455C28.3455 14.7264 28.1217 14.5025 27.8455 14.5025V15.0025ZM19.9215 14.5025C19.6454 14.5025 19.4215 14.7264 19.4215 15.0025C19.4215 15.2786 19.6454 15.5025 19.9215 15.5025V14.5025ZM6.44909 30.2241H2.20423V31.2241H6.44909V30.2241ZM2.20423 30.2241C2.05538 30.2241 1.91264 30.165 1.8074 30.0598L1.10029 30.7669C1.39308 31.0596 1.79018 31.2241 2.20423 31.2241V30.2241ZM1.8074 30.0598C1.70215 29.9545 1.64302 29.8118 1.64302 29.6629H0.643021C0.643021 30.077 0.807503 30.4741 1.10029 30.7669L1.8074 30.0598ZM1.64302 29.6629V24.3568H0.643021V29.6629H1.64302ZM1.64302 24.3568C1.64302 24.208 1.70215 24.0653 1.8074 23.96L1.10029 23.2529C0.807505 23.5457 0.643021 23.9428 0.643021 24.3568H1.64302ZM1.8074 23.96C1.91265 23.8548 2.05539 23.7956 2.20423 23.7956V22.7956C1.79017 22.7956 1.39307 22.9601 1.10029 23.2529L1.8074 23.96ZM2.20423 23.7956H6.44909V22.7956H2.20423V23.7956ZM14.9388 24.8568H19.1836V23.8568H14.9388V24.8568ZM19.2957 24.8441L28.1834 22.8L27.9592 21.8254L19.0716 23.8696L19.2957 24.8441ZM28.2035 22.7949C28.4561 22.7257 28.7212 22.7156 28.9783 22.7656L29.169 21.7839C28.7609 21.7047 28.3401 21.7206 27.9392 21.8305L28.2035 22.7949ZM28.9783 22.7656C29.2355 22.8155 29.4776 22.924 29.6859 23.0828L30.292 22.2874C29.9613 22.0354 29.577 21.8631 29.169 21.7839L28.9783 22.7656ZM29.6859 23.0828C29.8943 23.2415 30.0632 23.4462 30.1796 23.6808L31.0755 23.2365C30.8907 22.8641 30.6226 22.5393 30.292 22.2874L29.6859 23.0828ZM30.1796 23.6808C30.296 23.9155 30.3567 24.1738 30.357 24.4357L31.357 24.4345C31.3565 24.0188 31.2602 23.6089 31.0755 23.2365L30.1796 23.6808ZM30.357 24.4353C30.3571 24.7515 30.2691 25.0614 30.1029 25.3303L30.9535 25.8561C31.2175 25.4291 31.3572 24.9369 31.357 24.4349L30.357 24.4353ZM30.1029 25.3303C29.9367 25.5992 29.6988 25.8164 29.4159 25.9576L29.8626 26.8523C30.3117 26.6281 30.6895 26.2831 30.9535 25.8561L30.1029 25.3303ZM29.4431 25.9451L24.2935 28.1418L24.6859 29.0616L29.8354 26.8649L29.4431 25.9451ZM24.3684 28.1166L15.8787 30.239L16.1213 31.2092L24.611 29.0868L24.3684 28.1166ZM16 30.2241H6.44909V31.2241H16V30.2241ZM6.94909 30.7241V23.2956H5.94909V30.7241H6.94909ZM6.80264 23.6492L10.1189 20.3329L9.41182 19.6258L6.09553 22.9421L6.80264 23.6492ZM10.1183 20.3335C10.3682 20.0845 10.6647 19.8872 10.9909 19.7529L10.6101 18.8282C10.1624 19.0126 9.7554 19.2834 9.41244 19.6252L10.1183 20.3335ZM10.9909 19.7529C11.317 19.6186 11.6665 19.5499 12.0192 19.5508L12.0217 18.5508C11.5375 18.5496 11.0578 18.6439 10.6101 18.8282L10.9909 19.7529ZM12.0205 19.5508H18.653V18.5508H12.0205V19.5508ZM18.653 19.5508C19.2241 19.5508 19.7717 19.7776 20.1755 20.1814L20.8826 19.4743C20.2913 18.883 19.4893 18.5508 18.653 18.5508V19.5508ZM20.1755 20.1814C20.5792 20.5852 20.8061 21.1328 20.8061 21.7038H21.8061C21.8061 20.8676 21.4739 20.0656 20.8826 19.4743L20.1755 20.1814ZM20.8061 21.7038C20.8061 22.2748 20.5792 22.8225 20.1755 23.2262L20.8826 23.9333C21.4739 23.342 21.8061 22.5401 21.8061 21.7038H20.8061ZM20.1755 23.2262C19.7717 23.63 19.2241 23.8568 18.653 23.8568V24.8568C19.4893 24.8568 20.2913 24.5247 20.8826 23.9333L20.1755 23.2262ZM18.653 23.8568H14.9388V24.8568H18.653V23.8568ZM29.3582 12.5721C29.3582 10.0627 28.3613 7.65599 26.5868 5.88152L25.8797 6.58863C27.4667 8.17556 28.3582 10.3279 28.3582 12.5721H29.3582ZM26.5868 5.88152C24.8124 4.10706 22.4057 3.11018 19.8962 3.11018L19.8962 4.11018C22.1405 4.11018 24.2928 5.0017 25.8797 6.58863L26.5868 5.88152ZM19.8962 3.11018C17.3867 3.11018 14.9801 4.10706 13.2056 5.88152L13.9127 6.58863C15.4996 5.0017 17.652 4.11018 19.8962 4.11018L19.8962 3.11018ZM13.2056 5.88152C11.4311 7.65599 10.4342 10.0627 10.4342 12.5721L11.4342 12.5721C11.4342 10.3279 12.3258 8.17556 13.9127 6.58863L13.2056 5.88152ZM10.9342 13.0721L28.8582 13.0721L28.8582 12.0721L10.9342 12.0721L10.9342 13.0721ZM20.8646 2.19247C20.8646 2.72727 20.431 3.16081 19.8962 3.16081V4.16081C20.9833 4.16081 21.8646 3.27955 21.8646 2.19247H20.8646ZM19.8962 3.16081C19.3614 3.16081 18.9279 2.72727 18.9279 2.19247H17.9279C17.9279 3.27955 18.8091 4.16081 19.8962 4.16081V3.16081ZM18.9279 2.19247C18.9279 1.65766 19.3614 1.22412 19.8962 1.22412V0.224121C18.8091 0.224121 17.9279 1.10538 17.9279 2.19247H18.9279ZM19.8962 1.22412C20.431 1.22412 20.8646 1.65766 20.8646 2.19247H21.8646C21.8646 1.10538 20.9833 0.224121 19.8962 0.224121V1.22412ZM25.8007 8.12389C25.1942 7.11429 24.3237 6.28926 23.2831 5.73763L22.8147 6.62117C23.6946 7.0876 24.4306 7.78521 24.9435 8.63888L25.8007 8.12389ZM23.2831 5.73763C22.2425 5.186 21.0711 4.92867 19.8951 4.99336L19.95 5.99185C20.9444 5.93715 21.9348 6.15474 22.8147 6.62117L23.2831 5.73763ZM11.1368 13.0721H28.7063V12.0721H11.1368V13.0721ZM28.7063 14.5025H11.1368V15.5025H28.7063V14.5025ZM11.1368 14.5025C10.7418 14.5025 10.4216 14.1823 10.4216 13.7873H9.4216C9.4216 14.7346 10.1895 15.5025 11.1368 15.5025V14.5025ZM29.4215 13.7873C29.4215 14.1823 29.1013 14.5025 28.7063 14.5025V15.5025C29.6535 15.5025 30.4215 14.7346 30.4215 13.7873H29.4215ZM28.7063 13.0721C29.1013 13.0721 29.4215 13.3923 29.4215 13.7873H30.4215C30.4215 12.8401 29.6535 12.0721 28.7063 12.0721V13.0721ZM11.1368 12.0721C10.1895 12.0721 9.4216 12.8401 9.4216 13.7873H10.4216C10.4216 13.3923 10.7418 13.0721 11.1368 13.0721V12.0721ZM25.4152 16.9329H14.4279V17.9329H25.4152V16.9329ZM14.4279 16.9329C13.3618 16.9329 12.4975 16.0686 12.4975 15.0025H11.4975C11.4975 16.6209 12.8095 17.9329 14.4279 17.9329V16.9329ZM27.3455 15.0025C27.3455 16.0686 26.4813 16.9329 25.4152 16.9329V17.9329C27.0336 17.9329 28.3455 16.6209 28.3455 15.0025H27.3455ZM19.9215 15.5025H27.8455V14.5025H19.9215V15.5025Z" fill="#23222A"/>
</svg>
