<svg width="27" height="32" viewBox="0 0 27 32" fill="none" xmlns="http://www.w3.org/2000/svg">
<path d="M5.62723 15.3864V14.8864C5.49421 14.8864 5.36668 14.9394 5.27284 15.0337C5.17901 15.128 5.12661 15.2558 5.12724 15.3888L5.62723 15.3864ZM17.0934 11.8981H17.5934C17.5934 11.6459 17.4056 11.4332 17.1554 11.4019L17.0934 11.8981ZM5.63482 11.9587L5.56942 11.463C5.32071 11.4958 5.13482 11.7079 5.13482 11.9587H5.63482ZM5.63482 15.3864V15.8864C5.91096 15.8864 6.13482 15.6626 6.13482 15.3864H5.63482ZM5.10238 11.8243C5.06161 12.0974 5.24996 12.3518 5.52308 12.3926C5.79619 12.4334 6.05065 12.245 6.09142 11.9719L5.10238 11.8243ZM6.15049 8.18979L6.64501 8.26361C6.67591 8.05665 6.57466 7.85234 6.39126 7.75158L6.15049 8.18979ZM6.38558 2.57047L6.58371 3.02956L6.58775 3.02778L6.38558 2.57047ZM8.6606 2.47189L8.50104 2.94574C8.71083 3.01639 8.94211 2.94067 9.06951 2.75964L8.6606 2.47189ZM9.76778 1.49363L9.99751 1.93778L10.0035 1.93459L9.76778 1.49363ZM13.7415 2.47189L13.329 2.7545C13.4564 2.94043 13.6925 3.01814 13.9054 2.94427L13.7415 2.47189ZM17.8365 6.46077L18.3089 6.62466L18.3104 6.62033L17.8365 6.46077ZM16.5701 8.19737L16.2409 7.82108C16.1127 7.9332 16.0505 8.10281 16.0756 8.27119L16.5701 8.19737ZM16.6292 11.9795C16.67 12.2526 16.9244 12.441 17.1975 12.4002C17.4706 12.3594 17.659 12.105 17.6182 11.8318L16.6292 11.9795ZM5.01298 13.1569L4.90676 12.6683L4.90217 12.6694L5.01298 13.1569ZM4.54281 13.3693L4.24611 12.9666L4.23583 12.9746L4.54281 13.3693ZM4.20155 14.7646L3.74548 14.9698L3.75012 14.9796L4.20155 14.7646ZM17.7 13.1569L17.8109 12.6693L17.8063 12.6683L17.7 13.1569ZM18.1702 13.3693L18.4773 12.9745L18.4668 12.9667L18.1702 13.3693ZM18.5115 14.7646L18.963 14.9796L18.9674 14.9698L18.5115 14.7646ZM12.4017 18.0593C12.6424 17.924 12.7277 17.6191 12.5923 17.3784C12.457 17.1377 12.1521 17.0524 11.9114 17.1878L12.4017 18.0593ZM10.8092 17.1878C10.5685 17.0524 10.2636 17.1377 10.1283 17.3784C9.99287 17.6191 10.0782 17.924 10.3189 18.0593L10.8092 17.1878ZM9.25919 14.2793C9.25919 14.0031 9.03533 13.7793 8.75919 13.7793C8.48304 13.7793 8.25919 14.0031 8.25919 14.2793H9.25919ZM8.25919 15.1969C8.25919 15.473 8.48304 15.6969 8.75919 15.6969C9.03533 15.6969 9.25919 15.473 9.25919 15.1969H8.25919ZM21.3623 17.7221C21.3623 17.446 21.1385 17.2221 20.8623 17.2221C20.5862 17.2221 20.3623 17.446 20.3623 17.7221H21.3623ZM20.3623 20.2702C20.3623 20.5463 20.5862 20.7702 20.8623 20.7702C21.1385 20.7702 21.3623 20.5463 21.3623 20.2702H20.3623ZM23.1368 17.7221C23.1368 17.446 22.913 17.2221 22.6368 17.2221C22.3607 17.2221 22.1368 17.446 22.1368 17.7221H23.1368ZM22.1368 20.2702C22.1368 20.5463 22.3607 20.7702 22.6368 20.7702C22.913 20.7702 23.1368 20.5463 23.1368 20.2702H22.1368ZM24.9265 17.7221C24.9265 17.446 24.7027 17.2221 24.4265 17.2221C24.1504 17.2221 23.9265 17.446 23.9265 17.7221H24.9265ZM23.9265 20.2702C23.9265 20.5463 24.1504 20.7702 24.4265 20.7702C24.7027 20.7702 24.9265 20.5463 24.9265 20.2702H23.9265ZM14.4993 14.2793C14.4993 14.0031 14.2755 13.7793 13.9993 13.7793C13.7232 13.7793 13.4993 14.0031 13.4993 14.2793H14.4993ZM13.4993 15.1969C13.4993 15.473 13.7232 15.6969 13.9993 15.6969C14.2755 15.6969 14.4993 15.473 14.4993 15.1969H13.4993ZM20.7789 31.6372C21.0551 31.6372 21.2789 31.4133 21.2789 31.1372C21.2789 30.8611 21.0551 30.6372 20.7789 30.6372V31.6372ZM0.60701 31.1372H0.10701V31.6372H0.60701V31.1372ZM3.08679 23.6903L2.92103 23.2186L2.92076 23.2187L3.08679 23.6903ZM8.26626 21.8703L8.43204 22.342L8.43912 22.3394L8.26626 21.8703ZM8.59993 21.5745L8.15738 21.3416L8.15272 21.3509L8.59993 21.5745ZM9.34573 21.231C9.47434 20.9867 9.38051 20.6843 9.13614 20.5557C8.89178 20.4271 8.58942 20.5209 8.46081 20.7653L9.34573 21.231ZM14.4418 20.7653C14.3132 20.5209 14.0108 20.4271 13.7665 20.5557C13.5221 20.6843 13.4283 20.9867 13.5569 21.231L14.4418 20.7653ZM14.3027 21.5745L14.75 21.3509L14.7451 21.3416L14.3027 21.5745ZM14.6439 21.8703L14.4787 22.3422L14.4795 22.3425L14.6439 21.8703ZM19.8916 23.6979L19.7272 24.1701L19.7289 24.1706L19.8916 23.6979ZM20.7991 24.7951C21.0072 24.9766 21.323 24.9551 21.5045 24.747C21.6861 24.5389 21.6645 24.223 21.4564 24.0415L20.7991 24.7951ZM15.4445 22.6091C15.6934 22.4894 15.7981 22.1907 15.6785 21.9418C15.5588 21.6929 15.2601 21.5882 15.0112 21.7078L15.4445 22.6091ZM9.91187 24.7141L10.1265 25.1657L10.1285 25.1647L9.91187 24.7141ZM8.16818 31.1372C8.16818 31.4133 8.39204 31.6372 8.66818 31.6372C8.94433 31.6372 9.16818 31.4133 9.16818 31.1372H8.16818ZM7.97604 22.04C7.75567 21.8736 7.44212 21.9174 7.27573 22.1377C7.10933 22.3581 7.15309 22.6717 7.37347 22.8381L7.97604 22.04ZM10.0049 24.8249C10.2253 24.9913 10.5388 24.9475 10.7052 24.7272C10.8716 24.5068 10.8279 24.1932 10.6075 24.0269L10.0049 24.8249ZM11.8148 6.55176C11.8148 6.27562 11.5909 6.05176 11.3148 6.05176C11.0387 6.05176 10.8148 6.27562 10.8148 6.55176H11.8148ZM10.8148 8.8192C10.8148 9.09535 11.0387 9.3192 11.3148 9.3192C11.5909 9.3192 11.8148 9.09535 11.8148 8.8192H10.8148ZM5.64948 28.1645C5.64948 27.8884 5.42562 27.6645 5.14948 27.6645C4.87334 27.6645 4.64948 27.8884 4.64948 28.1645H5.64948ZM4.64948 30.9476C4.64948 31.2238 4.87334 31.4476 5.14948 31.4476C5.42562 31.4476 5.64948 31.2238 5.64948 30.9476H4.64948ZM8.92741 6.4613C8.81463 6.20924 8.51886 6.09633 8.2668 6.20912C8.01474 6.3219 7.90184 6.61767 8.01462 6.86973L8.92741 6.4613ZM9.01563 9.10684C9.12842 9.3589 9.42419 9.4718 9.67625 9.35902C9.92831 9.24623 10.0412 8.95046 9.92842 8.6984L9.01563 9.10684ZM14.4557 6.86973C14.5685 6.61767 14.4556 6.3219 14.2035 6.20912C13.9515 6.09633 13.6557 6.20924 13.5429 6.4613L14.4557 6.86973ZM12.5419 8.6984C12.4291 8.95046 12.542 9.24623 12.7941 9.35902C13.0462 9.4718 13.3419 9.3589 13.4547 9.10684L12.5419 8.6984ZM5.12723 15.3561C5.12723 15.3561 5.12723 15.3561 5.12723 15.3562C5.12723 15.3562 5.12723 15.3562 5.12723 15.3562C5.12723 15.3562 5.12723 15.3562 5.12723 15.3562C5.12723 15.3563 5.12723 15.3563 5.12723 15.3563C5.12723 15.3563 5.12723 15.3563 5.12723 15.3563C5.12723 15.3563 5.12723 15.3564 5.12723 15.3564C5.12723 15.3564 5.12723 15.3564 5.12723 15.3564C5.12723 15.3564 5.12723 15.3565 5.12723 15.3565C5.12723 15.3565 5.12723 15.3565 5.12723 15.3565C5.12723 15.3565 5.12723 15.3565 5.12723 15.3566C5.12723 15.3566 5.12723 15.3566 5.12723 15.3566C5.12723 15.3566 5.12723 15.3566 5.12723 15.3566C5.12723 15.3567 5.12723 15.3567 5.12723 15.3567C5.12723 15.3567 5.12723 15.3567 5.12723 15.3567C5.12723 15.3567 5.12723 15.3568 5.12723 15.3568C5.12723 15.3568 5.12723 15.3568 5.12723 15.3568C5.12723 15.3568 5.12723 15.3569 5.12723 15.3569C5.12723 15.3569 5.12723 15.3569 5.12723 15.3569C5.12723 15.3569 5.12723 15.3569 5.12723 15.357C5.12723 15.357 5.12723 15.357 5.12723 15.357C5.12723 15.357 5.12723 15.357 5.12723 15.357C5.12723 15.3571 5.12723 15.3571 5.12723 15.3571C5.12723 15.3571 5.12723 15.3571 5.12723 15.3571C5.12723 15.3571 5.12723 15.3572 5.12723 15.3572C5.12723 15.3572 5.12723 15.3572 5.12723 15.3572C5.12723 15.3572 5.12723 15.3573 5.12723 15.3573C5.12723 15.3573 5.12723 15.3573 5.12723 15.3573C5.12723 15.3573 5.12723 15.3573 5.12723 15.3574C5.12723 15.3574 5.12723 15.3574 5.12723 15.3574C5.12723 15.3574 5.12723 15.3574 5.12723 15.3574C5.12723 15.3575 5.12723 15.3575 5.12723 15.3575C5.12723 15.3575 5.12723 15.3575 5.12723 15.3575C5.12723 15.3575 5.12723 15.3576 5.12723 15.3576C5.12723 15.3576 5.12723 15.3576 5.12723 15.3576C5.12723 15.3576 5.12723 15.3577 5.12723 15.3577C5.12723 15.3577 5.12723 15.3577 5.12723 15.3577C5.12723 15.3577 5.12723 15.3577 5.12723 15.3578C5.12723 15.3578 5.12723 15.3578 5.12723 15.3578C5.12723 15.3578 5.12723 15.3578 5.12723 15.3578C5.12723 15.3579 5.12723 15.3579 5.12723 15.3579C5.12723 15.3579 5.12723 15.3579 5.12723 15.3579C5.12723 15.3579 5.12723 15.358 5.12723 15.358C5.12723 15.358 5.12723 15.358 5.12723 15.358C5.12723 15.358 5.12723 15.358 5.12723 15.3581C5.12723 15.3581 5.12723 15.3581 5.12723 15.3581C5.12723 15.3581 5.12723 15.3581 5.12723 15.3582C5.12723 15.3582 5.12723 15.3582 5.12723 15.3582C5.12723 15.3582 5.12723 15.3582 5.12723 15.3582C5.12723 15.3583 5.12723 15.3583 5.12723 15.3583C5.12723 15.3583 5.12723 15.3583 5.12723 15.3583C5.12723 15.3583 5.12723 15.3584 5.12723 15.3584C5.12723 15.3584 5.12723 15.3584 5.12723 15.3584C5.12723 15.3584 5.12723 15.3584 5.12723 15.3585C5.12723 15.3585 5.12723 15.3585 5.12723 15.3585C5.12723 15.3585 5.12723 15.3585 5.12723 15.3586C5.12723 15.3586 5.12723 15.3586 5.12723 15.3586C5.12723 15.3586 5.12723 15.3586 5.12723 15.3586C5.12723 15.3587 5.12723 15.3587 5.12723 15.3587C5.12723 15.3587 5.12723 15.3587 5.12723 15.3587C5.12723 15.3587 5.12723 15.3588 5.12723 15.3588C5.12723 15.3588 5.12723 15.3588 5.12723 15.3588C5.12723 15.3588 5.12723 15.3588 5.12723 15.3589C5.12723 15.3589 5.12723 15.3589 5.12723 15.3589C5.12723 15.3589 5.12723 15.3589 5.12723 15.359C5.12723 15.359 5.12723 15.359 5.12723 15.359C5.12723 15.359 5.12723 15.359 5.12723 15.359C5.12723 15.3591 5.12723 15.3591 5.12723 15.3591C5.12723 15.3591 5.12723 15.3591 5.12723 15.3591C5.12723 15.3591 5.12723 15.3592 5.12723 15.3592C5.12723 15.3592 5.12723 15.3592 5.12723 15.3592C5.12723 15.3592 5.12723 15.3592 5.12723 15.3593C5.12723 15.3593 5.12723 15.3593 5.12723 15.3593C5.12723 15.3593 5.12723 15.3593 5.12723 15.3594C5.12723 15.3594 5.12723 15.3594 5.12723 15.3594C5.12723 15.3594 5.12723 15.3594 5.12723 15.3594C5.12723 15.3595 5.12723 15.3595 5.12723 15.3595C5.12723 15.3595 5.12723 15.3595 5.12723 15.3595C5.12723 15.3595 5.12723 15.3596 5.12723 15.3596C5.12723 15.3596 5.12723 15.3596 5.12723 15.3596C5.12723 15.3596 5.12723 15.3596 5.12723 15.3597C5.12723 15.3597 5.12723 15.3597 5.12723 15.3597C5.12723 15.3597 5.12723 15.3597 5.12723 15.3598C5.12723 15.3598 5.12723 15.3598 5.12723 15.3598C5.12723 15.3598 5.12723 15.3598 5.12723 15.3598C5.12723 15.3599 5.12723 15.3599 5.12723 15.3599C5.12723 15.3599 5.12723 15.3599 5.12723 15.3599C5.12723 15.3599 5.12723 15.36 5.12723 15.36C5.12723 15.36 5.12723 15.36 5.12723 15.36C5.12723 15.36 5.12723 15.36 5.12723 15.3601C5.12723 15.3601 5.12723 15.3601 5.12723 15.3601C5.12723 15.3601 5.12723 15.3601 5.12723 15.3602C5.12723 15.3602 5.12723 15.3602 5.12723 15.3602C5.12723 15.3602 5.12723 15.3602 5.12723 15.3602C5.12723 15.3603 5.12723 15.3603 5.12723 15.3603C5.12723 15.3603 5.12723 15.3603 5.12723 15.3603C5.12723 15.3603 5.12723 15.3604 5.12723 15.3604C5.12723 15.3604 5.12723 15.3604 5.12723 15.3604C5.12723 15.3604 5.12723 15.3604 5.12723 15.3605C5.12723 15.3605 5.12723 15.3605 5.12723 15.3605C5.12723 15.3605 5.12723 15.3605 5.12723 15.3606C5.12723 15.3606 5.12723 15.3606 5.12723 15.3606C5.12723 15.3606 5.12723 15.3606 5.12723 15.3606C5.12723 15.3607 5.12723 15.3607 5.12723 15.3607C5.12723 15.3607 5.12723 15.3607 5.12723 15.3607C5.12723 15.3607 5.12723 15.3608 5.12723 15.3608C5.12723 15.3608 5.12723 15.3608 5.12723 15.3608C5.12723 15.3608 5.12723 15.3608 5.12723 15.3609C5.12723 15.3609 5.12723 15.3609 5.12723 15.3609C5.12723 15.3609 5.12723 15.3609 5.12723 15.361C5.12723 15.361 5.12723 15.361 5.12723 15.361C5.12723 15.361 5.12723 15.361 5.12723 15.361C5.12723 15.3611 5.12723 15.3611 5.12723 15.3611C5.12723 15.3611 5.12723 15.3611 5.12723 15.3611C5.12723 15.3611 5.12723 15.3612 5.12723 15.3612C5.12723 15.3612 5.12723 15.3612 5.12723 15.3612C5.12723 15.3612 5.12723 15.3612 5.12723 15.3613C5.12723 15.3613 5.12723 15.3613 5.12723 15.3613C5.12723 15.3613 5.12723 15.3613 5.12723 15.3614C5.12723 15.3614 5.12723 15.3614 5.12723 15.3614C5.12723 15.3614 5.12723 15.3614 5.12723 15.3614C5.12723 15.3615 5.12723 15.3615 5.12723 15.3615C5.12723 15.3615 5.12723 15.3615 5.12723 15.3615C5.12723 15.3615 5.12723 15.3616 5.12723 15.3616C5.12723 15.3616 5.12723 15.3616 5.12723 15.3616C5.12723 15.3616 5.12723 15.3616 5.12723 15.3617C5.12723 15.3617 5.12723 15.3617 5.12723 15.3617C5.12723 15.3617 5.12723 15.3617 5.12723 15.3618C5.12723 15.3618 5.12723 15.3618 5.12723 15.3618C5.12723 15.3618 5.12723 15.3618 5.12723 15.3618C5.12723 15.3619 5.12723 15.3619 5.12723 15.3619C5.12723 15.3619 5.12723 15.3619 5.12723 15.3619C5.12723 15.3619 5.12723 15.362 5.12723 15.362C5.12723 15.362 5.12723 15.362 5.12723 15.362C5.12723 15.362 5.12723 15.362 5.12723 15.3621C5.12723 15.3621 5.12723 15.3621 5.12723 15.3621C5.12723 15.3621 5.12723 15.3621 5.12723 15.3622C5.12723 15.3622 5.12723 15.3622 5.12723 15.3622C5.12723 15.3622 5.12723 15.3622 5.12723 15.3622C5.12723 15.3623 5.12723 15.3623 5.12723 15.3623C5.12723 15.3623 5.12723 15.3623 5.12723 15.3623C5.12723 15.3623 5.12723 15.3624 5.12723 15.3624C5.12723 15.3624 5.12723 15.3624 5.12723 15.3624C5.12723 15.3624 5.12723 15.3624 5.12723 15.3625C5.12723 15.3625 5.12723 15.3625 5.12723 15.3625C5.12723 15.3625 5.12723 15.3625 5.12723 15.3626C5.12723 15.3626 5.12723 15.3626 5.12723 15.3626C5.12723 15.3626 5.12723 15.3626 5.12723 15.3626C5.12723 15.3627 5.12723 15.3627 5.12723 15.3627C5.12723 15.3627 5.12723 15.3627 5.12723 15.3627C5.12723 15.3627 5.12723 15.3628 5.12723 15.3628C5.12723 15.3628 5.12723 15.3628 5.12723 15.3628C5.12723 15.3628 5.12723 15.3628 5.12723 15.3629C5.12723 15.3629 5.12723 15.3629 5.12723 15.3629C5.12723 15.3629 5.12723 15.3629 5.12723 15.363C5.12723 15.363 5.12723 15.363 5.12723 15.363C5.12723 15.363 5.12723 15.363 5.12723 15.363C5.12723 15.3631 5.12723 15.3631 5.12723 15.3631C5.12723 15.3631 5.12723 15.3631 5.12723 15.3631C5.12723 15.3631 5.12723 15.3632 5.12723 15.3632C5.12723 15.3632 5.12723 15.3632 5.12723 15.3632C5.12723 15.3632 5.12723 15.3632 5.12723 15.3633C5.12723 15.3633 5.12723 15.3633 5.12723 15.3633C5.12723 15.3633 5.12723 15.3633 5.12723 15.3634C5.12723 15.3634 5.12723 15.3634 5.12723 15.3634C5.12723 15.3634 5.12723 15.3634 5.12723 15.3634C5.12723 15.3635 5.12723 15.3635 5.12723 15.3635C5.12723 15.3635 5.12723 15.3635 5.12723 15.3635C5.12723 15.3635 5.12723 15.3636 5.12723 15.3636C5.12723 15.3636 5.12723 15.3636 5.12723 15.3636C5.12723 15.3636 5.12723 15.3636 5.12723 15.3637C5.12723 15.3637 5.12723 15.3637 5.12723 15.3637C5.12723 15.3637 5.12723 15.3637 5.12723 15.3638C5.12723 15.3638 5.12723 15.3638 5.12723 15.3638C5.12723 15.3638 5.12723 15.3638 5.12723 15.3638C5.12723 15.3639 5.12723 15.3639 5.12723 15.3639C5.12723 15.3639 5.12723 15.3639 5.12723 15.3639C5.12723 15.3639 5.12723 15.364 5.12723 15.364C5.12723 15.364 5.12723 15.364 5.12723 15.364C5.12723 15.364 5.12723 15.364 5.12723 15.3641C5.12723 15.3641 5.12723 15.3641 5.12723 15.3641C5.12723 15.3641 5.12723 15.3641 5.12723 15.3642C5.12723 15.3642 5.12723 15.3642 5.12723 15.3642C5.12723 15.3642 5.12723 15.3642 5.12723 15.3642C5.12723 15.3643 5.12723 15.3643 5.12723 15.3643C5.12723 15.3643 5.12723 15.3643 5.12723 15.3643C5.12723 15.3643 5.12723 15.3644 5.12723 15.3644C5.12723 15.3644 5.12723 15.3644 5.12723 15.3644C5.12723 15.3644 5.12723 15.3644 5.12723 15.3645C5.12723 15.3645 5.12723 15.3645 5.12723 15.3645C5.12723 15.3645 5.12723 15.3645 5.12723 15.3646C5.12723 15.3646 5.12723 15.3646 5.12723 15.3646C5.12723 15.3646 5.12723 15.3646 5.12723 15.3646C5.12723 15.3647 5.12723 15.3647 5.12723 15.3647C5.12723 15.3647 5.12723 15.3647 5.12723 15.3647C5.12723 15.3647 5.12723 15.3648 5.12723 15.3648C5.12723 15.3648 5.12723 15.3648 5.12723 15.3648C5.12723 15.3648 5.12723 15.3648 5.12723 15.3649C5.12723 15.3649 5.12723 15.3649 5.12723 15.3649C5.12723 15.3649 5.12723 15.3649 5.12723 15.365C5.12723 15.365 5.12723 15.365 5.12723 15.365C5.12723 15.365 5.12723 15.365 5.12723 15.365C5.12723 15.3651 5.12723 15.3651 5.12723 15.3651C5.12723 15.3651 5.12723 15.3651 5.12723 15.3651C5.12723 15.3651 5.12723 15.3652 5.12723 15.3652C5.12723 15.3652 5.12723 15.3652 5.12723 15.3652C5.12723 15.3652 5.12723 15.3652 5.12723 15.3653C5.12723 15.3653 5.12723 15.3653 5.12723 15.3653C5.12723 15.3653 5.12723 15.3653 5.12723 15.3654C5.12723 15.3654 5.12723 15.3654 5.12723 15.3654C5.12723 15.3654 5.12723 15.3654 5.12723 15.3654C5.12723 15.3655 5.12723 15.3655 5.12723 15.3655C5.12723 15.3655 5.12723 15.3655 5.12723 15.3655C5.12723 15.3655 5.12723 15.3656 5.12723 15.3656C5.12723 15.3656 5.12723 15.3656 5.12723 15.3656C5.12723 15.3656 5.12723 15.3656 5.12723 15.3657C5.12723 15.3657 5.12723 15.3657 5.12723 15.3657C5.12723 15.3657 5.12723 15.3657 5.12723 15.3658C5.12723 15.3658 5.12723 15.3658 5.12723 15.3658C5.12723 15.3658 5.12723 15.3658 5.12723 15.3658C5.12723 15.3659 5.12723 15.3659 5.12723 15.3659C5.12723 15.3659 5.12723 15.3659 5.12723 15.3659C5.12723 15.3659 5.12723 15.366 5.12723 15.366C5.12723 15.366 5.12723 15.366 5.12723 15.366C5.12723 15.366 5.12723 15.366 5.12723 15.3661C5.12723 15.3661 5.12723 15.3661 5.12723 15.3661C5.12723 15.3661 5.12723 15.3661 5.12723 15.3662C5.12723 15.3662 5.12723 15.3662 5.12723 15.3662C5.12723 15.3662 5.12723 15.3662 5.12723 15.3662C5.12723 15.3663 5.12723 15.3663 5.12723 15.3663C5.12723 15.3663 5.12723 15.3663 5.12723 15.3663C5.12723 15.3663 5.12723 15.3664 5.12723 15.3664C5.12723 15.3664 5.12723 15.3664 5.12723 15.3664C5.12723 15.3664 5.12723 15.3664 5.12723 15.3665C5.12723 15.3665 5.12723 15.3665 5.12723 15.3665C5.12723 15.3665 5.12723 15.3665 5.12723 15.3666C5.12723 15.3666 5.12723 15.3666 5.12723 15.3666C5.12723 15.3666 5.12723 15.3666 5.12723 15.3666C5.12723 15.3667 5.12723 15.3667 5.12723 15.3667C5.12723 15.3667 5.12723 15.3667 5.12723 15.3667C5.12723 15.3667 5.12723 15.3668 5.12723 15.3668C5.12723 15.3668 5.12723 15.3668 5.12723 15.3668C5.12723 15.3668 5.12723 15.3668 5.12723 15.3669C5.12723 15.3669 5.12723 15.3669 5.12723 15.3669C5.12723 15.3669 5.12723 15.3669 5.12723 15.367C5.12723 15.367 5.12723 15.367 5.12723 15.367C5.12723 15.367 5.12723 15.367 5.12723 15.367C5.12723 15.3671 5.12723 15.3671 5.12723 15.3671C5.12723 15.3671 5.12723 15.3671 5.12723 15.3671C5.12723 15.3671 5.12723 15.3672 5.12723 15.3672C5.12723 15.3672 5.12723 15.3672 5.12723 15.3672C5.12723 15.3672 5.12723 15.3672 5.12723 15.3673C5.12723 15.3673 5.12723 15.3673 5.12723 15.3673C5.12723 15.3673 5.12723 15.3673 5.12723 15.3674C5.12723 15.3674 5.12723 15.3674 5.12723 15.3674C5.12723 15.3674 5.12723 15.3674 5.12723 15.3674C5.12723 15.3675 5.12723 15.3675 5.12723 15.3675C5.12723 15.3675 5.12723 15.3675 5.12723 15.3675C5.12723 15.3675 5.12723 15.3676 5.12723 15.3676C5.12723 15.3676 5.12723 15.3676 5.12723 15.3676C5.12723 15.3676 5.12723 15.3676 5.12723 15.3677C5.12723 15.3677 5.12723 15.3677 5.12723 15.3677C5.12723 15.3677 5.12723 15.3677 5.12723 15.3678C5.12723 15.3678 5.12723 15.3678 5.12723 15.3678C5.12723 15.3678 5.12723 15.3678 5.12723 15.3678C5.12723 15.3679 5.12723 15.3679 5.12723 15.3679C5.12723 15.3679 5.12723 15.3679 5.12723 15.3679C5.12723 15.3679 5.12723 15.368 5.12723 15.368C5.12723 15.368 5.12723 15.368 5.12723 15.368C5.12723 15.368 5.12723 15.368 5.12723 15.3681C5.12723 15.3681 5.12723 15.3681 5.12723 15.3681C5.12723 15.3681 5.12723 15.3681 5.12723 15.3682C5.12723 15.3682 5.12723 15.3682 5.12723 15.3682C5.12723 15.3682 5.12723 15.3682 5.12723 15.3682C5.12723 15.3683 5.12723 15.3683 5.12723 15.3683C5.12723 15.3683 5.12723 15.3683 5.12723 15.3683C5.12723 15.3683 5.12723 15.3684 5.12723 15.3684C5.12723 15.3684 5.12723 15.3684 5.12723 15.3684C5.12723 15.3684 5.12723 15.3684 5.12723 15.3685C5.12723 15.3685 5.12723 15.3685 5.12723 15.3685C5.12723 15.3685 5.12723 15.3685 5.12723 15.3686C5.12723 15.3686 5.12723 15.3686 5.12723 15.3686C5.12723 15.3686 5.12723 15.3686 5.12723 15.3686C5.12723 15.3687 5.12723 15.3687 5.12723 15.3687C5.12723 15.3687 5.12723 15.3687 5.12723 15.3687C5.12723 15.3687 5.12723 15.3688 5.12723 15.3688C5.12723 15.3688 5.12723 15.3688 5.12723 15.3688C5.12723 15.3688 5.12723 15.3688 5.12723 15.3689C5.12723 15.3689 5.12723 15.3689 5.12723 15.3689C5.12723 15.3689 5.12723 15.3689 5.12723 15.369C5.12723 15.369 5.12723 15.369 5.12723 15.369C5.12723 15.369 5.12723 15.369 5.12723 15.369C5.12723 15.3691 5.12723 15.3691 5.12723 15.3691C5.12723 15.3691 5.12723 15.3691 5.12723 15.3691C5.12723 15.3691 5.12723 15.3692 5.12723 15.3692C5.12723 15.3692 5.12723 15.3692 5.12723 15.3692C5.12723 15.3692 5.12723 15.3692 5.12723 15.3693C5.12723 15.3693 5.12723 15.3693 5.12723 15.3693C5.12723 15.3693 5.12723 15.3693 5.12723 15.3694C5.12723 15.3694 5.12723 15.3694 5.12723 15.3694C5.12723 15.3694 5.12723 15.3694 5.12723 15.3694C5.12723 15.3695 5.12723 15.3695 5.12723 15.3695C5.12723 15.3695 5.12723 15.3695 5.12723 15.3695C5.12723 15.3695 5.12723 15.3696 5.12723 15.3696C5.12723 15.3696 5.12723 15.3696 5.12723 15.3696C5.12723 15.3696 5.12723 15.3696 5.12723 15.3697C5.12723 15.3697 5.12723 15.3697 5.12723 15.3697C5.12723 15.3697 5.12723 15.3697 5.12723 15.3698C5.12723 15.3698 5.12723 15.3698 5.12723 15.3698C5.12723 15.3698 5.12723 15.3698 5.12723 15.3698C5.12723 15.3699 5.12723 15.3699 5.12723 15.3699C5.12723 15.3699 5.12723 15.3699 5.12723 15.3699C5.12723 15.3699 5.12723 15.37 5.12723 15.37C5.12723 15.37 5.12723 15.37 5.12723 15.37C5.12723 15.37 5.12723 15.37 5.12723 15.3701C5.12723 15.3701 5.12723 15.3701 5.12723 15.3701C5.12723 15.3701 5.12723 15.3701 5.12723 15.3702C5.12723 15.3702 5.12723 15.3702 5.12723 15.3702C5.12723 15.3702 5.12723 15.3702 5.12723 15.3702C5.12723 15.3703 5.12723 15.3703 5.12723 15.3703C5.12723 15.3703 5.12723 15.3703 5.12723 15.3703C5.12723 15.3703 5.12723 15.3704 5.12723 15.3704C5.12723 15.3704 5.12723 15.3704 5.12723 15.3704C5.12723 15.3704 5.12723 15.3704 5.12723 15.3705C5.12723 15.3705 5.12723 15.3705 5.12723 15.3705C5.12723 15.3705 5.12723 15.3705 5.12723 15.3706C5.12723 15.3706 5.12723 15.3706 5.12723 15.3706C5.12723 15.3706 5.12723 15.3706 5.12723 15.3706C5.12723 15.3707 5.12723 15.3707 5.12723 15.3707C5.12723 15.3707 5.12723 15.3707 5.12723 15.3707C5.12723 15.3707 5.12723 15.3708 5.12723 15.3708C5.12723 15.3708 5.12723 15.3708 5.12723 15.3708C5.12723 15.3708 5.12723 15.3708 5.12723 15.3709C5.12723 15.3709 5.12723 15.3709 5.12723 15.3709C5.12723 15.3709 5.12723 15.3709 5.12723 15.371C5.12723 15.371 5.12723 15.371 5.12723 15.371C5.12723 15.371 5.12723 15.371 5.12723 15.371C5.12723 15.3711 5.12723 15.3711 5.12723 15.3711C5.12723 15.3711 5.12723 15.3711 5.12723 15.3711C5.12723 15.3711 5.12723 15.3712 5.12723 15.3712C5.12723 15.3712 5.12723 15.3712 5.12723 15.3712C5.12723 15.3712 5.12723 15.3712 5.12723 15.3713C5.12723 15.3713 5.12723 15.3713 5.12723 15.3713C5.12723 15.3713 5.12723 15.3713 5.12723 15.3714C5.12723 15.3714 5.12723 15.3714 5.12723 15.3714C5.12723 15.3714 5.12723 15.3714 5.12723 15.3714C5.12723 15.3715 5.12723 15.3715 5.12723 15.3715C5.12723 15.3715 5.12723 15.3715 5.12723 15.3715C5.12723 15.3715 5.12723 15.3716 5.12723 15.3716C5.12723 15.3716 5.12723 15.3716 5.12723 15.3716C5.12723 15.3716 5.12723 15.3716 5.12723 15.3717C5.12723 15.3717 5.12723 15.3717 5.12723 15.3717C5.12723 15.3717 5.12723 15.3717 5.12723 15.3718C5.12723 15.3718 5.12723 15.3718 5.12723 15.3718C5.12723 15.3718 5.12723 15.3718 5.12723 15.3718C5.12723 15.3719 5.12723 15.3719 5.12723 15.3719C5.12723 15.3719 5.12723 15.3719 5.12723 15.3719C5.12723 15.3719 5.12723 15.372 5.12723 15.372C5.12723 15.372 5.12723 15.372 5.12723 15.372C5.12723 15.372 5.12723 15.372 5.12723 15.3721C5.12723 15.3721 5.12723 15.3721 5.12723 15.3721C5.12723 15.3721 5.12723 15.3721 5.12723 15.3722C5.12723 15.3722 5.12723 15.3722 5.12723 15.3722C5.12723 15.3722 5.12723 15.3722 5.12723 15.3722C5.12723 15.3723 5.12723 15.3723 5.12723 15.3723C5.12723 15.3723 5.12723 15.3723 5.12723 15.3723C5.12723 15.3723 5.12723 15.3724 5.12723 15.3724C5.12723 15.3724 5.12723 15.3724 5.12723 15.3724C5.12723 15.3724 5.12723 15.3724 5.12723 15.3725C5.12723 15.3725 5.12723 15.3725 5.12723 15.3725C5.12723 15.3725 5.12723 15.3725 5.12723 15.3726C5.12723 15.3726 5.12723 15.3726 5.12723 15.3726C5.12723 15.3726 5.12723 15.3726 5.12723 15.3726C5.12723 15.3727 5.12723 15.3727 5.12723 15.3727C5.12723 15.3727 5.12723 15.3727 5.12723 15.3727C5.12723 15.3727 5.12723 15.3728 5.12723 15.3728C5.12723 15.3728 5.12723 15.3728 5.12723 15.3728C5.12723 15.3728 5.12723 15.3728 5.12723 15.3729C5.12723 15.3729 5.12723 15.3729 5.12723 15.3729C5.12723 15.3729 5.12723 15.3729 5.12723 15.373C5.12723 15.373 5.12723 15.373 5.12723 15.373C5.12723 15.373 5.12723 15.373 5.12723 15.373C5.12723 15.3731 5.12723 15.3731 5.12723 15.3731C5.12723 15.3731 5.12723 15.3731 5.12723 15.3731C5.12723 15.3731 5.12723 15.3732 5.12723 15.3732C5.12723 15.3732 5.12723 15.3732 5.12723 15.3732C5.12723 15.3732 5.12723 15.3732 5.12723 15.3733C5.12723 15.3733 5.12723 15.3733 5.12723 15.3733C5.12723 15.3733 5.12723 15.3733 5.12723 15.3734C5.12723 15.3734 5.12723 15.3734 5.12723 15.3734C5.12723 15.3734 5.12723 15.3734 5.12723 15.3734C5.12723 15.3735 5.12723 15.3735 5.12723 15.3735C5.12723 15.3735 5.12723 15.3735 5.12723 15.3735C5.12723 15.3735 5.12723 15.3736 5.12723 15.3736C5.12723 15.3736 5.12723 15.3736 5.12723 15.3736C5.12723 15.3736 5.12723 15.3736 5.12723 15.3737C5.12723 15.3737 5.12723 15.3737 5.12723 15.3737C5.12723 15.3737 5.12723 15.3737 5.12723 15.3738C5.12723 15.3738 5.12723 15.3738 5.12723 15.3738C5.12723 15.3738 5.12723 15.3738 5.12723 15.3738C5.12723 15.3739 5.12723 15.3739 5.12723 15.3739C5.12723 15.3739 5.12723 15.3739 5.12723 15.3739C5.12723 15.3739 5.12723 15.374 5.12723 15.374C5.12723 15.374 5.12723 15.374 5.12723 15.374C5.12723 15.374 5.12723 15.374 5.12723 15.3741C5.12723 15.3741 5.12723 15.3741 5.12723 15.3741C5.12723 15.3741 5.12723 15.3741 5.12723 15.3742C5.12723 15.3742 5.12723 15.3742 5.12723 15.3742C5.12723 15.3742 5.12723 15.3742 5.12723 15.3742C5.12723 15.3743 5.12723 15.3743 5.12723 15.3743C5.12723 15.3743 5.12723 15.3743 5.12723 15.3743C5.12723 15.3743 5.12723 15.3744 5.12723 15.3744C5.12723 15.3744 5.12723 15.3744 5.12723 15.3744C5.12723 15.3744 5.12723 15.3744 5.12723 15.3745C5.12723 15.3745 5.12723 15.3745 5.12723 15.3745C5.12723 15.3745 5.12723 15.3745 5.12723 15.3746C5.12723 15.3746 5.12723 15.3746 5.12723 15.3746C5.12723 15.3746 5.12723 15.3746 5.12723 15.3746C5.12723 15.3747 5.12723 15.3747 5.12723 15.3747C5.12723 15.3747 5.12723 15.3747 5.12723 15.3747C5.12723 15.3747 5.12723 15.3748 5.12723 15.3748C5.12723 15.3748 5.12723 15.3748 5.12723 15.3748C5.12723 15.3748 5.12723 15.3748 5.12723 15.3749C5.12723 15.3749 5.12723 15.3749 5.12723 15.3749C5.12723 15.3749 5.12723 15.3749 5.12723 15.375C5.12723 15.375 5.12723 15.375 5.12723 15.375C5.12723 15.375 5.12723 15.375 5.12723 15.375C5.12723 15.3751 5.12723 15.3751 5.12723 15.3751C5.12723 15.3751 5.12723 15.3751 5.12723 15.3751C5.12723 15.3751 5.12723 15.3752 5.12723 15.3752C5.12723 15.3752 5.12723 15.3752 5.12723 15.3752C5.12723 15.3752 5.12723 15.3752 5.12723 15.3753C5.12723 15.3753 5.12723 15.3753 5.12723 15.3753C5.12723 15.3753 5.12723 15.3753 5.12723 15.3754C5.12723 15.3754 5.12723 15.3754 5.12723 15.3754C5.12723 15.3754 5.12723 15.3754 5.12723 15.3754C5.12723 15.3755 5.12723 15.3755 5.12723 15.3755C5.12723 15.3755 5.12723 15.3755 5.12723 15.3755C5.12723 15.3755 5.12723 15.3756 5.12723 15.3756C5.12723 15.3756 5.12723 15.3756 5.12723 15.3756C5.12723 15.3756 5.12723 15.3756 5.12723 15.3757C5.12723 15.3757 5.12723 15.3757 5.12723 15.3757C5.12723 15.3757 5.12723 15.3757 5.12723 15.3758C5.12723 15.3758 5.12723 15.3758 5.12723 15.3758C5.12723 15.3758 5.12723 15.3758 5.12723 15.3758C5.12723 15.3759 5.12723 15.3759 5.12723 15.3759C5.12723 15.3759 5.12723 15.3759 5.12723 15.3759C5.12723 15.3759 5.12723 15.376 5.12723 15.376C5.12723 15.376 5.12723 15.376 5.12723 15.376C5.12723 15.376 5.12723 15.376 5.12723 15.3761C5.12723 15.3761 5.12723 15.3761 5.12723 15.3761C5.12723 15.3761 5.12723 15.3761 5.12723 15.3761C5.12723 15.3762 5.12723 15.3762 5.12723 15.3762C5.12723 15.3762 5.12723 15.3762 5.12723 15.3762C5.12723 15.3763 5.12723 15.3763 5.12723 15.3763C5.12723 15.3763 5.12723 15.3763 5.12723 15.3763C5.12723 15.3763 5.12723 15.3764 5.12723 15.3764C5.12723 15.3764 5.12723 15.3764 5.12723 15.3764C5.12723 15.3764 5.12723 15.3764 5.12723 15.3765C5.12723 15.3765 5.12723 15.3765 5.12723 15.3765C5.12723 15.3765 5.12723 15.3765 5.12723 15.3765C5.12723 15.3766 5.12723 15.3766 5.12723 15.3766C5.12723 15.3766 5.12723 15.3766 5.12723 15.3766C5.12723 15.3767 5.12723 15.3767 5.12723 15.3767C5.12723 15.3767 5.12723 15.3767 5.12723 15.3767C5.12723 15.3767 5.12723 15.3768 5.12723 15.3768C5.12723 15.3768 5.12723 15.3768 5.12723 15.3768C5.12723 15.3768 5.12723 15.3768 5.12723 15.3769C5.12723 15.3769 5.12723 15.3769 5.12723 15.3769C5.12723 15.3769 5.12723 15.3769 5.12723 15.3769C5.12723 15.377 5.12723 15.377 5.12723 15.377C5.12723 15.377 5.12723 15.377 5.12723 15.377C5.12723 15.3771 5.12723 15.3771 5.12723 15.3771C5.12723 15.3771 5.12723 15.3771 5.12723 15.3771C5.12723 15.3771 5.12723 15.3772 5.12723 15.3772C5.12723 15.3772 5.12723 15.3772 5.12723 15.3772C5.12723 15.3772 5.12723 15.3772 5.12723 15.3773C5.12723 15.3773 5.12723 15.3773 5.12723 15.3773C5.12723 15.3773 5.12723 15.3773 5.12723 15.3773C5.12723 15.3774 5.12723 15.3774 5.12723 15.3774C5.12723 15.3774 5.12723 15.3774 5.12723 15.3774C5.12723 15.3775 5.12723 15.3775 5.12723 15.3775C5.12723 15.3775 5.12723 15.3775 5.12723 15.3775C5.12723 15.3775 5.12723 15.3776 5.12723 15.3776C5.12723 15.3776 5.12723 15.3776 5.12723 15.3776C5.12723 15.3776 5.12723 15.3776 5.12723 15.3777C5.12723 15.3777 5.12723 15.3777 5.12723 15.3777C5.12723 15.3777 5.12723 15.3777 5.12723 15.3777C5.12723 15.3778 5.12723 15.3778 5.12723 15.3778C5.12723 15.3778 5.12723 15.3778 5.12723 15.3778C5.12723 15.3779 5.12723 15.3779 5.12723 15.3779C5.12723 15.3779 5.12723 15.3779 5.12723 15.3779C5.12723 15.3779 5.12723 15.378 5.12723 15.378C5.12723 15.378 5.12723 15.378 5.12723 15.378C5.12723 15.378 5.12723 15.378 5.12723 15.3781C5.12723 15.3781 5.12723 15.3781 5.12723 15.3781C5.12723 15.3781 5.12723 15.3781 5.12723 15.3781C5.12723 15.3782 5.12723 15.3782 5.12723 15.3782C5.12723 15.3782 5.12723 15.3782 5.12723 15.3782C5.12723 15.3783 5.12723 15.3783 5.12723 15.3783C5.12723 15.3783 5.12723 15.3783 5.12723 15.3783C5.12723 15.3783 5.12723 15.3784 5.12723 15.3784C5.12723 15.3784 5.12723 15.3784 5.12723 15.3784C5.12723 15.3784 5.12723 15.3784 5.12723 15.3785C5.12723 15.3785 5.12723 15.3785 5.12723 15.3785C5.12723 15.3785 5.12723 15.3785 5.12723 15.3785C5.12723 15.3786 5.12723 15.3786 5.12723 15.3786C5.12723 15.3786 5.12723 15.3786 5.12723 15.3786C5.12723 15.3787 5.12723 15.3787 5.12723 15.3787C5.12723 15.3787 5.12723 15.3787 5.12723 15.3787C5.12723 15.3787 5.12723 15.3788 5.12723 15.3788C5.12723 15.3788 5.12723 15.3788 5.12723 15.3788C5.12723 15.3788 5.12723 15.3788 5.12723 15.3789H6.12723C6.12723 15.3788 6.12723 15.3788 6.12723 15.3788C6.12723 15.3788 6.12723 15.3788 6.12723 15.3788C6.12723 15.3788 6.12723 15.3787 6.12723 15.3787C6.12723 15.3787 6.12723 15.3787 6.12723 15.3787C6.12723 15.3787 6.12723 15.3787 6.12723 15.3786C6.12723 15.3786 6.12723 15.3786 6.12723 15.3786C6.12723 15.3786 6.12723 15.3786 6.12723 15.3785C6.12723 15.3785 6.12723 15.3785 6.12723 15.3785C6.12723 15.3785 6.12723 15.3785 6.12723 15.3785C6.12723 15.3784 6.12723 15.3784 6.12723 15.3784C6.12723 15.3784 6.12723 15.3784 6.12723 15.3784C6.12723 15.3784 6.12723 15.3783 6.12723 15.3783C6.12723 15.3783 6.12723 15.3783 6.12723 15.3783C6.12723 15.3783 6.12723 15.3783 6.12723 15.3782C6.12723 15.3782 6.12723 15.3782 6.12723 15.3782C6.12723 15.3782 6.12723 15.3782 6.12723 15.3781C6.12723 15.3781 6.12723 15.3781 6.12723 15.3781C6.12723 15.3781 6.12723 15.3781 6.12723 15.3781C6.12723 15.378 6.12723 15.378 6.12723 15.378C6.12723 15.378 6.12723 15.378 6.12723 15.378C6.12723 15.378 6.12723 15.3779 6.12723 15.3779C6.12723 15.3779 6.12723 15.3779 6.12723 15.3779C6.12723 15.3779 6.12723 15.3779 6.12723 15.3778C6.12723 15.3778 6.12723 15.3778 6.12723 15.3778C6.12723 15.3778 6.12723 15.3778 6.12723 15.3777C6.12723 15.3777 6.12723 15.3777 6.12723 15.3777C6.12723 15.3777 6.12723 15.3777 6.12723 15.3777C6.12723 15.3776 6.12723 15.3776 6.12723 15.3776C6.12723 15.3776 6.12723 15.3776 6.12723 15.3776C6.12723 15.3776 6.12723 15.3775 6.12723 15.3775C6.12723 15.3775 6.12723 15.3775 6.12723 15.3775C6.12723 15.3775 6.12723 15.3775 6.12723 15.3774C6.12723 15.3774 6.12723 15.3774 6.12723 15.3774C6.12723 15.3774 6.12723 15.3774 6.12723 15.3773C6.12723 15.3773 6.12723 15.3773 6.12723 15.3773C6.12723 15.3773 6.12723 15.3773 6.12723 15.3773C6.12723 15.3772 6.12723 15.3772 6.12723 15.3772C6.12723 15.3772 6.12723 15.3772 6.12723 15.3772C6.12723 15.3772 6.12723 15.3771 6.12723 15.3771C6.12723 15.3771 6.12723 15.3771 6.12723 15.3771C6.12723 15.3771 6.12723 15.3771 6.12723 15.377C6.12723 15.377 6.12723 15.377 6.12723 15.377C6.12723 15.377 6.12723 15.377 6.12723 15.3769C6.12723 15.3769 6.12723 15.3769 6.12723 15.3769C6.12723 15.3769 6.12723 15.3769 6.12723 15.3769C6.12723 15.3768 6.12723 15.3768 6.12723 15.3768C6.12723 15.3768 6.12723 15.3768 6.12723 15.3768C6.12723 15.3768 6.12723 15.3767 6.12723 15.3767C6.12723 15.3767 6.12723 15.3767 6.12723 15.3767C6.12723 15.3767 6.12723 15.3767 6.12723 15.3766C6.12723 15.3766 6.12723 15.3766 6.12723 15.3766C6.12723 15.3766 6.12723 15.3766 6.12723 15.3765C6.12723 15.3765 6.12723 15.3765 6.12723 15.3765C6.12723 15.3765 6.12723 15.3765 6.12723 15.3765C6.12723 15.3764 6.12723 15.3764 6.12723 15.3764C6.12723 15.3764 6.12723 15.3764 6.12723 15.3764C6.12723 15.3764 6.12723 15.3763 6.12723 15.3763C6.12723 15.3763 6.12723 15.3763 6.12723 15.3763C6.12723 15.3763 6.12723 15.3763 6.12723 15.3762C6.12723 15.3762 6.12723 15.3762 6.12723 15.3762C6.12723 15.3762 6.12723 15.3762 6.12723 15.3761C6.12723 15.3761 6.12723 15.3761 6.12723 15.3761C6.12723 15.3761 6.12723 15.3761 6.12723 15.3761C6.12723 15.376 6.12723 15.376 6.12723 15.376C6.12723 15.376 6.12723 15.376 6.12723 15.376C6.12723 15.376 6.12723 15.3759 6.12723 15.3759C6.12723 15.3759 6.12723 15.3759 6.12723 15.3759C6.12723 15.3759 6.12723 15.3759 6.12723 15.3758C6.12723 15.3758 6.12723 15.3758 6.12723 15.3758C6.12723 15.3758 6.12723 15.3758 6.12723 15.3758C6.12723 15.3757 6.12723 15.3757 6.12723 15.3757C6.12723 15.3757 6.12723 15.3757 6.12723 15.3757C6.12723 15.3756 6.12723 15.3756 6.12723 15.3756C6.12723 15.3756 6.12723 15.3756 6.12723 15.3756C6.12723 15.3756 6.12723 15.3755 6.12723 15.3755C6.12723 15.3755 6.12723 15.3755 6.12723 15.3755C6.12723 15.3755 6.12723 15.3755 6.12723 15.3754C6.12723 15.3754 6.12723 15.3754 6.12723 15.3754C6.12723 15.3754 6.12723 15.3754 6.12723 15.3754C6.12723 15.3753 6.12723 15.3753 6.12723 15.3753C6.12723 15.3753 6.12723 15.3753 6.12723 15.3753C6.12723 15.3752 6.12723 15.3752 6.12723 15.3752C6.12723 15.3752 6.12723 15.3752 6.12723 15.3752C6.12723 15.3752 6.12723 15.3751 6.12723 15.3751C6.12723 15.3751 6.12723 15.3751 6.12723 15.3751C6.12723 15.3751 6.12723 15.3751 6.12723 15.375C6.12723 15.375 6.12723 15.375 6.12723 15.375C6.12723 15.375 6.12723 15.375 6.12723 15.375C6.12723 15.3749 6.12723 15.3749 6.12723 15.3749C6.12723 15.3749 6.12723 15.3749 6.12723 15.3749C6.12723 15.3748 6.12723 15.3748 6.12723 15.3748C6.12723 15.3748 6.12723 15.3748 6.12723 15.3748C6.12723 15.3748 6.12723 15.3747 6.12723 15.3747C6.12723 15.3747 6.12723 15.3747 6.12723 15.3747C6.12723 15.3747 6.12723 15.3747 6.12723 15.3746C6.12723 15.3746 6.12723 15.3746 6.12723 15.3746C6.12723 15.3746 6.12723 15.3746 6.12723 15.3746C6.12723 15.3745 6.12723 15.3745 6.12723 15.3745C6.12723 15.3745 6.12723 15.3745 6.12723 15.3745C6.12723 15.3744 6.12723 15.3744 6.12723 15.3744C6.12723 15.3744 6.12723 15.3744 6.12723 15.3744C6.12723 15.3744 6.12723 15.3743 6.12723 15.3743C6.12723 15.3743 6.12723 15.3743 6.12723 15.3743C6.12723 15.3743 6.12723 15.3743 6.12723 15.3742C6.12723 15.3742 6.12723 15.3742 6.12723 15.3742C6.12723 15.3742 6.12723 15.3742 6.12723 15.3742C6.12723 15.3741 6.12723 15.3741 6.12723 15.3741C6.12723 15.3741 6.12723 15.3741 6.12723 15.3741C6.12723 15.374 6.12723 15.374 6.12723 15.374C6.12723 15.374 6.12723 15.374 6.12723 15.374C6.12723 15.374 6.12723 15.3739 6.12723 15.3739C6.12723 15.3739 6.12723 15.3739 6.12723 15.3739C6.12723 15.3739 6.12723 15.3739 6.12723 15.3738C6.12723 15.3738 6.12723 15.3738 6.12723 15.3738C6.12723 15.3738 6.12723 15.3738 6.12723 15.3738C6.12723 15.3737 6.12723 15.3737 6.12723 15.3737C6.12723 15.3737 6.12723 15.3737 6.12723 15.3737C6.12723 15.3736 6.12723 15.3736 6.12723 15.3736C6.12723 15.3736 6.12723 15.3736 6.12723 15.3736C6.12723 15.3736 6.12723 15.3735 6.12723 15.3735C6.12723 15.3735 6.12723 15.3735 6.12723 15.3735C6.12723 15.3735 6.12723 15.3735 6.12723 15.3734C6.12723 15.3734 6.12723 15.3734 6.12723 15.3734C6.12723 15.3734 6.12723 15.3734 6.12723 15.3734C6.12723 15.3733 6.12723 15.3733 6.12723 15.3733C6.12723 15.3733 6.12723 15.3733 6.12723 15.3733C6.12723 15.3732 6.12723 15.3732 6.12723 15.3732C6.12723 15.3732 6.12723 15.3732 6.12723 15.3732C6.12723 15.3732 6.12723 15.3731 6.12723 15.3731C6.12723 15.3731 6.12723 15.3731 6.12723 15.3731C6.12723 15.3731 6.12723 15.3731 6.12723 15.373C6.12723 15.373 6.12723 15.373 6.12723 15.373C6.12723 15.373 6.12723 15.373 6.12723 15.373C6.12723 15.3729 6.12723 15.3729 6.12723 15.3729C6.12723 15.3729 6.12723 15.3729 6.12723 15.3729C6.12723 15.3728 6.12723 15.3728 6.12723 15.3728C6.12723 15.3728 6.12723 15.3728 6.12723 15.3728C6.12723 15.3728 6.12723 15.3727 6.12723 15.3727C6.12723 15.3727 6.12723 15.3727 6.12723 15.3727C6.12723 15.3727 6.12723 15.3727 6.12723 15.3726C6.12723 15.3726 6.12723 15.3726 6.12723 15.3726C6.12723 15.3726 6.12723 15.3726 6.12723 15.3726C6.12723 15.3725 6.12723 15.3725 6.12723 15.3725C6.12723 15.3725 6.12723 15.3725 6.12723 15.3725C6.12723 15.3724 6.12723 15.3724 6.12723 15.3724C6.12723 15.3724 6.12723 15.3724 6.12723 15.3724C6.12723 15.3724 6.12723 15.3723 6.12723 15.3723C6.12723 15.3723 6.12723 15.3723 6.12723 15.3723C6.12723 15.3723 6.12723 15.3723 6.12723 15.3722C6.12723 15.3722 6.12723 15.3722 6.12723 15.3722C6.12723 15.3722 6.12723 15.3722 6.12723 15.3722C6.12723 15.3721 6.12723 15.3721 6.12723 15.3721C6.12723 15.3721 6.12723 15.3721 6.12723 15.3721C6.12723 15.372 6.12723 15.372 6.12723 15.372C6.12723 15.372 6.12723 15.372 6.12723 15.372C6.12723 15.372 6.12723 15.3719 6.12723 15.3719C6.12723 15.3719 6.12723 15.3719 6.12723 15.3719C6.12723 15.3719 6.12723 15.3719 6.12723 15.3718C6.12723 15.3718 6.12723 15.3718 6.12723 15.3718C6.12723 15.3718 6.12723 15.3718 6.12723 15.3718C6.12723 15.3717 6.12723 15.3717 6.12723 15.3717C6.12723 15.3717 6.12723 15.3717 6.12723 15.3717C6.12723 15.3716 6.12723 15.3716 6.12723 15.3716C6.12723 15.3716 6.12723 15.3716 6.12723 15.3716C6.12723 15.3716 6.12723 15.3715 6.12723 15.3715C6.12723 15.3715 6.12723 15.3715 6.12723 15.3715C6.12723 15.3715 6.12723 15.3715 6.12723 15.3714C6.12723 15.3714 6.12723 15.3714 6.12723 15.3714C6.12723 15.3714 6.12723 15.3714 6.12723 15.3714C6.12723 15.3713 6.12723 15.3713 6.12723 15.3713C6.12723 15.3713 6.12723 15.3713 6.12723 15.3713C6.12723 15.3712 6.12723 15.3712 6.12723 15.3712C6.12723 15.3712 6.12723 15.3712 6.12723 15.3712C6.12723 15.3712 6.12723 15.3711 6.12723 15.3711C6.12723 15.3711 6.12723 15.3711 6.12723 15.3711C6.12723 15.3711 6.12723 15.3711 6.12723 15.371C6.12723 15.371 6.12723 15.371 6.12723 15.371C6.12723 15.371 6.12723 15.371 6.12723 15.371C6.12723 15.3709 6.12723 15.3709 6.12723 15.3709C6.12723 15.3709 6.12723 15.3709 6.12723 15.3709C6.12723 15.3708 6.12723 15.3708 6.12723 15.3708C6.12723 15.3708 6.12723 15.3708 6.12723 15.3708C6.12723 15.3708 6.12723 15.3707 6.12723 15.3707C6.12723 15.3707 6.12723 15.3707 6.12723 15.3707C6.12723 15.3707 6.12723 15.3707 6.12723 15.3706C6.12723 15.3706 6.12723 15.3706 6.12723 15.3706C6.12723 15.3706 6.12723 15.3706 6.12723 15.3706C6.12723 15.3705 6.12723 15.3705 6.12723 15.3705C6.12723 15.3705 6.12723 15.3705 6.12723 15.3705C6.12723 15.3704 6.12723 15.3704 6.12723 15.3704C6.12723 15.3704 6.12723 15.3704 6.12723 15.3704C6.12723 15.3704 6.12723 15.3703 6.12723 15.3703C6.12723 15.3703 6.12723 15.3703 6.12723 15.3703C6.12723 15.3703 6.12723 15.3703 6.12723 15.3702C6.12723 15.3702 6.12723 15.3702 6.12723 15.3702C6.12723 15.3702 6.12723 15.3702 6.12723 15.3702C6.12723 15.3701 6.12723 15.3701 6.12723 15.3701C6.12723 15.3701 6.12723 15.3701 6.12723 15.3701C6.12723 15.37 6.12723 15.37 6.12723 15.37C6.12723 15.37 6.12723 15.37 6.12723 15.37C6.12723 15.37 6.12723 15.3699 6.12723 15.3699C6.12723 15.3699 6.12723 15.3699 6.12723 15.3699C6.12723 15.3699 6.12723 15.3699 6.12723 15.3698C6.12723 15.3698 6.12723 15.3698 6.12723 15.3698C6.12723 15.3698 6.12723 15.3698 6.12723 15.3698C6.12723 15.3697 6.12723 15.3697 6.12723 15.3697C6.12723 15.3697 6.12723 15.3697 6.12723 15.3697C6.12723 15.3696 6.12723 15.3696 6.12723 15.3696C6.12723 15.3696 6.12723 15.3696 6.12723 15.3696C6.12723 15.3696 6.12723 15.3695 6.12723 15.3695C6.12723 15.3695 6.12723 15.3695 6.12723 15.3695C6.12723 15.3695 6.12723 15.3695 6.12723 15.3694C6.12723 15.3694 6.12723 15.3694 6.12723 15.3694C6.12723 15.3694 6.12723 15.3694 6.12723 15.3694C6.12723 15.3693 6.12723 15.3693 6.12723 15.3693C6.12723 15.3693 6.12723 15.3693 6.12723 15.3693C6.12723 15.3692 6.12723 15.3692 6.12723 15.3692C6.12723 15.3692 6.12723 15.3692 6.12723 15.3692C6.12723 15.3692 6.12723 15.3691 6.12723 15.3691C6.12723 15.3691 6.12723 15.3691 6.12723 15.3691C6.12723 15.3691 6.12723 15.3691 6.12723 15.369C6.12723 15.369 6.12723 15.369 6.12723 15.369C6.12723 15.369 6.12723 15.369 6.12723 15.369C6.12723 15.3689 6.12723 15.3689 6.12723 15.3689C6.12723 15.3689 6.12723 15.3689 6.12723 15.3689C6.12723 15.3688 6.12723 15.3688 6.12723 15.3688C6.12723 15.3688 6.12723 15.3688 6.12723 15.3688C6.12723 15.3688 6.12723 15.3687 6.12723 15.3687C6.12723 15.3687 6.12723 15.3687 6.12723 15.3687C6.12723 15.3687 6.12723 15.3687 6.12723 15.3686C6.12723 15.3686 6.12723 15.3686 6.12723 15.3686C6.12723 15.3686 6.12723 15.3686 6.12723 15.3686C6.12723 15.3685 6.12723 15.3685 6.12723 15.3685C6.12723 15.3685 6.12723 15.3685 6.12723 15.3685C6.12723 15.3684 6.12723 15.3684 6.12723 15.3684C6.12723 15.3684 6.12723 15.3684 6.12723 15.3684C6.12723 15.3684 6.12723 15.3683 6.12723 15.3683C6.12723 15.3683 6.12723 15.3683 6.12723 15.3683C6.12723 15.3683 6.12723 15.3683 6.12723 15.3682C6.12723 15.3682 6.12723 15.3682 6.12723 15.3682C6.12723 15.3682 6.12723 15.3682 6.12723 15.3682C6.12723 15.3681 6.12723 15.3681 6.12723 15.3681C6.12723 15.3681 6.12723 15.3681 6.12723 15.3681C6.12723 15.368 6.12723 15.368 6.12723 15.368C6.12723 15.368 6.12723 15.368 6.12723 15.368C6.12723 15.368 6.12723 15.3679 6.12723 15.3679C6.12723 15.3679 6.12723 15.3679 6.12723 15.3679C6.12723 15.3679 6.12723 15.3679 6.12723 15.3678C6.12723 15.3678 6.12723 15.3678 6.12723 15.3678C6.12723 15.3678 6.12723 15.3678 6.12723 15.3678C6.12723 15.3677 6.12723 15.3677 6.12723 15.3677C6.12723 15.3677 6.12723 15.3677 6.12723 15.3677C6.12723 15.3676 6.12723 15.3676 6.12723 15.3676C6.12723 15.3676 6.12723 15.3676 6.12723 15.3676C6.12723 15.3676 6.12723 15.3675 6.12723 15.3675C6.12723 15.3675 6.12723 15.3675 6.12723 15.3675C6.12723 15.3675 6.12723 15.3675 6.12723 15.3674C6.12723 15.3674 6.12723 15.3674 6.12723 15.3674C6.12723 15.3674 6.12723 15.3674 6.12723 15.3674C6.12723 15.3673 6.12723 15.3673 6.12723 15.3673C6.12723 15.3673 6.12723 15.3673 6.12723 15.3673C6.12723 15.3672 6.12723 15.3672 6.12723 15.3672C6.12723 15.3672 6.12723 15.3672 6.12723 15.3672C6.12723 15.3672 6.12723 15.3671 6.12723 15.3671C6.12723 15.3671 6.12723 15.3671 6.12723 15.3671C6.12723 15.3671 6.12723 15.3671 6.12723 15.367C6.12723 15.367 6.12723 15.367 6.12723 15.367C6.12723 15.367 6.12723 15.367 6.12723 15.367C6.12723 15.3669 6.12723 15.3669 6.12723 15.3669C6.12723 15.3669 6.12723 15.3669 6.12723 15.3669C6.12723 15.3668 6.12723 15.3668 6.12723 15.3668C6.12723 15.3668 6.12723 15.3668 6.12723 15.3668C6.12723 15.3668 6.12723 15.3667 6.12723 15.3667C6.12723 15.3667 6.12723 15.3667 6.12723 15.3667C6.12723 15.3667 6.12723 15.3667 6.12723 15.3666C6.12723 15.3666 6.12723 15.3666 6.12723 15.3666C6.12723 15.3666 6.12723 15.3666 6.12723 15.3666C6.12723 15.3665 6.12723 15.3665 6.12723 15.3665C6.12723 15.3665 6.12723 15.3665 6.12723 15.3665C6.12723 15.3664 6.12723 15.3664 6.12723 15.3664C6.12723 15.3664 6.12723 15.3664 6.12723 15.3664C6.12723 15.3664 6.12723 15.3663 6.12723 15.3663C6.12723 15.3663 6.12723 15.3663 6.12723 15.3663C6.12723 15.3663 6.12723 15.3663 6.12723 15.3662C6.12723 15.3662 6.12723 15.3662 6.12723 15.3662C6.12723 15.3662 6.12723 15.3662 6.12723 15.3662C6.12723 15.3661 6.12723 15.3661 6.12723 15.3661C6.12723 15.3661 6.12723 15.3661 6.12723 15.3661C6.12723 15.366 6.12723 15.366 6.12723 15.366C6.12723 15.366 6.12723 15.366 6.12723 15.366C6.12723 15.366 6.12723 15.3659 6.12723 15.3659C6.12723 15.3659 6.12723 15.3659 6.12723 15.3659C6.12723 15.3659 6.12723 15.3659 6.12723 15.3658C6.12723 15.3658 6.12723 15.3658 6.12723 15.3658C6.12723 15.3658 6.12723 15.3658 6.12723 15.3658C6.12723 15.3657 6.12723 15.3657 6.12723 15.3657C6.12723 15.3657 6.12723 15.3657 6.12723 15.3657C6.12723 15.3656 6.12723 15.3656 6.12723 15.3656C6.12723 15.3656 6.12723 15.3656 6.12723 15.3656C6.12723 15.3656 6.12723 15.3655 6.12723 15.3655C6.12723 15.3655 6.12723 15.3655 6.12723 15.3655C6.12723 15.3655 6.12723 15.3655 6.12723 15.3654C6.12723 15.3654 6.12723 15.3654 6.12723 15.3654C6.12723 15.3654 6.12723 15.3654 6.12723 15.3654C6.12723 15.3653 6.12723 15.3653 6.12723 15.3653C6.12723 15.3653 6.12723 15.3653 6.12723 15.3653C6.12723 15.3652 6.12723 15.3652 6.12723 15.3652C6.12723 15.3652 6.12723 15.3652 6.12723 15.3652C6.12723 15.3652 6.12723 15.3651 6.12723 15.3651C6.12723 15.3651 6.12723 15.3651 6.12723 15.3651C6.12723 15.3651 6.12723 15.3651 6.12723 15.365C6.12723 15.365 6.12723 15.365 6.12723 15.365C6.12723 15.365 6.12723 15.365 6.12723 15.365C6.12723 15.3649 6.12723 15.3649 6.12723 15.3649C6.12723 15.3649 6.12723 15.3649 6.12723 15.3649C6.12723 15.3648 6.12723 15.3648 6.12723 15.3648C6.12723 15.3648 6.12723 15.3648 6.12723 15.3648C6.12723 15.3648 6.12723 15.3647 6.12723 15.3647C6.12723 15.3647 6.12723 15.3647 6.12723 15.3647C6.12723 15.3647 6.12723 15.3647 6.12723 15.3646C6.12723 15.3646 6.12723 15.3646 6.12723 15.3646C6.12723 15.3646 6.12723 15.3646 6.12723 15.3646C6.12723 15.3645 6.12723 15.3645 6.12723 15.3645C6.12723 15.3645 6.12723 15.3645 6.12723 15.3645C6.12723 15.3644 6.12723 15.3644 6.12723 15.3644C6.12723 15.3644 6.12723 15.3644 6.12723 15.3644C6.12723 15.3644 6.12723 15.3643 6.12723 15.3643C6.12723 15.3643 6.12723 15.3643 6.12723 15.3643C6.12723 15.3643 6.12723 15.3643 6.12723 15.3642C6.12723 15.3642 6.12723 15.3642 6.12723 15.3642C6.12723 15.3642 6.12723 15.3642 6.12723 15.3642C6.12723 15.3641 6.12723 15.3641 6.12723 15.3641C6.12723 15.3641 6.12723 15.3641 6.12723 15.3641C6.12723 15.364 6.12723 15.364 6.12723 15.364C6.12723 15.364 6.12723 15.364 6.12723 15.364C6.12723 15.364 6.12723 15.3639 6.12723 15.3639C6.12723 15.3639 6.12723 15.3639 6.12723 15.3639C6.12723 15.3639 6.12723 15.3639 6.12723 15.3638C6.12723 15.3638 6.12723 15.3638 6.12723 15.3638C6.12723 15.3638 6.12723 15.3638 6.12723 15.3638C6.12723 15.3637 6.12723 15.3637 6.12723 15.3637C6.12723 15.3637 6.12723 15.3637 6.12723 15.3637C6.12723 15.3636 6.12723 15.3636 6.12723 15.3636C6.12723 15.3636 6.12723 15.3636 6.12723 15.3636C6.12723 15.3636 6.12723 15.3635 6.12723 15.3635C6.12723 15.3635 6.12723 15.3635 6.12723 15.3635C6.12723 15.3635 6.12723 15.3635 6.12723 15.3634C6.12723 15.3634 6.12723 15.3634 6.12723 15.3634C6.12723 15.3634 6.12723 15.3634 6.12723 15.3634C6.12723 15.3633 6.12723 15.3633 6.12723 15.3633C6.12723 15.3633 6.12723 15.3633 6.12723 15.3633C6.12723 15.3632 6.12723 15.3632 6.12723 15.3632C6.12723 15.3632 6.12723 15.3632 6.12723 15.3632C6.12723 15.3632 6.12723 15.3631 6.12723 15.3631C6.12723 15.3631 6.12723 15.3631 6.12723 15.3631C6.12723 15.3631 6.12723 15.3631 6.12723 15.363C6.12723 15.363 6.12723 15.363 6.12723 15.363C6.12723 15.363 6.12723 15.363 6.12723 15.363C6.12723 15.3629 6.12723 15.3629 6.12723 15.3629C6.12723 15.3629 6.12723 15.3629 6.12723 15.3629C6.12723 15.3628 6.12723 15.3628 6.12723 15.3628C6.12723 15.3628 6.12723 15.3628 6.12723 15.3628C6.12723 15.3628 6.12723 15.3627 6.12723 15.3627C6.12723 15.3627 6.12723 15.3627 6.12723 15.3627C6.12723 15.3627 6.12723 15.3627 6.12723 15.3626C6.12723 15.3626 6.12723 15.3626 6.12723 15.3626C6.12723 15.3626 6.12723 15.3626 6.12723 15.3626C6.12723 15.3625 6.12723 15.3625 6.12723 15.3625C6.12723 15.3625 6.12723 15.3625 6.12723 15.3625C6.12723 15.3624 6.12723 15.3624 6.12723 15.3624C6.12723 15.3624 6.12723 15.3624 6.12723 15.3624C6.12723 15.3624 6.12723 15.3623 6.12723 15.3623C6.12723 15.3623 6.12723 15.3623 6.12723 15.3623C6.12723 15.3623 6.12723 15.3623 6.12723 15.3622C6.12723 15.3622 6.12723 15.3622 6.12723 15.3622C6.12723 15.3622 6.12723 15.3622 6.12723 15.3622C6.12723 15.3621 6.12723 15.3621 6.12723 15.3621C6.12723 15.3621 6.12723 15.3621 6.12723 15.3621C6.12723 15.362 6.12723 15.362 6.12723 15.362C6.12723 15.362 6.12723 15.362 6.12723 15.362C6.12723 15.362 6.12723 15.3619 6.12723 15.3619C6.12723 15.3619 6.12723 15.3619 6.12723 15.3619C6.12723 15.3619 6.12723 15.3619 6.12723 15.3618C6.12723 15.3618 6.12723 15.3618 6.12723 15.3618C6.12723 15.3618 6.12723 15.3618 6.12723 15.3618C6.12723 15.3617 6.12723 15.3617 6.12723 15.3617C6.12723 15.3617 6.12723 15.3617 6.12723 15.3617C6.12723 15.3616 6.12723 15.3616 6.12723 15.3616C6.12723 15.3616 6.12723 15.3616 6.12723 15.3616C6.12723 15.3616 6.12723 15.3615 6.12723 15.3615C6.12723 15.3615 6.12723 15.3615 6.12723 15.3615C6.12723 15.3615 6.12723 15.3615 6.12723 15.3614C6.12723 15.3614 6.12723 15.3614 6.12723 15.3614C6.12723 15.3614 6.12723 15.3614 6.12723 15.3614C6.12723 15.3613 6.12723 15.3613 6.12723 15.3613C6.12723 15.3613 6.12723 15.3613 6.12723 15.3613C6.12723 15.3612 6.12723 15.3612 6.12723 15.3612C6.12723 15.3612 6.12723 15.3612 6.12723 15.3612C6.12723 15.3612 6.12723 15.3611 6.12723 15.3611C6.12723 15.3611 6.12723 15.3611 6.12723 15.3611C6.12723 15.3611 6.12723 15.3611 6.12723 15.361C6.12723 15.361 6.12723 15.361 6.12723 15.361C6.12723 15.361 6.12723 15.361 6.12723 15.361C6.12723 15.3609 6.12723 15.3609 6.12723 15.3609C6.12723 15.3609 6.12723 15.3609 6.12723 15.3609C6.12723 15.3608 6.12723 15.3608 6.12723 15.3608C6.12723 15.3608 6.12723 15.3608 6.12723 15.3608C6.12723 15.3608 6.12723 15.3607 6.12723 15.3607C6.12723 15.3607 6.12723 15.3607 6.12723 15.3607C6.12723 15.3607 6.12723 15.3607 6.12723 15.3606C6.12723 15.3606 6.12723 15.3606 6.12723 15.3606C6.12723 15.3606 6.12723 15.3606 6.12723 15.3606C6.12723 15.3605 6.12723 15.3605 6.12723 15.3605C6.12723 15.3605 6.12723 15.3605 6.12723 15.3605C6.12723 15.3604 6.12723 15.3604 6.12723 15.3604C6.12723 15.3604 6.12723 15.3604 6.12723 15.3604C6.12723 15.3604 6.12723 15.3603 6.12723 15.3603C6.12723 15.3603 6.12723 15.3603 6.12723 15.3603C6.12723 15.3603 6.12723 15.3603 6.12723 15.3602C6.12723 15.3602 6.12723 15.3602 6.12723 15.3602C6.12723 15.3602 6.12723 15.3602 6.12723 15.3602C6.12723 15.3601 6.12723 15.3601 6.12723 15.3601C6.12723 15.3601 6.12723 15.3601 6.12723 15.3601C6.12723 15.36 6.12723 15.36 6.12723 15.36C6.12723 15.36 6.12723 15.36 6.12723 15.36C6.12723 15.36 6.12723 15.3599 6.12723 15.3599C6.12723 15.3599 6.12723 15.3599 6.12723 15.3599C6.12723 15.3599 6.12723 15.3599 6.12723 15.3598C6.12723 15.3598 6.12723 15.3598 6.12723 15.3598C6.12723 15.3598 6.12723 15.3598 6.12723 15.3598C6.12723 15.3597 6.12723 15.3597 6.12723 15.3597C6.12723 15.3597 6.12723 15.3597 6.12723 15.3597C6.12723 15.3596 6.12723 15.3596 6.12723 15.3596C6.12723 15.3596 6.12723 15.3596 6.12723 15.3596C6.12723 15.3596 6.12723 15.3595 6.12723 15.3595C6.12723 15.3595 6.12723 15.3595 6.12723 15.3595C6.12723 15.3595 6.12723 15.3595 6.12723 15.3594C6.12723 15.3594 6.12723 15.3594 6.12723 15.3594C6.12723 15.3594 6.12723 15.3594 6.12723 15.3594C6.12723 15.3593 6.12723 15.3593 6.12723 15.3593C6.12723 15.3593 6.12723 15.3593 6.12723 15.3593C6.12723 15.3592 6.12723 15.3592 6.12723 15.3592C6.12723 15.3592 6.12723 15.3592 6.12723 15.3592C6.12723 15.3592 6.12723 15.3591 6.12723 15.3591C6.12723 15.3591 6.12723 15.3591 6.12723 15.3591C6.12723 15.3591 6.12723 15.3591 6.12723 15.359C6.12723 15.359 6.12723 15.359 6.12723 15.359C6.12723 15.359 6.12723 15.359 6.12723 15.359C6.12723 15.3589 6.12723 15.3589 6.12723 15.3589C6.12723 15.3589 6.12723 15.3589 6.12723 15.3589C6.12723 15.3588 6.12723 15.3588 6.12723 15.3588C6.12723 15.3588 6.12723 15.3588 6.12723 15.3588C6.12723 15.3588 6.12723 15.3587 6.12723 15.3587C6.12723 15.3587 6.12723 15.3587 6.12723 15.3587C6.12723 15.3587 6.12723 15.3587 6.12723 15.3586C6.12723 15.3586 6.12723 15.3586 6.12723 15.3586C6.12723 15.3586 6.12723 15.3586 6.12723 15.3586C6.12723 15.3585 6.12723 15.3585 6.12723 15.3585C6.12723 15.3585 6.12723 15.3585 6.12723 15.3585C6.12723 15.3584 6.12723 15.3584 6.12723 15.3584C6.12723 15.3584 6.12723 15.3584 6.12723 15.3584C6.12723 15.3584 6.12723 15.3583 6.12723 15.3583C6.12723 15.3583 6.12723 15.3583 6.12723 15.3583C6.12723 15.3583 6.12723 15.3583 6.12723 15.3582C6.12723 15.3582 6.12723 15.3582 6.12723 15.3582C6.12723 15.3582 6.12723 15.3582 6.12723 15.3582C6.12723 15.3581 6.12723 15.3581 6.12723 15.3581C6.12723 15.3581 6.12723 15.3581 6.12723 15.3581C6.12723 15.358 6.12723 15.358 6.12723 15.358C6.12723 15.358 6.12723 15.358 6.12723 15.358C6.12723 15.358 6.12723 15.3579 6.12723 15.3579C6.12723 15.3579 6.12723 15.3579 6.12723 15.3579C6.12723 15.3579 6.12723 15.3579 6.12723 15.3578C6.12723 15.3578 6.12723 15.3578 6.12723 15.3578C6.12723 15.3578 6.12723 15.3578 6.12723 15.3578C6.12723 15.3577 6.12723 15.3577 6.12723 15.3577C6.12723 15.3577 6.12723 15.3577 6.12723 15.3577C6.12723 15.3577 6.12723 15.3576 6.12723 15.3576C6.12723 15.3576 6.12723 15.3576 6.12723 15.3576C6.12723 15.3576 6.12723 15.3575 6.12723 15.3575C6.12723 15.3575 6.12723 15.3575 6.12723 15.3575C6.12723 15.3575 6.12723 15.3575 6.12723 15.3574C6.12723 15.3574 6.12723 15.3574 6.12723 15.3574C6.12723 15.3574 6.12723 15.3574 6.12723 15.3574C6.12723 15.3573 6.12723 15.3573 6.12723 15.3573C6.12723 15.3573 6.12723 15.3573 6.12723 15.3573C6.12723 15.3573 6.12723 15.3572 6.12723 15.3572C6.12723 15.3572 6.12723 15.3572 6.12723 15.3572C6.12723 15.3572 6.12723 15.3571 6.12723 15.3571C6.12723 15.3571 6.12723 15.3571 6.12723 15.3571C6.12723 15.3571 6.12723 15.3571 6.12723 15.357C6.12723 15.357 6.12723 15.357 6.12723 15.357C6.12723 15.357 6.12723 15.357 6.12723 15.357C6.12723 15.3569 6.12723 15.3569 6.12723 15.3569C6.12723 15.3569 6.12723 15.3569 6.12723 15.3569C6.12723 15.3569 6.12723 15.3568 6.12723 15.3568C6.12723 15.3568 6.12723 15.3568 6.12723 15.3568C6.12723 15.3568 6.12723 15.3567 6.12723 15.3567C6.12723 15.3567 6.12723 15.3567 6.12723 15.3567C6.12723 15.3567 6.12723 15.3567 6.12723 15.3566C6.12723 15.3566 6.12723 15.3566 6.12723 15.3566C6.12723 15.3566 6.12723 15.3566 6.12723 15.3566C6.12723 15.3565 6.12723 15.3565 6.12723 15.3565C6.12723 15.3565 6.12723 15.3565 6.12723 15.3565C6.12723 15.3565 6.12723 15.3564 6.12723 15.3564C6.12723 15.3564 6.12723 15.3564 6.12723 15.3564C6.12723 15.3564 6.12723 15.3563 6.12723 15.3563C6.12723 15.3563 6.12723 15.3563 6.12723 15.3563C6.12723 15.3563 6.12723 15.3563 6.12723 15.3562C6.12723 15.3562 6.12723 15.3562 6.12723 15.3562C6.12723 15.3562 6.12723 15.3562 6.12723 15.3562C6.12723 15.3561 6.12723 15.3561 6.12723 15.3561H5.12723ZM5.12724 15.3888C5.14369 18.843 7.91673 21.6574 11.3603 21.6574V20.6574C8.4793 20.6574 6.14111 18.3 6.12723 15.3841L5.12724 15.3888ZM11.3603 21.6574C14.8034 21.6574 17.5934 18.8353 17.5934 15.3637H16.5934C16.5934 18.2925 14.2417 20.6574 11.3603 20.6574V21.6574ZM17.5934 15.3637V11.8981H16.5934V15.3637H17.5934ZM17.1554 11.4019C15.2461 11.1633 10.2797 10.8416 5.56942 11.463L5.70021 12.4544C10.3023 11.8473 15.1793 12.1627 17.0313 12.3942L17.1554 11.4019ZM5.13482 11.9587V15.3864H6.13482V11.9587H5.13482ZM5.63482 14.8864H5.62723V15.8864H5.63482V14.8864ZM6.09142 11.9719L6.64501 8.26361L5.65597 8.11596L5.10238 11.8243L6.09142 11.9719ZM6.39126 7.75158C5.80817 7.43119 5.36838 6.9139 5.15169 6.2893L4.20693 6.61707C4.5059 7.47882 5.11263 8.19004 5.90972 8.628L6.39126 7.75158ZM5.15169 6.2893C4.93603 5.6677 4.96697 4.98704 5.23519 4.38033L4.32059 3.97598C3.95181 4.81013 3.90691 5.75231 4.20693 6.61707L5.15169 6.2893ZM5.23519 4.38033C5.50455 3.77107 5.98297 3.28881 6.5837 3.02954L6.18745 2.1114C5.34734 2.47398 4.68824 3.1444 4.32059 3.97598L5.23519 4.38033ZM6.58775 3.02778C7.19131 2.76094 7.87356 2.73445 8.50104 2.94574L8.82017 1.99803C7.96129 1.70882 7.0207 1.743 6.1834 2.11317L6.58775 3.02778ZM9.06951 2.75964C9.31482 2.41103 9.63421 2.12564 9.99749 1.93774L9.53807 1.04952C9.02168 1.31662 8.58272 1.71374 8.2517 2.18414L9.06951 2.75964ZM10.0035 1.93459C10.3694 1.73901 10.7812 1.63721 11.201 1.63721V0.637207C10.6199 0.637207 10.0458 0.778076 9.53209 1.05266L10.0035 1.93459ZM11.201 1.63721C11.6209 1.63721 12.0327 1.73901 12.3986 1.93459L12.87 1.05266C12.3563 0.778077 11.7822 0.637207 11.201 0.637207V1.63721ZM12.3986 1.93459C12.7738 2.1351 13.0975 2.41667 13.329 2.7545L14.154 2.18927C13.8243 1.7081 13.3745 1.32233 12.87 1.05266L12.3986 1.93459ZM13.9054 2.94427C14.527 2.72861 15.2076 2.75955 15.8143 3.02778L16.2187 2.11317C15.3845 1.74439 14.4424 1.69949 13.5776 1.99951L13.9054 2.94427ZM15.8143 3.02778C16.4529 3.31009 17.025 3.8097 17.2807 4.38792L18.1953 3.98357C17.8139 3.12094 17.021 2.46786 16.2187 2.11317L15.8143 3.02778ZM17.2807 4.38792C17.5475 4.99147 17.574 5.67373 17.3627 6.3012L18.3104 6.62033C18.5996 5.76146 18.5654 4.82086 18.1953 3.98357L17.2807 4.38792ZM17.3642 6.29688C17.1471 6.9225 16.7573 7.3692 16.2409 7.82108L16.8994 8.57366C17.4749 8.07003 18.0103 7.48538 18.3089 6.62465L17.3642 6.29688ZM16.0756 8.27119L16.6292 11.9795L17.6182 11.8318L17.0646 8.12355L16.0756 8.27119ZM5.66021 12.6821C5.40607 12.6128 5.14934 12.6156 4.90676 12.6683L5.11919 13.6455C5.22545 13.6224 5.31755 13.6252 5.39709 13.6469L5.66021 12.6821ZM4.90217 12.6694C4.67494 12.721 4.45101 12.8158 4.24621 12.9667L4.8394 13.7718C4.92277 13.7104 5.01734 13.6687 5.12379 13.6445L4.90217 12.6694ZM4.23583 12.9746C4.04325 13.1244 3.88031 13.3184 3.7695 13.54L4.66393 13.9872C4.7048 13.9055 4.76936 13.8265 4.84978 13.7639L4.23583 12.9746ZM3.7695 13.54C3.66225 13.7545 3.59538 14.005 3.59538 14.2641H4.59538C4.59538 14.1744 4.61952 14.076 4.66393 13.9872L3.7695 13.54ZM3.59538 14.2641C3.59538 14.5085 3.648 14.7529 3.74559 14.9698L4.65751 14.5594C4.6186 14.473 4.59538 14.3685 4.59538 14.2641H3.59538ZM3.75012 14.9796C3.85667 15.2033 4.01018 15.4034 4.21308 15.5612L4.82702 14.7719C4.75693 14.7173 4.6981 14.6444 4.65298 14.5497L3.75012 14.9796ZM4.21308 15.5612C4.3953 15.7029 4.62004 15.8244 4.87183 15.8816L5.09345 14.9065C5.01158 14.8879 4.91782 14.8425 4.82702 14.7719L4.21308 15.5612ZM4.87183 15.8816C5.11254 15.9363 5.35456 15.9341 5.58399 15.8942L5.41265 14.909C5.29323 14.9298 5.18641 14.9276 5.09345 14.9065L4.87183 15.8816ZM17.3159 13.6469C17.3955 13.6252 17.4876 13.6224 17.5938 13.6455L17.8063 12.6683C17.5637 12.6156 17.3069 12.6128 17.0528 12.6821L17.3159 13.6469ZM17.5892 13.6445C17.6957 13.6687 17.7902 13.7104 17.8736 13.7718L18.4668 12.9667C18.262 12.8158 18.0381 12.721 17.8108 12.6694L17.5892 13.6445ZM17.8632 13.7639C17.9437 13.8265 18.0082 13.9055 18.0491 13.9872L18.9435 13.54C18.8327 13.3184 18.6698 13.1244 18.4772 12.9746L17.8632 13.7639ZM18.0491 13.9872C18.0935 14.076 18.1176 14.1744 18.1176 14.2641H19.1176C19.1176 14.005 19.0508 13.7545 18.9435 13.54L18.0491 13.9872ZM18.1176 14.2641C18.1176 14.3685 18.0944 14.473 18.0555 14.5594L18.9674 14.9698C19.065 14.7529 19.1176 14.5085 19.1176 14.2641H18.1176ZM18.06 14.5497C18.0149 14.6444 17.9561 14.7173 17.886 14.7719L18.4999 15.5612C18.7028 15.4034 18.8563 15.2033 18.9629 14.9796L18.06 14.5497ZM17.886 14.7719C17.7952 14.8425 17.7014 14.8879 17.6196 14.9065L17.8412 15.8816C18.093 15.8244 18.3177 15.7029 18.4999 15.5612L17.886 14.7719ZM17.6196 14.9065C17.5266 14.9276 17.4198 14.9298 17.3004 14.909L17.129 15.8942C17.3585 15.9341 17.6005 15.9363 17.8412 15.8816L17.6196 14.9065ZM11.9114 17.1878C11.7483 17.2795 11.553 17.3283 11.3603 17.3283V18.3283C11.7136 18.3283 12.0795 18.2406 12.4017 18.0593L11.9114 17.1878ZM11.3603 17.3283C11.1612 17.3283 10.9733 17.2801 10.8092 17.1878L10.3189 18.0593C10.6401 18.24 10.9982 18.3283 11.3603 18.3283V17.3283ZM8.25919 14.2793V15.1969H9.25919V14.2793H8.25919ZM20.3623 17.7221V20.2702H21.3623V17.7221H20.3623ZM22.1368 17.7221V20.2702H23.1368V17.7221H22.1368ZM20.7329 26.7161C20.7329 26.6131 20.8124 26.5336 20.9154 26.5336V25.5336C20.2601 25.5336 19.7329 26.0608 19.7329 26.7161H20.7329ZM20.9154 26.5336H23.38V25.5336H20.9154V26.5336ZM23.38 26.5336C24.0291 26.5336 24.5484 27.0529 24.5484 27.7019H25.5484C25.5484 26.5006 24.5813 25.5336 23.38 25.5336V26.5336ZM24.5484 27.7019V29.1959H25.5484V27.7019H24.5484ZM24.5484 29.1959C24.5484 29.8388 24.0276 30.3642 23.38 30.3642V31.3642C24.5828 31.3642 25.5484 30.3881 25.5484 29.1959H24.5484ZM23.38 30.3642H20.9154V31.3642H23.38V30.3642ZM20.9154 30.3642C20.8124 30.3642 20.7329 30.2847 20.7329 30.1817H19.7329C19.7329 30.837 20.2601 31.3642 20.9154 31.3642V30.3642ZM20.7329 30.1817V26.7161H19.7329V30.1817H20.7329ZM23.9265 17.7221V20.2702H24.9265V17.7221H23.9265ZM24.4336 26.1701V22.8637H23.4336V26.1701H24.4336ZM24.4336 22.8637C24.4336 22.7228 24.551 22.6054 24.692 22.6054V21.6054C23.9987 21.6054 23.4336 22.1705 23.4336 22.8637H24.4336ZM24.692 22.6054H25.238V21.6054H24.692V22.6054ZM25.238 22.6054C26.0601 22.6054 26.7238 21.9417 26.7238 21.1195H25.7238C25.7238 21.3894 25.5078 21.6054 25.238 21.6054V22.6054ZM26.7238 21.1195V16.9562H25.7238V21.1195H26.7238ZM26.7238 16.9562C26.7238 16.1341 26.0601 15.4704 25.238 15.4704V16.4704C25.5078 16.4704 25.7238 16.6864 25.7238 16.9562H26.7238ZM25.238 15.4704H20.0206V16.4704H25.238V15.4704ZM20.0206 15.4704C19.1984 15.4704 18.5347 16.1341 18.5347 16.9562H19.5347C19.5347 16.6864 19.7507 16.4704 20.0206 16.4704V15.4704ZM18.5347 16.9562V21.1195H19.5347V16.9562H18.5347ZM18.5347 21.1195C18.5347 21.9417 19.1984 22.6054 20.0206 22.6054V21.6054C19.7507 21.6054 19.5347 21.3894 19.5347 21.1195H18.5347ZM20.0206 22.6054H20.5666V21.6054H20.0206V22.6054ZM20.5666 22.6054C20.7075 22.6054 20.8249 22.7228 20.8249 22.8637H21.8249C21.8249 22.1705 21.2598 21.6054 20.5666 21.6054V22.6054ZM20.8249 22.8637V26.1701H21.8249V22.8637H20.8249ZM13.4993 14.2793V15.1969H14.4993V14.2793H13.4993ZM20.7789 30.6372H0.60701V31.6372H20.7789V30.6372ZM1.10701 31.1372V27.1938H0.10701V31.1372H1.10701ZM1.10701 27.1938C1.10701 25.8285 1.96669 24.6147 3.25282 24.1619L2.92076 23.2187C1.23418 23.8124 0.10701 25.4045 0.10701 27.1938H1.10701ZM3.25255 24.162L8.43202 22.342L8.1005 21.3985L2.92103 23.2186L3.25255 24.162ZM8.43912 22.3394C8.69813 22.244 8.91993 22.0526 9.04715 21.7981L8.15272 21.3509C8.14344 21.3695 8.12257 21.3904 8.09341 21.4011L8.43912 22.3394ZM9.04239 21.8074L9.34573 21.231L8.46081 20.7653L8.15748 21.3416L9.04239 21.8074ZM13.5569 21.231L13.8602 21.8074L14.7451 21.3416L14.4418 20.7653L13.5569 21.231ZM13.8555 21.7981C13.9839 22.0551 14.2088 22.2477 14.4787 22.3422L14.8091 21.3983C14.7757 21.3866 14.7579 21.3669 14.7499 21.3509L13.8555 21.7981ZM14.4795 22.3425L19.7272 24.1701L20.0561 23.2257L14.8084 21.3981L14.4795 22.3425ZM19.7289 24.1706C20.1264 24.3075 20.4879 24.5236 20.7991 24.7951L21.4564 24.0415C21.0548 23.6911 20.5821 23.4068 20.0544 23.2251L19.7289 24.1706ZM15.0112 21.7078L9.69523 24.2634L10.1285 25.1647L15.4445 22.6091L15.0112 21.7078ZM9.69725 24.2625C8.75366 24.7109 8.16818 25.6623 8.16818 26.6933H9.16818C9.16818 26.0408 9.53822 25.4452 10.1265 25.1656L9.69725 24.2625ZM8.16818 26.6933V31.1372H9.16818V26.6933H8.16818ZM7.37347 22.8381L10.0049 24.8249L10.6075 24.0269L7.97604 22.04L7.37347 22.8381ZM10.8148 6.55176V8.8192H11.8148V6.55176H10.8148ZM4.64948 28.1645V30.9476H5.64948V28.1645H4.64948ZM8.01462 6.86973L9.01563 9.10684L9.92842 8.6984L8.92741 6.4613L8.01462 6.86973ZM13.5429 6.4613L12.5419 8.6984L13.4547 9.10684L14.4557 6.86973L13.5429 6.4613Z" fill="#23222A"/>
</svg>
