<svg width="39" height="32" viewBox="0 0 39 32" fill="none" xmlns="http://www.w3.org/2000/svg">
<path d="M37.1068 24.6064C37.4526 25.1549 37.6554 25.8108 37.6554 26.5144C37.6554 28.4941 36.0573 30.0921 34.0777 30.0921C32.2174 30.0921 30.679 28.661 30.5239 26.8484M19.8745 26.3713C19.9342 26.6218 19.958 26.8841 19.958 27.1465C19.958 29.1261 18.36 30.7241 16.3804 30.7241C14.4008 30.7241 12.8028 29.1261 12.8028 27.1465C12.8028 26.8603 12.8385 26.586 12.8982 26.3117M18.0142 26.3475C18.1334 26.586 18.193 26.8603 18.193 27.1465C18.193 28.1482 17.3821 28.9592 16.3804 28.9592C15.3786 28.9592 14.5677 28.1482 14.5677 27.1465C14.5677 26.8722 14.6273 26.6098 14.7347 26.3713M29.4387 13.5992L34.2805 21.8874M21.4845 16.3778C21.7468 15.7935 22.4504 14.5771 23.166 14.3505M22.1642 12.2158L22.2119 12.6929C22.3192 13.8616 23.2971 14.756 24.4658 14.756H26.7674C27.161 14.756 27.483 14.434 27.483 14.0404V12.2158M16.607 13.6827C16.9051 12.0727 18.3719 8.9125 21.7945 9.16294C22.6293 9.17486 24.2631 9.6161 24.9548 11.2022C25.1694 11.7031 25.6226 12.0966 26.1712 12.0727L28.3535 11.9893C28.9617 11.9654 29.4745 12.4544 29.4745 13.0626V13.957C28.9736 13.8258 27.9123 13.5276 27.6022 13.6827M29.6892 26.3236H11.3955C10.5608 26.3236 9.98835 25.5008 10.2746 24.7137L11.2405 22.114C11.8964 20.3371 13.5898 19.1564 15.486 19.1564H18.6104C19.6599 19.1564 20.5185 20.0151 20.5185 21.0645V22.2213C20.5185 23.0084 21.1625 23.6523 21.9496 23.6523H27.5426C28.4608 23.6523 29.1406 22.8056 28.9379 21.9112L27.3637 14.9348M2.72576 14.6009H4.89619M3.17893 16.1393H4.88426M1.0562 17.7373H4.89619M16.9051 16.2228L19.8865 16.1155C22.045 16.032 23.8457 17.7731 23.8457 19.9316V23.5689M26.4097 4.92941V6.38431L27.2325 7.37412L26.4097 7.85114L26.3977 7.98232C26.3262 8.94828 25.4437 9.65188 24.4778 9.50877L23.0109 9.28219M35.9023 26.5025C35.9023 27.5036 35.0908 28.3152 34.0897 28.3152C33.0885 28.3152 32.277 27.5036 32.277 26.5025C32.277 25.5014 33.0885 24.6899 34.0897 24.6899C35.0908 24.6899 35.9023 25.5014 35.9023 26.5025ZM26.6005 4.76245C26.8628 4.76245 27.0775 4.54779 27.0536 4.28543C26.9821 3.65338 26.7555 3.04519 26.3977 2.52047C25.9565 1.85264 25.3245 1.33985 24.5851 1.02979C23.8457 0.719727 23.0348 0.648175 22.2477 0.803205C21.4606 0.958236 20.7451 1.33985 20.1727 1.91227C19.6122 2.47277 19.2186 3.20022 19.0636 3.9873C18.9086 4.77437 18.9921 5.5853 19.2902 6.32468C19.6002 7.06406 20.113 7.69611 20.7809 8.13735C21.3175 8.49511 21.9138 8.70977 22.5458 8.79325C22.8082 8.82902 23.0228 8.60244 23.0228 8.34008V6.78977C23.0228 5.66878 23.9292 4.76245 25.0502 4.76245H26.6005ZM32.9806 16.1632C32.9806 16.2705 32.909 16.3659 32.8017 16.3897C32.587 16.4255 32.3724 16.4255 32.1577 16.3897C31.8834 16.342 31.6211 16.2228 31.3945 16.0558C31.1679 15.8889 30.989 15.6742 30.8579 15.4238C30.7267 15.1734 30.6671 14.8991 30.6551 14.6248C30.6551 14.3505 30.7148 14.0643 30.834 13.8139C30.9533 13.5634 31.1321 13.3368 31.3587 13.1699C31.5734 13.0029 31.8357 12.8837 32.11 12.824C32.3247 12.7763 32.5393 12.7763 32.754 12.8121C32.8613 12.824 32.9329 12.9194 32.9329 13.0387V14.6129L32.9806 16.1632ZM37.7746 24.6541C33.2072 23.4496 30.7028 26.2044 30.0827 27.4923C28.9736 23.9862 31.478 22.3763 32.8733 22.0066C35.6161 21.3627 37.2857 23.5092 37.7746 24.6541ZM6.26761 12.3351C6.26761 11.548 6.91159 10.904 7.69867 10.904H15.1878C15.9749 10.904 16.6189 11.548 16.6189 12.3351V19.1207H7.69867C6.91159 19.1207 6.26761 18.4767 6.26761 17.6896V12.3351Z" stroke="#23222A" stroke-linecap="round" stroke-linejoin="round"/>
</svg>
